%TF.GenerationSoftware,KiCad,Pcbnew,8.0.5*%
%TF.CreationDate,2024-11-23T13:55:34+01:00*%
%TF.ProjectId,mesa_mezclas,6d657361-5f6d-4657-9a63-6c61732e6b69,rev?*%
%TF.SameCoordinates,Original*%
%TF.FileFunction,Copper,L2,Bot*%
%TF.FilePolarity,Positive*%
%FSLAX46Y46*%
G04 Gerber Fmt 4.6, Leading zero omitted, Abs format (unit mm)*
G04 Created by KiCad (PCBNEW 8.0.5) date 2024-11-23 13:55:34*
%MOMM*%
%LPD*%
G01*
G04 APERTURE LIST*
%TA.AperFunction,ComponentPad*%
%ADD10R,1.700000X1.700000*%
%TD*%
%TA.AperFunction,ComponentPad*%
%ADD11O,1.700000X1.700000*%
%TD*%
%TA.AperFunction,ViaPad*%
%ADD12C,0.600000*%
%TD*%
%TA.AperFunction,Conductor*%
%ADD13C,0.200000*%
%TD*%
%TA.AperFunction,Conductor*%
%ADD14C,0.500000*%
%TD*%
G04 APERTURE END LIST*
D10*
%TO.P,J5,1,Pin_1*%
%TO.N,Net-(J5-Pin_1)*%
X141925000Y-161725000D03*
D11*
%TO.P,J5,2,Pin_2*%
%TO.N,GND*%
X141925000Y-164265000D03*
%TD*%
D10*
%TO.P,RV5,1,1*%
%TO.N,Net-(C7-Pad2)*%
X106925000Y-135500000D03*
D11*
%TO.P,RV5,2,2*%
%TO.N,Net-(U3A-+)*%
X104385000Y-135500000D03*
%TO.P,RV5,3,3*%
%TO.N,/BALANCE_dj/ENTRADA_dj_ch1*%
X101845000Y-135500000D03*
%TD*%
D10*
%TO.P,J8,1,Pin_1*%
%TO.N,Net-(J8-Pin_1)*%
X103925000Y-164000000D03*
D11*
%TO.P,J8,2,Pin_2*%
%TO.N,GND*%
X101385000Y-164000000D03*
%TO.P,J8,3,Pin_3*%
%TO.N,Net-(J8-Pin_3)*%
X98845000Y-164000000D03*
%TD*%
%TO.P,J3,2,Pin_2*%
%TO.N,GND*%
X160500000Y-104265000D03*
D10*
%TO.P,J3,1,Pin_1*%
%TO.N,/amplificador_auriculares/salida_amplificador_auriculares*%
X160500000Y-101725000D03*
%TD*%
%TO.P,RV7,1,1*%
%TO.N,Net-(C9-Pad2)*%
X138925000Y-136000000D03*
D11*
%TO.P,RV7,2,2*%
%TO.N,GND*%
X136385000Y-136000000D03*
%TO.P,RV7,3,3*%
%TO.N,/BALANCE_dj/ENTRADA_dj_ch1*%
X133845000Y-136000000D03*
%TD*%
D10*
%TO.P,RV2,1,1*%
%TO.N,Net-(R4-Pad1)*%
X117425000Y-150460000D03*
D11*
%TO.P,RV2,2,2*%
%TO.N,Net-(C3-Pad1)*%
X117425000Y-153000000D03*
%TO.P,RV2,3,3*%
%TO.N,Net-(R2-Pad2)*%
X117425000Y-155540000D03*
%TD*%
D10*
%TO.P,RV1,1,1*%
%TO.N,Net-(C2-Pad2)*%
X132925000Y-152000000D03*
D11*
%TO.P,RV1,2,2*%
%TO.N,Net-(R3-Pad1)*%
X132925000Y-154540000D03*
%TO.P,RV1,3,3*%
%TO.N,Net-(C2-Pad1)*%
X132925000Y-157080000D03*
%TD*%
D10*
%TO.P,J2,1,Pin_1*%
%TO.N,Net-(J2-Pin_1)*%
X128925000Y-161725000D03*
D11*
%TO.P,J2,2,Pin_2*%
%TO.N,GND*%
X128925000Y-164265000D03*
%TD*%
D10*
%TO.P,RV8,1,1*%
%TO.N,Net-(C10-Pad2)*%
X154925000Y-136000000D03*
D11*
%TO.P,RV8,2,2*%
%TO.N,Net-(U9A-+)*%
X152385000Y-136000000D03*
%TO.P,RV8,3,3*%
%TO.N,/BALANCE_dj/ENTRADA_dj_ch2*%
X149845000Y-136000000D03*
%TD*%
D10*
%TO.P,RV9,1,1*%
%TO.N,Net-(J1-Pin_1)*%
X102040000Y-117000000D03*
D11*
%TO.P,RV9,2,2*%
%TO.N,Net-(U5A--)*%
X99500000Y-117000000D03*
%TO.P,RV9,3,3*%
%TO.N,/BALANCE_publico/SALIDA_PUBLICO*%
X96960000Y-117000000D03*
%TD*%
D10*
%TO.P,RV6,1,1*%
%TO.N,Net-(C8-Pad2)*%
X122925000Y-135500000D03*
D11*
%TO.P,RV6,2,2*%
%TO.N,Net-(U4A-+)*%
X120385000Y-135500000D03*
%TO.P,RV6,3,3*%
%TO.N,/BALANCE_dj/ENTRADA_dj_ch2*%
X117845000Y-135500000D03*
%TD*%
D10*
%TO.P,J1,1,Pin_1*%
%TO.N,Net-(J1-Pin_1)*%
X92000000Y-104775000D03*
D11*
%TO.P,J1,2,Pin_2*%
%TO.N,GND*%
X92000000Y-102235000D03*
%TD*%
D10*
%TO.P,RV4,1,1*%
%TO.N,Net-(R10-Pad1)*%
X153425000Y-150460000D03*
D11*
%TO.P,RV4,2,2*%
%TO.N,Net-(C6-Pad1)*%
X153425000Y-153000000D03*
%TO.P,RV4,3,3*%
%TO.N,Net-(R7-Pad2)*%
X153425000Y-155540000D03*
%TD*%
D10*
%TO.P,RV3,1,1*%
%TO.N,Net-(C5-Pad2)*%
X137925000Y-152000000D03*
D11*
%TO.P,RV3,2,2*%
%TO.N,Net-(R8-Pad1)*%
X137925000Y-154540000D03*
%TO.P,RV3,3,3*%
%TO.N,Net-(C5-Pad1)*%
X137925000Y-157080000D03*
%TD*%
D12*
%TO.N,Net-(C2-Pad2)*%
X125925000Y-143000000D03*
X126925000Y-146000000D03*
%TO.N,/BALANCE_dj/SALIDA_dj_sin_amplificar*%
X126000000Y-112500000D03*
X137365000Y-116865000D03*
X131000000Y-117500000D03*
X126000000Y-115000000D03*
%TO.N,/amplificador_auriculares/salida_amplificador_auriculares*%
X155000000Y-109500000D03*
%TO.N,GND*%
X152000000Y-117500000D03*
X134425000Y-130000000D03*
X113000000Y-127000000D03*
X124000000Y-119000000D03*
X138925000Y-129000000D03*
X154925000Y-128500000D03*
X140425000Y-128500000D03*
X135925000Y-146000000D03*
X110595000Y-117095000D03*
X121525000Y-128000000D03*
X104915735Y-107084265D03*
X124425000Y-128000000D03*
X140670345Y-112299695D03*
X114000000Y-116000000D03*
X108195000Y-127770000D03*
X137525000Y-128100000D03*
X101175000Y-155250000D03*
X146000000Y-114730000D03*
%TO.N,Net-(C5-Pad2)*%
X144925000Y-149500000D03*
X144925000Y-146000000D03*
%TO.N,Net-(U3A-+)*%
X101925000Y-130000000D03*
%TO.N,Net-(U3B--)*%
X103425000Y-132000000D03*
X106925000Y-131000000D03*
%TO.N,Net-(U4A-+)*%
X118425000Y-130000000D03*
%TO.N,Net-(U4B--)*%
X120425000Y-133000000D03*
X123925000Y-133000000D03*
%TO.N,Net-(C9-Pad2)*%
X136000000Y-122500000D03*
X136000000Y-118500000D03*
%TO.N,Net-(U9A-+)*%
X150425000Y-130000000D03*
%TO.N,Net-(U8B--)*%
X139925000Y-133400000D03*
X136425000Y-133500000D03*
%TO.N,Net-(U9B--)*%
X155925000Y-132500000D03*
X152925000Y-133500000D03*
%TO.N,/BALANCE_dj/ENTRADA_dj_ch1*%
X131925000Y-143000000D03*
%TO.N,-VCC*%
X129925000Y-148000000D03*
X113925000Y-148000000D03*
X103195000Y-127770000D03*
X149925000Y-127500000D03*
X114500000Y-125000000D03*
X133925000Y-127340000D03*
X117925000Y-127300000D03*
X119695000Y-127770000D03*
X135962500Y-126962500D03*
X117000000Y-114000000D03*
X142000000Y-102500000D03*
X146000000Y-113000000D03*
X142000000Y-117500000D03*
X119425000Y-129220000D03*
X106000000Y-110000000D03*
%TO.N,VCC*%
X107885000Y-123960000D03*
X149500000Y-113000000D03*
X145000000Y-122000000D03*
X121425000Y-124000000D03*
X153425000Y-124000000D03*
X94925000Y-152500000D03*
X137425000Y-124000000D03*
X124425000Y-124000000D03*
X140425000Y-124000000D03*
X135452041Y-143972959D03*
%TO.N,Net-(R3-Pad1)*%
X125425000Y-149500000D03*
%TO.N,Net-(U5B-+)*%
X103500000Y-111000000D03*
X103500000Y-108500000D03*
X103500000Y-114500000D03*
X100000000Y-114500000D03*
%TO.N,Net-(D1-K)*%
X142500000Y-110730000D03*
X139000000Y-106230000D03*
%TO.N,Net-(U5A--)*%
X100000000Y-106000000D03*
X97500000Y-114000000D03*
%TO.N,/BALANCE_publico/SALIDA_PUBLICO*%
X114500000Y-111500000D03*
%TO.N,Net-(J1-Pin_1)*%
X101000000Y-104500000D03*
%TO.N,Net-(R8-Pad1)*%
X142425000Y-150000000D03*
%TO.N,Net-(U1A--)*%
X145000000Y-112230000D03*
X148000000Y-105730000D03*
X154500000Y-105730000D03*
X143000000Y-105730000D03*
%TO.N,/amplificador_auriculares/salida_amplificador_auriculares*%
X158000000Y-108000000D03*
%TO.N,GND*%
X156905000Y-127905000D03*
%TD*%
D13*
%TO.N,/amplificador_auriculares/salida_amplificador_auriculares*%
X158000000Y-108000000D02*
X156500000Y-109500000D01*
X156500000Y-109500000D02*
X155000000Y-109500000D01*
%TO.N,Net-(C2-Pad2)*%
X126925000Y-146000000D02*
X126925000Y-144000000D01*
X126925000Y-144000000D02*
X125925000Y-143000000D01*
%TO.N,/BALANCE_dj/SALIDA_dj_sin_amplificar*%
X131000000Y-115500000D02*
X131000000Y-117500000D01*
X126000000Y-115000000D02*
X126000000Y-112500000D01*
X136000000Y-115500000D02*
X131000000Y-115500000D01*
X137365000Y-116865000D02*
X136000000Y-115500000D01*
%TO.N,GND*%
X156905000Y-122405000D02*
X152000000Y-117500000D01*
X140425000Y-128500000D02*
X154925000Y-128500000D01*
X156905000Y-127905000D02*
X156905000Y-122405000D01*
X137425000Y-130500000D02*
X138925000Y-129000000D01*
X129925000Y-128000000D02*
X130425000Y-128500000D01*
D14*
X110190000Y-164265000D02*
X128925000Y-164265000D01*
D13*
X124000000Y-119000000D02*
X120500000Y-119000000D01*
X121425000Y-128000000D02*
X121525000Y-128000000D01*
X130425000Y-128500000D02*
X136925000Y-128500000D01*
X113000000Y-127000000D02*
X113000000Y-127770000D01*
X140670345Y-112299695D02*
X143569695Y-112299695D01*
X135925000Y-146000000D02*
X135925000Y-145500000D01*
X112500000Y-127770000D02*
X113000000Y-127770000D01*
X124425000Y-128000000D02*
X129925000Y-128000000D01*
D14*
X101175000Y-155250000D02*
X110190000Y-164265000D01*
D13*
X120500000Y-119000000D02*
X117500000Y-116000000D01*
X136385000Y-145040000D02*
X136385000Y-136000000D01*
X113000000Y-127770000D02*
X117103529Y-127770000D01*
X136925000Y-128500000D02*
X137425000Y-128000000D01*
X117103529Y-127770000D02*
X117703529Y-128370000D01*
X137425000Y-128000000D02*
X137525000Y-128100000D01*
X110595000Y-117095000D02*
X105000000Y-111500000D01*
X134425000Y-134040000D02*
X134425000Y-130500000D01*
X136385000Y-136000000D02*
X134425000Y-134040000D01*
X143569695Y-112299695D02*
X146000000Y-114730000D01*
X135925000Y-145500000D02*
X136385000Y-145040000D01*
X108195000Y-127770000D02*
X112500000Y-127770000D01*
X105000000Y-111500000D02*
X105000000Y-107000000D01*
X117500000Y-116000000D02*
X114000000Y-116000000D01*
X121055000Y-128370000D02*
X121425000Y-128000000D01*
X105000000Y-107000000D02*
X104915735Y-107084265D01*
X117703529Y-128370000D02*
X121055000Y-128370000D01*
X134425000Y-130500000D02*
X137425000Y-130500000D01*
X134425000Y-130500000D02*
X134425000Y-130000000D01*
%TO.N,Net-(C5-Pad2)*%
X144925000Y-146000000D02*
X144925000Y-149500000D01*
%TO.N,Net-(U3A-+)*%
X101925000Y-130000000D02*
X101925000Y-133040000D01*
X101925000Y-133040000D02*
X104385000Y-135500000D01*
%TO.N,Net-(U3B--)*%
X105925000Y-132000000D02*
X103425000Y-132000000D01*
X106925000Y-131000000D02*
X105925000Y-132000000D01*
%TO.N,Net-(U4A-+)*%
X118425000Y-133540000D02*
X118425000Y-130000000D01*
X120385000Y-135500000D02*
X118425000Y-133540000D01*
%TO.N,Net-(U4B--)*%
X123925000Y-133000000D02*
X120425000Y-133000000D01*
%TO.N,Net-(C9-Pad2)*%
X136000000Y-118500000D02*
X136000000Y-122500000D01*
%TO.N,Net-(U9A-+)*%
X150425000Y-134040000D02*
X150425000Y-130000000D01*
X152385000Y-136000000D02*
X150425000Y-134040000D01*
%TO.N,Net-(U8B--)*%
X136425000Y-133500000D02*
X139925000Y-133500000D01*
X139925000Y-133500000D02*
X139925000Y-133400000D01*
%TO.N,Net-(U9B--)*%
X154925000Y-133500000D02*
X152925000Y-133500000D01*
X155925000Y-132500000D02*
X154925000Y-133500000D01*
%TO.N,/BALANCE_dj/ENTRADA_dj_ch1*%
X131925000Y-143000000D02*
X134925000Y-140000000D01*
X134925000Y-140000000D02*
X134925000Y-137080000D01*
X134925000Y-137080000D02*
X133845000Y-136000000D01*
%TO.N,-VCC*%
X135962500Y-126962500D02*
X142000000Y-120925000D01*
X114425000Y-134000000D02*
X114425000Y-148000000D01*
X146000000Y-106500000D02*
X146000000Y-113000000D01*
X120465000Y-127000000D02*
X133925000Y-127000000D01*
D14*
X113925000Y-148000000D02*
X114425000Y-148000000D01*
D13*
X113425000Y-130500000D02*
X113425000Y-133000000D01*
D14*
X114425000Y-148000000D02*
X129925000Y-148000000D01*
D13*
X113425000Y-133000000D02*
X114425000Y-134000000D01*
X103965000Y-127000000D02*
X104965000Y-126000000D01*
X106000000Y-110000000D02*
X113848529Y-110000000D01*
X135962500Y-126962500D02*
X136500000Y-127500000D01*
X113848529Y-110000000D02*
X117000000Y-113151471D01*
X114500000Y-125000000D02*
X115500000Y-126000000D01*
X119695000Y-127770000D02*
X120465000Y-127000000D01*
X117000000Y-126000000D02*
X117925000Y-126925000D01*
X136500000Y-127500000D02*
X149925000Y-127500000D01*
X103195000Y-127770000D02*
X103965000Y-127000000D01*
X115500000Y-126000000D02*
X117000000Y-126000000D01*
X119425000Y-129220000D02*
X114705000Y-129220000D01*
X142000000Y-120925000D02*
X142000000Y-117500000D01*
X117000000Y-113151471D02*
X117000000Y-114000000D01*
X142000000Y-102500000D02*
X146000000Y-106500000D01*
X114705000Y-129220000D02*
X113425000Y-130500000D01*
X104965000Y-126000000D02*
X115500000Y-126000000D01*
X117925000Y-126925000D02*
X117925000Y-127300000D01*
X133925000Y-127000000D02*
X133925000Y-127340000D01*
D14*
%TO.N,VCC*%
X110425000Y-152500000D02*
X116925000Y-159000000D01*
X94925000Y-152500000D02*
X110425000Y-152500000D01*
X135175000Y-157750000D02*
X135175000Y-144250000D01*
D13*
X145000000Y-122000000D02*
X149500000Y-117500000D01*
X121385000Y-123960000D02*
X121425000Y-124000000D01*
D14*
X116925000Y-159000000D02*
X135425000Y-159000000D01*
D13*
X140425000Y-124000000D02*
X153425000Y-124000000D01*
X149500000Y-117500000D02*
X149500000Y-113000000D01*
X107885000Y-123960000D02*
X121385000Y-123960000D01*
D14*
X135425000Y-158000000D02*
X135175000Y-157750000D01*
X135175000Y-144250000D02*
X135452041Y-143972959D01*
D13*
X124425000Y-124000000D02*
X137425000Y-124000000D01*
D14*
X135425000Y-159000000D02*
X135425000Y-158000000D01*
D13*
%TO.N,Net-(R3-Pad1)*%
X132925000Y-154540000D02*
X130465000Y-154540000D01*
X130465000Y-154540000D02*
X125425000Y-149500000D01*
%TO.N,Net-(U5B-+)*%
X103500000Y-111000000D02*
X103500000Y-108500000D01*
X103500000Y-114500000D02*
X100000000Y-114500000D01*
%TO.N,Net-(D1-K)*%
X139500000Y-107730000D02*
X142500000Y-110730000D01*
X139000000Y-106230000D02*
X139500000Y-106730000D01*
X139500000Y-106730000D02*
X139500000Y-107730000D01*
%TO.N,Net-(U5A--)*%
X97500000Y-114000000D02*
X97500000Y-110000000D01*
X97500000Y-110000000D02*
X100000000Y-107500000D01*
X100000000Y-107500000D02*
X100000000Y-106000000D01*
%TO.N,/BALANCE_publico/SALIDA_PUBLICO*%
X113400000Y-112600000D02*
X113400000Y-118725000D01*
X113400000Y-118725000D02*
X112625000Y-119500000D01*
X114500000Y-111500000D02*
X113400000Y-112600000D01*
X96960000Y-117000000D02*
X99460000Y-119500000D01*
X99460000Y-119500000D02*
X112625000Y-119500000D01*
%TO.N,Net-(J1-Pin_1)*%
X101000000Y-104500000D02*
X100725000Y-104775000D01*
X100725000Y-104775000D02*
X92000000Y-104775000D01*
%TO.N,Net-(R8-Pad1)*%
X142425000Y-150000000D02*
X142425000Y-150040000D01*
X142425000Y-150040000D02*
X137925000Y-154540000D01*
%TO.N,Net-(U1A--)*%
X143000000Y-105730000D02*
X143000000Y-106230000D01*
X154500000Y-105730000D02*
X148000000Y-105730000D01*
X143000000Y-106230000D02*
X145000000Y-108230000D01*
X145000000Y-108230000D02*
X145000000Y-112230000D01*
%TD*%
%TA.AperFunction,Conductor*%
%TO.N,GND*%
G36*
X162443827Y-92019685D02*
G01*
X162489582Y-92072489D01*
X162500784Y-92123208D01*
X162672027Y-119008255D01*
X162999210Y-170376023D01*
X162979953Y-170443187D01*
X162927442Y-170489277D01*
X162876023Y-170500810D01*
X86625602Y-170999179D01*
X86558436Y-170979933D01*
X86512337Y-170927430D01*
X86500794Y-170874401D01*
X86526083Y-166878711D01*
X88149500Y-166878711D01*
X88149500Y-167121288D01*
X88181161Y-167361785D01*
X88243947Y-167596104D01*
X88336773Y-167820205D01*
X88336776Y-167820212D01*
X88458064Y-168030289D01*
X88458066Y-168030292D01*
X88458067Y-168030293D01*
X88605733Y-168222736D01*
X88605739Y-168222743D01*
X88777256Y-168394260D01*
X88777262Y-168394265D01*
X88969711Y-168541936D01*
X89179788Y-168663224D01*
X89403900Y-168756054D01*
X89638211Y-168818838D01*
X89818586Y-168842584D01*
X89878711Y-168850500D01*
X89878712Y-168850500D01*
X90121289Y-168850500D01*
X90169388Y-168844167D01*
X90361789Y-168818838D01*
X90596100Y-168756054D01*
X90820212Y-168663224D01*
X91030289Y-168541936D01*
X91222738Y-168394265D01*
X91394265Y-168222738D01*
X91541936Y-168030289D01*
X91663224Y-167820212D01*
X91756054Y-167596100D01*
X91818838Y-167361789D01*
X91850500Y-167121288D01*
X91850500Y-166878712D01*
X91850500Y-166878711D01*
X157649500Y-166878711D01*
X157649500Y-167121288D01*
X157681161Y-167361785D01*
X157743947Y-167596104D01*
X157836773Y-167820205D01*
X157836776Y-167820212D01*
X157958064Y-168030289D01*
X157958066Y-168030292D01*
X157958067Y-168030293D01*
X158105733Y-168222736D01*
X158105739Y-168222743D01*
X158277256Y-168394260D01*
X158277262Y-168394265D01*
X158469711Y-168541936D01*
X158679788Y-168663224D01*
X158903900Y-168756054D01*
X159138211Y-168818838D01*
X159318586Y-168842584D01*
X159378711Y-168850500D01*
X159378712Y-168850500D01*
X159621289Y-168850500D01*
X159669388Y-168844167D01*
X159861789Y-168818838D01*
X160096100Y-168756054D01*
X160320212Y-168663224D01*
X160530289Y-168541936D01*
X160722738Y-168394265D01*
X160894265Y-168222738D01*
X161041936Y-168030289D01*
X161163224Y-167820212D01*
X161256054Y-167596100D01*
X161318838Y-167361789D01*
X161350500Y-167121288D01*
X161350500Y-166878712D01*
X161318838Y-166638211D01*
X161256054Y-166403900D01*
X161163224Y-166179788D01*
X161041936Y-165969711D01*
X160894265Y-165777262D01*
X160894260Y-165777256D01*
X160722743Y-165605739D01*
X160722736Y-165605733D01*
X160530293Y-165458067D01*
X160530292Y-165458066D01*
X160530289Y-165458064D01*
X160320212Y-165336776D01*
X160320205Y-165336773D01*
X160096104Y-165243947D01*
X159861785Y-165181161D01*
X159621289Y-165149500D01*
X159621288Y-165149500D01*
X159378712Y-165149500D01*
X159378711Y-165149500D01*
X159138214Y-165181161D01*
X158903895Y-165243947D01*
X158679794Y-165336773D01*
X158679785Y-165336777D01*
X158469706Y-165458067D01*
X158277263Y-165605733D01*
X158277256Y-165605739D01*
X158105739Y-165777256D01*
X158105733Y-165777263D01*
X157958067Y-165969706D01*
X157836777Y-166179785D01*
X157836773Y-166179794D01*
X157743947Y-166403895D01*
X157681161Y-166638214D01*
X157649500Y-166878711D01*
X91850500Y-166878711D01*
X91818838Y-166638211D01*
X91756054Y-166403900D01*
X91663224Y-166179788D01*
X91541936Y-165969711D01*
X91394265Y-165777262D01*
X91394260Y-165777256D01*
X91222743Y-165605739D01*
X91222736Y-165605733D01*
X91030293Y-165458067D01*
X91030292Y-165458066D01*
X91030289Y-165458064D01*
X90820212Y-165336776D01*
X90820205Y-165336773D01*
X90596104Y-165243947D01*
X90361785Y-165181161D01*
X90121289Y-165149500D01*
X90121288Y-165149500D01*
X89878712Y-165149500D01*
X89878711Y-165149500D01*
X89638214Y-165181161D01*
X89403895Y-165243947D01*
X89179794Y-165336773D01*
X89179785Y-165336777D01*
X88969706Y-165458067D01*
X88777263Y-165605733D01*
X88777256Y-165605739D01*
X88605739Y-165777256D01*
X88605733Y-165777263D01*
X88458067Y-165969706D01*
X88336777Y-166179785D01*
X88336773Y-166179794D01*
X88243947Y-166403895D01*
X88181161Y-166638214D01*
X88149500Y-166878711D01*
X86526083Y-166878711D01*
X86544303Y-163999999D01*
X97489341Y-163999999D01*
X97489341Y-164000000D01*
X97509936Y-164235403D01*
X97509938Y-164235413D01*
X97571094Y-164463655D01*
X97571096Y-164463659D01*
X97571097Y-164463663D01*
X97654155Y-164641781D01*
X97670965Y-164677830D01*
X97670967Y-164677834D01*
X97732002Y-164765000D01*
X97806505Y-164871401D01*
X97973599Y-165038495D01*
X98070384Y-165106265D01*
X98167165Y-165174032D01*
X98167167Y-165174033D01*
X98167170Y-165174035D01*
X98381337Y-165273903D01*
X98609592Y-165335063D01*
X98786034Y-165350500D01*
X98844999Y-165355659D01*
X98845000Y-165355659D01*
X98845001Y-165355659D01*
X98903966Y-165350500D01*
X99080408Y-165335063D01*
X99308663Y-165273903D01*
X99522830Y-165174035D01*
X99716401Y-165038495D01*
X99883495Y-164871401D01*
X100013730Y-164685405D01*
X100068307Y-164641781D01*
X100137805Y-164634587D01*
X100200160Y-164666110D01*
X100216879Y-164685405D01*
X100346890Y-164871078D01*
X100513917Y-165038105D01*
X100707421Y-165173600D01*
X100921507Y-165273429D01*
X100921516Y-165273433D01*
X101135000Y-165330634D01*
X101135000Y-164433012D01*
X101192007Y-164465925D01*
X101319174Y-164500000D01*
X101450826Y-164500000D01*
X101577993Y-164465925D01*
X101635000Y-164433012D01*
X101635000Y-165330633D01*
X101848483Y-165273433D01*
X101848492Y-165273429D01*
X102062578Y-165173600D01*
X102256078Y-165038108D01*
X102378133Y-164916053D01*
X102439456Y-164882568D01*
X102509148Y-164887552D01*
X102565082Y-164929423D01*
X102581997Y-164960401D01*
X102631202Y-165092328D01*
X102631206Y-165092335D01*
X102717452Y-165207544D01*
X102717455Y-165207547D01*
X102832664Y-165293793D01*
X102832671Y-165293797D01*
X102967517Y-165344091D01*
X102967516Y-165344091D01*
X102974444Y-165344835D01*
X103027127Y-165350500D01*
X104822872Y-165350499D01*
X104882483Y-165344091D01*
X105017331Y-165293796D01*
X105132546Y-165207546D01*
X105218796Y-165092331D01*
X105269091Y-164957483D01*
X105275500Y-164897873D01*
X105275499Y-163102128D01*
X105269091Y-163042517D01*
X105268002Y-163039598D01*
X105218797Y-162907671D01*
X105218793Y-162907664D01*
X105132547Y-162792455D01*
X105132544Y-162792452D01*
X105017335Y-162706206D01*
X105017328Y-162706202D01*
X104882482Y-162655908D01*
X104882483Y-162655908D01*
X104822883Y-162649501D01*
X104822881Y-162649500D01*
X104822873Y-162649500D01*
X104822864Y-162649500D01*
X103027129Y-162649500D01*
X103027123Y-162649501D01*
X102967516Y-162655908D01*
X102832671Y-162706202D01*
X102832664Y-162706206D01*
X102717455Y-162792452D01*
X102717452Y-162792455D01*
X102631206Y-162907664D01*
X102631202Y-162907671D01*
X102581997Y-163039598D01*
X102540126Y-163095532D01*
X102474661Y-163119949D01*
X102406388Y-163105097D01*
X102378134Y-163083946D01*
X102256082Y-162961894D01*
X102062578Y-162826399D01*
X101848492Y-162726570D01*
X101848486Y-162726567D01*
X101635000Y-162669364D01*
X101635000Y-163566988D01*
X101577993Y-163534075D01*
X101450826Y-163500000D01*
X101319174Y-163500000D01*
X101192007Y-163534075D01*
X101135000Y-163566988D01*
X101135000Y-162669364D01*
X101134999Y-162669364D01*
X100921513Y-162726567D01*
X100921507Y-162726570D01*
X100707422Y-162826399D01*
X100707420Y-162826400D01*
X100513926Y-162961886D01*
X100513920Y-162961891D01*
X100346891Y-163128920D01*
X100346890Y-163128922D01*
X100216880Y-163314595D01*
X100162303Y-163358219D01*
X100092804Y-163365412D01*
X100030450Y-163333890D01*
X100013730Y-163314594D01*
X99883494Y-163128597D01*
X99716402Y-162961506D01*
X99716395Y-162961501D01*
X99522834Y-162825967D01*
X99522830Y-162825965D01*
X99504308Y-162817328D01*
X99308663Y-162726097D01*
X99308659Y-162726096D01*
X99308655Y-162726094D01*
X99080413Y-162664938D01*
X99080403Y-162664936D01*
X98845001Y-162644341D01*
X98844999Y-162644341D01*
X98609596Y-162664936D01*
X98609586Y-162664938D01*
X98381344Y-162726094D01*
X98381335Y-162726098D01*
X98167171Y-162825964D01*
X98167169Y-162825965D01*
X97973597Y-162961505D01*
X97806505Y-163128597D01*
X97670965Y-163322169D01*
X97670964Y-163322171D01*
X97571098Y-163536335D01*
X97571094Y-163536344D01*
X97509938Y-163764586D01*
X97509936Y-163764596D01*
X97489341Y-163999999D01*
X86544303Y-163999999D01*
X86564384Y-160827135D01*
X127574500Y-160827135D01*
X127574500Y-162622870D01*
X127574501Y-162622876D01*
X127580908Y-162682483D01*
X127631202Y-162817328D01*
X127631206Y-162817335D01*
X127717452Y-162932544D01*
X127717455Y-162932547D01*
X127832664Y-163018793D01*
X127832671Y-163018797D01*
X127832674Y-163018798D01*
X127964598Y-163068002D01*
X128020531Y-163109873D01*
X128044949Y-163175337D01*
X128030098Y-163243610D01*
X128008947Y-163271865D01*
X127886886Y-163393926D01*
X127751400Y-163587420D01*
X127751399Y-163587422D01*
X127651570Y-163801507D01*
X127651567Y-163801513D01*
X127594364Y-164014999D01*
X127594364Y-164015000D01*
X128491988Y-164015000D01*
X128459075Y-164072007D01*
X128425000Y-164199174D01*
X128425000Y-164330826D01*
X128459075Y-164457993D01*
X128491988Y-164515000D01*
X127594364Y-164515000D01*
X127651567Y-164728486D01*
X127651570Y-164728492D01*
X127751399Y-164942578D01*
X127886894Y-165136082D01*
X128053917Y-165303105D01*
X128247421Y-165438600D01*
X128461507Y-165538429D01*
X128461516Y-165538433D01*
X128675000Y-165595634D01*
X128675000Y-164698012D01*
X128732007Y-164730925D01*
X128859174Y-164765000D01*
X128990826Y-164765000D01*
X129117993Y-164730925D01*
X129175000Y-164698012D01*
X129175000Y-165595633D01*
X129388483Y-165538433D01*
X129388492Y-165538429D01*
X129602578Y-165438600D01*
X129796082Y-165303105D01*
X129963105Y-165136082D01*
X130098600Y-164942578D01*
X130198429Y-164728492D01*
X130198432Y-164728486D01*
X130255636Y-164515000D01*
X129358012Y-164515000D01*
X129390925Y-164457993D01*
X129425000Y-164330826D01*
X129425000Y-164199174D01*
X129390925Y-164072007D01*
X129358012Y-164015000D01*
X130255636Y-164015000D01*
X130255635Y-164014999D01*
X130198432Y-163801513D01*
X130198429Y-163801507D01*
X130098600Y-163587422D01*
X130098599Y-163587420D01*
X129963113Y-163393926D01*
X129963108Y-163393920D01*
X129841053Y-163271865D01*
X129807568Y-163210542D01*
X129812552Y-163140850D01*
X129854424Y-163084917D01*
X129885400Y-163068002D01*
X130017331Y-163018796D01*
X130132546Y-162932546D01*
X130218796Y-162817331D01*
X130269091Y-162682483D01*
X130275500Y-162622873D01*
X130275499Y-160827135D01*
X140574500Y-160827135D01*
X140574500Y-162622870D01*
X140574501Y-162622876D01*
X140580908Y-162682483D01*
X140631202Y-162817328D01*
X140631206Y-162817335D01*
X140717452Y-162932544D01*
X140717455Y-162932547D01*
X140832664Y-163018793D01*
X140832671Y-163018797D01*
X140832674Y-163018798D01*
X140964598Y-163068002D01*
X141020531Y-163109873D01*
X141044949Y-163175337D01*
X141030098Y-163243610D01*
X141008947Y-163271865D01*
X140886886Y-163393926D01*
X140751400Y-163587420D01*
X140751399Y-163587422D01*
X140651570Y-163801507D01*
X140651567Y-163801513D01*
X140594364Y-164014999D01*
X140594364Y-164015000D01*
X141491988Y-164015000D01*
X141459075Y-164072007D01*
X141425000Y-164199174D01*
X141425000Y-164330826D01*
X141459075Y-164457993D01*
X141491988Y-164515000D01*
X140594364Y-164515000D01*
X140651567Y-164728486D01*
X140651570Y-164728492D01*
X140751399Y-164942578D01*
X140886894Y-165136082D01*
X141053917Y-165303105D01*
X141247421Y-165438600D01*
X141461507Y-165538429D01*
X141461516Y-165538433D01*
X141675000Y-165595634D01*
X141675000Y-164698012D01*
X141732007Y-164730925D01*
X141859174Y-164765000D01*
X141990826Y-164765000D01*
X142117993Y-164730925D01*
X142175000Y-164698012D01*
X142175000Y-165595633D01*
X142388483Y-165538433D01*
X142388492Y-165538429D01*
X142602578Y-165438600D01*
X142796082Y-165303105D01*
X142963105Y-165136082D01*
X143098600Y-164942578D01*
X143198429Y-164728492D01*
X143198432Y-164728486D01*
X143255636Y-164515000D01*
X142358012Y-164515000D01*
X142390925Y-164457993D01*
X142425000Y-164330826D01*
X142425000Y-164199174D01*
X142390925Y-164072007D01*
X142358012Y-164015000D01*
X143255636Y-164015000D01*
X143255635Y-164014999D01*
X143198432Y-163801513D01*
X143198429Y-163801507D01*
X143098600Y-163587422D01*
X143098599Y-163587420D01*
X142963113Y-163393926D01*
X142963108Y-163393920D01*
X142841053Y-163271865D01*
X142807568Y-163210542D01*
X142812552Y-163140850D01*
X142854424Y-163084917D01*
X142885400Y-163068002D01*
X143017331Y-163018796D01*
X143132546Y-162932546D01*
X143218796Y-162817331D01*
X143269091Y-162682483D01*
X143275500Y-162622873D01*
X143275499Y-160827128D01*
X143269091Y-160767517D01*
X143218796Y-160632669D01*
X143218795Y-160632668D01*
X143218793Y-160632664D01*
X143132547Y-160517455D01*
X143132544Y-160517452D01*
X143017335Y-160431206D01*
X143017328Y-160431202D01*
X142882482Y-160380908D01*
X142882483Y-160380908D01*
X142822883Y-160374501D01*
X142822881Y-160374500D01*
X142822873Y-160374500D01*
X142822864Y-160374500D01*
X141027129Y-160374500D01*
X141027123Y-160374501D01*
X140967516Y-160380908D01*
X140832671Y-160431202D01*
X140832664Y-160431206D01*
X140717455Y-160517452D01*
X140717452Y-160517455D01*
X140631206Y-160632664D01*
X140631202Y-160632671D01*
X140580908Y-160767517D01*
X140574501Y-160827116D01*
X140574501Y-160827123D01*
X140574500Y-160827135D01*
X130275499Y-160827135D01*
X130275499Y-160827128D01*
X130269091Y-160767517D01*
X130218796Y-160632669D01*
X130218795Y-160632668D01*
X130218793Y-160632664D01*
X130132547Y-160517455D01*
X130132544Y-160517452D01*
X130017335Y-160431206D01*
X130017328Y-160431202D01*
X129882482Y-160380908D01*
X129882483Y-160380908D01*
X129822883Y-160374501D01*
X129822881Y-160374500D01*
X129822873Y-160374500D01*
X129822864Y-160374500D01*
X128027129Y-160374500D01*
X128027123Y-160374501D01*
X127967516Y-160380908D01*
X127832671Y-160431202D01*
X127832664Y-160431206D01*
X127717455Y-160517452D01*
X127717452Y-160517455D01*
X127631206Y-160632664D01*
X127631202Y-160632671D01*
X127580908Y-160767517D01*
X127574501Y-160827116D01*
X127574501Y-160827123D01*
X127574500Y-160827135D01*
X86564384Y-160827135D01*
X86617088Y-152499996D01*
X94119435Y-152499996D01*
X94119435Y-152500003D01*
X94139630Y-152679249D01*
X94139631Y-152679254D01*
X94199211Y-152849523D01*
X94267047Y-152957483D01*
X94295184Y-153002262D01*
X94422738Y-153129816D01*
X94476736Y-153163745D01*
X94518682Y-153190102D01*
X94575478Y-153225789D01*
X94745745Y-153285368D01*
X94745750Y-153285369D01*
X94924996Y-153305565D01*
X94925000Y-153305565D01*
X94925004Y-153305565D01*
X95104249Y-153285369D01*
X95104252Y-153285368D01*
X95104255Y-153285368D01*
X95184017Y-153257457D01*
X95224972Y-153250500D01*
X110062770Y-153250500D01*
X110129809Y-153270185D01*
X110150451Y-153286819D01*
X116342049Y-159478416D01*
X116446581Y-159582948D01*
X116446585Y-159582952D01*
X116569498Y-159665080D01*
X116569511Y-159665087D01*
X116706082Y-159721656D01*
X116706087Y-159721658D01*
X116706091Y-159721658D01*
X116706092Y-159721659D01*
X116851079Y-159750500D01*
X116851082Y-159750500D01*
X135498920Y-159750500D01*
X135596462Y-159731096D01*
X135643913Y-159721658D01*
X135780495Y-159665084D01*
X135903416Y-159582951D01*
X136007951Y-159478416D01*
X136090084Y-159355495D01*
X136146658Y-159218913D01*
X136175500Y-159073918D01*
X136175500Y-157926082D01*
X136175500Y-157926079D01*
X136146659Y-157781092D01*
X136146658Y-157781091D01*
X136146658Y-157781087D01*
X136137025Y-157757830D01*
X136090087Y-157644511D01*
X136090080Y-157644498D01*
X136007951Y-157521584D01*
X136007948Y-157521580D01*
X135961819Y-157475451D01*
X135928334Y-157414128D01*
X135925500Y-157387770D01*
X135925500Y-154539999D01*
X136569341Y-154539999D01*
X136569341Y-154540000D01*
X136589936Y-154775403D01*
X136589938Y-154775413D01*
X136651094Y-155003655D01*
X136651096Y-155003659D01*
X136651097Y-155003663D01*
X136724085Y-155160185D01*
X136750965Y-155217830D01*
X136750967Y-155217834D01*
X136886501Y-155411395D01*
X136886506Y-155411402D01*
X137053597Y-155578493D01*
X137053603Y-155578498D01*
X137239158Y-155708425D01*
X137282783Y-155763002D01*
X137289977Y-155832500D01*
X137258454Y-155894855D01*
X137239158Y-155911575D01*
X137053597Y-156041505D01*
X136886505Y-156208597D01*
X136750965Y-156402169D01*
X136750964Y-156402171D01*
X136651098Y-156616335D01*
X136651094Y-156616344D01*
X136589938Y-156844586D01*
X136589936Y-156844596D01*
X136569341Y-157079999D01*
X136569341Y-157080000D01*
X136589936Y-157315403D01*
X136589938Y-157315413D01*
X136651094Y-157543655D01*
X136651096Y-157543659D01*
X136651097Y-157543663D01*
X136750965Y-157757830D01*
X136750967Y-157757834D01*
X136859281Y-157912521D01*
X136886505Y-157951401D01*
X137053599Y-158118495D01*
X137150384Y-158186265D01*
X137247165Y-158254032D01*
X137247167Y-158254033D01*
X137247170Y-158254035D01*
X137461337Y-158353903D01*
X137689592Y-158415063D01*
X137877918Y-158431539D01*
X137924999Y-158435659D01*
X137925000Y-158435659D01*
X137925001Y-158435659D01*
X137964234Y-158432226D01*
X138160408Y-158415063D01*
X138388663Y-158353903D01*
X138602830Y-158254035D01*
X138796401Y-158118495D01*
X138963495Y-157951401D01*
X139099035Y-157757830D01*
X139198903Y-157543663D01*
X139260063Y-157315408D01*
X139280659Y-157080000D01*
X139260063Y-156844592D01*
X139198903Y-156616337D01*
X139099035Y-156402171D01*
X138969962Y-156217834D01*
X138963494Y-156208597D01*
X138796402Y-156041506D01*
X138796396Y-156041501D01*
X138610842Y-155911575D01*
X138567217Y-155856998D01*
X138560023Y-155787500D01*
X138591546Y-155725145D01*
X138610842Y-155708425D01*
X138633026Y-155692891D01*
X138796401Y-155578495D01*
X138963495Y-155411401D01*
X139099035Y-155217830D01*
X139198903Y-155003663D01*
X139260063Y-154775408D01*
X139280659Y-154540000D01*
X139260063Y-154304592D01*
X139225671Y-154176239D01*
X139227334Y-154106393D01*
X139257763Y-154056470D01*
X140314234Y-152999999D01*
X152069341Y-152999999D01*
X152069341Y-153000000D01*
X152089936Y-153235403D01*
X152089938Y-153235413D01*
X152151094Y-153463655D01*
X152151096Y-153463659D01*
X152151097Y-153463663D01*
X152189806Y-153546674D01*
X152250965Y-153677830D01*
X152250967Y-153677834D01*
X152359281Y-153832521D01*
X152380041Y-153862170D01*
X152386501Y-153871395D01*
X152386506Y-153871402D01*
X152553597Y-154038493D01*
X152553603Y-154038498D01*
X152739158Y-154168425D01*
X152782783Y-154223002D01*
X152789977Y-154292500D01*
X152758454Y-154354855D01*
X152739158Y-154371575D01*
X152553597Y-154501505D01*
X152386505Y-154668597D01*
X152250965Y-154862169D01*
X152250964Y-154862171D01*
X152151098Y-155076335D01*
X152151094Y-155076344D01*
X152089938Y-155304586D01*
X152089936Y-155304596D01*
X152069341Y-155539999D01*
X152069341Y-155540000D01*
X152089936Y-155775403D01*
X152089938Y-155775413D01*
X152151094Y-156003655D01*
X152151096Y-156003659D01*
X152151097Y-156003663D01*
X152168744Y-156041506D01*
X152250965Y-156217830D01*
X152250967Y-156217834D01*
X152359281Y-156372521D01*
X152386505Y-156411401D01*
X152553599Y-156578495D01*
X152595511Y-156607842D01*
X152747165Y-156714032D01*
X152747167Y-156714033D01*
X152747170Y-156714035D01*
X152961337Y-156813903D01*
X153189592Y-156875063D01*
X153377918Y-156891539D01*
X153424999Y-156895659D01*
X153425000Y-156895659D01*
X153425001Y-156895659D01*
X153464234Y-156892226D01*
X153660408Y-156875063D01*
X153888663Y-156813903D01*
X154102830Y-156714035D01*
X154296401Y-156578495D01*
X154463495Y-156411401D01*
X154599035Y-156217830D01*
X154698903Y-156003663D01*
X154760063Y-155775408D01*
X154780659Y-155540000D01*
X154760063Y-155304592D01*
X154698903Y-155076337D01*
X154599035Y-154862171D01*
X154538284Y-154775408D01*
X154463494Y-154668597D01*
X154296402Y-154501506D01*
X154296396Y-154501501D01*
X154110842Y-154371575D01*
X154067217Y-154316998D01*
X154060023Y-154247500D01*
X154091546Y-154185145D01*
X154110842Y-154168425D01*
X154198436Y-154107091D01*
X154296401Y-154038495D01*
X154463495Y-153871401D01*
X154599035Y-153677830D01*
X154698903Y-153463663D01*
X154760063Y-153235408D01*
X154780659Y-153000000D01*
X154760063Y-152764592D01*
X154698903Y-152536337D01*
X154599035Y-152322171D01*
X154478813Y-152150476D01*
X154463496Y-152128600D01*
X154450109Y-152115213D01*
X154341567Y-152006671D01*
X154308084Y-151945351D01*
X154313068Y-151875659D01*
X154354939Y-151819725D01*
X154385915Y-151802810D01*
X154517331Y-151753796D01*
X154632546Y-151667546D01*
X154718796Y-151552331D01*
X154769091Y-151417483D01*
X154775500Y-151357873D01*
X154775499Y-149562128D01*
X154769091Y-149502517D01*
X154768153Y-149500003D01*
X154718797Y-149367671D01*
X154718793Y-149367664D01*
X154632547Y-149252455D01*
X154632544Y-149252452D01*
X154517335Y-149166206D01*
X154517328Y-149166202D01*
X154382482Y-149115908D01*
X154382483Y-149115908D01*
X154322883Y-149109501D01*
X154322881Y-149109500D01*
X154322873Y-149109500D01*
X154322864Y-149109500D01*
X152527129Y-149109500D01*
X152527123Y-149109501D01*
X152467516Y-149115908D01*
X152332671Y-149166202D01*
X152332664Y-149166206D01*
X152217455Y-149252452D01*
X152217452Y-149252455D01*
X152131206Y-149367664D01*
X152131202Y-149367671D01*
X152080908Y-149502517D01*
X152074501Y-149562116D01*
X152074501Y-149562123D01*
X152074500Y-149562135D01*
X152074500Y-151357870D01*
X152074501Y-151357876D01*
X152080908Y-151417483D01*
X152131202Y-151552328D01*
X152131206Y-151552335D01*
X152217452Y-151667544D01*
X152217455Y-151667547D01*
X152332664Y-151753793D01*
X152332671Y-151753797D01*
X152464081Y-151802810D01*
X152520015Y-151844681D01*
X152544432Y-151910145D01*
X152529580Y-151978418D01*
X152508430Y-152006673D01*
X152386503Y-152128600D01*
X152250965Y-152322169D01*
X152250964Y-152322171D01*
X152151098Y-152536335D01*
X152151094Y-152536344D01*
X152089938Y-152764586D01*
X152089936Y-152764596D01*
X152069341Y-152999999D01*
X140314234Y-152999999D01*
X142488614Y-150825619D01*
X142549935Y-150792136D01*
X142562392Y-150790084D01*
X142604255Y-150785368D01*
X142774522Y-150725789D01*
X142927262Y-150629816D01*
X143054816Y-150502262D01*
X143150789Y-150349522D01*
X143210368Y-150179255D01*
X143210369Y-150179249D01*
X143230565Y-150000003D01*
X143230565Y-149999996D01*
X143210369Y-149820750D01*
X143210368Y-149820745D01*
X143150789Y-149650478D01*
X143054816Y-149497738D01*
X142927262Y-149370184D01*
X142923251Y-149367664D01*
X142774523Y-149274211D01*
X142604254Y-149214631D01*
X142604249Y-149214630D01*
X142425004Y-149194435D01*
X142424996Y-149194435D01*
X142245750Y-149214630D01*
X142245745Y-149214631D01*
X142075476Y-149274211D01*
X141922737Y-149370184D01*
X141795184Y-149497737D01*
X141699210Y-149650478D01*
X141639631Y-149820747D01*
X141639630Y-149820752D01*
X141624758Y-149952747D01*
X141597691Y-150017161D01*
X141589219Y-150026544D01*
X139487180Y-152128584D01*
X139425857Y-152162069D01*
X139356165Y-152157085D01*
X139300232Y-152115213D01*
X139275815Y-152049749D01*
X139275499Y-152040903D01*
X139275499Y-151102129D01*
X139275498Y-151102123D01*
X139275497Y-151102116D01*
X139269091Y-151042517D01*
X139218796Y-150907669D01*
X139218795Y-150907668D01*
X139218793Y-150907664D01*
X139132547Y-150792455D01*
X139132544Y-150792452D01*
X139017335Y-150706206D01*
X139017328Y-150706202D01*
X138882482Y-150655908D01*
X138882483Y-150655908D01*
X138822883Y-150649501D01*
X138822881Y-150649500D01*
X138822873Y-150649500D01*
X138822864Y-150649500D01*
X137027129Y-150649500D01*
X137027123Y-150649501D01*
X136967516Y-150655908D01*
X136832671Y-150706202D01*
X136832664Y-150706206D01*
X136717455Y-150792452D01*
X136717452Y-150792455D01*
X136631206Y-150907664D01*
X136631202Y-150907671D01*
X136580908Y-151042517D01*
X136574501Y-151102116D01*
X136574501Y-151102123D01*
X136574500Y-151102135D01*
X136574500Y-152897870D01*
X136574501Y-152897876D01*
X136580908Y-152957483D01*
X136631202Y-153092328D01*
X136631206Y-153092335D01*
X136717452Y-153207544D01*
X136717455Y-153207547D01*
X136832664Y-153293793D01*
X136832671Y-153293797D01*
X136964081Y-153342810D01*
X137020015Y-153384681D01*
X137044432Y-153450145D01*
X137029580Y-153518418D01*
X137008430Y-153546673D01*
X136886503Y-153668600D01*
X136750965Y-153862169D01*
X136750964Y-153862171D01*
X136651098Y-154076335D01*
X136651094Y-154076344D01*
X136589938Y-154304586D01*
X136589936Y-154304596D01*
X136569341Y-154539999D01*
X135925500Y-154539999D01*
X135925500Y-145999996D01*
X144119435Y-145999996D01*
X144119435Y-146000003D01*
X144139630Y-146179249D01*
X144139631Y-146179254D01*
X144199211Y-146349523D01*
X144295185Y-146502263D01*
X144297445Y-146505097D01*
X144298334Y-146507275D01*
X144298889Y-146508158D01*
X144298734Y-146508255D01*
X144323855Y-146569783D01*
X144324500Y-146582412D01*
X144324500Y-148917587D01*
X144304815Y-148984626D01*
X144297450Y-148994896D01*
X144295186Y-148997734D01*
X144199211Y-149150476D01*
X144139631Y-149320745D01*
X144139630Y-149320750D01*
X144119435Y-149499996D01*
X144119435Y-149500003D01*
X144139630Y-149679249D01*
X144139631Y-149679254D01*
X144199211Y-149849523D01*
X144291163Y-149995863D01*
X144295184Y-150002262D01*
X144422738Y-150129816D01*
X144575478Y-150225789D01*
X144745742Y-150285367D01*
X144745745Y-150285368D01*
X144745750Y-150285369D01*
X144924996Y-150305565D01*
X144925000Y-150305565D01*
X144925004Y-150305565D01*
X145104249Y-150285369D01*
X145104252Y-150285368D01*
X145104255Y-150285368D01*
X145274522Y-150225789D01*
X145427262Y-150129816D01*
X145554816Y-150002262D01*
X145650789Y-149849522D01*
X145710368Y-149679255D01*
X145710369Y-149679249D01*
X145730565Y-149500003D01*
X145730565Y-149499996D01*
X145710369Y-149320750D01*
X145710368Y-149320745D01*
X145656292Y-149166206D01*
X145650789Y-149150478D01*
X145554816Y-148997738D01*
X145554814Y-148997736D01*
X145554813Y-148997734D01*
X145552550Y-148994896D01*
X145551659Y-148992715D01*
X145551111Y-148991842D01*
X145551264Y-148991745D01*
X145526144Y-148930209D01*
X145525500Y-148917587D01*
X145525500Y-146582412D01*
X145545185Y-146515373D01*
X145552555Y-146505097D01*
X145554810Y-146502267D01*
X145554816Y-146502262D01*
X145650789Y-146349522D01*
X145710368Y-146179255D01*
X145730565Y-146000000D01*
X145710368Y-145820745D01*
X145650789Y-145650478D01*
X145554816Y-145497738D01*
X145427262Y-145370184D01*
X145274523Y-145274211D01*
X145104254Y-145214631D01*
X145104249Y-145214630D01*
X144925004Y-145194435D01*
X144924996Y-145194435D01*
X144745750Y-145214630D01*
X144745745Y-145214631D01*
X144575476Y-145274211D01*
X144422737Y-145370184D01*
X144295184Y-145497737D01*
X144199211Y-145650476D01*
X144139631Y-145820745D01*
X144139630Y-145820750D01*
X144119435Y-145999996D01*
X135925500Y-145999996D01*
X135925500Y-144682940D01*
X135945185Y-144615901D01*
X135961819Y-144595259D01*
X136081857Y-144475221D01*
X136177830Y-144322481D01*
X136237409Y-144152214D01*
X136244526Y-144089047D01*
X136257606Y-143972962D01*
X136257606Y-143972955D01*
X136237410Y-143793709D01*
X136237409Y-143793704D01*
X136229669Y-143771584D01*
X136177830Y-143623437D01*
X136081857Y-143470697D01*
X135954303Y-143343143D01*
X135801564Y-143247170D01*
X135631295Y-143187590D01*
X135631290Y-143187589D01*
X135452045Y-143167394D01*
X135452037Y-143167394D01*
X135272791Y-143187589D01*
X135272786Y-143187590D01*
X135102517Y-143247170D01*
X134949778Y-143343143D01*
X134822225Y-143470696D01*
X134726253Y-143623434D01*
X134723232Y-143629709D01*
X134721402Y-143628828D01*
X134698736Y-143664894D01*
X134592047Y-143771583D01*
X134592045Y-143771586D01*
X134562279Y-143816138D01*
X134562277Y-143816141D01*
X134509914Y-143894507D01*
X134453343Y-144031082D01*
X134453340Y-144031092D01*
X134424500Y-144176079D01*
X134424500Y-150809897D01*
X134404815Y-150876936D01*
X134352011Y-150922691D01*
X134282853Y-150932635D01*
X134219297Y-150903610D01*
X134201234Y-150884208D01*
X134132547Y-150792455D01*
X134132544Y-150792452D01*
X134017335Y-150706206D01*
X134017328Y-150706202D01*
X133882482Y-150655908D01*
X133882483Y-150655908D01*
X133822883Y-150649501D01*
X133822881Y-150649500D01*
X133822873Y-150649500D01*
X133822864Y-150649500D01*
X132027129Y-150649500D01*
X132027123Y-150649501D01*
X131967516Y-150655908D01*
X131832671Y-150706202D01*
X131832664Y-150706206D01*
X131717455Y-150792452D01*
X131717452Y-150792455D01*
X131631206Y-150907664D01*
X131631202Y-150907671D01*
X131580908Y-151042517D01*
X131574501Y-151102116D01*
X131574501Y-151102123D01*
X131574500Y-151102135D01*
X131574500Y-152897870D01*
X131574501Y-152897876D01*
X131580908Y-152957483D01*
X131631202Y-153092328D01*
X131631206Y-153092335D01*
X131717452Y-153207544D01*
X131717455Y-153207547D01*
X131832664Y-153293793D01*
X131832671Y-153293797D01*
X131964081Y-153342810D01*
X132020015Y-153384681D01*
X132044432Y-153450145D01*
X132029580Y-153518418D01*
X132008430Y-153546673D01*
X131886503Y-153668600D01*
X131750965Y-153862170D01*
X131750962Y-153862175D01*
X131748289Y-153867909D01*
X131702115Y-153920346D01*
X131635909Y-153939500D01*
X130765097Y-153939500D01*
X130698058Y-153919815D01*
X130677416Y-153903181D01*
X126255700Y-149481465D01*
X126222215Y-149420142D01*
X126220163Y-149407686D01*
X126210368Y-149320745D01*
X126150789Y-149150478D01*
X126054816Y-148997738D01*
X126019259Y-148962181D01*
X125985774Y-148900858D01*
X125990758Y-148831166D01*
X126032630Y-148775233D01*
X126098094Y-148750816D01*
X126106940Y-148750500D01*
X129625028Y-148750500D01*
X129665982Y-148757457D01*
X129713860Y-148774211D01*
X129745745Y-148785368D01*
X129745750Y-148785369D01*
X129924996Y-148805565D01*
X129925000Y-148805565D01*
X129925004Y-148805565D01*
X130104249Y-148785369D01*
X130104252Y-148785368D01*
X130104255Y-148785368D01*
X130274522Y-148725789D01*
X130427262Y-148629816D01*
X130554816Y-148502262D01*
X130650789Y-148349522D01*
X130710368Y-148179255D01*
X130730565Y-148000000D01*
X130710368Y-147820745D01*
X130650789Y-147650478D01*
X130554816Y-147497738D01*
X130427262Y-147370184D01*
X130274523Y-147274211D01*
X130104254Y-147214631D01*
X130104249Y-147214630D01*
X129925004Y-147194435D01*
X129924996Y-147194435D01*
X129745750Y-147214630D01*
X129745745Y-147214631D01*
X129665983Y-147242542D01*
X129625028Y-147249500D01*
X115149500Y-147249500D01*
X115082461Y-147229815D01*
X115036706Y-147177011D01*
X115025500Y-147125500D01*
X115025500Y-142999996D01*
X125119435Y-142999996D01*
X125119435Y-143000003D01*
X125139630Y-143179249D01*
X125139631Y-143179254D01*
X125199211Y-143349523D01*
X125275350Y-143470696D01*
X125295184Y-143502262D01*
X125422738Y-143629816D01*
X125575478Y-143725789D01*
X125745745Y-143785368D01*
X125832669Y-143795161D01*
X125897080Y-143822226D01*
X125906465Y-143830700D01*
X126288181Y-144212416D01*
X126321666Y-144273739D01*
X126324500Y-144300097D01*
X126324500Y-145417587D01*
X126304815Y-145484626D01*
X126297450Y-145494896D01*
X126295186Y-145497734D01*
X126199211Y-145650476D01*
X126139631Y-145820745D01*
X126139630Y-145820750D01*
X126119435Y-145999996D01*
X126119435Y-146000003D01*
X126139630Y-146179249D01*
X126139631Y-146179254D01*
X126199211Y-146349523D01*
X126295184Y-146502262D01*
X126422738Y-146629816D01*
X126575478Y-146725789D01*
X126745745Y-146785368D01*
X126745750Y-146785369D01*
X126924996Y-146805565D01*
X126925000Y-146805565D01*
X126925004Y-146805565D01*
X127104249Y-146785369D01*
X127104252Y-146785368D01*
X127104255Y-146785368D01*
X127274522Y-146725789D01*
X127427262Y-146629816D01*
X127554816Y-146502262D01*
X127650789Y-146349522D01*
X127710368Y-146179255D01*
X127730565Y-146000000D01*
X127710368Y-145820745D01*
X127650789Y-145650478D01*
X127554816Y-145497738D01*
X127554814Y-145497736D01*
X127554813Y-145497734D01*
X127552550Y-145494896D01*
X127551659Y-145492715D01*
X127551111Y-145491842D01*
X127551264Y-145491745D01*
X127526144Y-145430209D01*
X127525500Y-145417587D01*
X127525500Y-144089060D01*
X127525501Y-144089047D01*
X127525501Y-143920944D01*
X127518417Y-143894507D01*
X127484577Y-143768216D01*
X127460082Y-143725789D01*
X127405524Y-143631290D01*
X127405518Y-143631282D01*
X126774231Y-142999996D01*
X131119435Y-142999996D01*
X131119435Y-143000003D01*
X131139630Y-143179249D01*
X131139631Y-143179254D01*
X131199211Y-143349523D01*
X131275350Y-143470696D01*
X131295184Y-143502262D01*
X131422738Y-143629816D01*
X131575478Y-143725789D01*
X131745742Y-143785367D01*
X131745745Y-143785368D01*
X131745750Y-143785369D01*
X131924996Y-143805565D01*
X131925000Y-143805565D01*
X131925004Y-143805565D01*
X132104249Y-143785369D01*
X132104252Y-143785368D01*
X132104255Y-143785368D01*
X132274522Y-143725789D01*
X132427262Y-143629816D01*
X132554816Y-143502262D01*
X132650789Y-143349522D01*
X132710368Y-143179255D01*
X132720161Y-143092329D01*
X132747226Y-143027918D01*
X132755690Y-143018543D01*
X135405520Y-140368716D01*
X135484577Y-140231784D01*
X135525501Y-140079057D01*
X135525501Y-139920942D01*
X135525501Y-139913347D01*
X135525500Y-139913329D01*
X135525500Y-137283342D01*
X135545185Y-137216303D01*
X135597989Y-137170548D01*
X135667147Y-137160604D01*
X135701894Y-137172639D01*
X135702514Y-137171312D01*
X135921507Y-137273429D01*
X135921516Y-137273433D01*
X136135000Y-137330634D01*
X136135000Y-136433012D01*
X136192007Y-136465925D01*
X136319174Y-136500000D01*
X136450826Y-136500000D01*
X136577993Y-136465925D01*
X136635000Y-136433012D01*
X136635000Y-137330633D01*
X136848483Y-137273433D01*
X136848492Y-137273429D01*
X137062578Y-137173600D01*
X137256078Y-137038108D01*
X137378133Y-136916053D01*
X137439456Y-136882568D01*
X137509148Y-136887552D01*
X137565082Y-136929423D01*
X137581997Y-136960401D01*
X137631202Y-137092328D01*
X137631206Y-137092335D01*
X137717452Y-137207544D01*
X137717455Y-137207547D01*
X137832664Y-137293793D01*
X137832671Y-137293797D01*
X137967517Y-137344091D01*
X137967516Y-137344091D01*
X137974444Y-137344835D01*
X138027127Y-137350500D01*
X139822872Y-137350499D01*
X139882483Y-137344091D01*
X140017331Y-137293796D01*
X140132546Y-137207546D01*
X140218796Y-137092331D01*
X140269091Y-136957483D01*
X140275500Y-136897873D01*
X140275499Y-135999999D01*
X148489341Y-135999999D01*
X148489341Y-136000000D01*
X148509936Y-136235403D01*
X148509938Y-136235413D01*
X148571094Y-136463655D01*
X148571096Y-136463659D01*
X148571097Y-136463663D01*
X148631095Y-136592328D01*
X148670965Y-136677830D01*
X148670967Y-136677834D01*
X148752163Y-136793793D01*
X148806505Y-136871401D01*
X148973599Y-137038495D01*
X149070384Y-137106265D01*
X149167165Y-137174032D01*
X149167167Y-137174033D01*
X149167170Y-137174035D01*
X149381337Y-137273903D01*
X149609592Y-137335063D01*
X149786034Y-137350500D01*
X149844999Y-137355659D01*
X149845000Y-137355659D01*
X149845001Y-137355659D01*
X149903966Y-137350500D01*
X150080408Y-137335063D01*
X150308663Y-137273903D01*
X150522830Y-137174035D01*
X150716401Y-137038495D01*
X150883495Y-136871401D01*
X151013425Y-136685842D01*
X151068002Y-136642217D01*
X151137500Y-136635023D01*
X151199855Y-136666546D01*
X151216575Y-136685842D01*
X151346500Y-136871395D01*
X151346505Y-136871401D01*
X151513599Y-137038495D01*
X151610384Y-137106265D01*
X151707165Y-137174032D01*
X151707167Y-137174033D01*
X151707170Y-137174035D01*
X151921337Y-137273903D01*
X152149592Y-137335063D01*
X152326034Y-137350500D01*
X152384999Y-137355659D01*
X152385000Y-137355659D01*
X152385001Y-137355659D01*
X152443966Y-137350500D01*
X152620408Y-137335063D01*
X152848663Y-137273903D01*
X153062830Y-137174035D01*
X153256401Y-137038495D01*
X153378329Y-136916566D01*
X153439648Y-136883084D01*
X153509340Y-136888068D01*
X153565274Y-136929939D01*
X153582189Y-136960917D01*
X153631202Y-137092328D01*
X153631206Y-137092335D01*
X153717452Y-137207544D01*
X153717455Y-137207547D01*
X153832664Y-137293793D01*
X153832671Y-137293797D01*
X153967517Y-137344091D01*
X153967516Y-137344091D01*
X153974444Y-137344835D01*
X154027127Y-137350500D01*
X155822872Y-137350499D01*
X155882483Y-137344091D01*
X156017331Y-137293796D01*
X156132546Y-137207546D01*
X156218796Y-137092331D01*
X156269091Y-136957483D01*
X156275500Y-136897873D01*
X156275499Y-135102128D01*
X156269091Y-135042517D01*
X156268002Y-135039598D01*
X156218797Y-134907671D01*
X156218793Y-134907664D01*
X156132547Y-134792455D01*
X156132544Y-134792452D01*
X156017335Y-134706206D01*
X156017328Y-134706202D01*
X155882482Y-134655908D01*
X155882483Y-134655908D01*
X155822883Y-134649501D01*
X155822881Y-134649500D01*
X155822873Y-134649500D01*
X155822864Y-134649500D01*
X154027129Y-134649500D01*
X154027123Y-134649501D01*
X153967516Y-134655908D01*
X153832671Y-134706202D01*
X153832664Y-134706206D01*
X153717455Y-134792452D01*
X153717452Y-134792455D01*
X153631206Y-134907664D01*
X153631203Y-134907669D01*
X153582189Y-135039083D01*
X153540317Y-135095016D01*
X153474853Y-135119433D01*
X153406580Y-135104581D01*
X153378326Y-135083430D01*
X153256402Y-134961506D01*
X153256395Y-134961501D01*
X153062834Y-134825967D01*
X153062830Y-134825965D01*
X153054689Y-134822169D01*
X152848663Y-134726097D01*
X152848659Y-134726096D01*
X152848655Y-134726094D01*
X152620413Y-134664938D01*
X152620403Y-134664936D01*
X152385001Y-134644341D01*
X152384999Y-134644341D01*
X152149596Y-134664936D01*
X152149583Y-134664939D01*
X152021241Y-134699327D01*
X151951392Y-134697664D01*
X151901468Y-134667233D01*
X151482970Y-134248735D01*
X151061819Y-133827583D01*
X151028334Y-133766260D01*
X151025500Y-133739902D01*
X151025500Y-133499996D01*
X152119435Y-133499996D01*
X152119435Y-133500003D01*
X152139630Y-133679249D01*
X152139631Y-133679254D01*
X152199211Y-133849523D01*
X152281525Y-133980524D01*
X152295184Y-134002262D01*
X152422738Y-134129816D01*
X152478636Y-134164939D01*
X152562852Y-134217856D01*
X152575478Y-134225789D01*
X152712511Y-134273739D01*
X152745745Y-134285368D01*
X152745750Y-134285369D01*
X152924996Y-134305565D01*
X152925000Y-134305565D01*
X152925004Y-134305565D01*
X153104249Y-134285369D01*
X153104252Y-134285368D01*
X153104255Y-134285368D01*
X153274522Y-134225789D01*
X153427262Y-134129816D01*
X153427267Y-134129810D01*
X153430097Y-134127555D01*
X153432275Y-134126665D01*
X153433158Y-134126111D01*
X153433255Y-134126265D01*
X153494783Y-134101145D01*
X153507412Y-134100500D01*
X154838331Y-134100500D01*
X154838347Y-134100501D01*
X154845943Y-134100501D01*
X155004054Y-134100501D01*
X155004057Y-134100501D01*
X155156785Y-134059577D01*
X155224433Y-134020520D01*
X155293716Y-133980520D01*
X155405520Y-133868716D01*
X155405520Y-133868714D01*
X155415724Y-133858511D01*
X155415728Y-133858506D01*
X155943535Y-133330698D01*
X156004856Y-133297215D01*
X156017311Y-133295163D01*
X156104255Y-133285368D01*
X156274522Y-133225789D01*
X156427262Y-133129816D01*
X156554816Y-133002262D01*
X156650789Y-132849522D01*
X156710368Y-132679255D01*
X156710369Y-132679249D01*
X156730565Y-132500003D01*
X156730565Y-132499996D01*
X156710369Y-132320750D01*
X156710368Y-132320745D01*
X156666170Y-132194435D01*
X156650789Y-132150478D01*
X156554816Y-131997738D01*
X156427262Y-131870184D01*
X156364424Y-131830700D01*
X156274523Y-131774211D01*
X156104254Y-131714631D01*
X156104249Y-131714630D01*
X155925004Y-131694435D01*
X155924996Y-131694435D01*
X155745750Y-131714630D01*
X155745745Y-131714631D01*
X155575476Y-131774211D01*
X155422737Y-131870184D01*
X155295184Y-131997737D01*
X155199210Y-132150478D01*
X155139630Y-132320750D01*
X155129837Y-132407668D01*
X155102770Y-132472082D01*
X155094298Y-132481465D01*
X154712584Y-132863181D01*
X154651261Y-132896666D01*
X154624903Y-132899500D01*
X153507412Y-132899500D01*
X153440373Y-132879815D01*
X153430097Y-132872445D01*
X153427263Y-132870185D01*
X153427262Y-132870184D01*
X153359465Y-132827584D01*
X153274523Y-132774211D01*
X153104254Y-132714631D01*
X153104249Y-132714630D01*
X152925004Y-132694435D01*
X152924996Y-132694435D01*
X152745750Y-132714630D01*
X152745745Y-132714631D01*
X152575476Y-132774211D01*
X152422737Y-132870184D01*
X152295184Y-132997737D01*
X152199211Y-133150476D01*
X152139631Y-133320745D01*
X152139630Y-133320750D01*
X152119435Y-133499996D01*
X151025500Y-133499996D01*
X151025500Y-130582412D01*
X151045185Y-130515373D01*
X151052555Y-130505097D01*
X151054810Y-130502267D01*
X151054816Y-130502262D01*
X151150789Y-130349522D01*
X151210368Y-130179255D01*
X151215773Y-130131284D01*
X151230565Y-130000003D01*
X151230565Y-129999996D01*
X151210369Y-129820750D01*
X151210368Y-129820745D01*
X151150788Y-129650476D01*
X151111582Y-129588080D01*
X151054816Y-129497738D01*
X150927262Y-129370184D01*
X150774523Y-129274211D01*
X150604254Y-129214631D01*
X150604249Y-129214630D01*
X150425004Y-129194435D01*
X150424996Y-129194435D01*
X150245750Y-129214630D01*
X150245745Y-129214631D01*
X150075476Y-129274211D01*
X149922737Y-129370184D01*
X149795184Y-129497737D01*
X149699211Y-129650476D01*
X149639631Y-129820745D01*
X149639630Y-129820750D01*
X149619435Y-129999996D01*
X149619435Y-130000003D01*
X149639630Y-130179249D01*
X149639631Y-130179254D01*
X149699211Y-130349523D01*
X149744088Y-130420943D01*
X149792341Y-130497738D01*
X149795185Y-130502263D01*
X149797445Y-130505097D01*
X149798334Y-130507275D01*
X149798889Y-130508158D01*
X149798734Y-130508255D01*
X149823855Y-130569783D01*
X149824500Y-130582412D01*
X149824500Y-133953330D01*
X149824499Y-133953348D01*
X149824499Y-134119054D01*
X149824498Y-134119054D01*
X149865424Y-134271789D01*
X149865425Y-134271790D01*
X149884925Y-134305564D01*
X149884926Y-134305565D01*
X149944477Y-134408712D01*
X149944481Y-134408717D01*
X149971331Y-134435567D01*
X150004816Y-134496890D01*
X149999832Y-134566582D01*
X149957960Y-134622515D01*
X149892496Y-134646932D01*
X149872846Y-134646776D01*
X149845006Y-134644341D01*
X149844999Y-134644341D01*
X149609596Y-134664936D01*
X149609586Y-134664938D01*
X149381344Y-134726094D01*
X149381335Y-134726098D01*
X149167171Y-134825964D01*
X149167169Y-134825965D01*
X148973597Y-134961505D01*
X148806505Y-135128597D01*
X148670965Y-135322169D01*
X148670964Y-135322171D01*
X148571098Y-135536335D01*
X148571094Y-135536344D01*
X148509938Y-135764586D01*
X148509936Y-135764596D01*
X148489341Y-135999999D01*
X140275499Y-135999999D01*
X140275499Y-135102128D01*
X140269091Y-135042517D01*
X140268002Y-135039598D01*
X140218797Y-134907671D01*
X140218793Y-134907664D01*
X140132547Y-134792455D01*
X140132544Y-134792452D01*
X140017335Y-134706206D01*
X140017328Y-134706202D01*
X139882482Y-134655908D01*
X139882483Y-134655908D01*
X139822883Y-134649501D01*
X139822881Y-134649500D01*
X139822873Y-134649500D01*
X139822864Y-134649500D01*
X138027129Y-134649500D01*
X138027123Y-134649501D01*
X137967516Y-134655908D01*
X137832671Y-134706202D01*
X137832664Y-134706206D01*
X137717455Y-134792452D01*
X137717452Y-134792455D01*
X137631206Y-134907664D01*
X137631202Y-134907671D01*
X137581997Y-135039598D01*
X137540126Y-135095532D01*
X137474661Y-135119949D01*
X137406388Y-135105097D01*
X137378134Y-135083946D01*
X137256082Y-134961894D01*
X137062578Y-134826399D01*
X136848492Y-134726570D01*
X136848486Y-134726567D01*
X136635000Y-134669364D01*
X136635000Y-135566988D01*
X136577993Y-135534075D01*
X136450826Y-135500000D01*
X136319174Y-135500000D01*
X136192007Y-135534075D01*
X136135000Y-135566988D01*
X136135000Y-134669364D01*
X136134999Y-134669364D01*
X135921513Y-134726567D01*
X135921507Y-134726570D01*
X135707422Y-134826399D01*
X135707420Y-134826400D01*
X135513926Y-134961886D01*
X135513920Y-134961891D01*
X135346891Y-135128920D01*
X135346890Y-135128922D01*
X135216880Y-135314595D01*
X135162303Y-135358219D01*
X135092804Y-135365412D01*
X135030450Y-135333890D01*
X135013730Y-135314594D01*
X134883494Y-135128597D01*
X134716402Y-134961506D01*
X134716395Y-134961501D01*
X134522834Y-134825967D01*
X134522830Y-134825965D01*
X134514689Y-134822169D01*
X134308663Y-134726097D01*
X134308659Y-134726096D01*
X134308655Y-134726094D01*
X134080413Y-134664938D01*
X134080403Y-134664936D01*
X133845001Y-134644341D01*
X133844999Y-134644341D01*
X133609596Y-134664936D01*
X133609586Y-134664938D01*
X133381344Y-134726094D01*
X133381335Y-134726098D01*
X133167171Y-134825964D01*
X133167169Y-134825965D01*
X132973597Y-134961505D01*
X132806505Y-135128597D01*
X132670965Y-135322169D01*
X132670964Y-135322171D01*
X132571098Y-135536335D01*
X132571094Y-135536344D01*
X132509938Y-135764586D01*
X132509936Y-135764596D01*
X132489341Y-135999999D01*
X132489341Y-136000000D01*
X132509936Y-136235403D01*
X132509938Y-136235413D01*
X132571094Y-136463655D01*
X132571096Y-136463659D01*
X132571097Y-136463663D01*
X132631095Y-136592328D01*
X132670965Y-136677830D01*
X132670967Y-136677834D01*
X132752163Y-136793793D01*
X132806505Y-136871401D01*
X132973599Y-137038495D01*
X133070384Y-137106265D01*
X133167165Y-137174032D01*
X133167167Y-137174033D01*
X133167170Y-137174035D01*
X133381337Y-137273903D01*
X133609592Y-137335063D01*
X133786034Y-137350500D01*
X133844999Y-137355659D01*
X133845000Y-137355659D01*
X133845001Y-137355659D01*
X133903966Y-137350500D01*
X134080408Y-137335063D01*
X134168408Y-137311483D01*
X134238256Y-137313146D01*
X134296118Y-137352308D01*
X134323623Y-137416536D01*
X134324500Y-137431258D01*
X134324500Y-139699902D01*
X134304815Y-139766941D01*
X134288181Y-139787583D01*
X131906465Y-142169298D01*
X131845142Y-142202783D01*
X131832668Y-142204837D01*
X131745750Y-142214630D01*
X131575478Y-142274210D01*
X131422737Y-142370184D01*
X131295184Y-142497737D01*
X131199211Y-142650476D01*
X131139631Y-142820745D01*
X131139630Y-142820750D01*
X131119435Y-142999996D01*
X126774231Y-142999996D01*
X126755700Y-142981465D01*
X126722215Y-142920142D01*
X126720163Y-142907686D01*
X126710368Y-142820745D01*
X126650789Y-142650478D01*
X126554816Y-142497738D01*
X126427262Y-142370184D01*
X126274523Y-142274211D01*
X126104254Y-142214631D01*
X126104249Y-142214630D01*
X125925004Y-142194435D01*
X125924996Y-142194435D01*
X125745750Y-142214630D01*
X125745745Y-142214631D01*
X125575476Y-142274211D01*
X125422737Y-142370184D01*
X125295184Y-142497737D01*
X125199211Y-142650476D01*
X125139631Y-142820745D01*
X125139630Y-142820750D01*
X125119435Y-142999996D01*
X115025500Y-142999996D01*
X115025500Y-134089060D01*
X115025501Y-134089047D01*
X115025501Y-133920944D01*
X115022225Y-133908717D01*
X114984577Y-133768216D01*
X114960082Y-133725789D01*
X114905524Y-133631290D01*
X114905518Y-133631282D01*
X114061819Y-132787583D01*
X114028334Y-132726260D01*
X114025500Y-132699902D01*
X114025500Y-130800097D01*
X114045185Y-130733058D01*
X114061819Y-130712416D01*
X114917416Y-129856819D01*
X114978739Y-129823334D01*
X115005097Y-129820500D01*
X117500904Y-129820500D01*
X117567943Y-129840185D01*
X117613698Y-129892989D01*
X117624124Y-129958384D01*
X117619435Y-129999997D01*
X117619435Y-130000003D01*
X117639630Y-130179249D01*
X117639631Y-130179254D01*
X117699211Y-130349523D01*
X117744088Y-130420943D01*
X117792341Y-130497738D01*
X117795185Y-130502263D01*
X117797445Y-130505097D01*
X117798334Y-130507275D01*
X117798889Y-130508158D01*
X117798734Y-130508255D01*
X117823855Y-130569783D01*
X117824500Y-130582412D01*
X117824500Y-133453330D01*
X117824499Y-133453348D01*
X117824499Y-133619054D01*
X117824498Y-133619054D01*
X117865424Y-133771789D01*
X117865425Y-133771790D01*
X117884925Y-133805564D01*
X117884926Y-133805565D01*
X117944477Y-133908712D01*
X117944481Y-133908717D01*
X117971331Y-133935567D01*
X118004816Y-133996890D01*
X117999832Y-134066582D01*
X117957960Y-134122515D01*
X117892496Y-134146932D01*
X117872846Y-134146776D01*
X117845006Y-134144341D01*
X117844999Y-134144341D01*
X117609596Y-134164936D01*
X117609586Y-134164938D01*
X117381344Y-134226094D01*
X117381335Y-134226098D01*
X117167171Y-134325964D01*
X117167169Y-134325965D01*
X116973597Y-134461505D01*
X116806505Y-134628597D01*
X116670965Y-134822169D01*
X116670964Y-134822171D01*
X116571098Y-135036335D01*
X116571094Y-135036344D01*
X116509938Y-135264586D01*
X116509936Y-135264596D01*
X116489341Y-135499999D01*
X116489341Y-135500000D01*
X116509936Y-135735403D01*
X116509938Y-135735413D01*
X116571094Y-135963655D01*
X116571096Y-135963659D01*
X116571097Y-135963663D01*
X116618737Y-136065826D01*
X116670965Y-136177830D01*
X116670967Y-136177834D01*
X116711285Y-136235413D01*
X116806505Y-136371401D01*
X116973599Y-136538495D01*
X117070384Y-136606265D01*
X117167165Y-136674032D01*
X117167167Y-136674033D01*
X117167170Y-136674035D01*
X117381337Y-136773903D01*
X117609592Y-136835063D01*
X117786034Y-136850500D01*
X117844999Y-136855659D01*
X117845000Y-136855659D01*
X117845001Y-136855659D01*
X117903966Y-136850500D01*
X118080408Y-136835063D01*
X118308663Y-136773903D01*
X118522830Y-136674035D01*
X118716401Y-136538495D01*
X118883495Y-136371401D01*
X119013425Y-136185842D01*
X119068002Y-136142217D01*
X119137500Y-136135023D01*
X119199855Y-136166546D01*
X119216575Y-136185842D01*
X119346500Y-136371395D01*
X119346505Y-136371401D01*
X119513599Y-136538495D01*
X119610384Y-136606265D01*
X119707165Y-136674032D01*
X119707167Y-136674033D01*
X119707170Y-136674035D01*
X119921337Y-136773903D01*
X120149592Y-136835063D01*
X120326034Y-136850500D01*
X120384999Y-136855659D01*
X120385000Y-136855659D01*
X120385001Y-136855659D01*
X120443966Y-136850500D01*
X120620408Y-136835063D01*
X120848663Y-136773903D01*
X121062830Y-136674035D01*
X121256401Y-136538495D01*
X121378329Y-136416566D01*
X121439648Y-136383084D01*
X121509340Y-136388068D01*
X121565274Y-136429939D01*
X121582189Y-136460917D01*
X121631202Y-136592328D01*
X121631206Y-136592335D01*
X121717452Y-136707544D01*
X121717455Y-136707547D01*
X121832664Y-136793793D01*
X121832671Y-136793797D01*
X121967517Y-136844091D01*
X121967516Y-136844091D01*
X121974444Y-136844835D01*
X122027127Y-136850500D01*
X123822872Y-136850499D01*
X123882483Y-136844091D01*
X124017331Y-136793796D01*
X124132546Y-136707546D01*
X124218796Y-136592331D01*
X124269091Y-136457483D01*
X124275500Y-136397873D01*
X124275499Y-134602128D01*
X124269091Y-134542517D01*
X124267810Y-134539083D01*
X124218797Y-134407671D01*
X124218793Y-134407664D01*
X124132547Y-134292455D01*
X124132544Y-134292452D01*
X124017335Y-134206206D01*
X124017328Y-134206202D01*
X123882482Y-134155908D01*
X123882483Y-134155908D01*
X123822883Y-134149501D01*
X123822881Y-134149500D01*
X123822873Y-134149500D01*
X123822864Y-134149500D01*
X122027129Y-134149500D01*
X122027123Y-134149501D01*
X121967516Y-134155908D01*
X121832671Y-134206202D01*
X121832664Y-134206206D01*
X121717455Y-134292452D01*
X121717452Y-134292455D01*
X121631206Y-134407664D01*
X121631203Y-134407669D01*
X121582189Y-134539083D01*
X121540317Y-134595016D01*
X121474853Y-134619433D01*
X121406580Y-134604581D01*
X121378326Y-134583430D01*
X121256402Y-134461506D01*
X121256395Y-134461501D01*
X121062834Y-134325967D01*
X121062830Y-134325965D01*
X121007356Y-134300097D01*
X120848663Y-134226097D01*
X120848659Y-134226096D01*
X120848655Y-134226094D01*
X120620413Y-134164938D01*
X120620403Y-134164936D01*
X120385001Y-134144341D01*
X120384999Y-134144341D01*
X120149596Y-134164936D01*
X120149583Y-134164939D01*
X120021241Y-134199327D01*
X119951392Y-134197664D01*
X119901468Y-134167233D01*
X119483758Y-133749523D01*
X119061819Y-133327583D01*
X119028334Y-133266260D01*
X119025500Y-133239902D01*
X119025500Y-132999996D01*
X119619435Y-132999996D01*
X119619435Y-133000003D01*
X119639630Y-133179249D01*
X119639631Y-133179254D01*
X119699211Y-133349523D01*
X119781523Y-133480521D01*
X119795184Y-133502262D01*
X119922738Y-133629816D01*
X120075478Y-133725789D01*
X120245745Y-133785368D01*
X120245750Y-133785369D01*
X120424996Y-133805565D01*
X120425000Y-133805565D01*
X120425004Y-133805565D01*
X120604249Y-133785369D01*
X120604252Y-133785368D01*
X120604255Y-133785368D01*
X120774522Y-133725789D01*
X120927262Y-133629816D01*
X120927267Y-133629810D01*
X120930097Y-133627555D01*
X120932275Y-133626665D01*
X120933158Y-133626111D01*
X120933255Y-133626265D01*
X120994783Y-133601145D01*
X121007412Y-133600500D01*
X123342588Y-133600500D01*
X123409627Y-133620185D01*
X123419903Y-133627555D01*
X123422736Y-133629814D01*
X123422738Y-133629816D01*
X123575478Y-133725789D01*
X123745745Y-133785368D01*
X123745750Y-133785369D01*
X123924996Y-133805565D01*
X123925000Y-133805565D01*
X123925004Y-133805565D01*
X124104249Y-133785369D01*
X124104252Y-133785368D01*
X124104255Y-133785368D01*
X124274522Y-133725789D01*
X124427262Y-133629816D01*
X124554816Y-133502262D01*
X124556240Y-133499996D01*
X135619435Y-133499996D01*
X135619435Y-133500003D01*
X135639630Y-133679249D01*
X135639631Y-133679254D01*
X135699211Y-133849523D01*
X135781525Y-133980524D01*
X135795184Y-134002262D01*
X135922738Y-134129816D01*
X135978636Y-134164939D01*
X136062852Y-134217856D01*
X136075478Y-134225789D01*
X136212511Y-134273739D01*
X136245745Y-134285368D01*
X136245750Y-134285369D01*
X136424996Y-134305565D01*
X136425000Y-134305565D01*
X136425004Y-134305565D01*
X136604249Y-134285369D01*
X136604252Y-134285368D01*
X136604255Y-134285368D01*
X136774522Y-134225789D01*
X136927262Y-134129816D01*
X136927267Y-134129810D01*
X136930097Y-134127555D01*
X136932275Y-134126665D01*
X136933158Y-134126111D01*
X136933255Y-134126265D01*
X136994783Y-134101145D01*
X137007412Y-134100500D01*
X139499506Y-134100500D01*
X139565477Y-134119506D01*
X139575474Y-134125787D01*
X139575475Y-134125787D01*
X139575478Y-134125789D01*
X139745745Y-134185368D01*
X139745750Y-134185369D01*
X139924996Y-134205565D01*
X139925000Y-134205565D01*
X139925004Y-134205565D01*
X140104249Y-134185369D01*
X140104252Y-134185368D01*
X140104255Y-134185368D01*
X140274522Y-134125789D01*
X140427262Y-134029816D01*
X140554816Y-133902262D01*
X140650789Y-133749522D01*
X140710368Y-133579255D01*
X140710369Y-133579249D01*
X140730565Y-133400003D01*
X140730565Y-133399996D01*
X140710369Y-133220750D01*
X140710368Y-133220745D01*
X140695848Y-133179249D01*
X140650789Y-133050478D01*
X140554816Y-132897738D01*
X140427262Y-132770184D01*
X140379070Y-132739903D01*
X140274523Y-132674211D01*
X140104254Y-132614631D01*
X140104249Y-132614630D01*
X139925004Y-132594435D01*
X139924996Y-132594435D01*
X139745750Y-132614630D01*
X139745745Y-132614631D01*
X139575476Y-132674211D01*
X139422739Y-132770183D01*
X139329740Y-132863182D01*
X139268416Y-132896666D01*
X139242059Y-132899500D01*
X137007412Y-132899500D01*
X136940373Y-132879815D01*
X136930097Y-132872445D01*
X136927263Y-132870185D01*
X136927262Y-132870184D01*
X136859465Y-132827584D01*
X136774523Y-132774211D01*
X136604254Y-132714631D01*
X136604249Y-132714630D01*
X136425004Y-132694435D01*
X136424996Y-132694435D01*
X136245750Y-132714630D01*
X136245745Y-132714631D01*
X136075476Y-132774211D01*
X135922737Y-132870184D01*
X135795184Y-132997737D01*
X135699211Y-133150476D01*
X135639631Y-133320745D01*
X135639630Y-133320750D01*
X135619435Y-133499996D01*
X124556240Y-133499996D01*
X124650789Y-133349522D01*
X124710368Y-133179255D01*
X124710369Y-133179249D01*
X124730565Y-133000003D01*
X124730565Y-132999996D01*
X124710369Y-132820750D01*
X124710368Y-132820745D01*
X124705056Y-132805565D01*
X124650789Y-132650478D01*
X124628265Y-132614632D01*
X124558421Y-132503476D01*
X124554816Y-132497738D01*
X124427262Y-132370184D01*
X124394379Y-132349522D01*
X124274523Y-132274211D01*
X124104254Y-132214631D01*
X124104249Y-132214630D01*
X123925004Y-132194435D01*
X123924996Y-132194435D01*
X123745750Y-132214630D01*
X123745745Y-132214631D01*
X123575476Y-132274211D01*
X123422736Y-132370185D01*
X123419903Y-132372445D01*
X123417724Y-132373334D01*
X123416842Y-132373889D01*
X123416744Y-132373734D01*
X123355217Y-132398855D01*
X123342588Y-132399500D01*
X121007412Y-132399500D01*
X120940373Y-132379815D01*
X120930097Y-132372445D01*
X120927263Y-132370185D01*
X120927262Y-132370184D01*
X120870496Y-132334515D01*
X120774523Y-132274211D01*
X120604254Y-132214631D01*
X120604249Y-132214630D01*
X120425004Y-132194435D01*
X120424996Y-132194435D01*
X120245750Y-132214630D01*
X120245745Y-132214631D01*
X120075476Y-132274211D01*
X119922737Y-132370184D01*
X119795184Y-132497737D01*
X119699211Y-132650476D01*
X119639631Y-132820745D01*
X119639630Y-132820750D01*
X119619435Y-132999996D01*
X119025500Y-132999996D01*
X119025500Y-130582412D01*
X119045185Y-130515373D01*
X119052555Y-130505097D01*
X119054810Y-130502267D01*
X119054816Y-130502262D01*
X119150789Y-130349522D01*
X119210368Y-130179255D01*
X119216274Y-130126830D01*
X119243339Y-130062420D01*
X119300933Y-130022863D01*
X119353377Y-130017495D01*
X119388242Y-130021423D01*
X119424998Y-130025565D01*
X119425000Y-130025565D01*
X119425004Y-130025565D01*
X119604249Y-130005369D01*
X119604252Y-130005368D01*
X119604255Y-130005368D01*
X119774522Y-129945789D01*
X119927262Y-129849816D01*
X120054816Y-129722262D01*
X120150789Y-129569522D01*
X120210368Y-129399255D01*
X120210369Y-129399249D01*
X120230565Y-129220003D01*
X120230565Y-129219996D01*
X120210369Y-129040750D01*
X120210368Y-129040745D01*
X120150788Y-128870476D01*
X120054815Y-128717737D01*
X120024489Y-128687411D01*
X119991004Y-128626088D01*
X119995988Y-128556396D01*
X120037860Y-128500463D01*
X120046198Y-128494736D01*
X120060138Y-128485976D01*
X120197262Y-128399816D01*
X120324816Y-128272262D01*
X120420789Y-128119522D01*
X120480368Y-127949255D01*
X120490161Y-127862329D01*
X120517226Y-127797918D01*
X120525680Y-127788554D01*
X120677417Y-127636816D01*
X120738740Y-127603334D01*
X120765097Y-127600500D01*
X133080078Y-127600500D01*
X133147117Y-127620185D01*
X133192872Y-127672989D01*
X133197120Y-127683546D01*
X133199211Y-127689523D01*
X133261423Y-127788532D01*
X133295184Y-127842262D01*
X133422738Y-127969816D01*
X133511817Y-128025788D01*
X133565591Y-128059577D01*
X133575478Y-128065789D01*
X133729035Y-128119521D01*
X133745745Y-128125368D01*
X133745750Y-128125369D01*
X133924996Y-128145565D01*
X133925000Y-128145565D01*
X133925004Y-128145565D01*
X134104249Y-128125369D01*
X134104252Y-128125368D01*
X134104255Y-128125368D01*
X134274522Y-128065789D01*
X134427262Y-127969816D01*
X134554816Y-127842262D01*
X134650789Y-127689522D01*
X134710368Y-127519255D01*
X134712537Y-127500003D01*
X134730565Y-127340003D01*
X134730565Y-127339996D01*
X134710369Y-127160750D01*
X134710368Y-127160745D01*
X134696371Y-127120745D01*
X134650789Y-126990478D01*
X134647114Y-126984630D01*
X134554815Y-126837737D01*
X134495140Y-126778062D01*
X134475436Y-126752384D01*
X134405520Y-126631284D01*
X134293716Y-126519480D01*
X134293714Y-126519479D01*
X134293709Y-126519475D01*
X134156790Y-126440426D01*
X134156786Y-126440424D01*
X134156784Y-126440423D01*
X134004057Y-126399500D01*
X120544057Y-126399500D01*
X120385942Y-126399500D01*
X120385940Y-126399500D01*
X120345019Y-126410464D01*
X120345019Y-126410465D01*
X120307751Y-126420451D01*
X120233214Y-126440423D01*
X120233209Y-126440426D01*
X120096290Y-126519475D01*
X120096282Y-126519481D01*
X119984478Y-126631286D01*
X119676465Y-126939298D01*
X119615142Y-126972783D01*
X119602668Y-126974837D01*
X119515750Y-126984630D01*
X119345478Y-127044210D01*
X119192737Y-127140184D01*
X119065184Y-127267737D01*
X118969209Y-127420479D01*
X118960686Y-127444838D01*
X118919964Y-127501614D01*
X118855011Y-127527360D01*
X118786449Y-127513903D01*
X118736047Y-127465515D01*
X118719806Y-127397559D01*
X118720425Y-127389998D01*
X118730565Y-127300002D01*
X118730565Y-127299996D01*
X118710369Y-127120750D01*
X118710368Y-127120745D01*
X118701916Y-127096591D01*
X118650789Y-126950478D01*
X118554816Y-126797738D01*
X118520620Y-126763542D01*
X118488526Y-126707952D01*
X118484578Y-126693219D01*
X118484576Y-126693213D01*
X118405524Y-126556290D01*
X118405518Y-126556282D01*
X117487590Y-125638355D01*
X117487588Y-125638352D01*
X117368717Y-125519481D01*
X117368716Y-125519480D01*
X117281904Y-125469360D01*
X117281904Y-125469359D01*
X117281900Y-125469358D01*
X117231785Y-125440423D01*
X117079057Y-125399499D01*
X116920943Y-125399499D01*
X116913347Y-125399499D01*
X116913331Y-125399500D01*
X115800098Y-125399500D01*
X115733059Y-125379815D01*
X115712417Y-125363181D01*
X115330700Y-124981465D01*
X115297215Y-124920142D01*
X115295163Y-124907686D01*
X115285368Y-124820745D01*
X115285367Y-124820741D01*
X115252025Y-124725455D01*
X115248463Y-124655676D01*
X115283191Y-124595049D01*
X115345185Y-124562821D01*
X115369066Y-124560500D01*
X120802060Y-124560500D01*
X120869099Y-124580185D01*
X120889741Y-124596819D01*
X120922738Y-124629816D01*
X120963894Y-124655676D01*
X121074944Y-124725454D01*
X121075478Y-124725789D01*
X121208928Y-124772485D01*
X121245745Y-124785368D01*
X121245750Y-124785369D01*
X121424996Y-124805565D01*
X121425000Y-124805565D01*
X121425004Y-124805565D01*
X121604249Y-124785369D01*
X121604252Y-124785368D01*
X121604255Y-124785368D01*
X121774522Y-124725789D01*
X121927262Y-124629816D01*
X122054816Y-124502262D01*
X122150789Y-124349522D01*
X122210368Y-124179255D01*
X122230565Y-124000000D01*
X122230565Y-123999996D01*
X123619435Y-123999996D01*
X123619435Y-124000003D01*
X123639630Y-124179249D01*
X123639631Y-124179254D01*
X123699211Y-124349523D01*
X123770050Y-124462262D01*
X123795184Y-124502262D01*
X123922738Y-124629816D01*
X123963894Y-124655676D01*
X124074944Y-124725454D01*
X124075478Y-124725789D01*
X124208928Y-124772485D01*
X124245745Y-124785368D01*
X124245750Y-124785369D01*
X124424996Y-124805565D01*
X124425000Y-124805565D01*
X124425004Y-124805565D01*
X124604249Y-124785369D01*
X124604252Y-124785368D01*
X124604255Y-124785368D01*
X124774522Y-124725789D01*
X124927262Y-124629816D01*
X124927267Y-124629810D01*
X124930097Y-124627555D01*
X124932275Y-124626665D01*
X124933158Y-124626111D01*
X124933255Y-124626265D01*
X124994783Y-124601145D01*
X125007412Y-124600500D01*
X136842588Y-124600500D01*
X136909627Y-124620185D01*
X136919903Y-124627555D01*
X136922736Y-124629814D01*
X136922738Y-124629816D01*
X137037852Y-124702147D01*
X137075478Y-124725789D01*
X137092550Y-124731763D01*
X137149326Y-124772485D01*
X137175074Y-124837437D01*
X137161618Y-124905999D01*
X137139277Y-124936486D01*
X135943965Y-126131798D01*
X135882642Y-126165283D01*
X135870168Y-126167337D01*
X135783250Y-126177130D01*
X135612978Y-126236710D01*
X135460237Y-126332684D01*
X135332684Y-126460237D01*
X135236711Y-126612976D01*
X135177131Y-126783245D01*
X135177130Y-126783250D01*
X135156935Y-126962496D01*
X135156935Y-126962503D01*
X135177130Y-127141749D01*
X135177131Y-127141754D01*
X135236711Y-127312023D01*
X135304857Y-127420476D01*
X135332684Y-127464762D01*
X135460238Y-127592316D01*
X135612978Y-127688289D01*
X135783245Y-127747868D01*
X135870169Y-127757661D01*
X135934580Y-127784726D01*
X135943963Y-127793198D01*
X136131284Y-127980520D01*
X136227533Y-128036089D01*
X136268211Y-128059575D01*
X136268212Y-128059575D01*
X136268215Y-128059577D01*
X136420943Y-128100501D01*
X136420946Y-128100501D01*
X136586654Y-128100501D01*
X136586670Y-128100500D01*
X149342588Y-128100500D01*
X149409627Y-128120185D01*
X149419903Y-128127555D01*
X149422736Y-128129814D01*
X149422738Y-128129816D01*
X149575478Y-128225789D01*
X149708290Y-128272262D01*
X149745745Y-128285368D01*
X149745750Y-128285369D01*
X149924996Y-128305565D01*
X149925000Y-128305565D01*
X149925004Y-128305565D01*
X150104249Y-128285369D01*
X150104252Y-128285368D01*
X150104255Y-128285368D01*
X150274522Y-128225789D01*
X150427262Y-128129816D01*
X150554816Y-128002262D01*
X150650789Y-127849522D01*
X150710368Y-127679255D01*
X150711074Y-127672989D01*
X150730565Y-127500003D01*
X150730565Y-127499996D01*
X150710369Y-127320750D01*
X150710368Y-127320745D01*
X150654383Y-127160750D01*
X150650789Y-127150478D01*
X150645307Y-127141754D01*
X150554815Y-126997737D01*
X150427262Y-126870184D01*
X150274523Y-126774211D01*
X150104254Y-126714631D01*
X150104249Y-126714630D01*
X149925004Y-126694435D01*
X149924996Y-126694435D01*
X149745750Y-126714630D01*
X149745745Y-126714631D01*
X149575476Y-126774211D01*
X149422736Y-126870185D01*
X149419903Y-126872445D01*
X149417724Y-126873334D01*
X149416842Y-126873889D01*
X149416744Y-126873734D01*
X149355217Y-126898855D01*
X149342588Y-126899500D01*
X137174097Y-126899500D01*
X137107058Y-126879815D01*
X137061303Y-126827011D01*
X137051359Y-126757853D01*
X137080384Y-126694297D01*
X137086416Y-126687819D01*
X137642437Y-126131798D01*
X139488515Y-124285718D01*
X139549836Y-124252235D01*
X139619528Y-124257219D01*
X139675461Y-124299091D01*
X139693236Y-124332447D01*
X139699210Y-124349521D01*
X139770050Y-124462262D01*
X139795184Y-124502262D01*
X139922738Y-124629816D01*
X139963894Y-124655676D01*
X140074944Y-124725454D01*
X140075478Y-124725789D01*
X140208928Y-124772485D01*
X140245745Y-124785368D01*
X140245750Y-124785369D01*
X140424996Y-124805565D01*
X140425000Y-124805565D01*
X140425004Y-124805565D01*
X140604249Y-124785369D01*
X140604252Y-124785368D01*
X140604255Y-124785368D01*
X140774522Y-124725789D01*
X140927262Y-124629816D01*
X140927267Y-124629810D01*
X140930097Y-124627555D01*
X140932275Y-124626665D01*
X140933158Y-124626111D01*
X140933255Y-124626265D01*
X140994783Y-124601145D01*
X141007412Y-124600500D01*
X152842588Y-124600500D01*
X152909627Y-124620185D01*
X152919903Y-124627555D01*
X152922736Y-124629814D01*
X152922738Y-124629816D01*
X153036270Y-124701152D01*
X153074944Y-124725454D01*
X153075478Y-124725789D01*
X153208928Y-124772485D01*
X153245745Y-124785368D01*
X153245750Y-124785369D01*
X153424996Y-124805565D01*
X153425000Y-124805565D01*
X153425004Y-124805565D01*
X153604249Y-124785369D01*
X153604252Y-124785368D01*
X153604255Y-124785368D01*
X153774522Y-124725789D01*
X153927262Y-124629816D01*
X154054816Y-124502262D01*
X154150789Y-124349522D01*
X154210368Y-124179255D01*
X154230565Y-124000000D01*
X154226058Y-123960003D01*
X154210369Y-123820750D01*
X154210368Y-123820745D01*
X154173113Y-123714277D01*
X154150789Y-123650478D01*
X154054816Y-123497738D01*
X153927262Y-123370184D01*
X153863604Y-123330185D01*
X153774523Y-123274211D01*
X153604254Y-123214631D01*
X153604249Y-123214630D01*
X153425004Y-123194435D01*
X153424996Y-123194435D01*
X153245750Y-123214630D01*
X153245745Y-123214631D01*
X153075476Y-123274211D01*
X152922736Y-123370185D01*
X152919903Y-123372445D01*
X152917724Y-123373334D01*
X152916842Y-123373889D01*
X152916744Y-123373734D01*
X152855217Y-123398855D01*
X152842588Y-123399500D01*
X141007412Y-123399500D01*
X140940373Y-123379815D01*
X140930097Y-123372445D01*
X140927263Y-123370185D01*
X140927262Y-123370184D01*
X140824422Y-123305565D01*
X140774521Y-123274210D01*
X140757447Y-123268236D01*
X140700671Y-123227514D01*
X140674923Y-123162562D01*
X140688379Y-123094000D01*
X140710717Y-123063516D01*
X141774238Y-121999996D01*
X144194435Y-121999996D01*
X144194435Y-122000003D01*
X144214630Y-122179249D01*
X144214631Y-122179254D01*
X144274211Y-122349523D01*
X144368760Y-122499996D01*
X144370184Y-122502262D01*
X144497738Y-122629816D01*
X144650478Y-122725789D01*
X144820745Y-122785368D01*
X144820750Y-122785369D01*
X144999996Y-122805565D01*
X145000000Y-122805565D01*
X145000004Y-122805565D01*
X145179249Y-122785369D01*
X145179252Y-122785368D01*
X145179255Y-122785368D01*
X145349522Y-122725789D01*
X145502262Y-122629816D01*
X145629816Y-122502262D01*
X145725789Y-122349522D01*
X145785368Y-122179255D01*
X145795161Y-122092329D01*
X145822226Y-122027918D01*
X145830690Y-122018543D01*
X149858506Y-117990728D01*
X149858511Y-117990724D01*
X149868714Y-117980520D01*
X149868716Y-117980520D01*
X149980520Y-117868716D01*
X150035082Y-117774211D01*
X150059577Y-117731785D01*
X150100501Y-117579057D01*
X150100501Y-117420943D01*
X150100501Y-117413348D01*
X150100500Y-117413330D01*
X150100500Y-113582412D01*
X150120185Y-113515373D01*
X150127555Y-113505097D01*
X150129810Y-113502267D01*
X150129816Y-113502262D01*
X150225789Y-113349522D01*
X150285368Y-113179255D01*
X150295788Y-113086773D01*
X150305565Y-113000003D01*
X150305565Y-112999996D01*
X150285369Y-112820750D01*
X150285368Y-112820745D01*
X150239289Y-112689059D01*
X150225789Y-112650478D01*
X150129816Y-112497738D01*
X150002262Y-112370184D01*
X149939424Y-112330700D01*
X149849523Y-112274211D01*
X149679254Y-112214631D01*
X149679249Y-112214630D01*
X149500004Y-112194435D01*
X149499996Y-112194435D01*
X149320750Y-112214630D01*
X149320745Y-112214631D01*
X149150476Y-112274211D01*
X148997737Y-112370184D01*
X148870184Y-112497737D01*
X148774211Y-112650476D01*
X148714631Y-112820745D01*
X148714630Y-112820750D01*
X148694435Y-112999996D01*
X148694435Y-113000003D01*
X148714630Y-113179249D01*
X148714631Y-113179254D01*
X148774211Y-113349523D01*
X148774457Y-113349914D01*
X148867341Y-113497738D01*
X148870185Y-113502263D01*
X148872445Y-113505097D01*
X148873334Y-113507275D01*
X148873889Y-113508158D01*
X148873734Y-113508255D01*
X148898855Y-113569783D01*
X148899500Y-113582412D01*
X148899500Y-117199902D01*
X148879815Y-117266941D01*
X148863181Y-117287583D01*
X144981465Y-121169298D01*
X144920142Y-121202783D01*
X144907668Y-121204837D01*
X144820750Y-121214630D01*
X144650478Y-121274210D01*
X144497737Y-121370184D01*
X144370184Y-121497737D01*
X144274211Y-121650476D01*
X144214631Y-121820745D01*
X144214630Y-121820750D01*
X144194435Y-121999996D01*
X141774238Y-121999996D01*
X142358506Y-121415728D01*
X142358511Y-121415724D01*
X142368714Y-121405520D01*
X142368716Y-121405520D01*
X142480520Y-121293716D01*
X142559577Y-121156784D01*
X142600500Y-121004057D01*
X142600500Y-118082412D01*
X142620185Y-118015373D01*
X142627555Y-118005097D01*
X142629810Y-118002267D01*
X142629816Y-118002262D01*
X142725789Y-117849522D01*
X142785368Y-117679255D01*
X142795336Y-117590788D01*
X142805565Y-117500003D01*
X142805565Y-117499996D01*
X142785369Y-117320750D01*
X142785368Y-117320745D01*
X142755507Y-117235408D01*
X142725789Y-117150478D01*
X142629816Y-116997738D01*
X142502262Y-116870184D01*
X142349523Y-116774211D01*
X142179254Y-116714631D01*
X142179249Y-116714630D01*
X142000004Y-116694435D01*
X141999996Y-116694435D01*
X141820750Y-116714630D01*
X141820745Y-116714631D01*
X141650476Y-116774211D01*
X141497737Y-116870184D01*
X141370184Y-116997737D01*
X141274211Y-117150476D01*
X141214631Y-117320745D01*
X141214630Y-117320750D01*
X141194435Y-117499996D01*
X141194435Y-117500003D01*
X141214630Y-117679249D01*
X141214631Y-117679254D01*
X141274211Y-117849523D01*
X141287959Y-117871402D01*
X141367341Y-117997738D01*
X141370185Y-118002263D01*
X141372445Y-118005097D01*
X141373334Y-118007275D01*
X141373889Y-118008158D01*
X141373734Y-118008255D01*
X141398855Y-118069783D01*
X141399500Y-118082412D01*
X141399500Y-120624902D01*
X141379815Y-120691941D01*
X141363181Y-120712583D01*
X138361486Y-123714277D01*
X138300163Y-123747762D01*
X138230471Y-123742778D01*
X138174538Y-123700906D01*
X138156763Y-123667550D01*
X138150789Y-123650478D01*
X138054815Y-123497737D01*
X137927262Y-123370184D01*
X137774523Y-123274211D01*
X137604254Y-123214631D01*
X137604249Y-123214630D01*
X137425004Y-123194435D01*
X137424996Y-123194435D01*
X137245750Y-123214630D01*
X137245745Y-123214631D01*
X137075476Y-123274211D01*
X136922736Y-123370185D01*
X136919903Y-123372445D01*
X136917724Y-123373334D01*
X136916842Y-123373889D01*
X136916744Y-123373734D01*
X136855217Y-123398855D01*
X136842588Y-123399500D01*
X136503476Y-123399500D01*
X136436437Y-123379815D01*
X136390682Y-123327011D01*
X136380738Y-123257853D01*
X136409763Y-123194297D01*
X136437504Y-123170506D01*
X136450147Y-123162562D01*
X136502262Y-123129816D01*
X136629816Y-123002262D01*
X136725789Y-122849522D01*
X136785368Y-122679255D01*
X136785369Y-122679249D01*
X136805565Y-122500003D01*
X136805565Y-122499996D01*
X136785369Y-122320750D01*
X136785368Y-122320745D01*
X136725789Y-122150478D01*
X136629816Y-121997738D01*
X136629814Y-121997736D01*
X136629813Y-121997734D01*
X136627550Y-121994896D01*
X136626659Y-121992715D01*
X136626111Y-121991842D01*
X136626264Y-121991745D01*
X136601144Y-121930209D01*
X136600500Y-121917587D01*
X136600500Y-119082412D01*
X136620185Y-119015373D01*
X136627555Y-119005097D01*
X136629810Y-119002267D01*
X136629816Y-119002262D01*
X136725789Y-118849522D01*
X136785368Y-118679255D01*
X136785369Y-118679249D01*
X136805565Y-118500003D01*
X136805565Y-118499996D01*
X136785369Y-118320750D01*
X136785368Y-118320745D01*
X136768977Y-118273903D01*
X136725789Y-118150478D01*
X136629816Y-117997738D01*
X136502262Y-117870184D01*
X136469379Y-117849522D01*
X136349523Y-117774211D01*
X136179254Y-117714631D01*
X136179249Y-117714630D01*
X136000004Y-117694435D01*
X135999996Y-117694435D01*
X135820750Y-117714630D01*
X135820745Y-117714631D01*
X135650476Y-117774211D01*
X135497737Y-117870184D01*
X135370184Y-117997737D01*
X135274211Y-118150476D01*
X135214631Y-118320745D01*
X135214630Y-118320750D01*
X135194435Y-118499996D01*
X135194435Y-118500003D01*
X135214630Y-118679249D01*
X135214631Y-118679254D01*
X135274211Y-118849523D01*
X135370185Y-119002263D01*
X135372445Y-119005097D01*
X135373334Y-119007275D01*
X135373889Y-119008158D01*
X135373734Y-119008255D01*
X135398855Y-119069783D01*
X135399500Y-119082412D01*
X135399500Y-121917587D01*
X135379815Y-121984626D01*
X135372450Y-121994896D01*
X135370186Y-121997734D01*
X135274211Y-122150476D01*
X135214631Y-122320745D01*
X135214630Y-122320750D01*
X135194435Y-122499996D01*
X135194435Y-122500003D01*
X135214630Y-122679249D01*
X135214631Y-122679254D01*
X135274211Y-122849523D01*
X135370184Y-123002262D01*
X135497738Y-123129816D01*
X135536919Y-123154435D01*
X135562496Y-123170506D01*
X135608787Y-123222841D01*
X135619435Y-123291894D01*
X135591060Y-123355743D01*
X135532670Y-123394115D01*
X135496524Y-123399500D01*
X125007412Y-123399500D01*
X124940373Y-123379815D01*
X124930097Y-123372445D01*
X124927263Y-123370185D01*
X124927262Y-123370184D01*
X124863604Y-123330185D01*
X124774523Y-123274211D01*
X124604254Y-123214631D01*
X124604249Y-123214630D01*
X124425004Y-123194435D01*
X124424996Y-123194435D01*
X124245750Y-123214630D01*
X124245745Y-123214631D01*
X124075476Y-123274211D01*
X123922737Y-123370184D01*
X123795184Y-123497737D01*
X123699211Y-123650476D01*
X123639631Y-123820745D01*
X123639630Y-123820750D01*
X123619435Y-123999996D01*
X122230565Y-123999996D01*
X122226058Y-123960003D01*
X122210369Y-123820750D01*
X122210368Y-123820745D01*
X122173113Y-123714277D01*
X122150789Y-123650478D01*
X122054816Y-123497738D01*
X121927262Y-123370184D01*
X121863604Y-123330185D01*
X121774523Y-123274211D01*
X121604254Y-123214631D01*
X121604249Y-123214630D01*
X121425004Y-123194435D01*
X121424996Y-123194435D01*
X121245750Y-123214630D01*
X121245737Y-123214633D01*
X121075481Y-123274209D01*
X121075477Y-123274210D01*
X120969989Y-123340494D01*
X120904017Y-123359500D01*
X108467412Y-123359500D01*
X108400373Y-123339815D01*
X108390097Y-123332445D01*
X108387263Y-123330185D01*
X108387262Y-123330184D01*
X108298180Y-123274210D01*
X108234523Y-123234211D01*
X108064254Y-123174631D01*
X108064249Y-123174630D01*
X107885004Y-123154435D01*
X107884996Y-123154435D01*
X107705750Y-123174630D01*
X107705745Y-123174631D01*
X107535476Y-123234211D01*
X107382737Y-123330184D01*
X107255184Y-123457737D01*
X107159211Y-123610476D01*
X107099631Y-123780745D01*
X107099630Y-123780750D01*
X107079435Y-123959996D01*
X107079435Y-123960003D01*
X107099630Y-124139249D01*
X107099631Y-124139254D01*
X107159211Y-124309523D01*
X107184345Y-124349523D01*
X107255184Y-124462262D01*
X107382738Y-124589816D01*
X107535478Y-124685789D01*
X107666864Y-124731763D01*
X107705745Y-124745368D01*
X107705750Y-124745369D01*
X107884996Y-124765565D01*
X107885000Y-124765565D01*
X107885004Y-124765565D01*
X108064249Y-124745369D01*
X108064252Y-124745368D01*
X108064255Y-124745368D01*
X108234522Y-124685789D01*
X108387262Y-124589816D01*
X108387267Y-124589810D01*
X108390097Y-124587555D01*
X108392275Y-124586665D01*
X108393158Y-124586111D01*
X108393255Y-124586265D01*
X108454783Y-124561145D01*
X108467412Y-124560500D01*
X113630933Y-124560500D01*
X113697972Y-124580185D01*
X113743727Y-124632989D01*
X113753671Y-124702147D01*
X113747975Y-124725454D01*
X113714632Y-124820742D01*
X113714630Y-124820750D01*
X113694435Y-124999996D01*
X113694435Y-125000003D01*
X113714630Y-125179249D01*
X113714633Y-125179262D01*
X113733978Y-125234545D01*
X113737540Y-125304324D01*
X113702812Y-125364951D01*
X113640818Y-125397179D01*
X113616937Y-125399500D01*
X105051670Y-125399500D01*
X105051654Y-125399499D01*
X105044058Y-125399499D01*
X104885943Y-125399499D01*
X104809579Y-125419961D01*
X104733214Y-125440423D01*
X104733209Y-125440426D01*
X104596290Y-125519475D01*
X104596282Y-125519481D01*
X103596284Y-126519481D01*
X103176465Y-126939298D01*
X103115142Y-126972783D01*
X103102668Y-126974837D01*
X103015750Y-126984630D01*
X102845478Y-127044210D01*
X102692737Y-127140184D01*
X102565184Y-127267737D01*
X102469211Y-127420476D01*
X102409631Y-127590745D01*
X102409630Y-127590750D01*
X102389435Y-127769996D01*
X102389435Y-127770003D01*
X102409630Y-127949249D01*
X102409631Y-127949254D01*
X102469211Y-128119523D01*
X102535982Y-128225788D01*
X102565184Y-128272262D01*
X102692738Y-128399816D01*
X102783080Y-128456582D01*
X102842966Y-128494211D01*
X102845478Y-128495789D01*
X102858836Y-128500463D01*
X103015745Y-128555368D01*
X103015750Y-128555369D01*
X103194996Y-128575565D01*
X103195000Y-128575565D01*
X103195004Y-128575565D01*
X103374249Y-128555369D01*
X103374252Y-128555368D01*
X103374255Y-128555368D01*
X103544522Y-128495789D01*
X103697262Y-128399816D01*
X103824816Y-128272262D01*
X103920789Y-128119522D01*
X103980368Y-127949255D01*
X103990161Y-127862329D01*
X104017226Y-127797918D01*
X104025680Y-127788553D01*
X104445519Y-127368716D01*
X104445518Y-127368716D01*
X104504087Y-127310147D01*
X105177417Y-126636819D01*
X105238740Y-126603334D01*
X105265098Y-126600500D01*
X115413331Y-126600500D01*
X115413347Y-126600501D01*
X115420943Y-126600501D01*
X115586654Y-126600501D01*
X115586670Y-126600500D01*
X116699903Y-126600500D01*
X116766942Y-126620185D01*
X116787584Y-126636819D01*
X117118722Y-126967957D01*
X117152207Y-127029280D01*
X117148083Y-127096591D01*
X117139631Y-127120745D01*
X117139631Y-127120746D01*
X117119435Y-127299996D01*
X117119435Y-127300003D01*
X117139630Y-127479249D01*
X117139631Y-127479254D01*
X117199211Y-127649523D01*
X117270212Y-127762519D01*
X117295184Y-127802262D01*
X117422738Y-127929816D01*
X117575478Y-128025789D01*
X117745745Y-128085368D01*
X117745750Y-128085369D01*
X117924996Y-128105565D01*
X117925000Y-128105565D01*
X117925004Y-128105565D01*
X118104249Y-128085369D01*
X118104252Y-128085368D01*
X118104255Y-128085368D01*
X118274522Y-128025789D01*
X118427262Y-127929816D01*
X118554816Y-127802262D01*
X118650789Y-127649522D01*
X118659312Y-127625164D01*
X118700032Y-127568388D01*
X118764984Y-127542639D01*
X118833546Y-127556094D01*
X118883950Y-127604480D01*
X118900193Y-127672435D01*
X118899574Y-127679999D01*
X118889435Y-127769994D01*
X118889435Y-127770003D01*
X118909630Y-127949249D01*
X118909631Y-127949254D01*
X118969211Y-128119523D01*
X119065184Y-128272262D01*
X119095510Y-128302588D01*
X119128995Y-128363911D01*
X119124011Y-128433603D01*
X119082139Y-128489536D01*
X119073802Y-128495262D01*
X118922739Y-128590183D01*
X118919903Y-128592445D01*
X118917722Y-128593335D01*
X118916843Y-128593888D01*
X118916746Y-128593733D01*
X118855217Y-128618855D01*
X118842588Y-128619500D01*
X114625940Y-128619500D01*
X114585019Y-128630464D01*
X114585019Y-128630465D01*
X114547751Y-128640451D01*
X114473214Y-128660423D01*
X114473209Y-128660426D01*
X114336290Y-128739475D01*
X114336282Y-128739481D01*
X112944481Y-130131282D01*
X112944480Y-130131284D01*
X112908020Y-130194435D01*
X112865423Y-130268215D01*
X112824499Y-130420943D01*
X112824499Y-130420945D01*
X112824499Y-130589046D01*
X112824500Y-130589059D01*
X112824500Y-132913330D01*
X112824499Y-132913348D01*
X112824499Y-133079054D01*
X112824498Y-133079054D01*
X112865424Y-133231789D01*
X112865425Y-133231790D01*
X112886455Y-133268214D01*
X112886456Y-133268216D01*
X112944475Y-133368709D01*
X112944481Y-133368717D01*
X113063349Y-133487585D01*
X113063355Y-133487590D01*
X113788181Y-134212416D01*
X113821666Y-134273739D01*
X113824500Y-134300097D01*
X113824500Y-147099092D01*
X113804815Y-147166131D01*
X113752011Y-147211886D01*
X113741463Y-147216130D01*
X113685093Y-147235854D01*
X113575478Y-147274210D01*
X113422737Y-147370184D01*
X113295184Y-147497737D01*
X113199211Y-147650476D01*
X113139631Y-147820745D01*
X113139630Y-147820750D01*
X113119435Y-147999996D01*
X113119435Y-148000003D01*
X113139630Y-148179249D01*
X113139631Y-148179254D01*
X113199211Y-148349523D01*
X113295184Y-148502262D01*
X113422738Y-148629816D01*
X113575478Y-148725789D01*
X113713860Y-148774211D01*
X113745745Y-148785368D01*
X113745750Y-148785369D01*
X113924996Y-148805565D01*
X113925000Y-148805565D01*
X113925004Y-148805565D01*
X114104249Y-148785369D01*
X114104252Y-148785368D01*
X114104255Y-148785368D01*
X114184017Y-148757457D01*
X114224972Y-148750500D01*
X114351082Y-148750500D01*
X124743060Y-148750500D01*
X124810099Y-148770185D01*
X124855854Y-148822989D01*
X124865798Y-148892147D01*
X124836773Y-148955703D01*
X124830741Y-148962181D01*
X124795184Y-148997737D01*
X124699211Y-149150476D01*
X124639631Y-149320745D01*
X124639630Y-149320750D01*
X124619435Y-149499996D01*
X124619435Y-149500003D01*
X124639630Y-149679249D01*
X124639631Y-149679254D01*
X124699211Y-149849523D01*
X124791163Y-149995863D01*
X124795184Y-150002262D01*
X124922738Y-150129816D01*
X125075478Y-150225789D01*
X125245745Y-150285368D01*
X125332669Y-150295161D01*
X125397080Y-150322226D01*
X125406465Y-150330700D01*
X129980139Y-154904374D01*
X129980149Y-154904385D01*
X129984479Y-154908715D01*
X129984480Y-154908716D01*
X130096284Y-155020520D01*
X130096286Y-155020521D01*
X130096290Y-155020524D01*
X130233209Y-155099573D01*
X130233216Y-155099577D01*
X130345019Y-155129534D01*
X130385942Y-155140500D01*
X130385943Y-155140500D01*
X131635909Y-155140500D01*
X131702948Y-155160185D01*
X131748292Y-155212097D01*
X131750965Y-155217830D01*
X131886501Y-155411395D01*
X131886506Y-155411402D01*
X132053597Y-155578493D01*
X132053603Y-155578498D01*
X132239158Y-155708425D01*
X132282783Y-155763002D01*
X132289977Y-155832500D01*
X132258454Y-155894855D01*
X132239158Y-155911575D01*
X132053597Y-156041505D01*
X131886505Y-156208597D01*
X131750965Y-156402169D01*
X131750964Y-156402171D01*
X131651098Y-156616335D01*
X131651094Y-156616344D01*
X131589938Y-156844586D01*
X131589936Y-156844596D01*
X131569341Y-157079999D01*
X131569341Y-157080000D01*
X131589936Y-157315403D01*
X131589938Y-157315413D01*
X131651094Y-157543655D01*
X131651096Y-157543659D01*
X131651097Y-157543663D01*
X131750965Y-157757830D01*
X131750967Y-157757834D01*
X131886501Y-157951395D01*
X131886506Y-157951402D01*
X131972923Y-158037819D01*
X132006408Y-158099142D01*
X132001424Y-158168834D01*
X131959552Y-158224767D01*
X131894088Y-158249184D01*
X131885242Y-158249500D01*
X117287229Y-158249500D01*
X117220190Y-158229815D01*
X117199548Y-158213181D01*
X111986368Y-152999999D01*
X116069341Y-152999999D01*
X116069341Y-153000000D01*
X116089936Y-153235403D01*
X116089938Y-153235413D01*
X116151094Y-153463655D01*
X116151096Y-153463659D01*
X116151097Y-153463663D01*
X116189806Y-153546674D01*
X116250965Y-153677830D01*
X116250967Y-153677834D01*
X116359281Y-153832521D01*
X116380041Y-153862170D01*
X116386501Y-153871395D01*
X116386506Y-153871402D01*
X116553597Y-154038493D01*
X116553603Y-154038498D01*
X116739158Y-154168425D01*
X116782783Y-154223002D01*
X116789977Y-154292500D01*
X116758454Y-154354855D01*
X116739158Y-154371575D01*
X116553597Y-154501505D01*
X116386505Y-154668597D01*
X116250965Y-154862169D01*
X116250964Y-154862171D01*
X116151098Y-155076335D01*
X116151094Y-155076344D01*
X116089938Y-155304586D01*
X116089936Y-155304596D01*
X116069341Y-155539999D01*
X116069341Y-155540000D01*
X116089936Y-155775403D01*
X116089938Y-155775413D01*
X116151094Y-156003655D01*
X116151096Y-156003659D01*
X116151097Y-156003663D01*
X116168744Y-156041506D01*
X116250965Y-156217830D01*
X116250967Y-156217834D01*
X116359281Y-156372521D01*
X116386505Y-156411401D01*
X116553599Y-156578495D01*
X116595511Y-156607842D01*
X116747165Y-156714032D01*
X116747167Y-156714033D01*
X116747170Y-156714035D01*
X116961337Y-156813903D01*
X117189592Y-156875063D01*
X117377918Y-156891539D01*
X117424999Y-156895659D01*
X117425000Y-156895659D01*
X117425001Y-156895659D01*
X117464234Y-156892226D01*
X117660408Y-156875063D01*
X117888663Y-156813903D01*
X118102830Y-156714035D01*
X118296401Y-156578495D01*
X118463495Y-156411401D01*
X118599035Y-156217830D01*
X118698903Y-156003663D01*
X118760063Y-155775408D01*
X118780659Y-155540000D01*
X118760063Y-155304592D01*
X118698903Y-155076337D01*
X118599035Y-154862171D01*
X118538284Y-154775408D01*
X118463494Y-154668597D01*
X118296402Y-154501506D01*
X118296396Y-154501501D01*
X118110842Y-154371575D01*
X118067217Y-154316998D01*
X118060023Y-154247500D01*
X118091546Y-154185145D01*
X118110842Y-154168425D01*
X118198436Y-154107091D01*
X118296401Y-154038495D01*
X118463495Y-153871401D01*
X118599035Y-153677830D01*
X118698903Y-153463663D01*
X118760063Y-153235408D01*
X118780659Y-153000000D01*
X118760063Y-152764592D01*
X118698903Y-152536337D01*
X118599035Y-152322171D01*
X118478813Y-152150476D01*
X118463496Y-152128600D01*
X118450109Y-152115213D01*
X118341567Y-152006671D01*
X118308084Y-151945351D01*
X118313068Y-151875659D01*
X118354939Y-151819725D01*
X118385915Y-151802810D01*
X118517331Y-151753796D01*
X118632546Y-151667546D01*
X118718796Y-151552331D01*
X118769091Y-151417483D01*
X118775500Y-151357873D01*
X118775499Y-149562128D01*
X118769091Y-149502517D01*
X118768153Y-149500003D01*
X118718797Y-149367671D01*
X118718793Y-149367664D01*
X118632547Y-149252455D01*
X118632544Y-149252452D01*
X118517335Y-149166206D01*
X118517328Y-149166202D01*
X118382482Y-149115908D01*
X118382483Y-149115908D01*
X118322883Y-149109501D01*
X118322881Y-149109500D01*
X118322873Y-149109500D01*
X118322864Y-149109500D01*
X116527129Y-149109500D01*
X116527123Y-149109501D01*
X116467516Y-149115908D01*
X116332671Y-149166202D01*
X116332664Y-149166206D01*
X116217455Y-149252452D01*
X116217452Y-149252455D01*
X116131206Y-149367664D01*
X116131202Y-149367671D01*
X116080908Y-149502517D01*
X116074501Y-149562116D01*
X116074501Y-149562123D01*
X116074500Y-149562135D01*
X116074500Y-151357870D01*
X116074501Y-151357876D01*
X116080908Y-151417483D01*
X116131202Y-151552328D01*
X116131206Y-151552335D01*
X116217452Y-151667544D01*
X116217455Y-151667547D01*
X116332664Y-151753793D01*
X116332671Y-151753797D01*
X116464081Y-151802810D01*
X116520015Y-151844681D01*
X116544432Y-151910145D01*
X116529580Y-151978418D01*
X116508430Y-152006673D01*
X116386503Y-152128600D01*
X116250965Y-152322169D01*
X116250964Y-152322171D01*
X116151098Y-152536335D01*
X116151094Y-152536344D01*
X116089938Y-152764586D01*
X116089936Y-152764596D01*
X116069341Y-152999999D01*
X111986368Y-152999999D01*
X110903421Y-151917052D01*
X110903414Y-151917046D01*
X110829729Y-151867812D01*
X110829729Y-151867813D01*
X110780491Y-151834913D01*
X110643917Y-151778343D01*
X110643907Y-151778340D01*
X110498920Y-151749500D01*
X110498918Y-151749500D01*
X95224972Y-151749500D01*
X95184017Y-151742542D01*
X95104254Y-151714631D01*
X95104249Y-151714630D01*
X94925004Y-151694435D01*
X94924996Y-151694435D01*
X94745750Y-151714630D01*
X94745745Y-151714631D01*
X94575476Y-151774211D01*
X94422737Y-151870184D01*
X94295184Y-151997737D01*
X94199211Y-152150476D01*
X94139631Y-152320745D01*
X94139630Y-152320750D01*
X94119435Y-152499996D01*
X86617088Y-152499996D01*
X86724683Y-135499999D01*
X100489341Y-135499999D01*
X100489341Y-135500000D01*
X100509936Y-135735403D01*
X100509938Y-135735413D01*
X100571094Y-135963655D01*
X100571096Y-135963659D01*
X100571097Y-135963663D01*
X100618737Y-136065826D01*
X100670965Y-136177830D01*
X100670967Y-136177834D01*
X100711285Y-136235413D01*
X100806505Y-136371401D01*
X100973599Y-136538495D01*
X101070384Y-136606265D01*
X101167165Y-136674032D01*
X101167167Y-136674033D01*
X101167170Y-136674035D01*
X101381337Y-136773903D01*
X101609592Y-136835063D01*
X101786034Y-136850500D01*
X101844999Y-136855659D01*
X101845000Y-136855659D01*
X101845001Y-136855659D01*
X101903966Y-136850500D01*
X102080408Y-136835063D01*
X102308663Y-136773903D01*
X102522830Y-136674035D01*
X102716401Y-136538495D01*
X102883495Y-136371401D01*
X103013425Y-136185842D01*
X103068002Y-136142217D01*
X103137500Y-136135023D01*
X103199855Y-136166546D01*
X103216575Y-136185842D01*
X103346500Y-136371395D01*
X103346505Y-136371401D01*
X103513599Y-136538495D01*
X103610384Y-136606265D01*
X103707165Y-136674032D01*
X103707167Y-136674033D01*
X103707170Y-136674035D01*
X103921337Y-136773903D01*
X104149592Y-136835063D01*
X104326034Y-136850500D01*
X104384999Y-136855659D01*
X104385000Y-136855659D01*
X104385001Y-136855659D01*
X104443966Y-136850500D01*
X104620408Y-136835063D01*
X104848663Y-136773903D01*
X105062830Y-136674035D01*
X105256401Y-136538495D01*
X105378329Y-136416566D01*
X105439648Y-136383084D01*
X105509340Y-136388068D01*
X105565274Y-136429939D01*
X105582189Y-136460917D01*
X105631202Y-136592328D01*
X105631206Y-136592335D01*
X105717452Y-136707544D01*
X105717455Y-136707547D01*
X105832664Y-136793793D01*
X105832671Y-136793797D01*
X105967517Y-136844091D01*
X105967516Y-136844091D01*
X105974444Y-136844835D01*
X106027127Y-136850500D01*
X107822872Y-136850499D01*
X107882483Y-136844091D01*
X108017331Y-136793796D01*
X108132546Y-136707546D01*
X108218796Y-136592331D01*
X108269091Y-136457483D01*
X108275500Y-136397873D01*
X108275499Y-134602128D01*
X108269091Y-134542517D01*
X108267810Y-134539083D01*
X108218797Y-134407671D01*
X108218793Y-134407664D01*
X108132547Y-134292455D01*
X108132544Y-134292452D01*
X108017335Y-134206206D01*
X108017328Y-134206202D01*
X107882482Y-134155908D01*
X107882483Y-134155908D01*
X107822883Y-134149501D01*
X107822881Y-134149500D01*
X107822873Y-134149500D01*
X107822864Y-134149500D01*
X106027129Y-134149500D01*
X106027123Y-134149501D01*
X105967516Y-134155908D01*
X105832671Y-134206202D01*
X105832664Y-134206206D01*
X105717455Y-134292452D01*
X105717452Y-134292455D01*
X105631206Y-134407664D01*
X105631203Y-134407669D01*
X105582189Y-134539083D01*
X105540317Y-134595016D01*
X105474853Y-134619433D01*
X105406580Y-134604581D01*
X105378326Y-134583430D01*
X105256402Y-134461506D01*
X105256395Y-134461501D01*
X105062834Y-134325967D01*
X105062830Y-134325965D01*
X105007356Y-134300097D01*
X104848663Y-134226097D01*
X104848659Y-134226096D01*
X104848655Y-134226094D01*
X104620413Y-134164938D01*
X104620403Y-134164936D01*
X104385001Y-134144341D01*
X104384999Y-134144341D01*
X104149596Y-134164936D01*
X104149583Y-134164939D01*
X104021241Y-134199327D01*
X103951392Y-134197664D01*
X103901468Y-134167233D01*
X102561819Y-132827584D01*
X102528334Y-132766261D01*
X102525500Y-132739903D01*
X102525500Y-132503476D01*
X102545185Y-132436437D01*
X102597989Y-132390682D01*
X102667147Y-132380738D01*
X102730703Y-132409763D01*
X102754493Y-132437503D01*
X102795184Y-132502262D01*
X102922738Y-132629816D01*
X102993392Y-132674211D01*
X103057721Y-132714632D01*
X103075478Y-132725789D01*
X103202349Y-132770183D01*
X103245745Y-132785368D01*
X103245750Y-132785369D01*
X103424996Y-132805565D01*
X103425000Y-132805565D01*
X103425004Y-132805565D01*
X103604249Y-132785369D01*
X103604252Y-132785368D01*
X103604255Y-132785368D01*
X103774522Y-132725789D01*
X103927262Y-132629816D01*
X103927267Y-132629810D01*
X103930097Y-132627555D01*
X103932275Y-132626665D01*
X103933158Y-132626111D01*
X103933255Y-132626265D01*
X103994783Y-132601145D01*
X104007412Y-132600500D01*
X105838331Y-132600500D01*
X105838347Y-132600501D01*
X105845943Y-132600501D01*
X106004054Y-132600501D01*
X106004057Y-132600501D01*
X106156785Y-132559577D01*
X106226233Y-132519481D01*
X106293716Y-132480520D01*
X106405520Y-132368716D01*
X106405520Y-132368714D01*
X106415724Y-132358511D01*
X106415728Y-132358506D01*
X106943535Y-131830698D01*
X107004856Y-131797215D01*
X107017311Y-131795163D01*
X107104255Y-131785368D01*
X107274522Y-131725789D01*
X107427262Y-131629816D01*
X107554816Y-131502262D01*
X107650789Y-131349522D01*
X107710368Y-131179255D01*
X107730565Y-131000000D01*
X107727419Y-130972082D01*
X107710369Y-130820750D01*
X107710368Y-130820745D01*
X107703143Y-130800097D01*
X107650789Y-130650478D01*
X107554816Y-130497738D01*
X107427262Y-130370184D01*
X107394379Y-130349522D01*
X107274523Y-130274211D01*
X107104254Y-130214631D01*
X107104249Y-130214630D01*
X106925004Y-130194435D01*
X106924996Y-130194435D01*
X106745750Y-130214630D01*
X106745745Y-130214631D01*
X106575476Y-130274211D01*
X106422737Y-130370184D01*
X106295184Y-130497737D01*
X106199210Y-130650478D01*
X106139630Y-130820750D01*
X106129837Y-130907668D01*
X106102770Y-130972082D01*
X106094298Y-130981465D01*
X105712584Y-131363181D01*
X105651261Y-131396666D01*
X105624903Y-131399500D01*
X104007412Y-131399500D01*
X103940373Y-131379815D01*
X103930097Y-131372445D01*
X103927263Y-131370185D01*
X103927262Y-131370184D01*
X103870496Y-131334515D01*
X103774523Y-131274211D01*
X103604254Y-131214631D01*
X103604249Y-131214630D01*
X103425004Y-131194435D01*
X103424996Y-131194435D01*
X103245750Y-131214630D01*
X103245745Y-131214631D01*
X103075476Y-131274211D01*
X102922737Y-131370184D01*
X102795182Y-131497739D01*
X102754493Y-131562496D01*
X102702158Y-131608787D01*
X102633105Y-131619434D01*
X102569257Y-131591059D01*
X102530885Y-131532669D01*
X102525500Y-131496523D01*
X102525500Y-130582412D01*
X102545185Y-130515373D01*
X102552555Y-130505097D01*
X102554810Y-130502267D01*
X102554816Y-130502262D01*
X102650789Y-130349522D01*
X102710368Y-130179255D01*
X102715773Y-130131284D01*
X102730565Y-130000003D01*
X102730565Y-129999996D01*
X102710369Y-129820750D01*
X102710368Y-129820745D01*
X102650788Y-129650476D01*
X102611582Y-129588080D01*
X102554816Y-129497738D01*
X102427262Y-129370184D01*
X102274523Y-129274211D01*
X102104254Y-129214631D01*
X102104249Y-129214630D01*
X101925004Y-129194435D01*
X101924996Y-129194435D01*
X101745750Y-129214630D01*
X101745745Y-129214631D01*
X101575476Y-129274211D01*
X101422737Y-129370184D01*
X101295184Y-129497737D01*
X101199211Y-129650476D01*
X101139631Y-129820745D01*
X101139630Y-129820750D01*
X101119435Y-129999996D01*
X101119435Y-130000003D01*
X101139630Y-130179249D01*
X101139631Y-130179254D01*
X101199211Y-130349523D01*
X101244088Y-130420943D01*
X101292341Y-130497738D01*
X101295185Y-130502263D01*
X101297445Y-130505097D01*
X101298334Y-130507275D01*
X101298889Y-130508158D01*
X101298734Y-130508255D01*
X101323855Y-130569783D01*
X101324500Y-130582412D01*
X101324500Y-132953330D01*
X101324499Y-132953348D01*
X101324499Y-133119054D01*
X101324498Y-133119054D01*
X101365424Y-133271789D01*
X101365425Y-133271790D01*
X101384925Y-133305564D01*
X101384926Y-133305565D01*
X101444477Y-133408712D01*
X101444481Y-133408717D01*
X101563349Y-133527585D01*
X101563355Y-133527590D01*
X101971333Y-133935568D01*
X102004818Y-133996891D01*
X101999834Y-134066583D01*
X101957962Y-134122516D01*
X101892498Y-134146933D01*
X101872844Y-134146777D01*
X101845001Y-134144341D01*
X101844999Y-134144341D01*
X101609596Y-134164936D01*
X101609586Y-134164938D01*
X101381344Y-134226094D01*
X101381335Y-134226098D01*
X101167171Y-134325964D01*
X101167169Y-134325965D01*
X100973597Y-134461505D01*
X100806505Y-134628597D01*
X100670965Y-134822169D01*
X100670964Y-134822171D01*
X100571098Y-135036335D01*
X100571094Y-135036344D01*
X100509938Y-135264586D01*
X100509936Y-135264596D01*
X100489341Y-135499999D01*
X86724683Y-135499999D01*
X86841772Y-116999999D01*
X95604341Y-116999999D01*
X95604341Y-117000000D01*
X95624936Y-117235403D01*
X95624938Y-117235413D01*
X95686094Y-117463655D01*
X95686096Y-117463659D01*
X95686097Y-117463663D01*
X95745377Y-117590788D01*
X95785965Y-117677830D01*
X95785967Y-117677834D01*
X95853452Y-117774212D01*
X95921505Y-117871401D01*
X96088599Y-118038495D01*
X96185384Y-118106265D01*
X96282165Y-118174032D01*
X96282167Y-118174033D01*
X96282170Y-118174035D01*
X96496337Y-118273903D01*
X96724592Y-118335063D01*
X96901034Y-118350500D01*
X96959999Y-118355659D01*
X96960000Y-118355659D01*
X96960001Y-118355659D01*
X97018966Y-118350500D01*
X97195408Y-118335063D01*
X97323757Y-118300672D01*
X97393606Y-118302335D01*
X97443531Y-118332766D01*
X98975139Y-119864374D01*
X98975149Y-119864385D01*
X98979479Y-119868715D01*
X98979480Y-119868716D01*
X99091284Y-119980520D01*
X99178095Y-120030639D01*
X99178097Y-120030641D01*
X99216151Y-120052611D01*
X99228215Y-120059577D01*
X99380943Y-120100501D01*
X99380946Y-120100501D01*
X99546653Y-120100501D01*
X99546669Y-120100500D01*
X112538331Y-120100500D01*
X112538347Y-120100501D01*
X112545943Y-120100501D01*
X112704054Y-120100501D01*
X112704057Y-120100501D01*
X112856785Y-120059577D01*
X112906904Y-120030639D01*
X112993716Y-119980520D01*
X113105520Y-119868716D01*
X113105520Y-119868714D01*
X113115728Y-119858507D01*
X113115729Y-119858504D01*
X113880520Y-119093716D01*
X113959577Y-118956784D01*
X114000501Y-118804057D01*
X114000501Y-118645942D01*
X114000501Y-118638347D01*
X114000500Y-118638329D01*
X114000500Y-117499996D01*
X130194435Y-117499996D01*
X130194435Y-117500003D01*
X130214630Y-117679249D01*
X130214631Y-117679254D01*
X130274211Y-117849523D01*
X130356523Y-117980521D01*
X130370184Y-118002262D01*
X130497738Y-118129816D01*
X130650478Y-118225789D01*
X130820745Y-118285368D01*
X130820750Y-118285369D01*
X130999996Y-118305565D01*
X131000000Y-118305565D01*
X131000004Y-118305565D01*
X131179249Y-118285369D01*
X131179252Y-118285368D01*
X131179255Y-118285368D01*
X131349522Y-118225789D01*
X131502262Y-118129816D01*
X131629816Y-118002262D01*
X131725789Y-117849522D01*
X131785368Y-117679255D01*
X131795336Y-117590788D01*
X131805565Y-117500003D01*
X131805565Y-117499996D01*
X131785369Y-117320750D01*
X131785368Y-117320745D01*
X131755507Y-117235408D01*
X131725789Y-117150478D01*
X131629816Y-116997738D01*
X131629814Y-116997736D01*
X131629813Y-116997734D01*
X131627550Y-116994896D01*
X131626659Y-116992715D01*
X131626111Y-116991842D01*
X131626264Y-116991745D01*
X131601144Y-116930209D01*
X131600500Y-116917587D01*
X131600500Y-116224500D01*
X131620185Y-116157461D01*
X131672989Y-116111706D01*
X131724500Y-116100500D01*
X135699903Y-116100500D01*
X135766942Y-116120185D01*
X135787584Y-116136819D01*
X136534298Y-116883533D01*
X136567783Y-116944856D01*
X136569837Y-116957330D01*
X136579630Y-117044249D01*
X136639210Y-117214521D01*
X136735184Y-117367262D01*
X136862738Y-117494816D01*
X136953080Y-117551582D01*
X136996806Y-117579057D01*
X137015478Y-117590789D01*
X137169441Y-117644663D01*
X137185745Y-117650368D01*
X137185750Y-117650369D01*
X137364996Y-117670565D01*
X137365000Y-117670565D01*
X137365004Y-117670565D01*
X137544249Y-117650369D01*
X137544252Y-117650368D01*
X137544255Y-117650368D01*
X137714522Y-117590789D01*
X137867262Y-117494816D01*
X137994816Y-117367262D01*
X138090789Y-117214522D01*
X138150368Y-117044255D01*
X138150369Y-117044249D01*
X138170565Y-116865003D01*
X138170565Y-116864996D01*
X138150369Y-116685750D01*
X138150368Y-116685745D01*
X138090788Y-116515476D01*
X138051582Y-116453080D01*
X137994816Y-116362738D01*
X137867262Y-116235184D01*
X137743567Y-116157461D01*
X137714521Y-116139210D01*
X137544249Y-116079630D01*
X137457330Y-116069837D01*
X137392916Y-116042770D01*
X137383533Y-116034298D01*
X136487590Y-115138355D01*
X136487588Y-115138352D01*
X136368717Y-115019481D01*
X136368716Y-115019480D01*
X136281904Y-114969360D01*
X136281904Y-114969359D01*
X136281900Y-114969358D01*
X136231785Y-114940423D01*
X136079057Y-114899499D01*
X135920943Y-114899499D01*
X135913347Y-114899499D01*
X135913331Y-114899500D01*
X130920943Y-114899500D01*
X130768216Y-114940423D01*
X130768209Y-114940426D01*
X130631290Y-115019475D01*
X130631282Y-115019481D01*
X130519481Y-115131282D01*
X130519475Y-115131290D01*
X130440426Y-115268209D01*
X130440423Y-115268216D01*
X130399500Y-115420943D01*
X130399500Y-116917587D01*
X130379815Y-116984626D01*
X130372450Y-116994896D01*
X130370186Y-116997734D01*
X130274211Y-117150476D01*
X130214631Y-117320745D01*
X130214630Y-117320750D01*
X130194435Y-117499996D01*
X114000500Y-117499996D01*
X114000500Y-112900096D01*
X114020185Y-112833057D01*
X114036815Y-112812419D01*
X114518535Y-112330698D01*
X114579856Y-112297215D01*
X114592311Y-112295163D01*
X114679255Y-112285368D01*
X114849522Y-112225789D01*
X114996433Y-112133478D01*
X115063668Y-112114478D01*
X115130503Y-112134845D01*
X115150085Y-112150791D01*
X116349208Y-113349914D01*
X116382693Y-113411237D01*
X116377709Y-113480929D01*
X116366521Y-113503567D01*
X116274211Y-113650476D01*
X116214631Y-113820745D01*
X116214630Y-113820750D01*
X116194435Y-113999996D01*
X116194435Y-114000003D01*
X116214630Y-114179249D01*
X116214631Y-114179254D01*
X116274211Y-114349523D01*
X116363576Y-114491745D01*
X116370184Y-114502262D01*
X116497738Y-114629816D01*
X116650478Y-114725789D01*
X116820745Y-114785368D01*
X116820750Y-114785369D01*
X116999996Y-114805565D01*
X117000000Y-114805565D01*
X117000004Y-114805565D01*
X117179249Y-114785369D01*
X117179252Y-114785368D01*
X117179255Y-114785368D01*
X117349522Y-114725789D01*
X117502262Y-114629816D01*
X117629816Y-114502262D01*
X117725789Y-114349522D01*
X117785368Y-114179255D01*
X117785369Y-114179249D01*
X117805565Y-114000003D01*
X117805565Y-113999996D01*
X117785369Y-113820750D01*
X117785368Y-113820745D01*
X117725788Y-113650476D01*
X117651079Y-113531578D01*
X117629816Y-113497738D01*
X117629814Y-113497736D01*
X117629813Y-113497734D01*
X117627550Y-113494896D01*
X117626659Y-113492715D01*
X117626111Y-113491842D01*
X117626264Y-113491745D01*
X117601144Y-113430209D01*
X117600500Y-113417587D01*
X117600500Y-113240530D01*
X117600501Y-113240517D01*
X117600501Y-113072416D01*
X117600501Y-113072414D01*
X117559577Y-112919686D01*
X117525011Y-112859816D01*
X117525011Y-112859815D01*
X117480524Y-112782761D01*
X117480521Y-112782757D01*
X117480520Y-112782755D01*
X117368716Y-112670951D01*
X117368715Y-112670950D01*
X117364385Y-112666620D01*
X117364374Y-112666610D01*
X117197760Y-112499996D01*
X125194435Y-112499996D01*
X125194435Y-112500003D01*
X125214630Y-112679249D01*
X125214631Y-112679254D01*
X125274211Y-112849523D01*
X125318297Y-112919684D01*
X125368760Y-112999996D01*
X125370185Y-113002263D01*
X125372445Y-113005097D01*
X125373334Y-113007275D01*
X125373889Y-113008158D01*
X125373734Y-113008255D01*
X125398855Y-113069783D01*
X125399500Y-113082412D01*
X125399500Y-114417587D01*
X125379815Y-114484626D01*
X125372450Y-114494896D01*
X125370186Y-114497734D01*
X125274211Y-114650476D01*
X125214631Y-114820745D01*
X125214630Y-114820750D01*
X125194435Y-114999996D01*
X125194435Y-115000003D01*
X125214630Y-115179249D01*
X125214631Y-115179254D01*
X125274211Y-115349523D01*
X125370184Y-115502262D01*
X125497738Y-115629816D01*
X125588080Y-115686582D01*
X125619308Y-115706204D01*
X125650478Y-115725789D01*
X125820745Y-115785368D01*
X125820750Y-115785369D01*
X125999996Y-115805565D01*
X126000000Y-115805565D01*
X126000004Y-115805565D01*
X126179249Y-115785369D01*
X126179252Y-115785368D01*
X126179255Y-115785368D01*
X126349522Y-115725789D01*
X126502262Y-115629816D01*
X126629816Y-115502262D01*
X126725789Y-115349522D01*
X126785368Y-115179255D01*
X126785369Y-115179249D01*
X126805565Y-115000003D01*
X126805565Y-114999996D01*
X126785369Y-114820750D01*
X126785368Y-114820745D01*
X126752141Y-114725788D01*
X126725789Y-114650478D01*
X126629816Y-114497738D01*
X126629814Y-114497736D01*
X126629813Y-114497734D01*
X126627550Y-114494896D01*
X126626659Y-114492715D01*
X126626111Y-114491842D01*
X126626264Y-114491745D01*
X126601144Y-114430209D01*
X126600500Y-114417587D01*
X126600500Y-113082412D01*
X126620185Y-113015373D01*
X126627555Y-113005097D01*
X126629810Y-113002267D01*
X126629816Y-113002262D01*
X126725789Y-112849522D01*
X126785368Y-112679255D01*
X126785390Y-112679060D01*
X126805565Y-112500003D01*
X126805565Y-112499996D01*
X126785369Y-112320750D01*
X126785368Y-112320745D01*
X126754064Y-112231284D01*
X126725789Y-112150478D01*
X126706310Y-112119478D01*
X126663126Y-112050750D01*
X126629816Y-111997738D01*
X126502262Y-111870184D01*
X126399422Y-111805565D01*
X126349523Y-111774211D01*
X126179254Y-111714631D01*
X126179249Y-111714630D01*
X126000004Y-111694435D01*
X125999996Y-111694435D01*
X125820750Y-111714630D01*
X125820745Y-111714631D01*
X125650476Y-111774211D01*
X125497737Y-111870184D01*
X125370184Y-111997737D01*
X125274211Y-112150476D01*
X125214631Y-112320745D01*
X125214630Y-112320750D01*
X125194435Y-112499996D01*
X117197760Y-112499996D01*
X114336119Y-109638355D01*
X114336117Y-109638352D01*
X114217246Y-109519481D01*
X114217238Y-109519475D01*
X114115465Y-109460717D01*
X114115463Y-109460716D01*
X114080319Y-109440425D01*
X114080318Y-109440424D01*
X114067792Y-109437067D01*
X113927586Y-109399499D01*
X113769472Y-109399499D01*
X113761876Y-109399499D01*
X113761860Y-109399500D01*
X106582412Y-109399500D01*
X106515373Y-109379815D01*
X106505097Y-109372445D01*
X106502263Y-109370185D01*
X106502262Y-109370184D01*
X106445496Y-109334515D01*
X106349523Y-109274211D01*
X106179254Y-109214631D01*
X106179249Y-109214630D01*
X106000004Y-109194435D01*
X105999996Y-109194435D01*
X105820750Y-109214630D01*
X105820745Y-109214631D01*
X105650476Y-109274211D01*
X105497737Y-109370184D01*
X105370184Y-109497737D01*
X105274211Y-109650476D01*
X105214631Y-109820745D01*
X105214630Y-109820750D01*
X105194435Y-109999996D01*
X105194435Y-110000003D01*
X105214630Y-110179249D01*
X105214631Y-110179254D01*
X105274211Y-110349523D01*
X105363576Y-110491745D01*
X105370184Y-110502262D01*
X105497738Y-110629816D01*
X105650478Y-110725789D01*
X105803164Y-110779216D01*
X105820745Y-110785368D01*
X105820750Y-110785369D01*
X105999996Y-110805565D01*
X106000000Y-110805565D01*
X106000004Y-110805565D01*
X106179249Y-110785369D01*
X106179252Y-110785368D01*
X106179255Y-110785368D01*
X106349522Y-110725789D01*
X106502262Y-110629816D01*
X106502267Y-110629810D01*
X106505097Y-110627555D01*
X106507275Y-110626665D01*
X106508158Y-110626111D01*
X106508255Y-110626265D01*
X106569783Y-110601145D01*
X106582412Y-110600500D01*
X113548432Y-110600500D01*
X113615471Y-110620185D01*
X113636113Y-110636819D01*
X113849208Y-110849914D01*
X113882693Y-110911237D01*
X113877709Y-110980929D01*
X113866521Y-111003567D01*
X113774210Y-111150478D01*
X113714630Y-111320750D01*
X113704837Y-111407668D01*
X113677770Y-111472082D01*
X113669298Y-111481465D01*
X113031286Y-112119478D01*
X112919481Y-112231282D01*
X112919479Y-112231284D01*
X112897532Y-112269299D01*
X112888255Y-112285368D01*
X112840423Y-112368215D01*
X112799499Y-112520943D01*
X112799499Y-112520945D01*
X112799499Y-112689046D01*
X112799500Y-112689059D01*
X112799500Y-118424902D01*
X112779815Y-118491941D01*
X112763181Y-118512583D01*
X112412584Y-118863181D01*
X112351261Y-118896666D01*
X112324903Y-118899500D01*
X99760097Y-118899500D01*
X99693058Y-118879815D01*
X99672416Y-118863181D01*
X99373666Y-118564431D01*
X99340181Y-118503108D01*
X99345165Y-118433416D01*
X99387037Y-118377483D01*
X99452501Y-118353066D01*
X99472144Y-118353221D01*
X99500000Y-118355659D01*
X99735408Y-118335063D01*
X99963663Y-118273903D01*
X100177830Y-118174035D01*
X100371401Y-118038495D01*
X100493329Y-117916566D01*
X100554648Y-117883084D01*
X100624340Y-117888068D01*
X100680274Y-117929939D01*
X100697189Y-117960917D01*
X100746202Y-118092328D01*
X100746206Y-118092335D01*
X100832452Y-118207544D01*
X100832455Y-118207547D01*
X100947664Y-118293793D01*
X100947671Y-118293797D01*
X101082517Y-118344091D01*
X101082516Y-118344091D01*
X101089444Y-118344835D01*
X101142127Y-118350500D01*
X102937872Y-118350499D01*
X102997483Y-118344091D01*
X103132331Y-118293796D01*
X103247546Y-118207546D01*
X103333796Y-118092331D01*
X103384091Y-117957483D01*
X103390500Y-117897873D01*
X103390499Y-116102128D01*
X103384091Y-116042517D01*
X103382810Y-116039083D01*
X103333797Y-115907671D01*
X103333793Y-115907664D01*
X103247547Y-115792455D01*
X103247544Y-115792452D01*
X103132335Y-115706206D01*
X103132328Y-115706202D01*
X102997482Y-115655908D01*
X102997483Y-115655908D01*
X102937883Y-115649501D01*
X102937881Y-115649500D01*
X102937873Y-115649500D01*
X102937864Y-115649500D01*
X101142129Y-115649500D01*
X101142123Y-115649501D01*
X101082516Y-115655908D01*
X100947671Y-115706202D01*
X100947664Y-115706206D01*
X100832455Y-115792452D01*
X100832452Y-115792455D01*
X100746206Y-115907664D01*
X100746203Y-115907669D01*
X100697189Y-116039083D01*
X100655317Y-116095016D01*
X100589853Y-116119433D01*
X100521580Y-116104581D01*
X100493326Y-116083430D01*
X100371402Y-115961506D01*
X100371395Y-115961501D01*
X100177834Y-115825967D01*
X100177830Y-115825965D01*
X100134082Y-115805565D01*
X99963663Y-115726097D01*
X99963659Y-115726096D01*
X99963655Y-115726094D01*
X99735413Y-115664938D01*
X99735403Y-115664936D01*
X99500001Y-115644341D01*
X99499999Y-115644341D01*
X99264596Y-115664936D01*
X99264586Y-115664938D01*
X99036344Y-115726094D01*
X99036335Y-115726098D01*
X98822171Y-115825964D01*
X98822169Y-115825965D01*
X98628597Y-115961505D01*
X98461505Y-116128597D01*
X98331575Y-116314158D01*
X98276998Y-116357783D01*
X98207500Y-116364977D01*
X98145145Y-116333454D01*
X98128425Y-116314158D01*
X97998494Y-116128597D01*
X97831402Y-115961506D01*
X97831395Y-115961501D01*
X97637834Y-115825967D01*
X97637830Y-115825965D01*
X97594082Y-115805565D01*
X97423663Y-115726097D01*
X97423659Y-115726096D01*
X97423655Y-115726094D01*
X97195413Y-115664938D01*
X97195403Y-115664936D01*
X96960001Y-115644341D01*
X96959999Y-115644341D01*
X96724596Y-115664936D01*
X96724586Y-115664938D01*
X96496344Y-115726094D01*
X96496335Y-115726098D01*
X96282171Y-115825964D01*
X96282169Y-115825965D01*
X96088597Y-115961505D01*
X95921505Y-116128597D01*
X95785965Y-116322169D01*
X95785964Y-116322171D01*
X95686098Y-116536335D01*
X95686094Y-116536344D01*
X95624938Y-116764586D01*
X95624936Y-116764596D01*
X95604341Y-116999999D01*
X86841772Y-116999999D01*
X86924828Y-103877135D01*
X90649500Y-103877135D01*
X90649500Y-105672870D01*
X90649501Y-105672876D01*
X90655908Y-105732483D01*
X90706202Y-105867328D01*
X90706206Y-105867335D01*
X90792452Y-105982544D01*
X90792455Y-105982547D01*
X90907664Y-106068793D01*
X90907671Y-106068797D01*
X91042517Y-106119091D01*
X91042516Y-106119091D01*
X91049444Y-106119835D01*
X91102127Y-106125500D01*
X92897872Y-106125499D01*
X92957483Y-106119091D01*
X93092331Y-106068796D01*
X93207546Y-105982546D01*
X93293796Y-105867331D01*
X93344091Y-105732483D01*
X93350500Y-105672873D01*
X93350500Y-105499500D01*
X93370185Y-105432461D01*
X93422989Y-105386706D01*
X93474500Y-105375500D01*
X99222630Y-105375500D01*
X99289669Y-105395185D01*
X99335424Y-105447989D01*
X99345368Y-105517147D01*
X99327624Y-105565472D01*
X99274211Y-105650477D01*
X99214631Y-105820745D01*
X99214630Y-105820750D01*
X99194435Y-105999996D01*
X99194435Y-106000003D01*
X99214630Y-106179249D01*
X99214631Y-106179254D01*
X99274211Y-106349523D01*
X99297646Y-106386819D01*
X99367640Y-106498214D01*
X99370185Y-106502263D01*
X99372445Y-106505097D01*
X99373334Y-106507275D01*
X99373889Y-106508158D01*
X99373734Y-106508255D01*
X99398855Y-106569783D01*
X99399500Y-106582412D01*
X99399500Y-107199902D01*
X99379815Y-107266941D01*
X99363181Y-107287583D01*
X97019481Y-109631282D01*
X97019479Y-109631285D01*
X96969361Y-109718094D01*
X96969359Y-109718096D01*
X96940425Y-109768209D01*
X96940424Y-109768210D01*
X96940423Y-109768215D01*
X96899499Y-109920943D01*
X96899499Y-109920945D01*
X96899499Y-110089046D01*
X96899500Y-110089059D01*
X96899500Y-113417587D01*
X96879815Y-113484626D01*
X96872450Y-113494896D01*
X96870186Y-113497734D01*
X96774211Y-113650476D01*
X96714631Y-113820745D01*
X96714630Y-113820750D01*
X96694435Y-113999996D01*
X96694435Y-114000003D01*
X96714630Y-114179249D01*
X96714631Y-114179254D01*
X96774211Y-114349523D01*
X96863576Y-114491745D01*
X96870184Y-114502262D01*
X96997738Y-114629816D01*
X97150478Y-114725789D01*
X97320745Y-114785368D01*
X97320750Y-114785369D01*
X97499996Y-114805565D01*
X97500000Y-114805565D01*
X97500004Y-114805565D01*
X97679249Y-114785369D01*
X97679252Y-114785368D01*
X97679255Y-114785368D01*
X97849522Y-114725789D01*
X98002262Y-114629816D01*
X98129816Y-114502262D01*
X98131240Y-114499996D01*
X99194435Y-114499996D01*
X99194435Y-114500003D01*
X99214630Y-114679249D01*
X99214631Y-114679254D01*
X99274211Y-114849523D01*
X99305614Y-114899500D01*
X99370184Y-115002262D01*
X99497738Y-115129816D01*
X99650478Y-115225789D01*
X99820745Y-115285368D01*
X99820750Y-115285369D01*
X99999996Y-115305565D01*
X100000000Y-115305565D01*
X100000004Y-115305565D01*
X100179249Y-115285369D01*
X100179252Y-115285368D01*
X100179255Y-115285368D01*
X100349522Y-115225789D01*
X100502262Y-115129816D01*
X100502267Y-115129810D01*
X100505097Y-115127555D01*
X100507275Y-115126665D01*
X100508158Y-115126111D01*
X100508255Y-115126265D01*
X100569783Y-115101145D01*
X100582412Y-115100500D01*
X102917588Y-115100500D01*
X102984627Y-115120185D01*
X102994903Y-115127555D01*
X102997736Y-115129814D01*
X102997738Y-115129816D01*
X103150478Y-115225789D01*
X103320745Y-115285368D01*
X103320750Y-115285369D01*
X103499996Y-115305565D01*
X103500000Y-115305565D01*
X103500004Y-115305565D01*
X103679249Y-115285369D01*
X103679252Y-115285368D01*
X103679255Y-115285368D01*
X103849522Y-115225789D01*
X104002262Y-115129816D01*
X104129816Y-115002262D01*
X104225789Y-114849522D01*
X104285368Y-114679255D01*
X104285369Y-114679249D01*
X104305565Y-114500003D01*
X104305565Y-114499996D01*
X104285369Y-114320750D01*
X104285368Y-114320745D01*
X104225789Y-114150478D01*
X104129816Y-113997738D01*
X104002262Y-113870184D01*
X103849523Y-113774211D01*
X103679254Y-113714631D01*
X103679249Y-113714630D01*
X103500004Y-113694435D01*
X103499996Y-113694435D01*
X103320750Y-113714630D01*
X103320745Y-113714631D01*
X103150476Y-113774211D01*
X102997736Y-113870185D01*
X102994903Y-113872445D01*
X102992724Y-113873334D01*
X102991842Y-113873889D01*
X102991744Y-113873734D01*
X102930217Y-113898855D01*
X102917588Y-113899500D01*
X100582412Y-113899500D01*
X100515373Y-113879815D01*
X100505097Y-113872445D01*
X100502263Y-113870185D01*
X100502262Y-113870184D01*
X100445496Y-113834515D01*
X100349523Y-113774211D01*
X100179254Y-113714631D01*
X100179249Y-113714630D01*
X100000004Y-113694435D01*
X99999996Y-113694435D01*
X99820750Y-113714630D01*
X99820745Y-113714631D01*
X99650476Y-113774211D01*
X99497737Y-113870184D01*
X99370184Y-113997737D01*
X99274211Y-114150476D01*
X99214631Y-114320745D01*
X99214630Y-114320750D01*
X99194435Y-114499996D01*
X98131240Y-114499996D01*
X98225789Y-114349522D01*
X98285368Y-114179255D01*
X98285369Y-114179249D01*
X98305565Y-114000003D01*
X98305565Y-113999996D01*
X98285369Y-113820750D01*
X98285368Y-113820745D01*
X98225788Y-113650476D01*
X98151079Y-113531578D01*
X98129816Y-113497738D01*
X98129814Y-113497736D01*
X98129813Y-113497734D01*
X98127550Y-113494896D01*
X98126659Y-113492715D01*
X98126111Y-113491842D01*
X98126264Y-113491745D01*
X98101144Y-113430209D01*
X98100500Y-113417587D01*
X98100500Y-110300096D01*
X98120185Y-110233057D01*
X98136814Y-110212420D01*
X99849237Y-108499996D01*
X102694435Y-108499996D01*
X102694435Y-108500003D01*
X102714630Y-108679249D01*
X102714631Y-108679254D01*
X102774211Y-108849523D01*
X102805614Y-108899500D01*
X102867341Y-108997738D01*
X102870185Y-109002263D01*
X102872445Y-109005097D01*
X102873334Y-109007275D01*
X102873889Y-109008158D01*
X102873734Y-109008255D01*
X102898855Y-109069783D01*
X102899500Y-109082412D01*
X102899500Y-110417587D01*
X102879815Y-110484626D01*
X102872450Y-110494896D01*
X102870186Y-110497734D01*
X102774211Y-110650476D01*
X102714631Y-110820745D01*
X102714630Y-110820750D01*
X102694435Y-110999996D01*
X102694435Y-111000003D01*
X102714630Y-111179249D01*
X102714631Y-111179254D01*
X102774211Y-111349523D01*
X102837838Y-111450784D01*
X102870184Y-111502262D01*
X102997738Y-111629816D01*
X103088080Y-111686582D01*
X103149056Y-111724896D01*
X103150478Y-111725789D01*
X103288860Y-111774211D01*
X103320745Y-111785368D01*
X103320750Y-111785369D01*
X103499996Y-111805565D01*
X103500000Y-111805565D01*
X103500004Y-111805565D01*
X103679249Y-111785369D01*
X103679252Y-111785368D01*
X103679255Y-111785368D01*
X103849522Y-111725789D01*
X104002262Y-111629816D01*
X104129816Y-111502262D01*
X104225789Y-111349522D01*
X104285368Y-111179255D01*
X104285369Y-111179249D01*
X104305565Y-111000003D01*
X104305565Y-110999996D01*
X104285369Y-110820750D01*
X104285368Y-110820745D01*
X104253615Y-110730000D01*
X104225789Y-110650478D01*
X104217206Y-110636819D01*
X104192645Y-110597730D01*
X104129816Y-110497738D01*
X104129814Y-110497736D01*
X104129813Y-110497734D01*
X104127550Y-110494896D01*
X104126659Y-110492715D01*
X104126111Y-110491842D01*
X104126264Y-110491745D01*
X104101144Y-110430209D01*
X104100500Y-110417587D01*
X104100500Y-109082412D01*
X104120185Y-109015373D01*
X104127555Y-109005097D01*
X104129810Y-109002267D01*
X104129816Y-109002262D01*
X104225789Y-108849522D01*
X104285368Y-108679255D01*
X104285369Y-108679249D01*
X104305565Y-108500003D01*
X104305565Y-108499996D01*
X104285369Y-108320750D01*
X104285368Y-108320745D01*
X104225789Y-108150478D01*
X104129816Y-107997738D01*
X104002262Y-107870184D01*
X103999924Y-107868715D01*
X103849523Y-107774211D01*
X103679254Y-107714631D01*
X103679249Y-107714630D01*
X103500004Y-107694435D01*
X103499996Y-107694435D01*
X103320750Y-107714630D01*
X103320745Y-107714631D01*
X103150476Y-107774211D01*
X102997737Y-107870184D01*
X102870184Y-107997737D01*
X102774211Y-108150476D01*
X102714631Y-108320745D01*
X102714630Y-108320750D01*
X102694435Y-108499996D01*
X99849237Y-108499996D01*
X100358506Y-107990727D01*
X100358511Y-107990724D01*
X100368714Y-107980520D01*
X100368716Y-107980520D01*
X100480520Y-107868716D01*
X100538543Y-107768216D01*
X100559577Y-107731785D01*
X100600501Y-107579057D01*
X100600501Y-107420943D01*
X100600501Y-107413348D01*
X100600500Y-107413330D01*
X100600500Y-106582412D01*
X100620185Y-106515373D01*
X100627555Y-106505097D01*
X100629810Y-106502267D01*
X100629816Y-106502262D01*
X100725789Y-106349522D01*
X100767613Y-106229996D01*
X138194435Y-106229996D01*
X138194435Y-106230003D01*
X138214630Y-106409249D01*
X138214631Y-106409254D01*
X138274211Y-106579523D01*
X138356523Y-106710521D01*
X138370184Y-106732262D01*
X138497738Y-106859816D01*
X138650478Y-106955789D01*
X138816455Y-107013867D01*
X138873230Y-107054588D01*
X138898978Y-107119540D01*
X138899500Y-107130908D01*
X138899500Y-107643330D01*
X138899499Y-107643348D01*
X138899499Y-107809054D01*
X138899498Y-107809054D01*
X138940423Y-107961786D01*
X138951238Y-107980516D01*
X138951239Y-107980521D01*
X138951240Y-107980521D01*
X139019475Y-108098709D01*
X139019481Y-108098717D01*
X139138349Y-108217585D01*
X139138355Y-108217590D01*
X141669298Y-110748534D01*
X141702783Y-110809857D01*
X141704837Y-110822331D01*
X141714630Y-110909249D01*
X141774210Y-111079521D01*
X141836874Y-111179249D01*
X141870184Y-111232262D01*
X141997738Y-111359816D01*
X142073894Y-111407668D01*
X142142512Y-111450784D01*
X142150478Y-111455789D01*
X142197041Y-111472082D01*
X142320745Y-111515368D01*
X142320750Y-111515369D01*
X142499996Y-111535565D01*
X142500000Y-111535565D01*
X142500004Y-111535565D01*
X142679249Y-111515369D01*
X142679252Y-111515368D01*
X142679255Y-111515368D01*
X142849522Y-111455789D01*
X143002262Y-111359816D01*
X143129816Y-111232262D01*
X143225789Y-111079522D01*
X143285368Y-110909255D01*
X143295341Y-110820745D01*
X143305565Y-110730003D01*
X143305565Y-110729996D01*
X143285369Y-110550750D01*
X143285368Y-110550745D01*
X143266819Y-110497734D01*
X143225789Y-110380478D01*
X143129816Y-110227738D01*
X143002262Y-110100184D01*
X142984536Y-110089046D01*
X142849521Y-110004210D01*
X142679249Y-109944630D01*
X142592331Y-109934837D01*
X142527917Y-109907770D01*
X142518534Y-109899298D01*
X140136819Y-107517583D01*
X140103334Y-107456260D01*
X140100500Y-107429902D01*
X140100500Y-106819060D01*
X140100501Y-106819047D01*
X140100501Y-106650944D01*
X140100501Y-106650943D01*
X140059577Y-106498216D01*
X140035082Y-106455789D01*
X139980524Y-106361290D01*
X139980522Y-106361287D01*
X139980521Y-106361286D01*
X139980520Y-106361284D01*
X139830698Y-106211463D01*
X139797215Y-106150142D01*
X139795163Y-106137686D01*
X139785368Y-106050745D01*
X139725789Y-105880478D01*
X139629816Y-105727738D01*
X139502262Y-105600184D01*
X139447020Y-105565473D01*
X139349523Y-105504211D01*
X139179254Y-105444631D01*
X139179249Y-105444630D01*
X139000004Y-105424435D01*
X138999996Y-105424435D01*
X138820750Y-105444630D01*
X138820745Y-105444631D01*
X138650476Y-105504211D01*
X138497737Y-105600184D01*
X138370184Y-105727737D01*
X138274211Y-105880476D01*
X138214631Y-106050745D01*
X138214630Y-106050750D01*
X138194435Y-106229996D01*
X100767613Y-106229996D01*
X100785368Y-106179255D01*
X100785369Y-106179249D01*
X100805565Y-106000003D01*
X100805565Y-105999996D01*
X100785369Y-105820750D01*
X100785368Y-105820745D01*
X100753615Y-105730000D01*
X100725789Y-105650478D01*
X100672377Y-105565473D01*
X100653377Y-105498236D01*
X100673745Y-105431401D01*
X100727013Y-105386187D01*
X100777371Y-105375501D01*
X100804054Y-105375501D01*
X100804057Y-105375501D01*
X100956785Y-105334577D01*
X100986334Y-105317516D01*
X101034448Y-105301683D01*
X101095835Y-105294767D01*
X101179250Y-105285369D01*
X101179253Y-105285368D01*
X101179255Y-105285368D01*
X101349522Y-105225789D01*
X101502262Y-105129816D01*
X101629816Y-105002262D01*
X101725789Y-104849522D01*
X101785368Y-104679255D01*
X101805565Y-104500000D01*
X101785368Y-104320745D01*
X101725789Y-104150478D01*
X101629816Y-103997738D01*
X101502262Y-103870184D01*
X101493854Y-103864901D01*
X101349523Y-103774211D01*
X101179254Y-103714631D01*
X101179249Y-103714630D01*
X101000004Y-103694435D01*
X100999996Y-103694435D01*
X100820750Y-103714630D01*
X100820745Y-103714631D01*
X100650476Y-103774211D01*
X100497737Y-103870184D01*
X100370184Y-103997737D01*
X100337031Y-104050500D01*
X100295577Y-104116473D01*
X100243244Y-104162763D01*
X100190585Y-104174500D01*
X93474499Y-104174500D01*
X93407460Y-104154815D01*
X93361705Y-104102011D01*
X93350499Y-104050500D01*
X93350499Y-103877129D01*
X93350498Y-103877123D01*
X93350497Y-103877116D01*
X93344091Y-103817517D01*
X93324503Y-103765000D01*
X93293797Y-103682671D01*
X93293793Y-103682664D01*
X93207547Y-103567455D01*
X93207544Y-103567452D01*
X93092335Y-103481206D01*
X93092328Y-103481202D01*
X92960401Y-103431997D01*
X92904467Y-103390126D01*
X92880050Y-103324662D01*
X92894902Y-103256389D01*
X92916053Y-103228133D01*
X93038108Y-103106078D01*
X93173600Y-102912578D01*
X93273429Y-102698492D01*
X93273432Y-102698486D01*
X93326618Y-102499996D01*
X141194435Y-102499996D01*
X141194435Y-102500003D01*
X141214630Y-102679249D01*
X141214631Y-102679254D01*
X141274211Y-102849523D01*
X141326377Y-102932544D01*
X141370184Y-103002262D01*
X141497738Y-103129816D01*
X141650478Y-103225789D01*
X141820745Y-103285368D01*
X141907669Y-103295161D01*
X141972080Y-103322226D01*
X141981465Y-103330700D01*
X143435232Y-104784467D01*
X143468717Y-104845790D01*
X143463733Y-104915482D01*
X143421861Y-104971415D01*
X143356397Y-104995832D01*
X143306597Y-104989190D01*
X143179257Y-104944632D01*
X143179249Y-104944630D01*
X143000004Y-104924435D01*
X142999996Y-104924435D01*
X142820750Y-104944630D01*
X142820745Y-104944631D01*
X142650476Y-105004211D01*
X142497737Y-105100184D01*
X142370184Y-105227737D01*
X142274211Y-105380476D01*
X142214631Y-105550745D01*
X142214630Y-105550750D01*
X142194435Y-105729996D01*
X142194435Y-105730003D01*
X142214630Y-105909249D01*
X142214631Y-105909254D01*
X142274211Y-106079523D01*
X142370182Y-106232259D01*
X142372441Y-106235091D01*
X142373330Y-106237268D01*
X142373889Y-106238158D01*
X142373733Y-106238255D01*
X142398854Y-106299776D01*
X142399219Y-106306929D01*
X142399498Y-106309054D01*
X142438816Y-106455788D01*
X142440423Y-106461785D01*
X142461457Y-106498216D01*
X142500139Y-106565216D01*
X142519479Y-106598715D01*
X142638349Y-106717585D01*
X142638355Y-106717590D01*
X144363181Y-108442416D01*
X144396666Y-108503739D01*
X144399500Y-108530097D01*
X144399500Y-111647587D01*
X144379815Y-111714626D01*
X144372450Y-111724896D01*
X144370186Y-111727734D01*
X144274211Y-111880476D01*
X144214631Y-112050745D01*
X144214630Y-112050750D01*
X144194435Y-112229996D01*
X144194435Y-112230003D01*
X144214630Y-112409249D01*
X144214631Y-112409254D01*
X144274211Y-112579523D01*
X144343038Y-112689059D01*
X144370184Y-112732262D01*
X144497738Y-112859816D01*
X144650478Y-112955789D01*
X144820745Y-113015368D01*
X144820750Y-113015369D01*
X144999996Y-113035565D01*
X145000000Y-113035565D01*
X145000002Y-113035565D01*
X145072733Y-113027370D01*
X145141555Y-113039424D01*
X145192934Y-113086773D01*
X145209837Y-113136706D01*
X145214630Y-113179250D01*
X145214631Y-113179254D01*
X145274211Y-113349523D01*
X145363576Y-113491745D01*
X145370184Y-113502262D01*
X145497738Y-113629816D01*
X145588080Y-113686582D01*
X145632721Y-113714632D01*
X145650478Y-113725789D01*
X145788860Y-113774211D01*
X145820745Y-113785368D01*
X145820750Y-113785369D01*
X145999996Y-113805565D01*
X146000000Y-113805565D01*
X146000004Y-113805565D01*
X146179249Y-113785369D01*
X146179252Y-113785368D01*
X146179255Y-113785368D01*
X146349522Y-113725789D01*
X146502262Y-113629816D01*
X146629816Y-113502262D01*
X146725789Y-113349522D01*
X146785368Y-113179255D01*
X146795788Y-113086773D01*
X146805565Y-113000003D01*
X146805565Y-112999996D01*
X146785369Y-112820750D01*
X146785368Y-112820745D01*
X146739289Y-112689059D01*
X146725789Y-112650478D01*
X146629816Y-112497738D01*
X146629814Y-112497736D01*
X146629813Y-112497734D01*
X146627550Y-112494896D01*
X146626659Y-112492715D01*
X146626111Y-112491842D01*
X146626264Y-112491745D01*
X146601144Y-112430209D01*
X146600500Y-112417587D01*
X146600500Y-109499996D01*
X154194435Y-109499996D01*
X154194435Y-109500003D01*
X154214630Y-109679249D01*
X154214631Y-109679254D01*
X154274211Y-109849523D01*
X154368760Y-109999996D01*
X154370184Y-110002262D01*
X154497738Y-110129816D01*
X154650478Y-110225789D01*
X154716054Y-110248735D01*
X154820745Y-110285368D01*
X154820750Y-110285369D01*
X154999996Y-110305565D01*
X155000000Y-110305565D01*
X155000004Y-110305565D01*
X155179249Y-110285369D01*
X155179252Y-110285368D01*
X155179255Y-110285368D01*
X155349522Y-110225789D01*
X155502262Y-110129816D01*
X155502267Y-110129810D01*
X155505097Y-110127555D01*
X155507275Y-110126665D01*
X155508158Y-110126111D01*
X155508255Y-110126265D01*
X155569783Y-110101145D01*
X155582412Y-110100500D01*
X156413331Y-110100500D01*
X156413347Y-110100501D01*
X156420943Y-110100501D01*
X156579054Y-110100501D01*
X156579057Y-110100501D01*
X156731785Y-110059577D01*
X156781904Y-110030639D01*
X156868716Y-109980520D01*
X156980520Y-109868716D01*
X156980520Y-109868714D01*
X156990728Y-109858507D01*
X156990730Y-109858504D01*
X158018535Y-108830698D01*
X158079856Y-108797215D01*
X158092311Y-108795163D01*
X158179255Y-108785368D01*
X158349522Y-108725789D01*
X158502262Y-108629816D01*
X158629816Y-108502262D01*
X158725789Y-108349522D01*
X158785368Y-108179255D01*
X158785369Y-108179249D01*
X158805565Y-108000003D01*
X158805565Y-107999996D01*
X158785369Y-107820750D01*
X158785368Y-107820745D01*
X158760431Y-107749480D01*
X158725789Y-107650478D01*
X158629816Y-107497738D01*
X158502262Y-107370184D01*
X158349523Y-107274211D01*
X158179254Y-107214631D01*
X158179249Y-107214630D01*
X158000004Y-107194435D01*
X157999996Y-107194435D01*
X157820750Y-107214630D01*
X157820745Y-107214631D01*
X157650476Y-107274211D01*
X157497737Y-107370184D01*
X157370184Y-107497737D01*
X157274210Y-107650478D01*
X157214630Y-107820750D01*
X157204837Y-107907668D01*
X157177770Y-107972082D01*
X157169298Y-107981465D01*
X156287584Y-108863181D01*
X156226261Y-108896666D01*
X156199903Y-108899500D01*
X155582412Y-108899500D01*
X155515373Y-108879815D01*
X155505097Y-108872445D01*
X155502263Y-108870185D01*
X155502262Y-108870184D01*
X155439424Y-108830700D01*
X155349523Y-108774211D01*
X155179254Y-108714631D01*
X155179249Y-108714630D01*
X155000004Y-108694435D01*
X154999996Y-108694435D01*
X154820750Y-108714630D01*
X154820745Y-108714631D01*
X154650476Y-108774211D01*
X154497737Y-108870184D01*
X154370184Y-108997737D01*
X154274211Y-109150476D01*
X154214631Y-109320745D01*
X154214630Y-109320750D01*
X154194435Y-109499996D01*
X146600500Y-109499996D01*
X146600500Y-106420944D01*
X146600499Y-106420937D01*
X146591357Y-106386818D01*
X146559577Y-106268215D01*
X146530639Y-106218095D01*
X146480520Y-106131284D01*
X146368716Y-106019480D01*
X146368715Y-106019479D01*
X146364385Y-106015149D01*
X146364374Y-106015139D01*
X146079231Y-105729996D01*
X147194435Y-105729996D01*
X147194435Y-105730003D01*
X147214630Y-105909249D01*
X147214631Y-105909254D01*
X147274211Y-106079523D01*
X147336877Y-106179254D01*
X147370184Y-106232262D01*
X147497738Y-106359816D01*
X147650478Y-106455789D01*
X147771733Y-106498218D01*
X147820745Y-106515368D01*
X147820750Y-106515369D01*
X147999996Y-106535565D01*
X148000000Y-106535565D01*
X148000004Y-106535565D01*
X148179249Y-106515369D01*
X148179252Y-106515368D01*
X148179255Y-106515368D01*
X148349522Y-106455789D01*
X148502262Y-106359816D01*
X148502267Y-106359810D01*
X148505097Y-106357555D01*
X148507275Y-106356665D01*
X148508158Y-106356111D01*
X148508255Y-106356265D01*
X148569783Y-106331145D01*
X148582412Y-106330500D01*
X153917588Y-106330500D01*
X153984627Y-106350185D01*
X153994903Y-106357555D01*
X153997736Y-106359814D01*
X153997738Y-106359816D01*
X154150478Y-106455789D01*
X154271733Y-106498218D01*
X154320745Y-106515368D01*
X154320750Y-106515369D01*
X154499996Y-106535565D01*
X154500000Y-106535565D01*
X154500004Y-106535565D01*
X154679249Y-106515369D01*
X154679252Y-106515368D01*
X154679255Y-106515368D01*
X154849522Y-106455789D01*
X155002262Y-106359816D01*
X155129816Y-106232262D01*
X155225789Y-106079522D01*
X155285368Y-105909255D01*
X155285369Y-105909249D01*
X155305565Y-105730003D01*
X155305565Y-105729996D01*
X155285369Y-105550750D01*
X155285368Y-105550745D01*
X155281058Y-105538429D01*
X155225789Y-105380478D01*
X155208915Y-105353624D01*
X155129815Y-105227737D01*
X155002262Y-105100184D01*
X154849523Y-105004211D01*
X154679254Y-104944631D01*
X154679249Y-104944630D01*
X154500004Y-104924435D01*
X154499996Y-104924435D01*
X154320750Y-104944630D01*
X154320745Y-104944631D01*
X154150476Y-105004211D01*
X153997736Y-105100185D01*
X153994903Y-105102445D01*
X153992724Y-105103334D01*
X153991842Y-105103889D01*
X153991744Y-105103734D01*
X153930217Y-105128855D01*
X153917588Y-105129500D01*
X148582412Y-105129500D01*
X148515373Y-105109815D01*
X148505097Y-105102445D01*
X148502263Y-105100185D01*
X148502262Y-105100184D01*
X148445496Y-105064515D01*
X148349523Y-105004211D01*
X148179254Y-104944631D01*
X148179249Y-104944630D01*
X148000004Y-104924435D01*
X147999996Y-104924435D01*
X147820750Y-104944630D01*
X147820745Y-104944631D01*
X147650476Y-105004211D01*
X147497737Y-105100184D01*
X147370184Y-105227737D01*
X147274211Y-105380476D01*
X147214631Y-105550745D01*
X147214630Y-105550750D01*
X147194435Y-105729996D01*
X146079231Y-105729996D01*
X142830700Y-102481465D01*
X142797215Y-102420142D01*
X142795163Y-102407686D01*
X142785368Y-102320745D01*
X142725789Y-102150478D01*
X142629816Y-101997738D01*
X142502262Y-101870184D01*
X142349523Y-101774211D01*
X142179254Y-101714631D01*
X142179249Y-101714630D01*
X142000004Y-101694435D01*
X141999996Y-101694435D01*
X141820750Y-101714630D01*
X141820745Y-101714631D01*
X141650476Y-101774211D01*
X141497737Y-101870184D01*
X141370184Y-101997737D01*
X141274211Y-102150476D01*
X141214631Y-102320745D01*
X141214630Y-102320750D01*
X141194435Y-102499996D01*
X93326618Y-102499996D01*
X93330636Y-102485000D01*
X92433012Y-102485000D01*
X92465925Y-102427993D01*
X92500000Y-102300826D01*
X92500000Y-102169174D01*
X92465925Y-102042007D01*
X92433012Y-101985000D01*
X93330636Y-101985000D01*
X93330635Y-101984999D01*
X93273432Y-101771513D01*
X93273429Y-101771507D01*
X93173600Y-101557422D01*
X93173599Y-101557420D01*
X93038113Y-101363926D01*
X93038108Y-101363920D01*
X92871082Y-101196894D01*
X92677578Y-101061399D01*
X92463492Y-100961570D01*
X92463486Y-100961567D01*
X92250000Y-100904364D01*
X92250000Y-101801988D01*
X92192993Y-101769075D01*
X92065826Y-101735000D01*
X91934174Y-101735000D01*
X91807007Y-101769075D01*
X91750000Y-101801988D01*
X91750000Y-100904364D01*
X91749999Y-100904364D01*
X91536513Y-100961567D01*
X91536507Y-100961570D01*
X91322422Y-101061399D01*
X91322420Y-101061400D01*
X91128926Y-101196886D01*
X91128920Y-101196891D01*
X90961891Y-101363920D01*
X90961886Y-101363926D01*
X90826400Y-101557420D01*
X90826399Y-101557422D01*
X90726570Y-101771507D01*
X90726567Y-101771513D01*
X90669364Y-101984999D01*
X90669364Y-101985000D01*
X91566988Y-101985000D01*
X91534075Y-102042007D01*
X91500000Y-102169174D01*
X91500000Y-102300826D01*
X91534075Y-102427993D01*
X91566988Y-102485000D01*
X90669364Y-102485000D01*
X90726567Y-102698486D01*
X90726570Y-102698492D01*
X90826399Y-102912578D01*
X90961894Y-103106082D01*
X91083946Y-103228134D01*
X91117431Y-103289457D01*
X91112447Y-103359149D01*
X91070575Y-103415082D01*
X91039598Y-103431997D01*
X90907671Y-103481202D01*
X90907664Y-103481206D01*
X90792455Y-103567452D01*
X90792452Y-103567455D01*
X90706206Y-103682664D01*
X90706202Y-103682671D01*
X90655908Y-103817517D01*
X90650814Y-103864901D01*
X90649501Y-103877123D01*
X90649500Y-103877135D01*
X86924828Y-103877135D01*
X86944132Y-100827135D01*
X159149500Y-100827135D01*
X159149500Y-102622870D01*
X159149501Y-102622876D01*
X159155908Y-102682483D01*
X159206202Y-102817328D01*
X159206206Y-102817335D01*
X159292452Y-102932544D01*
X159292455Y-102932547D01*
X159407664Y-103018793D01*
X159407671Y-103018797D01*
X159407674Y-103018798D01*
X159539598Y-103068002D01*
X159595531Y-103109873D01*
X159619949Y-103175337D01*
X159605098Y-103243610D01*
X159583947Y-103271865D01*
X159461886Y-103393926D01*
X159326400Y-103587420D01*
X159326399Y-103587422D01*
X159226570Y-103801507D01*
X159226567Y-103801513D01*
X159169364Y-104014999D01*
X159169364Y-104015000D01*
X160066988Y-104015000D01*
X160034075Y-104072007D01*
X160000000Y-104199174D01*
X160000000Y-104330826D01*
X160034075Y-104457993D01*
X160066988Y-104515000D01*
X159169364Y-104515000D01*
X159226567Y-104728486D01*
X159226570Y-104728492D01*
X159326399Y-104942578D01*
X159461894Y-105136082D01*
X159628917Y-105303105D01*
X159822421Y-105438600D01*
X160036507Y-105538429D01*
X160036516Y-105538433D01*
X160250000Y-105595634D01*
X160250000Y-104698012D01*
X160307007Y-104730925D01*
X160434174Y-104765000D01*
X160565826Y-104765000D01*
X160692993Y-104730925D01*
X160750000Y-104698012D01*
X160750000Y-105595633D01*
X160963483Y-105538433D01*
X160963492Y-105538429D01*
X161177578Y-105438600D01*
X161371082Y-105303105D01*
X161538105Y-105136082D01*
X161673600Y-104942578D01*
X161773429Y-104728492D01*
X161773432Y-104728486D01*
X161830636Y-104515000D01*
X160933012Y-104515000D01*
X160965925Y-104457993D01*
X161000000Y-104330826D01*
X161000000Y-104199174D01*
X160965925Y-104072007D01*
X160933012Y-104015000D01*
X161830636Y-104015000D01*
X161830635Y-104014999D01*
X161773432Y-103801513D01*
X161773429Y-103801507D01*
X161673600Y-103587422D01*
X161673599Y-103587420D01*
X161538113Y-103393926D01*
X161538108Y-103393920D01*
X161416053Y-103271865D01*
X161382568Y-103210542D01*
X161387552Y-103140850D01*
X161429424Y-103084917D01*
X161460400Y-103068002D01*
X161592331Y-103018796D01*
X161707546Y-102932546D01*
X161793796Y-102817331D01*
X161844091Y-102682483D01*
X161850500Y-102622873D01*
X161850499Y-100827128D01*
X161844091Y-100767517D01*
X161793796Y-100632669D01*
X161793795Y-100632668D01*
X161793793Y-100632664D01*
X161707547Y-100517455D01*
X161707544Y-100517452D01*
X161592335Y-100431206D01*
X161592328Y-100431202D01*
X161457482Y-100380908D01*
X161457483Y-100380908D01*
X161397883Y-100374501D01*
X161397881Y-100374500D01*
X161397873Y-100374500D01*
X161397864Y-100374500D01*
X159602129Y-100374500D01*
X159602123Y-100374501D01*
X159542516Y-100380908D01*
X159407671Y-100431202D01*
X159407664Y-100431206D01*
X159292455Y-100517452D01*
X159292452Y-100517455D01*
X159206206Y-100632664D01*
X159206202Y-100632671D01*
X159155908Y-100767517D01*
X159149501Y-100827116D01*
X159149501Y-100827123D01*
X159149500Y-100827135D01*
X86944132Y-100827135D01*
X86978616Y-95378711D01*
X89149500Y-95378711D01*
X89149500Y-95621288D01*
X89181161Y-95861785D01*
X89243947Y-96096104D01*
X89336773Y-96320205D01*
X89336776Y-96320212D01*
X89458064Y-96530289D01*
X89458066Y-96530292D01*
X89458067Y-96530293D01*
X89605733Y-96722736D01*
X89605739Y-96722743D01*
X89777256Y-96894260D01*
X89777262Y-96894265D01*
X89969711Y-97041936D01*
X90179788Y-97163224D01*
X90403900Y-97256054D01*
X90638211Y-97318838D01*
X90818586Y-97342584D01*
X90878711Y-97350500D01*
X90878712Y-97350500D01*
X91121289Y-97350500D01*
X91169388Y-97344167D01*
X91361789Y-97318838D01*
X91596100Y-97256054D01*
X91820212Y-97163224D01*
X92030289Y-97041936D01*
X92222738Y-96894265D01*
X92394265Y-96722738D01*
X92541936Y-96530289D01*
X92663224Y-96320212D01*
X92756054Y-96096100D01*
X92818838Y-95861789D01*
X92850500Y-95621288D01*
X92850500Y-95378712D01*
X92850500Y-95378711D01*
X157149500Y-95378711D01*
X157149500Y-95621288D01*
X157181161Y-95861785D01*
X157243947Y-96096104D01*
X157336773Y-96320205D01*
X157336776Y-96320212D01*
X157458064Y-96530289D01*
X157458066Y-96530292D01*
X157458067Y-96530293D01*
X157605733Y-96722736D01*
X157605739Y-96722743D01*
X157777256Y-96894260D01*
X157777262Y-96894265D01*
X157969711Y-97041936D01*
X158179788Y-97163224D01*
X158403900Y-97256054D01*
X158638211Y-97318838D01*
X158818586Y-97342584D01*
X158878711Y-97350500D01*
X158878712Y-97350500D01*
X159121289Y-97350500D01*
X159169388Y-97344167D01*
X159361789Y-97318838D01*
X159596100Y-97256054D01*
X159820212Y-97163224D01*
X160030289Y-97041936D01*
X160222738Y-96894265D01*
X160394265Y-96722738D01*
X160541936Y-96530289D01*
X160663224Y-96320212D01*
X160756054Y-96096100D01*
X160818838Y-95861789D01*
X160850500Y-95621288D01*
X160850500Y-95378712D01*
X160818838Y-95138211D01*
X160756054Y-94903900D01*
X160663224Y-94679788D01*
X160541936Y-94469711D01*
X160394265Y-94277262D01*
X160394260Y-94277256D01*
X160222743Y-94105739D01*
X160222736Y-94105733D01*
X160030293Y-93958067D01*
X160030292Y-93958066D01*
X160030289Y-93958064D01*
X159820212Y-93836776D01*
X159820205Y-93836773D01*
X159596104Y-93743947D01*
X159361785Y-93681161D01*
X159121289Y-93649500D01*
X159121288Y-93649500D01*
X158878712Y-93649500D01*
X158878711Y-93649500D01*
X158638214Y-93681161D01*
X158403895Y-93743947D01*
X158179794Y-93836773D01*
X158179785Y-93836777D01*
X157969706Y-93958067D01*
X157777263Y-94105733D01*
X157777256Y-94105739D01*
X157605739Y-94277256D01*
X157605733Y-94277263D01*
X157458067Y-94469706D01*
X157336777Y-94679785D01*
X157336773Y-94679794D01*
X157243947Y-94903895D01*
X157181161Y-95138214D01*
X157149500Y-95378711D01*
X92850500Y-95378711D01*
X92818838Y-95138211D01*
X92756054Y-94903900D01*
X92663224Y-94679788D01*
X92541936Y-94469711D01*
X92394265Y-94277262D01*
X92394260Y-94277256D01*
X92222743Y-94105739D01*
X92222736Y-94105733D01*
X92030293Y-93958067D01*
X92030292Y-93958066D01*
X92030289Y-93958064D01*
X91820212Y-93836776D01*
X91820205Y-93836773D01*
X91596104Y-93743947D01*
X91361785Y-93681161D01*
X91121289Y-93649500D01*
X91121288Y-93649500D01*
X90878712Y-93649500D01*
X90878711Y-93649500D01*
X90638214Y-93681161D01*
X90403895Y-93743947D01*
X90179794Y-93836773D01*
X90179785Y-93836777D01*
X89969706Y-93958067D01*
X89777263Y-94105733D01*
X89777256Y-94105739D01*
X89605739Y-94277256D01*
X89605733Y-94277263D01*
X89458067Y-94469706D01*
X89336777Y-94679785D01*
X89336773Y-94679794D01*
X89243947Y-94903895D01*
X89181161Y-95138214D01*
X89149500Y-95378711D01*
X86978616Y-95378711D01*
X86999220Y-92123214D01*
X87019329Y-92056302D01*
X87072421Y-92010882D01*
X87123218Y-92000000D01*
X162376788Y-92000000D01*
X162443827Y-92019685D01*
G37*
%TD.AperFunction*%
%TD*%
M02*
