%TF.GenerationSoftware,KiCad,Pcbnew,8.0.5*%
%TF.CreationDate,2024-11-23T13:55:34+01:00*%
%TF.ProjectId,mesa_mezclas,6d657361-5f6d-4657-9a63-6c61732e6b69,rev?*%
%TF.SameCoordinates,Original*%
%TF.FileFunction,Soldermask,Top*%
%TF.FilePolarity,Negative*%
%FSLAX46Y46*%
G04 Gerber Fmt 4.6, Leading zero omitted, Abs format (unit mm)*
G04 Created by KiCad (PCBNEW 8.0.5) date 2024-11-23 13:55:34*
%MOMM*%
%LPD*%
G01*
G04 APERTURE LIST*
G04 Aperture macros list*
%AMRoundRect*
0 Rectangle with rounded corners*
0 $1 Rounding radius*
0 $2 $3 $4 $5 $6 $7 $8 $9 X,Y pos of 4 corners*
0 Add a 4 corners polygon primitive as box body*
4,1,4,$2,$3,$4,$5,$6,$7,$8,$9,$2,$3,0*
0 Add four circle primitives for the rounded corners*
1,1,$1+$1,$2,$3*
1,1,$1+$1,$4,$5*
1,1,$1+$1,$6,$7*
1,1,$1+$1,$8,$9*
0 Add four rect primitives between the rounded corners*
20,1,$1+$1,$2,$3,$4,$5,0*
20,1,$1+$1,$4,$5,$6,$7,0*
20,1,$1+$1,$6,$7,$8,$9,0*
20,1,$1+$1,$8,$9,$2,$3,0*%
G04 Aperture macros list end*
%ADD10C,3.200000*%
%ADD11C,3.000000*%
%ADD12RoundRect,0.250000X-0.350000X-0.450000X0.350000X-0.450000X0.350000X0.450000X-0.350000X0.450000X0*%
%ADD13RoundRect,0.250000X0.450000X-0.350000X0.450000X0.350000X-0.450000X0.350000X-0.450000X-0.350000X0*%
%ADD14R,1.700000X1.700000*%
%ADD15O,1.700000X1.700000*%
%ADD16RoundRect,0.225000X-0.375000X0.225000X-0.375000X-0.225000X0.375000X-0.225000X0.375000X0.225000X0*%
%ADD17RoundRect,0.250000X0.350000X0.450000X-0.350000X0.450000X-0.350000X-0.450000X0.350000X-0.450000X0*%
%ADD18RoundRect,0.250000X0.475000X-0.337500X0.475000X0.337500X-0.475000X0.337500X-0.475000X-0.337500X0*%
%ADD19RoundRect,0.150000X-0.825000X-0.150000X0.825000X-0.150000X0.825000X0.150000X-0.825000X0.150000X0*%
%ADD20RoundRect,0.250000X-0.475000X0.337500X-0.475000X-0.337500X0.475000X-0.337500X0.475000X0.337500X0*%
%ADD21RoundRect,0.150000X-0.587500X-0.150000X0.587500X-0.150000X0.587500X0.150000X-0.587500X0.150000X0*%
%ADD22RoundRect,0.250000X-0.450000X0.350000X-0.450000X-0.350000X0.450000X-0.350000X0.450000X0.350000X0*%
%ADD23RoundRect,0.250000X-0.337500X-0.475000X0.337500X-0.475000X0.337500X0.475000X-0.337500X0.475000X0*%
%ADD24RoundRect,0.250000X-0.300000X-0.300000X0.300000X-0.300000X0.300000X0.300000X-0.300000X0.300000X0*%
%ADD25RoundRect,0.150000X-0.150000X0.587500X-0.150000X-0.587500X0.150000X-0.587500X0.150000X0.587500X0*%
%ADD26RoundRect,0.250000X0.300000X0.300000X-0.300000X0.300000X-0.300000X-0.300000X0.300000X-0.300000X0*%
%ADD27RoundRect,0.250000X-1.250000X-0.550000X1.250000X-0.550000X1.250000X0.550000X-1.250000X0.550000X0*%
G04 APERTURE END LIST*
D10*
%TO.C,REF\u002A\u002A*%
X159500000Y-167000000D03*
%TD*%
%TO.C,REF\u002A\u002A*%
X90000000Y-167000000D03*
%TD*%
%TO.C,REF\u002A\u002A*%
X91000000Y-95500000D03*
%TD*%
%TO.C,REF\u002A\u002A*%
X159000000Y-95500000D03*
%TD*%
D11*
%TO.C,REF\u002A\u002A*%
X153500000Y-95500000D03*
%TD*%
%TO.C,REF\u002A\u002A*%
X96500000Y-96000000D03*
%TD*%
%TO.C,REF\u002A\u002A*%
X154000000Y-168000000D03*
%TD*%
%TO.C,REF\u002A\u002A*%
X95500000Y-168500000D03*
%TD*%
D12*
%TO.C,R19*%
X130925000Y-131500000D03*
X132925000Y-131500000D03*
%TD*%
D13*
%TO.C,R26*%
X129500000Y-117000000D03*
X129500000Y-115000000D03*
%TD*%
%TO.C,R3*%
X125425000Y-147500000D03*
X125425000Y-145500000D03*
%TD*%
D14*
%TO.C,J5*%
X141925000Y-161725000D03*
D15*
X141925000Y-164265000D03*
%TD*%
D16*
%TO.C,D1*%
X137000000Y-104580000D03*
X137000000Y-107880000D03*
%TD*%
D17*
%TO.C,R16*%
X113025000Y-112595000D03*
X111025000Y-112595000D03*
%TD*%
%TO.C,R5*%
X123925000Y-142500000D03*
X121925000Y-142500000D03*
%TD*%
D13*
%TO.C,R23*%
X132500000Y-119500000D03*
X132500000Y-117500000D03*
%TD*%
D14*
%TO.C,RV5*%
X106925000Y-135500000D03*
D15*
X104385000Y-135500000D03*
X101845000Y-135500000D03*
%TD*%
D18*
%TO.C,C2*%
X126925000Y-152575000D03*
X126925000Y-150500000D03*
%TD*%
D12*
%TO.C,R24*%
X127500000Y-112500000D03*
X129500000Y-112500000D03*
%TD*%
D13*
%TO.C,R8*%
X142425000Y-148500000D03*
X142425000Y-146500000D03*
%TD*%
D14*
%TO.C,J8*%
X103925000Y-164000000D03*
D15*
X101385000Y-164000000D03*
X98845000Y-164000000D03*
%TD*%
%TO.C,J3*%
X160500000Y-104265000D03*
D14*
X160500000Y-101725000D03*
%TD*%
D19*
%TO.C,U8*%
X133950000Y-124000000D03*
X133950000Y-125270000D03*
X133950000Y-126540000D03*
X133950000Y-127810000D03*
X138900000Y-127810000D03*
X138900000Y-126540000D03*
X138900000Y-125270000D03*
X138900000Y-124000000D03*
%TD*%
D20*
%TO.C,C12*%
X153000000Y-107155000D03*
X153000000Y-109230000D03*
%TD*%
D13*
%TO.C,R32*%
X141500000Y-107230000D03*
X141500000Y-105230000D03*
%TD*%
D19*
%TO.C,U9*%
X149950000Y-124095000D03*
X149950000Y-125365000D03*
X149950000Y-126635000D03*
X149950000Y-127905000D03*
X154900000Y-127905000D03*
X154900000Y-126635000D03*
X154900000Y-125365000D03*
X154900000Y-124095000D03*
%TD*%
D14*
%TO.C,RV7*%
X138925000Y-136000000D03*
D15*
X136385000Y-136000000D03*
X133845000Y-136000000D03*
%TD*%
D12*
%TO.C,R13*%
X115425000Y-131500000D03*
X117425000Y-131500000D03*
%TD*%
D19*
%TO.C,U4*%
X117975000Y-123960000D03*
X117975000Y-125230000D03*
X117975000Y-126500000D03*
X117975000Y-127770000D03*
X122925000Y-127770000D03*
X122925000Y-126500000D03*
X122925000Y-125230000D03*
X122925000Y-123960000D03*
%TD*%
D21*
%TO.C,Q1*%
X147500000Y-98730000D03*
X147500000Y-100630000D03*
X149375000Y-99680000D03*
%TD*%
D12*
%TO.C,R7*%
X146925000Y-157000000D03*
X148925000Y-157000000D03*
%TD*%
%TO.C,R20*%
X140925000Y-131500000D03*
X142925000Y-131500000D03*
%TD*%
D18*
%TO.C,C6*%
X148962500Y-151037500D03*
X148962500Y-148962500D03*
%TD*%
D19*
%TO.C,U5*%
X97962500Y-103500000D03*
X97962500Y-104770000D03*
X97962500Y-106040000D03*
X97962500Y-107310000D03*
X102912500Y-107310000D03*
X102912500Y-106040000D03*
X102912500Y-104770000D03*
X102912500Y-103500000D03*
%TD*%
D14*
%TO.C,RV2*%
X117425000Y-150460000D03*
D15*
X117425000Y-153000000D03*
X117425000Y-155540000D03*
%TD*%
D14*
%TO.C,RV1*%
X132925000Y-152000000D03*
D15*
X132925000Y-154540000D03*
X132925000Y-157080000D03*
%TD*%
D14*
%TO.C,J2*%
X128925000Y-161725000D03*
D15*
X128925000Y-164265000D03*
%TD*%
D13*
%TO.C,R30*%
X149500000Y-110230000D03*
X149500000Y-108230000D03*
%TD*%
D17*
%TO.C,R6*%
X142925000Y-156000000D03*
X140925000Y-156000000D03*
%TD*%
D22*
%TO.C,R17*%
X112025000Y-115095000D03*
X112025000Y-117095000D03*
%TD*%
D18*
%TO.C,C4*%
X145425000Y-161537500D03*
X145425000Y-159462500D03*
%TD*%
D19*
%TO.C,U3*%
X101475000Y-123960000D03*
X101475000Y-125230000D03*
X101475000Y-126500000D03*
X101475000Y-127770000D03*
X106425000Y-127770000D03*
X106425000Y-126500000D03*
X106425000Y-125230000D03*
X106425000Y-123960000D03*
%TD*%
%TO.C,U1*%
X142550000Y-112230000D03*
X142550000Y-113500000D03*
X142550000Y-114770000D03*
X142550000Y-116040000D03*
X147500000Y-116040000D03*
X147500000Y-114770000D03*
X147500000Y-113500000D03*
X147500000Y-112230000D03*
%TD*%
D13*
%TO.C,R15*%
X116025000Y-119595000D03*
X116025000Y-117595000D03*
%TD*%
D12*
%TO.C,R22*%
X156925000Y-131500000D03*
X158925000Y-131500000D03*
%TD*%
D14*
%TO.C,RV8*%
X154925000Y-136000000D03*
D15*
X152385000Y-136000000D03*
X149845000Y-136000000D03*
%TD*%
D22*
%TO.C,R25*%
X125500000Y-117000000D03*
X125500000Y-119000000D03*
%TD*%
D13*
%TO.C,R27*%
X145500000Y-104730000D03*
X145500000Y-102730000D03*
%TD*%
D19*
%TO.C,U2*%
X132975000Y-143960000D03*
X132975000Y-145230000D03*
X132975000Y-146500000D03*
X132975000Y-147770000D03*
X137925000Y-147770000D03*
X137925000Y-146500000D03*
X137925000Y-145230000D03*
X137925000Y-143960000D03*
%TD*%
D12*
%TO.C,R33*%
X149500000Y-104230000D03*
X151500000Y-104230000D03*
%TD*%
D18*
%TO.C,C5*%
X144925000Y-153000000D03*
X144925000Y-150925000D03*
%TD*%
D12*
%TO.C,R14*%
X124425000Y-131500000D03*
X126425000Y-131500000D03*
%TD*%
D23*
%TO.C,C10*%
X151850000Y-131500000D03*
X153925000Y-131500000D03*
%TD*%
D18*
%TO.C,C1*%
X124425000Y-161575000D03*
X124425000Y-159500000D03*
%TD*%
D12*
%TO.C,R12*%
X108425000Y-131000000D03*
X110425000Y-131000000D03*
%TD*%
D14*
%TO.C,RV9*%
X102040000Y-117000000D03*
D15*
X99500000Y-117000000D03*
X96960000Y-117000000D03*
%TD*%
D24*
%TO.C,U13*%
X108125000Y-163000000D03*
X110925000Y-163000000D03*
%TD*%
D14*
%TO.C,RV6*%
X122925000Y-135500000D03*
D15*
X120385000Y-135500000D03*
X117845000Y-135500000D03*
%TD*%
D22*
%TO.C,R29*%
X156000000Y-105730000D03*
X156000000Y-107730000D03*
%TD*%
D14*
%TO.C,J1*%
X92000000Y-104775000D03*
D15*
X92000000Y-102235000D03*
%TD*%
D25*
%TO.C,Q2*%
X146450000Y-107355000D03*
X144550000Y-107355000D03*
X145500000Y-109230000D03*
%TD*%
D22*
%TO.C,R31*%
X143000000Y-98730000D03*
X143000000Y-100730000D03*
%TD*%
D14*
%TO.C,RV4*%
X153425000Y-150460000D03*
D15*
X153425000Y-153000000D03*
X153425000Y-155540000D03*
%TD*%
D12*
%TO.C,R9*%
X142425000Y-143500000D03*
X144425000Y-143500000D03*
%TD*%
D23*
%TO.C,C9*%
X135850000Y-131500000D03*
X137925000Y-131500000D03*
%TD*%
%TO.C,C8*%
X119925000Y-131500000D03*
X122000000Y-131500000D03*
%TD*%
%TO.C,C7*%
X103350000Y-131000000D03*
X105425000Y-131000000D03*
%TD*%
D13*
%TO.C,R18*%
X113525000Y-110095000D03*
X113525000Y-108095000D03*
%TD*%
D23*
%TO.C,C3*%
X121850000Y-153000000D03*
X123925000Y-153000000D03*
%TD*%
D14*
%TO.C,RV3*%
X137925000Y-152000000D03*
D15*
X137925000Y-154540000D03*
X137925000Y-157080000D03*
%TD*%
D12*
%TO.C,R35*%
X93000000Y-112500000D03*
X95000000Y-112500000D03*
%TD*%
D16*
%TO.C,D2*%
X140000000Y-98430000D03*
X140000000Y-101730000D03*
%TD*%
D13*
%TO.C,R28*%
X135000000Y-112000000D03*
X135000000Y-110000000D03*
%TD*%
D12*
%TO.C,R36*%
X105000000Y-112500000D03*
X107000000Y-112500000D03*
%TD*%
D17*
%TO.C,R10*%
X149425000Y-145000000D03*
X147425000Y-145000000D03*
%TD*%
D12*
%TO.C,R1*%
X127925000Y-155500000D03*
X129925000Y-155500000D03*
%TD*%
%TO.C,R11*%
X97925000Y-131000000D03*
X99925000Y-131000000D03*
%TD*%
%TO.C,R4*%
X118425000Y-146000000D03*
X120425000Y-146000000D03*
%TD*%
D26*
%TO.C,U12*%
X95325000Y-162500000D03*
X92525000Y-162500000D03*
%TD*%
D23*
%TO.C,C13*%
X98925000Y-112500000D03*
X101000000Y-112500000D03*
%TD*%
D12*
%TO.C,R21*%
X146925000Y-131500000D03*
X148925000Y-131500000D03*
%TD*%
D27*
%TO.C,C29*%
X95025000Y-157000000D03*
X99425000Y-157000000D03*
%TD*%
%TO.C,C30*%
X104925000Y-157000000D03*
X109325000Y-157000000D03*
%TD*%
D13*
%TO.C,R28*%
X139500000Y-111730000D03*
X139500000Y-109730000D03*
%TD*%
D17*
%TO.C,R2*%
X123925000Y-157000000D03*
X121925000Y-157000000D03*
%TD*%
D19*
%TO.C,U7*%
X118550000Y-110690000D03*
X118550000Y-111960000D03*
X118550000Y-113230000D03*
X118550000Y-114500000D03*
X123500000Y-114500000D03*
X123500000Y-113230000D03*
X123500000Y-111960000D03*
X123500000Y-110690000D03*
%TD*%
D22*
%TO.C,R34*%
X153000000Y-112230000D03*
X153000000Y-114230000D03*
%TD*%
D23*
%TO.C,C11*%
X137425000Y-114730000D03*
X139500000Y-114730000D03*
%TD*%
M02*
