M48
; DRILL file {KiCad 8.0.5} date 2024-11-26T13:04:53+0100
; FORMAT={-:-/ absolute / inch / decimal}
; #@! TF.CreationDate,2024-11-26T13:04:53+01:00
; #@! TF.GenerationSoftware,Kicad,Pcbnew,8.0.5
; #@! TF.FileFunction,Plated,1,2,PTH
FMAT,2
INCH
; #@! TA.AperFunction,Plated,PTH,ViaDrill
T1C0.0118
; #@! TA.AperFunction,Plated,PTH,ComponentDrill
T2C0.0394
%
G90
G05
T1
X3.7372Y-6.0039
X3.8386Y-4.4882
X3.937Y-4.1732
X3.937Y-4.5079
X3.9764Y-4.1142
X3.9833Y-6.1122
X4.0128Y-5.1181
X4.0628Y-5.0303
X4.0719Y-5.1969
X4.0748Y-4.2717
X4.0748Y-4.3701
X4.0748Y-4.5079
X4.1305Y-4.2159
X4.1732Y-4.3307
X4.2096Y-5.1575
X4.2474Y-4.8803
X4.2596Y-5.0303
X4.3541Y-4.61
X4.4488Y-5.0
X4.4852Y-5.8268
X4.4882Y-4.5669
X4.5079Y-4.3898
X4.5079Y-4.9213
X4.6063Y-4.4882
X4.6427Y-5.0118
X4.6624Y-5.1181
X4.7018Y-5.0874
X4.7124Y-5.0303
X4.7411Y-5.2362
X4.7805Y-4.8819
X4.7844Y-5.0394
X4.8789Y-5.2362
X4.8819Y-4.685
X4.8986Y-4.8819
X4.8986Y-5.0394
X4.938Y-5.8858
X4.9577Y-5.6299
X4.9606Y-4.4291
X4.9606Y-4.5276
X4.997Y-5.748
X5.1152Y-5.8268
X5.1939Y-5.6299
X5.2726Y-5.0134
X5.2923Y-5.1181
X5.3328Y-5.6682
X5.3514Y-5.748
X5.3529Y-4.9985
X5.3543Y-4.6654
X5.3543Y-4.8228
X5.3711Y-5.2559
X5.4104Y-4.8819
X5.4144Y-5.0433
X5.4695Y-5.0787
X5.4724Y-4.1823
X5.5089Y-5.252
X5.5285Y-4.8819
X5.5285Y-5.0591
X5.5382Y-4.4212
X5.5906Y-4.0354
X5.5906Y-4.626
X5.6073Y-5.9055
X5.6102Y-4.3594
X5.6299Y-4.1626
X5.7057Y-5.748
X5.7057Y-5.8858
X5.7087Y-4.4185
X5.7087Y-4.8031
X5.748Y-4.4488
X5.748Y-4.5169
X5.8268Y-4.1626
X5.8858Y-4.4488
X5.9026Y-5.0197
X5.9222Y-5.1181
X6.0207Y-5.2559
X6.0404Y-4.8819
X6.063Y-4.7047
X6.0827Y-4.1626
X6.0994Y-5.0591
X6.1388Y-5.2165
X6.1774Y-5.0356
T2
X3.622Y-4.025
X3.622Y-4.125
X3.8173Y-4.6063
X3.8915Y-6.4567
X3.9173Y-4.6063
X3.9915Y-6.4567
X4.0096Y-5.3346
X4.0173Y-4.6063
X4.0915Y-6.4567
X4.1096Y-5.3346
X4.2096Y-5.3346
X4.623Y-5.9236
X4.623Y-6.0236
X4.623Y-6.1236
X4.6396Y-5.3346
X4.7396Y-5.3346
X4.8396Y-5.3346
X5.0758Y-6.3671
X5.0758Y-6.4671
X5.2333Y-5.9843
X5.2333Y-6.0843
X5.2333Y-6.1843
X5.2695Y-5.3543
X5.3695Y-5.3543
X5.4301Y-5.9843
X5.4301Y-6.0843
X5.4301Y-6.1843
X5.4695Y-5.3543
X5.5876Y-6.3671
X5.5876Y-6.4671
X5.8994Y-5.3543
X5.9994Y-5.3543
X6.0404Y-5.9236
X6.0404Y-6.0236
X6.0404Y-6.1236
X6.0994Y-5.3543
X6.3189Y-4.0049
X6.3189Y-4.1049
M30
