%TF.GenerationSoftware,KiCad,Pcbnew,8.0.5*%
%TF.CreationDate,2024-11-26T13:04:48+01:00*%
%TF.ProjectId,mesa_mezclas,6d657361-5f6d-4657-9a63-6c61732e6b69,rev?*%
%TF.SameCoordinates,Original*%
%TF.FileFunction,Legend,Top*%
%TF.FilePolarity,Positive*%
%FSLAX46Y46*%
G04 Gerber Fmt 4.6, Leading zero omitted, Abs format (unit mm)*
G04 Created by KiCad (PCBNEW 8.0.5) date 2024-11-26 13:04:48*
%MOMM*%
%LPD*%
G01*
G04 APERTURE LIST*
%ADD10C,0.150000*%
%ADD11C,0.100000*%
%ADD12C,0.200000*%
%ADD13C,0.120000*%
G04 APERTURE END LIST*
D10*
X93666779Y-100774819D02*
X93666779Y-99774819D01*
X93666779Y-99774819D02*
X94047731Y-99774819D01*
X94047731Y-99774819D02*
X94142969Y-99822438D01*
X94142969Y-99822438D02*
X94190588Y-99870057D01*
X94190588Y-99870057D02*
X94238207Y-99965295D01*
X94238207Y-99965295D02*
X94238207Y-100108152D01*
X94238207Y-100108152D02*
X94190588Y-100203390D01*
X94190588Y-100203390D02*
X94142969Y-100251009D01*
X94142969Y-100251009D02*
X94047731Y-100298628D01*
X94047731Y-100298628D02*
X93666779Y-100298628D01*
X94666779Y-99774819D02*
X94666779Y-100584342D01*
X94666779Y-100584342D02*
X94714398Y-100679580D01*
X94714398Y-100679580D02*
X94762017Y-100727200D01*
X94762017Y-100727200D02*
X94857255Y-100774819D01*
X94857255Y-100774819D02*
X95047731Y-100774819D01*
X95047731Y-100774819D02*
X95142969Y-100727200D01*
X95142969Y-100727200D02*
X95190588Y-100679580D01*
X95190588Y-100679580D02*
X95238207Y-100584342D01*
X95238207Y-100584342D02*
X95238207Y-99774819D01*
X96047731Y-100251009D02*
X96190588Y-100298628D01*
X96190588Y-100298628D02*
X96238207Y-100346247D01*
X96238207Y-100346247D02*
X96285826Y-100441485D01*
X96285826Y-100441485D02*
X96285826Y-100584342D01*
X96285826Y-100584342D02*
X96238207Y-100679580D01*
X96238207Y-100679580D02*
X96190588Y-100727200D01*
X96190588Y-100727200D02*
X96095350Y-100774819D01*
X96095350Y-100774819D02*
X95714398Y-100774819D01*
X95714398Y-100774819D02*
X95714398Y-99774819D01*
X95714398Y-99774819D02*
X96047731Y-99774819D01*
X96047731Y-99774819D02*
X96142969Y-99822438D01*
X96142969Y-99822438D02*
X96190588Y-99870057D01*
X96190588Y-99870057D02*
X96238207Y-99965295D01*
X96238207Y-99965295D02*
X96238207Y-100060533D01*
X96238207Y-100060533D02*
X96190588Y-100155771D01*
X96190588Y-100155771D02*
X96142969Y-100203390D01*
X96142969Y-100203390D02*
X96047731Y-100251009D01*
X96047731Y-100251009D02*
X95714398Y-100251009D01*
X97190588Y-100774819D02*
X96714398Y-100774819D01*
X96714398Y-100774819D02*
X96714398Y-99774819D01*
X97523922Y-100774819D02*
X97523922Y-99774819D01*
X98571540Y-100679580D02*
X98523921Y-100727200D01*
X98523921Y-100727200D02*
X98381064Y-100774819D01*
X98381064Y-100774819D02*
X98285826Y-100774819D01*
X98285826Y-100774819D02*
X98142969Y-100727200D01*
X98142969Y-100727200D02*
X98047731Y-100631961D01*
X98047731Y-100631961D02*
X98000112Y-100536723D01*
X98000112Y-100536723D02*
X97952493Y-100346247D01*
X97952493Y-100346247D02*
X97952493Y-100203390D01*
X97952493Y-100203390D02*
X98000112Y-100012914D01*
X98000112Y-100012914D02*
X98047731Y-99917676D01*
X98047731Y-99917676D02*
X98142969Y-99822438D01*
X98142969Y-99822438D02*
X98285826Y-99774819D01*
X98285826Y-99774819D02*
X98381064Y-99774819D01*
X98381064Y-99774819D02*
X98523921Y-99822438D01*
X98523921Y-99822438D02*
X98571540Y-99870057D01*
D11*
X98327693Y-166872419D02*
X97756265Y-166872419D01*
X98041979Y-166872419D02*
X98041979Y-165872419D01*
X98041979Y-165872419D02*
X97946741Y-166015276D01*
X97946741Y-166015276D02*
X97851503Y-166110514D01*
X97851503Y-166110514D02*
X97756265Y-166158133D01*
X98708646Y-165967657D02*
X98756265Y-165920038D01*
X98756265Y-165920038D02*
X98851503Y-165872419D01*
X98851503Y-165872419D02*
X99089598Y-165872419D01*
X99089598Y-165872419D02*
X99184836Y-165920038D01*
X99184836Y-165920038D02*
X99232455Y-165967657D01*
X99232455Y-165967657D02*
X99280074Y-166062895D01*
X99280074Y-166062895D02*
X99280074Y-166158133D01*
X99280074Y-166158133D02*
X99232455Y-166300990D01*
X99232455Y-166300990D02*
X98661027Y-166872419D01*
X98661027Y-166872419D02*
X99280074Y-166872419D01*
X99565789Y-165872419D02*
X99899122Y-166872419D01*
X99899122Y-166872419D02*
X100232455Y-165872419D01*
D12*
X115417293Y-96647331D02*
X115417293Y-95647331D01*
X115417293Y-95647331D02*
X115750626Y-96361616D01*
X115750626Y-96361616D02*
X116083959Y-95647331D01*
X116083959Y-95647331D02*
X116083959Y-96647331D01*
X116560150Y-96647331D02*
X116560150Y-95647331D01*
X116941102Y-95647331D02*
X117607768Y-96647331D01*
X117607768Y-95647331D02*
X116941102Y-96647331D01*
X117988721Y-96647331D02*
X117988721Y-95647331D01*
X118464911Y-96647331D02*
X118464911Y-95647331D01*
X118464911Y-95647331D02*
X119036339Y-96647331D01*
X119036339Y-96647331D02*
X119036339Y-95647331D01*
X120036339Y-95694950D02*
X119941101Y-95647331D01*
X119941101Y-95647331D02*
X119798244Y-95647331D01*
X119798244Y-95647331D02*
X119655387Y-95694950D01*
X119655387Y-95694950D02*
X119560149Y-95790188D01*
X119560149Y-95790188D02*
X119512530Y-95885426D01*
X119512530Y-95885426D02*
X119464911Y-96075902D01*
X119464911Y-96075902D02*
X119464911Y-96218759D01*
X119464911Y-96218759D02*
X119512530Y-96409235D01*
X119512530Y-96409235D02*
X119560149Y-96504473D01*
X119560149Y-96504473D02*
X119655387Y-96599712D01*
X119655387Y-96599712D02*
X119798244Y-96647331D01*
X119798244Y-96647331D02*
X119893482Y-96647331D01*
X119893482Y-96647331D02*
X120036339Y-96599712D01*
X120036339Y-96599712D02*
X120083958Y-96552092D01*
X120083958Y-96552092D02*
X120083958Y-96218759D01*
X120083958Y-96218759D02*
X119893482Y-96218759D01*
X121131578Y-95647331D02*
X121703006Y-95647331D01*
X121417292Y-96647331D02*
X121417292Y-95647331D01*
X121988721Y-96361616D02*
X122464911Y-96361616D01*
X121893483Y-96647331D02*
X122226816Y-95647331D01*
X122226816Y-95647331D02*
X122560149Y-96647331D01*
X123226816Y-96123521D02*
X123369673Y-96171140D01*
X123369673Y-96171140D02*
X123417292Y-96218759D01*
X123417292Y-96218759D02*
X123464911Y-96313997D01*
X123464911Y-96313997D02*
X123464911Y-96456854D01*
X123464911Y-96456854D02*
X123417292Y-96552092D01*
X123417292Y-96552092D02*
X123369673Y-96599712D01*
X123369673Y-96599712D02*
X123274435Y-96647331D01*
X123274435Y-96647331D02*
X122893483Y-96647331D01*
X122893483Y-96647331D02*
X122893483Y-95647331D01*
X122893483Y-95647331D02*
X123226816Y-95647331D01*
X123226816Y-95647331D02*
X123322054Y-95694950D01*
X123322054Y-95694950D02*
X123369673Y-95742569D01*
X123369673Y-95742569D02*
X123417292Y-95837807D01*
X123417292Y-95837807D02*
X123417292Y-95933045D01*
X123417292Y-95933045D02*
X123369673Y-96028283D01*
X123369673Y-96028283D02*
X123322054Y-96075902D01*
X123322054Y-96075902D02*
X123226816Y-96123521D01*
X123226816Y-96123521D02*
X122893483Y-96123521D01*
X124369673Y-96647331D02*
X123893483Y-96647331D01*
X123893483Y-96647331D02*
X123893483Y-95647331D01*
X124703007Y-96123521D02*
X125036340Y-96123521D01*
X125179197Y-96647331D02*
X124703007Y-96647331D01*
X124703007Y-96647331D02*
X124703007Y-95647331D01*
X124703007Y-95647331D02*
X125179197Y-95647331D01*
X112941101Y-98162036D02*
X112893482Y-98209656D01*
X112893482Y-98209656D02*
X112750625Y-98257275D01*
X112750625Y-98257275D02*
X112655387Y-98257275D01*
X112655387Y-98257275D02*
X112512530Y-98209656D01*
X112512530Y-98209656D02*
X112417292Y-98114417D01*
X112417292Y-98114417D02*
X112369673Y-98019179D01*
X112369673Y-98019179D02*
X112322054Y-97828703D01*
X112322054Y-97828703D02*
X112322054Y-97685846D01*
X112322054Y-97685846D02*
X112369673Y-97495370D01*
X112369673Y-97495370D02*
X112417292Y-97400132D01*
X112417292Y-97400132D02*
X112512530Y-97304894D01*
X112512530Y-97304894D02*
X112655387Y-97257275D01*
X112655387Y-97257275D02*
X112750625Y-97257275D01*
X112750625Y-97257275D02*
X112893482Y-97304894D01*
X112893482Y-97304894D02*
X112941101Y-97352513D01*
X113941101Y-98257275D02*
X113607768Y-97781084D01*
X113369673Y-98257275D02*
X113369673Y-97257275D01*
X113369673Y-97257275D02*
X113750625Y-97257275D01*
X113750625Y-97257275D02*
X113845863Y-97304894D01*
X113845863Y-97304894D02*
X113893482Y-97352513D01*
X113893482Y-97352513D02*
X113941101Y-97447751D01*
X113941101Y-97447751D02*
X113941101Y-97590608D01*
X113941101Y-97590608D02*
X113893482Y-97685846D01*
X113893482Y-97685846D02*
X113845863Y-97733465D01*
X113845863Y-97733465D02*
X113750625Y-97781084D01*
X113750625Y-97781084D02*
X113369673Y-97781084D01*
X114369673Y-97733465D02*
X114703006Y-97733465D01*
X114845863Y-98257275D02*
X114369673Y-98257275D01*
X114369673Y-98257275D02*
X114369673Y-97257275D01*
X114369673Y-97257275D02*
X114845863Y-97257275D01*
X115226816Y-97971560D02*
X115703006Y-97971560D01*
X115131578Y-98257275D02*
X115464911Y-97257275D01*
X115464911Y-97257275D02*
X115798244Y-98257275D01*
X115988721Y-97257275D02*
X116560149Y-97257275D01*
X116274435Y-98257275D02*
X116274435Y-97257275D01*
X116893483Y-98257275D02*
X116893483Y-97257275D01*
X117226816Y-97257275D02*
X117560149Y-98257275D01*
X117560149Y-98257275D02*
X117893482Y-97257275D01*
X118226816Y-97733465D02*
X118560149Y-97733465D01*
X118703006Y-98257275D02*
X118226816Y-98257275D01*
X118226816Y-98257275D02*
X118226816Y-97257275D01*
X118226816Y-97257275D02*
X118703006Y-97257275D01*
X119893483Y-97733465D02*
X120226816Y-97733465D01*
X120369673Y-98257275D02*
X119893483Y-98257275D01*
X119893483Y-98257275D02*
X119893483Y-97257275D01*
X119893483Y-97257275D02*
X120369673Y-97257275D01*
X121274435Y-98257275D02*
X120798245Y-98257275D01*
X120798245Y-98257275D02*
X120798245Y-97257275D01*
X121607769Y-97733465D02*
X121941102Y-97733465D01*
X122083959Y-98257275D02*
X121607769Y-98257275D01*
X121607769Y-98257275D02*
X121607769Y-97257275D01*
X121607769Y-97257275D02*
X122083959Y-97257275D01*
X123083959Y-98162036D02*
X123036340Y-98209656D01*
X123036340Y-98209656D02*
X122893483Y-98257275D01*
X122893483Y-98257275D02*
X122798245Y-98257275D01*
X122798245Y-98257275D02*
X122655388Y-98209656D01*
X122655388Y-98209656D02*
X122560150Y-98114417D01*
X122560150Y-98114417D02*
X122512531Y-98019179D01*
X122512531Y-98019179D02*
X122464912Y-97828703D01*
X122464912Y-97828703D02*
X122464912Y-97685846D01*
X122464912Y-97685846D02*
X122512531Y-97495370D01*
X122512531Y-97495370D02*
X122560150Y-97400132D01*
X122560150Y-97400132D02*
X122655388Y-97304894D01*
X122655388Y-97304894D02*
X122798245Y-97257275D01*
X122798245Y-97257275D02*
X122893483Y-97257275D01*
X122893483Y-97257275D02*
X123036340Y-97304894D01*
X123036340Y-97304894D02*
X123083959Y-97352513D01*
X123369674Y-97257275D02*
X123941102Y-97257275D01*
X123655388Y-98257275D02*
X123655388Y-97257275D01*
X124845864Y-98257275D02*
X124512531Y-97781084D01*
X124274436Y-98257275D02*
X124274436Y-97257275D01*
X124274436Y-97257275D02*
X124655388Y-97257275D01*
X124655388Y-97257275D02*
X124750626Y-97304894D01*
X124750626Y-97304894D02*
X124798245Y-97352513D01*
X124798245Y-97352513D02*
X124845864Y-97447751D01*
X124845864Y-97447751D02*
X124845864Y-97590608D01*
X124845864Y-97590608D02*
X124798245Y-97685846D01*
X124798245Y-97685846D02*
X124750626Y-97733465D01*
X124750626Y-97733465D02*
X124655388Y-97781084D01*
X124655388Y-97781084D02*
X124274436Y-97781084D01*
X125464912Y-97257275D02*
X125655388Y-97257275D01*
X125655388Y-97257275D02*
X125750626Y-97304894D01*
X125750626Y-97304894D02*
X125845864Y-97400132D01*
X125845864Y-97400132D02*
X125893483Y-97590608D01*
X125893483Y-97590608D02*
X125893483Y-97923941D01*
X125893483Y-97923941D02*
X125845864Y-98114417D01*
X125845864Y-98114417D02*
X125750626Y-98209656D01*
X125750626Y-98209656D02*
X125655388Y-98257275D01*
X125655388Y-98257275D02*
X125464912Y-98257275D01*
X125464912Y-98257275D02*
X125369674Y-98209656D01*
X125369674Y-98209656D02*
X125274436Y-98114417D01*
X125274436Y-98114417D02*
X125226817Y-97923941D01*
X125226817Y-97923941D02*
X125226817Y-97590608D01*
X125226817Y-97590608D02*
X125274436Y-97400132D01*
X125274436Y-97400132D02*
X125369674Y-97304894D01*
X125369674Y-97304894D02*
X125464912Y-97257275D01*
X126322055Y-98257275D02*
X126322055Y-97257275D01*
X126322055Y-97257275D02*
X126893483Y-98257275D01*
X126893483Y-98257275D02*
X126893483Y-97257275D01*
X127369674Y-98257275D02*
X127369674Y-97257275D01*
X128417292Y-98162036D02*
X128369673Y-98209656D01*
X128369673Y-98209656D02*
X128226816Y-98257275D01*
X128226816Y-98257275D02*
X128131578Y-98257275D01*
X128131578Y-98257275D02*
X127988721Y-98209656D01*
X127988721Y-98209656D02*
X127893483Y-98114417D01*
X127893483Y-98114417D02*
X127845864Y-98019179D01*
X127845864Y-98019179D02*
X127798245Y-97828703D01*
X127798245Y-97828703D02*
X127798245Y-97685846D01*
X127798245Y-97685846D02*
X127845864Y-97495370D01*
X127845864Y-97495370D02*
X127893483Y-97400132D01*
X127893483Y-97400132D02*
X127988721Y-97304894D01*
X127988721Y-97304894D02*
X128131578Y-97257275D01*
X128131578Y-97257275D02*
X128226816Y-97257275D01*
X128226816Y-97257275D02*
X128369673Y-97304894D01*
X128369673Y-97304894D02*
X128417292Y-97352513D01*
X128798245Y-98209656D02*
X128941102Y-98257275D01*
X128941102Y-98257275D02*
X129179197Y-98257275D01*
X129179197Y-98257275D02*
X129274435Y-98209656D01*
X129274435Y-98209656D02*
X129322054Y-98162036D01*
X129322054Y-98162036D02*
X129369673Y-98066798D01*
X129369673Y-98066798D02*
X129369673Y-97971560D01*
X129369673Y-97971560D02*
X129322054Y-97876322D01*
X129322054Y-97876322D02*
X129274435Y-97828703D01*
X129274435Y-97828703D02*
X129179197Y-97781084D01*
X129179197Y-97781084D02*
X128988721Y-97733465D01*
X128988721Y-97733465D02*
X128893483Y-97685846D01*
X128893483Y-97685846D02*
X128845864Y-97638227D01*
X128845864Y-97638227D02*
X128798245Y-97542989D01*
X128798245Y-97542989D02*
X128798245Y-97447751D01*
X128798245Y-97447751D02*
X128845864Y-97352513D01*
X128845864Y-97352513D02*
X128893483Y-97304894D01*
X128893483Y-97304894D02*
X128988721Y-97257275D01*
X128988721Y-97257275D02*
X129226816Y-97257275D01*
X129226816Y-97257275D02*
X129369673Y-97304894D01*
X119131578Y-98962457D02*
X119179197Y-98914838D01*
X119179197Y-98914838D02*
X119274435Y-98867219D01*
X119274435Y-98867219D02*
X119512530Y-98867219D01*
X119512530Y-98867219D02*
X119607768Y-98914838D01*
X119607768Y-98914838D02*
X119655387Y-98962457D01*
X119655387Y-98962457D02*
X119703006Y-99057695D01*
X119703006Y-99057695D02*
X119703006Y-99152933D01*
X119703006Y-99152933D02*
X119655387Y-99295790D01*
X119655387Y-99295790D02*
X119083959Y-99867219D01*
X119083959Y-99867219D02*
X119703006Y-99867219D01*
X120322054Y-98867219D02*
X120417292Y-98867219D01*
X120417292Y-98867219D02*
X120512530Y-98914838D01*
X120512530Y-98914838D02*
X120560149Y-98962457D01*
X120560149Y-98962457D02*
X120607768Y-99057695D01*
X120607768Y-99057695D02*
X120655387Y-99248171D01*
X120655387Y-99248171D02*
X120655387Y-99486266D01*
X120655387Y-99486266D02*
X120607768Y-99676742D01*
X120607768Y-99676742D02*
X120560149Y-99771980D01*
X120560149Y-99771980D02*
X120512530Y-99819600D01*
X120512530Y-99819600D02*
X120417292Y-99867219D01*
X120417292Y-99867219D02*
X120322054Y-99867219D01*
X120322054Y-99867219D02*
X120226816Y-99819600D01*
X120226816Y-99819600D02*
X120179197Y-99771980D01*
X120179197Y-99771980D02*
X120131578Y-99676742D01*
X120131578Y-99676742D02*
X120083959Y-99486266D01*
X120083959Y-99486266D02*
X120083959Y-99248171D01*
X120083959Y-99248171D02*
X120131578Y-99057695D01*
X120131578Y-99057695D02*
X120179197Y-98962457D01*
X120179197Y-98962457D02*
X120226816Y-98914838D01*
X120226816Y-98914838D02*
X120322054Y-98867219D01*
X121036340Y-98962457D02*
X121083959Y-98914838D01*
X121083959Y-98914838D02*
X121179197Y-98867219D01*
X121179197Y-98867219D02*
X121417292Y-98867219D01*
X121417292Y-98867219D02*
X121512530Y-98914838D01*
X121512530Y-98914838D02*
X121560149Y-98962457D01*
X121560149Y-98962457D02*
X121607768Y-99057695D01*
X121607768Y-99057695D02*
X121607768Y-99152933D01*
X121607768Y-99152933D02*
X121560149Y-99295790D01*
X121560149Y-99295790D02*
X120988721Y-99867219D01*
X120988721Y-99867219D02*
X121607768Y-99867219D01*
X122464911Y-99200552D02*
X122464911Y-99867219D01*
X122226816Y-98819600D02*
X121988721Y-99533885D01*
X121988721Y-99533885D02*
X122607768Y-99533885D01*
D11*
X139375312Y-168277180D02*
X139327693Y-168324800D01*
X139327693Y-168324800D02*
X139184836Y-168372419D01*
X139184836Y-168372419D02*
X139089598Y-168372419D01*
X139089598Y-168372419D02*
X138946741Y-168324800D01*
X138946741Y-168324800D02*
X138851503Y-168229561D01*
X138851503Y-168229561D02*
X138803884Y-168134323D01*
X138803884Y-168134323D02*
X138756265Y-167943847D01*
X138756265Y-167943847D02*
X138756265Y-167800990D01*
X138756265Y-167800990D02*
X138803884Y-167610514D01*
X138803884Y-167610514D02*
X138851503Y-167515276D01*
X138851503Y-167515276D02*
X138946741Y-167420038D01*
X138946741Y-167420038D02*
X139089598Y-167372419D01*
X139089598Y-167372419D02*
X139184836Y-167372419D01*
X139184836Y-167372419D02*
X139327693Y-167420038D01*
X139327693Y-167420038D02*
X139375312Y-167467657D01*
X139803884Y-168372419D02*
X139803884Y-167372419D01*
X139803884Y-167848609D02*
X140375312Y-167848609D01*
X140375312Y-168372419D02*
X140375312Y-167372419D01*
X140803884Y-168086704D02*
X141280074Y-168086704D01*
X140708646Y-168372419D02*
X141041979Y-167372419D01*
X141041979Y-167372419D02*
X141375312Y-168372419D01*
X141708646Y-168372419D02*
X141708646Y-167372419D01*
X141708646Y-167372419D02*
X142280074Y-168372419D01*
X142280074Y-168372419D02*
X142280074Y-167372419D01*
X142756265Y-168372419D02*
X142756265Y-167372419D01*
X142756265Y-167372419D02*
X143327693Y-168372419D01*
X143327693Y-168372419D02*
X143327693Y-167372419D01*
X143803884Y-167848609D02*
X144137217Y-167848609D01*
X144280074Y-168372419D02*
X143803884Y-168372419D01*
X143803884Y-168372419D02*
X143803884Y-167372419D01*
X143803884Y-167372419D02*
X144280074Y-167372419D01*
X145184836Y-168372419D02*
X144708646Y-168372419D01*
X144708646Y-168372419D02*
X144708646Y-167372419D01*
X146232456Y-167467657D02*
X146280075Y-167420038D01*
X146280075Y-167420038D02*
X146375313Y-167372419D01*
X146375313Y-167372419D02*
X146613408Y-167372419D01*
X146613408Y-167372419D02*
X146708646Y-167420038D01*
X146708646Y-167420038D02*
X146756265Y-167467657D01*
X146756265Y-167467657D02*
X146803884Y-167562895D01*
X146803884Y-167562895D02*
X146803884Y-167658133D01*
X146803884Y-167658133D02*
X146756265Y-167800990D01*
X146756265Y-167800990D02*
X146184837Y-168372419D01*
X146184837Y-168372419D02*
X146803884Y-168372419D01*
X103803884Y-166491466D02*
X104565789Y-166491466D01*
X105565788Y-166872419D02*
X104994360Y-166872419D01*
X105280074Y-166872419D02*
X105280074Y-165872419D01*
X105280074Y-165872419D02*
X105184836Y-166015276D01*
X105184836Y-166015276D02*
X105089598Y-166110514D01*
X105089598Y-166110514D02*
X104994360Y-166158133D01*
X105946741Y-165967657D02*
X105994360Y-165920038D01*
X105994360Y-165920038D02*
X106089598Y-165872419D01*
X106089598Y-165872419D02*
X106327693Y-165872419D01*
X106327693Y-165872419D02*
X106422931Y-165920038D01*
X106422931Y-165920038D02*
X106470550Y-165967657D01*
X106470550Y-165967657D02*
X106518169Y-166062895D01*
X106518169Y-166062895D02*
X106518169Y-166158133D01*
X106518169Y-166158133D02*
X106470550Y-166300990D01*
X106470550Y-166300990D02*
X105899122Y-166872419D01*
X105899122Y-166872419D02*
X106518169Y-166872419D01*
X106803884Y-165872419D02*
X107137217Y-166872419D01*
X107137217Y-166872419D02*
X107470550Y-165872419D01*
X125875312Y-168277180D02*
X125827693Y-168324800D01*
X125827693Y-168324800D02*
X125684836Y-168372419D01*
X125684836Y-168372419D02*
X125589598Y-168372419D01*
X125589598Y-168372419D02*
X125446741Y-168324800D01*
X125446741Y-168324800D02*
X125351503Y-168229561D01*
X125351503Y-168229561D02*
X125303884Y-168134323D01*
X125303884Y-168134323D02*
X125256265Y-167943847D01*
X125256265Y-167943847D02*
X125256265Y-167800990D01*
X125256265Y-167800990D02*
X125303884Y-167610514D01*
X125303884Y-167610514D02*
X125351503Y-167515276D01*
X125351503Y-167515276D02*
X125446741Y-167420038D01*
X125446741Y-167420038D02*
X125589598Y-167372419D01*
X125589598Y-167372419D02*
X125684836Y-167372419D01*
X125684836Y-167372419D02*
X125827693Y-167420038D01*
X125827693Y-167420038D02*
X125875312Y-167467657D01*
X126303884Y-168372419D02*
X126303884Y-167372419D01*
X126303884Y-167848609D02*
X126875312Y-167848609D01*
X126875312Y-168372419D02*
X126875312Y-167372419D01*
X127303884Y-168086704D02*
X127780074Y-168086704D01*
X127208646Y-168372419D02*
X127541979Y-167372419D01*
X127541979Y-167372419D02*
X127875312Y-168372419D01*
X128208646Y-168372419D02*
X128208646Y-167372419D01*
X128208646Y-167372419D02*
X128780074Y-168372419D01*
X128780074Y-168372419D02*
X128780074Y-167372419D01*
X129256265Y-168372419D02*
X129256265Y-167372419D01*
X129256265Y-167372419D02*
X129827693Y-168372419D01*
X129827693Y-168372419D02*
X129827693Y-167372419D01*
X130303884Y-167848609D02*
X130637217Y-167848609D01*
X130780074Y-168372419D02*
X130303884Y-168372419D01*
X130303884Y-168372419D02*
X130303884Y-167372419D01*
X130303884Y-167372419D02*
X130780074Y-167372419D01*
X131684836Y-168372419D02*
X131208646Y-168372419D01*
X131208646Y-168372419D02*
X131208646Y-167372419D01*
X133303884Y-168372419D02*
X132732456Y-168372419D01*
X133018170Y-168372419D02*
X133018170Y-167372419D01*
X133018170Y-167372419D02*
X132922932Y-167515276D01*
X132922932Y-167515276D02*
X132827694Y-167610514D01*
X132827694Y-167610514D02*
X132732456Y-167658133D01*
X101327693Y-165920038D02*
X101232455Y-165872419D01*
X101232455Y-165872419D02*
X101089598Y-165872419D01*
X101089598Y-165872419D02*
X100946741Y-165920038D01*
X100946741Y-165920038D02*
X100851503Y-166015276D01*
X100851503Y-166015276D02*
X100803884Y-166110514D01*
X100803884Y-166110514D02*
X100756265Y-166300990D01*
X100756265Y-166300990D02*
X100756265Y-166443847D01*
X100756265Y-166443847D02*
X100803884Y-166634323D01*
X100803884Y-166634323D02*
X100851503Y-166729561D01*
X100851503Y-166729561D02*
X100946741Y-166824800D01*
X100946741Y-166824800D02*
X101089598Y-166872419D01*
X101089598Y-166872419D02*
X101184836Y-166872419D01*
X101184836Y-166872419D02*
X101327693Y-166824800D01*
X101327693Y-166824800D02*
X101375312Y-166777180D01*
X101375312Y-166777180D02*
X101375312Y-166443847D01*
X101375312Y-166443847D02*
X101184836Y-166443847D01*
X101803884Y-166872419D02*
X101803884Y-165872419D01*
X101803884Y-165872419D02*
X102375312Y-166872419D01*
X102375312Y-166872419D02*
X102375312Y-165872419D01*
X102851503Y-166872419D02*
X102851503Y-165872419D01*
X102851503Y-165872419D02*
X103089598Y-165872419D01*
X103089598Y-165872419D02*
X103232455Y-165920038D01*
X103232455Y-165920038D02*
X103327693Y-166015276D01*
X103327693Y-166015276D02*
X103375312Y-166110514D01*
X103375312Y-166110514D02*
X103422931Y-166300990D01*
X103422931Y-166300990D02*
X103422931Y-166443847D01*
X103422931Y-166443847D02*
X103375312Y-166634323D01*
X103375312Y-166634323D02*
X103327693Y-166729561D01*
X103327693Y-166729561D02*
X103232455Y-166824800D01*
X103232455Y-166824800D02*
X103089598Y-166872419D01*
X103089598Y-166872419D02*
X102851503Y-166872419D01*
D10*
X157336779Y-100869819D02*
X157336779Y-99869819D01*
X157336779Y-99869819D02*
X157574874Y-99869819D01*
X157574874Y-99869819D02*
X157717731Y-99917438D01*
X157717731Y-99917438D02*
X157812969Y-100012676D01*
X157812969Y-100012676D02*
X157860588Y-100107914D01*
X157860588Y-100107914D02*
X157908207Y-100298390D01*
X157908207Y-100298390D02*
X157908207Y-100441247D01*
X157908207Y-100441247D02*
X157860588Y-100631723D01*
X157860588Y-100631723D02*
X157812969Y-100726961D01*
X157812969Y-100726961D02*
X157717731Y-100822200D01*
X157717731Y-100822200D02*
X157574874Y-100869819D01*
X157574874Y-100869819D02*
X157336779Y-100869819D01*
X158622493Y-99869819D02*
X158622493Y-100584104D01*
X158622493Y-100584104D02*
X158574874Y-100726961D01*
X158574874Y-100726961D02*
X158479636Y-100822200D01*
X158479636Y-100822200D02*
X158336779Y-100869819D01*
X158336779Y-100869819D02*
X158241541Y-100869819D01*
X153557142Y-110159580D02*
X153509523Y-110207200D01*
X153509523Y-110207200D02*
X153366666Y-110254819D01*
X153366666Y-110254819D02*
X153271428Y-110254819D01*
X153271428Y-110254819D02*
X153128571Y-110207200D01*
X153128571Y-110207200D02*
X153033333Y-110111961D01*
X153033333Y-110111961D02*
X152985714Y-110016723D01*
X152985714Y-110016723D02*
X152938095Y-109826247D01*
X152938095Y-109826247D02*
X152938095Y-109683390D01*
X152938095Y-109683390D02*
X152985714Y-109492914D01*
X152985714Y-109492914D02*
X153033333Y-109397676D01*
X153033333Y-109397676D02*
X153128571Y-109302438D01*
X153128571Y-109302438D02*
X153271428Y-109254819D01*
X153271428Y-109254819D02*
X153366666Y-109254819D01*
X153366666Y-109254819D02*
X153509523Y-109302438D01*
X153509523Y-109302438D02*
X153557142Y-109350057D01*
X154509523Y-110254819D02*
X153938095Y-110254819D01*
X154223809Y-110254819D02*
X154223809Y-109254819D01*
X154223809Y-109254819D02*
X154128571Y-109397676D01*
X154128571Y-109397676D02*
X154033333Y-109492914D01*
X154033333Y-109492914D02*
X153938095Y-109540533D01*
X154890476Y-109350057D02*
X154938095Y-109302438D01*
X154938095Y-109302438D02*
X155033333Y-109254819D01*
X155033333Y-109254819D02*
X155271428Y-109254819D01*
X155271428Y-109254819D02*
X155366666Y-109302438D01*
X155366666Y-109302438D02*
X155414285Y-109350057D01*
X155414285Y-109350057D02*
X155461904Y-109445295D01*
X155461904Y-109445295D02*
X155461904Y-109540533D01*
X155461904Y-109540533D02*
X155414285Y-109683390D01*
X155414285Y-109683390D02*
X154842857Y-110254819D01*
X154842857Y-110254819D02*
X155461904Y-110254819D01*
X130857142Y-103359580D02*
X130809523Y-103407200D01*
X130809523Y-103407200D02*
X130666666Y-103454819D01*
X130666666Y-103454819D02*
X130571428Y-103454819D01*
X130571428Y-103454819D02*
X130428571Y-103407200D01*
X130428571Y-103407200D02*
X130333333Y-103311961D01*
X130333333Y-103311961D02*
X130285714Y-103216723D01*
X130285714Y-103216723D02*
X130238095Y-103026247D01*
X130238095Y-103026247D02*
X130238095Y-102883390D01*
X130238095Y-102883390D02*
X130285714Y-102692914D01*
X130285714Y-102692914D02*
X130333333Y-102597676D01*
X130333333Y-102597676D02*
X130428571Y-102502438D01*
X130428571Y-102502438D02*
X130571428Y-102454819D01*
X130571428Y-102454819D02*
X130666666Y-102454819D01*
X130666666Y-102454819D02*
X130809523Y-102502438D01*
X130809523Y-102502438D02*
X130857142Y-102550057D01*
X131809523Y-103454819D02*
X131238095Y-103454819D01*
X131523809Y-103454819D02*
X131523809Y-102454819D01*
X131523809Y-102454819D02*
X131428571Y-102597676D01*
X131428571Y-102597676D02*
X131333333Y-102692914D01*
X131333333Y-102692914D02*
X131238095Y-102740533D01*
X132761904Y-103454819D02*
X132190476Y-103454819D01*
X132476190Y-103454819D02*
X132476190Y-102454819D01*
X132476190Y-102454819D02*
X132380952Y-102597676D01*
X132380952Y-102597676D02*
X132285714Y-102692914D01*
X132285714Y-102692914D02*
X132190476Y-102740533D01*
X131282142Y-130304819D02*
X130948809Y-129828628D01*
X130710714Y-130304819D02*
X130710714Y-129304819D01*
X130710714Y-129304819D02*
X131091666Y-129304819D01*
X131091666Y-129304819D02*
X131186904Y-129352438D01*
X131186904Y-129352438D02*
X131234523Y-129400057D01*
X131234523Y-129400057D02*
X131282142Y-129495295D01*
X131282142Y-129495295D02*
X131282142Y-129638152D01*
X131282142Y-129638152D02*
X131234523Y-129733390D01*
X131234523Y-129733390D02*
X131186904Y-129781009D01*
X131186904Y-129781009D02*
X131091666Y-129828628D01*
X131091666Y-129828628D02*
X130710714Y-129828628D01*
X132234523Y-130304819D02*
X131663095Y-130304819D01*
X131948809Y-130304819D02*
X131948809Y-129304819D01*
X131948809Y-129304819D02*
X131853571Y-129447676D01*
X131853571Y-129447676D02*
X131758333Y-129542914D01*
X131758333Y-129542914D02*
X131663095Y-129590533D01*
X132710714Y-130304819D02*
X132901190Y-130304819D01*
X132901190Y-130304819D02*
X132996428Y-130257200D01*
X132996428Y-130257200D02*
X133044047Y-130209580D01*
X133044047Y-130209580D02*
X133139285Y-130066723D01*
X133139285Y-130066723D02*
X133186904Y-129876247D01*
X133186904Y-129876247D02*
X133186904Y-129495295D01*
X133186904Y-129495295D02*
X133139285Y-129400057D01*
X133139285Y-129400057D02*
X133091666Y-129352438D01*
X133091666Y-129352438D02*
X132996428Y-129304819D01*
X132996428Y-129304819D02*
X132805952Y-129304819D01*
X132805952Y-129304819D02*
X132710714Y-129352438D01*
X132710714Y-129352438D02*
X132663095Y-129400057D01*
X132663095Y-129400057D02*
X132615476Y-129495295D01*
X132615476Y-129495295D02*
X132615476Y-129733390D01*
X132615476Y-129733390D02*
X132663095Y-129828628D01*
X132663095Y-129828628D02*
X132710714Y-129876247D01*
X132710714Y-129876247D02*
X132805952Y-129923866D01*
X132805952Y-129923866D02*
X132996428Y-129923866D01*
X132996428Y-129923866D02*
X133091666Y-129876247D01*
X133091666Y-129876247D02*
X133139285Y-129828628D01*
X133139285Y-129828628D02*
X133186904Y-129733390D01*
X128304819Y-116642857D02*
X127828628Y-116976190D01*
X128304819Y-117214285D02*
X127304819Y-117214285D01*
X127304819Y-117214285D02*
X127304819Y-116833333D01*
X127304819Y-116833333D02*
X127352438Y-116738095D01*
X127352438Y-116738095D02*
X127400057Y-116690476D01*
X127400057Y-116690476D02*
X127495295Y-116642857D01*
X127495295Y-116642857D02*
X127638152Y-116642857D01*
X127638152Y-116642857D02*
X127733390Y-116690476D01*
X127733390Y-116690476D02*
X127781009Y-116738095D01*
X127781009Y-116738095D02*
X127828628Y-116833333D01*
X127828628Y-116833333D02*
X127828628Y-117214285D01*
X127400057Y-116261904D02*
X127352438Y-116214285D01*
X127352438Y-116214285D02*
X127304819Y-116119047D01*
X127304819Y-116119047D02*
X127304819Y-115880952D01*
X127304819Y-115880952D02*
X127352438Y-115785714D01*
X127352438Y-115785714D02*
X127400057Y-115738095D01*
X127400057Y-115738095D02*
X127495295Y-115690476D01*
X127495295Y-115690476D02*
X127590533Y-115690476D01*
X127590533Y-115690476D02*
X127733390Y-115738095D01*
X127733390Y-115738095D02*
X128304819Y-116309523D01*
X128304819Y-116309523D02*
X128304819Y-115690476D01*
X127304819Y-114833333D02*
X127304819Y-115023809D01*
X127304819Y-115023809D02*
X127352438Y-115119047D01*
X127352438Y-115119047D02*
X127400057Y-115166666D01*
X127400057Y-115166666D02*
X127542914Y-115261904D01*
X127542914Y-115261904D02*
X127733390Y-115309523D01*
X127733390Y-115309523D02*
X128114342Y-115309523D01*
X128114342Y-115309523D02*
X128209580Y-115261904D01*
X128209580Y-115261904D02*
X128257200Y-115214285D01*
X128257200Y-115214285D02*
X128304819Y-115119047D01*
X128304819Y-115119047D02*
X128304819Y-114928571D01*
X128304819Y-114928571D02*
X128257200Y-114833333D01*
X128257200Y-114833333D02*
X128209580Y-114785714D01*
X128209580Y-114785714D02*
X128114342Y-114738095D01*
X128114342Y-114738095D02*
X127876247Y-114738095D01*
X127876247Y-114738095D02*
X127781009Y-114785714D01*
X127781009Y-114785714D02*
X127733390Y-114833333D01*
X127733390Y-114833333D02*
X127685771Y-114928571D01*
X127685771Y-114928571D02*
X127685771Y-115119047D01*
X127685771Y-115119047D02*
X127733390Y-115214285D01*
X127733390Y-115214285D02*
X127781009Y-115261904D01*
X127781009Y-115261904D02*
X127876247Y-115309523D01*
X124229819Y-146666666D02*
X123753628Y-146999999D01*
X124229819Y-147238094D02*
X123229819Y-147238094D01*
X123229819Y-147238094D02*
X123229819Y-146857142D01*
X123229819Y-146857142D02*
X123277438Y-146761904D01*
X123277438Y-146761904D02*
X123325057Y-146714285D01*
X123325057Y-146714285D02*
X123420295Y-146666666D01*
X123420295Y-146666666D02*
X123563152Y-146666666D01*
X123563152Y-146666666D02*
X123658390Y-146714285D01*
X123658390Y-146714285D02*
X123706009Y-146761904D01*
X123706009Y-146761904D02*
X123753628Y-146857142D01*
X123753628Y-146857142D02*
X123753628Y-147238094D01*
X123229819Y-146333332D02*
X123229819Y-145714285D01*
X123229819Y-145714285D02*
X123610771Y-146047618D01*
X123610771Y-146047618D02*
X123610771Y-145904761D01*
X123610771Y-145904761D02*
X123658390Y-145809523D01*
X123658390Y-145809523D02*
X123706009Y-145761904D01*
X123706009Y-145761904D02*
X123801247Y-145714285D01*
X123801247Y-145714285D02*
X124039342Y-145714285D01*
X124039342Y-145714285D02*
X124134580Y-145761904D01*
X124134580Y-145761904D02*
X124182200Y-145809523D01*
X124182200Y-145809523D02*
X124229819Y-145904761D01*
X124229819Y-145904761D02*
X124229819Y-146190475D01*
X124229819Y-146190475D02*
X124182200Y-146285713D01*
X124182200Y-146285713D02*
X124134580Y-146333332D01*
X141166666Y-158454819D02*
X141166666Y-159169104D01*
X141166666Y-159169104D02*
X141119047Y-159311961D01*
X141119047Y-159311961D02*
X141023809Y-159407200D01*
X141023809Y-159407200D02*
X140880952Y-159454819D01*
X140880952Y-159454819D02*
X140785714Y-159454819D01*
X142119047Y-158454819D02*
X141642857Y-158454819D01*
X141642857Y-158454819D02*
X141595238Y-158931009D01*
X141595238Y-158931009D02*
X141642857Y-158883390D01*
X141642857Y-158883390D02*
X141738095Y-158835771D01*
X141738095Y-158835771D02*
X141976190Y-158835771D01*
X141976190Y-158835771D02*
X142071428Y-158883390D01*
X142071428Y-158883390D02*
X142119047Y-158931009D01*
X142119047Y-158931009D02*
X142166666Y-159026247D01*
X142166666Y-159026247D02*
X142166666Y-159264342D01*
X142166666Y-159264342D02*
X142119047Y-159359580D01*
X142119047Y-159359580D02*
X142071428Y-159407200D01*
X142071428Y-159407200D02*
X141976190Y-159454819D01*
X141976190Y-159454819D02*
X141738095Y-159454819D01*
X141738095Y-159454819D02*
X141642857Y-159407200D01*
X141642857Y-159407200D02*
X141595238Y-159359580D01*
X136261905Y-103454819D02*
X136261905Y-102454819D01*
X136261905Y-102454819D02*
X136500000Y-102454819D01*
X136500000Y-102454819D02*
X136642857Y-102502438D01*
X136642857Y-102502438D02*
X136738095Y-102597676D01*
X136738095Y-102597676D02*
X136785714Y-102692914D01*
X136785714Y-102692914D02*
X136833333Y-102883390D01*
X136833333Y-102883390D02*
X136833333Y-103026247D01*
X136833333Y-103026247D02*
X136785714Y-103216723D01*
X136785714Y-103216723D02*
X136738095Y-103311961D01*
X136738095Y-103311961D02*
X136642857Y-103407200D01*
X136642857Y-103407200D02*
X136500000Y-103454819D01*
X136500000Y-103454819D02*
X136261905Y-103454819D01*
X137785714Y-103454819D02*
X137214286Y-103454819D01*
X137500000Y-103454819D02*
X137500000Y-102454819D01*
X137500000Y-102454819D02*
X137404762Y-102597676D01*
X137404762Y-102597676D02*
X137309524Y-102692914D01*
X137309524Y-102692914D02*
X137214286Y-102740533D01*
X109954819Y-113142857D02*
X109478628Y-113476190D01*
X109954819Y-113714285D02*
X108954819Y-113714285D01*
X108954819Y-113714285D02*
X108954819Y-113333333D01*
X108954819Y-113333333D02*
X109002438Y-113238095D01*
X109002438Y-113238095D02*
X109050057Y-113190476D01*
X109050057Y-113190476D02*
X109145295Y-113142857D01*
X109145295Y-113142857D02*
X109288152Y-113142857D01*
X109288152Y-113142857D02*
X109383390Y-113190476D01*
X109383390Y-113190476D02*
X109431009Y-113238095D01*
X109431009Y-113238095D02*
X109478628Y-113333333D01*
X109478628Y-113333333D02*
X109478628Y-113714285D01*
X109954819Y-112190476D02*
X109954819Y-112761904D01*
X109954819Y-112476190D02*
X108954819Y-112476190D01*
X108954819Y-112476190D02*
X109097676Y-112571428D01*
X109097676Y-112571428D02*
X109192914Y-112666666D01*
X109192914Y-112666666D02*
X109240533Y-112761904D01*
X108954819Y-111333333D02*
X108954819Y-111523809D01*
X108954819Y-111523809D02*
X109002438Y-111619047D01*
X109002438Y-111619047D02*
X109050057Y-111666666D01*
X109050057Y-111666666D02*
X109192914Y-111761904D01*
X109192914Y-111761904D02*
X109383390Y-111809523D01*
X109383390Y-111809523D02*
X109764342Y-111809523D01*
X109764342Y-111809523D02*
X109859580Y-111761904D01*
X109859580Y-111761904D02*
X109907200Y-111714285D01*
X109907200Y-111714285D02*
X109954819Y-111619047D01*
X109954819Y-111619047D02*
X109954819Y-111428571D01*
X109954819Y-111428571D02*
X109907200Y-111333333D01*
X109907200Y-111333333D02*
X109859580Y-111285714D01*
X109859580Y-111285714D02*
X109764342Y-111238095D01*
X109764342Y-111238095D02*
X109526247Y-111238095D01*
X109526247Y-111238095D02*
X109431009Y-111285714D01*
X109431009Y-111285714D02*
X109383390Y-111333333D01*
X109383390Y-111333333D02*
X109335771Y-111428571D01*
X109335771Y-111428571D02*
X109335771Y-111619047D01*
X109335771Y-111619047D02*
X109383390Y-111714285D01*
X109383390Y-111714285D02*
X109431009Y-111761904D01*
X109431009Y-111761904D02*
X109526247Y-111809523D01*
X122758333Y-144604819D02*
X122425000Y-144128628D01*
X122186905Y-144604819D02*
X122186905Y-143604819D01*
X122186905Y-143604819D02*
X122567857Y-143604819D01*
X122567857Y-143604819D02*
X122663095Y-143652438D01*
X122663095Y-143652438D02*
X122710714Y-143700057D01*
X122710714Y-143700057D02*
X122758333Y-143795295D01*
X122758333Y-143795295D02*
X122758333Y-143938152D01*
X122758333Y-143938152D02*
X122710714Y-144033390D01*
X122710714Y-144033390D02*
X122663095Y-144081009D01*
X122663095Y-144081009D02*
X122567857Y-144128628D01*
X122567857Y-144128628D02*
X122186905Y-144128628D01*
X123663095Y-143604819D02*
X123186905Y-143604819D01*
X123186905Y-143604819D02*
X123139286Y-144081009D01*
X123139286Y-144081009D02*
X123186905Y-144033390D01*
X123186905Y-144033390D02*
X123282143Y-143985771D01*
X123282143Y-143985771D02*
X123520238Y-143985771D01*
X123520238Y-143985771D02*
X123615476Y-144033390D01*
X123615476Y-144033390D02*
X123663095Y-144081009D01*
X123663095Y-144081009D02*
X123710714Y-144176247D01*
X123710714Y-144176247D02*
X123710714Y-144414342D01*
X123710714Y-144414342D02*
X123663095Y-144509580D01*
X123663095Y-144509580D02*
X123615476Y-144557200D01*
X123615476Y-144557200D02*
X123520238Y-144604819D01*
X123520238Y-144604819D02*
X123282143Y-144604819D01*
X123282143Y-144604819D02*
X123186905Y-144557200D01*
X123186905Y-144557200D02*
X123139286Y-144509580D01*
X131304819Y-119142857D02*
X130828628Y-119476190D01*
X131304819Y-119714285D02*
X130304819Y-119714285D01*
X130304819Y-119714285D02*
X130304819Y-119333333D01*
X130304819Y-119333333D02*
X130352438Y-119238095D01*
X130352438Y-119238095D02*
X130400057Y-119190476D01*
X130400057Y-119190476D02*
X130495295Y-119142857D01*
X130495295Y-119142857D02*
X130638152Y-119142857D01*
X130638152Y-119142857D02*
X130733390Y-119190476D01*
X130733390Y-119190476D02*
X130781009Y-119238095D01*
X130781009Y-119238095D02*
X130828628Y-119333333D01*
X130828628Y-119333333D02*
X130828628Y-119714285D01*
X130400057Y-118761904D02*
X130352438Y-118714285D01*
X130352438Y-118714285D02*
X130304819Y-118619047D01*
X130304819Y-118619047D02*
X130304819Y-118380952D01*
X130304819Y-118380952D02*
X130352438Y-118285714D01*
X130352438Y-118285714D02*
X130400057Y-118238095D01*
X130400057Y-118238095D02*
X130495295Y-118190476D01*
X130495295Y-118190476D02*
X130590533Y-118190476D01*
X130590533Y-118190476D02*
X130733390Y-118238095D01*
X130733390Y-118238095D02*
X131304819Y-118809523D01*
X131304819Y-118809523D02*
X131304819Y-118190476D01*
X130304819Y-117857142D02*
X130304819Y-117238095D01*
X130304819Y-117238095D02*
X130685771Y-117571428D01*
X130685771Y-117571428D02*
X130685771Y-117428571D01*
X130685771Y-117428571D02*
X130733390Y-117333333D01*
X130733390Y-117333333D02*
X130781009Y-117285714D01*
X130781009Y-117285714D02*
X130876247Y-117238095D01*
X130876247Y-117238095D02*
X131114342Y-117238095D01*
X131114342Y-117238095D02*
X131209580Y-117285714D01*
X131209580Y-117285714D02*
X131257200Y-117333333D01*
X131257200Y-117333333D02*
X131304819Y-117428571D01*
X131304819Y-117428571D02*
X131304819Y-117714285D01*
X131304819Y-117714285D02*
X131257200Y-117809523D01*
X131257200Y-117809523D02*
X131209580Y-117857142D01*
X109709819Y-136095238D02*
X109233628Y-136428571D01*
X109709819Y-136666666D02*
X108709819Y-136666666D01*
X108709819Y-136666666D02*
X108709819Y-136285714D01*
X108709819Y-136285714D02*
X108757438Y-136190476D01*
X108757438Y-136190476D02*
X108805057Y-136142857D01*
X108805057Y-136142857D02*
X108900295Y-136095238D01*
X108900295Y-136095238D02*
X109043152Y-136095238D01*
X109043152Y-136095238D02*
X109138390Y-136142857D01*
X109138390Y-136142857D02*
X109186009Y-136190476D01*
X109186009Y-136190476D02*
X109233628Y-136285714D01*
X109233628Y-136285714D02*
X109233628Y-136666666D01*
X108709819Y-135809523D02*
X109709819Y-135476190D01*
X109709819Y-135476190D02*
X108709819Y-135142857D01*
X108709819Y-134333333D02*
X108709819Y-134809523D01*
X108709819Y-134809523D02*
X109186009Y-134857142D01*
X109186009Y-134857142D02*
X109138390Y-134809523D01*
X109138390Y-134809523D02*
X109090771Y-134714285D01*
X109090771Y-134714285D02*
X109090771Y-134476190D01*
X109090771Y-134476190D02*
X109138390Y-134380952D01*
X109138390Y-134380952D02*
X109186009Y-134333333D01*
X109186009Y-134333333D02*
X109281247Y-134285714D01*
X109281247Y-134285714D02*
X109519342Y-134285714D01*
X109519342Y-134285714D02*
X109614580Y-134333333D01*
X109614580Y-134333333D02*
X109662200Y-134380952D01*
X109662200Y-134380952D02*
X109709819Y-134476190D01*
X109709819Y-134476190D02*
X109709819Y-134714285D01*
X109709819Y-134714285D02*
X109662200Y-134809523D01*
X109662200Y-134809523D02*
X109614580Y-134857142D01*
X125604580Y-151704166D02*
X125652200Y-151751785D01*
X125652200Y-151751785D02*
X125699819Y-151894642D01*
X125699819Y-151894642D02*
X125699819Y-151989880D01*
X125699819Y-151989880D02*
X125652200Y-152132737D01*
X125652200Y-152132737D02*
X125556961Y-152227975D01*
X125556961Y-152227975D02*
X125461723Y-152275594D01*
X125461723Y-152275594D02*
X125271247Y-152323213D01*
X125271247Y-152323213D02*
X125128390Y-152323213D01*
X125128390Y-152323213D02*
X124937914Y-152275594D01*
X124937914Y-152275594D02*
X124842676Y-152227975D01*
X124842676Y-152227975D02*
X124747438Y-152132737D01*
X124747438Y-152132737D02*
X124699819Y-151989880D01*
X124699819Y-151989880D02*
X124699819Y-151894642D01*
X124699819Y-151894642D02*
X124747438Y-151751785D01*
X124747438Y-151751785D02*
X124795057Y-151704166D01*
X124795057Y-151323213D02*
X124747438Y-151275594D01*
X124747438Y-151275594D02*
X124699819Y-151180356D01*
X124699819Y-151180356D02*
X124699819Y-150942261D01*
X124699819Y-150942261D02*
X124747438Y-150847023D01*
X124747438Y-150847023D02*
X124795057Y-150799404D01*
X124795057Y-150799404D02*
X124890295Y-150751785D01*
X124890295Y-150751785D02*
X124985533Y-150751785D01*
X124985533Y-150751785D02*
X125128390Y-150799404D01*
X125128390Y-150799404D02*
X125699819Y-151370832D01*
X125699819Y-151370832D02*
X125699819Y-150751785D01*
X127857142Y-111304819D02*
X127523809Y-110828628D01*
X127285714Y-111304819D02*
X127285714Y-110304819D01*
X127285714Y-110304819D02*
X127666666Y-110304819D01*
X127666666Y-110304819D02*
X127761904Y-110352438D01*
X127761904Y-110352438D02*
X127809523Y-110400057D01*
X127809523Y-110400057D02*
X127857142Y-110495295D01*
X127857142Y-110495295D02*
X127857142Y-110638152D01*
X127857142Y-110638152D02*
X127809523Y-110733390D01*
X127809523Y-110733390D02*
X127761904Y-110781009D01*
X127761904Y-110781009D02*
X127666666Y-110828628D01*
X127666666Y-110828628D02*
X127285714Y-110828628D01*
X128238095Y-110400057D02*
X128285714Y-110352438D01*
X128285714Y-110352438D02*
X128380952Y-110304819D01*
X128380952Y-110304819D02*
X128619047Y-110304819D01*
X128619047Y-110304819D02*
X128714285Y-110352438D01*
X128714285Y-110352438D02*
X128761904Y-110400057D01*
X128761904Y-110400057D02*
X128809523Y-110495295D01*
X128809523Y-110495295D02*
X128809523Y-110590533D01*
X128809523Y-110590533D02*
X128761904Y-110733390D01*
X128761904Y-110733390D02*
X128190476Y-111304819D01*
X128190476Y-111304819D02*
X128809523Y-111304819D01*
X129666666Y-110638152D02*
X129666666Y-111304819D01*
X129428571Y-110257200D02*
X129190476Y-110971485D01*
X129190476Y-110971485D02*
X129809523Y-110971485D01*
X141229819Y-147666666D02*
X140753628Y-147999999D01*
X141229819Y-148238094D02*
X140229819Y-148238094D01*
X140229819Y-148238094D02*
X140229819Y-147857142D01*
X140229819Y-147857142D02*
X140277438Y-147761904D01*
X140277438Y-147761904D02*
X140325057Y-147714285D01*
X140325057Y-147714285D02*
X140420295Y-147666666D01*
X140420295Y-147666666D02*
X140563152Y-147666666D01*
X140563152Y-147666666D02*
X140658390Y-147714285D01*
X140658390Y-147714285D02*
X140706009Y-147761904D01*
X140706009Y-147761904D02*
X140753628Y-147857142D01*
X140753628Y-147857142D02*
X140753628Y-148238094D01*
X140658390Y-147095237D02*
X140610771Y-147190475D01*
X140610771Y-147190475D02*
X140563152Y-147238094D01*
X140563152Y-147238094D02*
X140467914Y-147285713D01*
X140467914Y-147285713D02*
X140420295Y-147285713D01*
X140420295Y-147285713D02*
X140325057Y-147238094D01*
X140325057Y-147238094D02*
X140277438Y-147190475D01*
X140277438Y-147190475D02*
X140229819Y-147095237D01*
X140229819Y-147095237D02*
X140229819Y-146904761D01*
X140229819Y-146904761D02*
X140277438Y-146809523D01*
X140277438Y-146809523D02*
X140325057Y-146761904D01*
X140325057Y-146761904D02*
X140420295Y-146714285D01*
X140420295Y-146714285D02*
X140467914Y-146714285D01*
X140467914Y-146714285D02*
X140563152Y-146761904D01*
X140563152Y-146761904D02*
X140610771Y-146809523D01*
X140610771Y-146809523D02*
X140658390Y-146904761D01*
X140658390Y-146904761D02*
X140658390Y-147095237D01*
X140658390Y-147095237D02*
X140706009Y-147190475D01*
X140706009Y-147190475D02*
X140753628Y-147238094D01*
X140753628Y-147238094D02*
X140848866Y-147285713D01*
X140848866Y-147285713D02*
X141039342Y-147285713D01*
X141039342Y-147285713D02*
X141134580Y-147238094D01*
X141134580Y-147238094D02*
X141182200Y-147190475D01*
X141182200Y-147190475D02*
X141229819Y-147095237D01*
X141229819Y-147095237D02*
X141229819Y-146904761D01*
X141229819Y-146904761D02*
X141182200Y-146809523D01*
X141182200Y-146809523D02*
X141134580Y-146761904D01*
X141134580Y-146761904D02*
X141039342Y-146714285D01*
X141039342Y-146714285D02*
X140848866Y-146714285D01*
X140848866Y-146714285D02*
X140753628Y-146761904D01*
X140753628Y-146761904D02*
X140706009Y-146809523D01*
X140706009Y-146809523D02*
X140658390Y-146904761D01*
X105709819Y-164333333D02*
X106424104Y-164333333D01*
X106424104Y-164333333D02*
X106566961Y-164380952D01*
X106566961Y-164380952D02*
X106662200Y-164476190D01*
X106662200Y-164476190D02*
X106709819Y-164619047D01*
X106709819Y-164619047D02*
X106709819Y-164714285D01*
X106138390Y-163714285D02*
X106090771Y-163809523D01*
X106090771Y-163809523D02*
X106043152Y-163857142D01*
X106043152Y-163857142D02*
X105947914Y-163904761D01*
X105947914Y-163904761D02*
X105900295Y-163904761D01*
X105900295Y-163904761D02*
X105805057Y-163857142D01*
X105805057Y-163857142D02*
X105757438Y-163809523D01*
X105757438Y-163809523D02*
X105709819Y-163714285D01*
X105709819Y-163714285D02*
X105709819Y-163523809D01*
X105709819Y-163523809D02*
X105757438Y-163428571D01*
X105757438Y-163428571D02*
X105805057Y-163380952D01*
X105805057Y-163380952D02*
X105900295Y-163333333D01*
X105900295Y-163333333D02*
X105947914Y-163333333D01*
X105947914Y-163333333D02*
X106043152Y-163380952D01*
X106043152Y-163380952D02*
X106090771Y-163428571D01*
X106090771Y-163428571D02*
X106138390Y-163523809D01*
X106138390Y-163523809D02*
X106138390Y-163714285D01*
X106138390Y-163714285D02*
X106186009Y-163809523D01*
X106186009Y-163809523D02*
X106233628Y-163857142D01*
X106233628Y-163857142D02*
X106328866Y-163904761D01*
X106328866Y-163904761D02*
X106519342Y-163904761D01*
X106519342Y-163904761D02*
X106614580Y-163857142D01*
X106614580Y-163857142D02*
X106662200Y-163809523D01*
X106662200Y-163809523D02*
X106709819Y-163714285D01*
X106709819Y-163714285D02*
X106709819Y-163523809D01*
X106709819Y-163523809D02*
X106662200Y-163428571D01*
X106662200Y-163428571D02*
X106614580Y-163380952D01*
X106614580Y-163380952D02*
X106519342Y-163333333D01*
X106519342Y-163333333D02*
X106328866Y-163333333D01*
X106328866Y-163333333D02*
X106233628Y-163380952D01*
X106233628Y-163380952D02*
X106186009Y-163428571D01*
X106186009Y-163428571D02*
X106138390Y-163523809D01*
X157166666Y-101454819D02*
X157166666Y-102169104D01*
X157166666Y-102169104D02*
X157119047Y-102311961D01*
X157119047Y-102311961D02*
X157023809Y-102407200D01*
X157023809Y-102407200D02*
X156880952Y-102454819D01*
X156880952Y-102454819D02*
X156785714Y-102454819D01*
X157547619Y-101454819D02*
X158166666Y-101454819D01*
X158166666Y-101454819D02*
X157833333Y-101835771D01*
X157833333Y-101835771D02*
X157976190Y-101835771D01*
X157976190Y-101835771D02*
X158071428Y-101883390D01*
X158071428Y-101883390D02*
X158119047Y-101931009D01*
X158119047Y-101931009D02*
X158166666Y-102026247D01*
X158166666Y-102026247D02*
X158166666Y-102264342D01*
X158166666Y-102264342D02*
X158119047Y-102359580D01*
X158119047Y-102359580D02*
X158071428Y-102407200D01*
X158071428Y-102407200D02*
X157976190Y-102454819D01*
X157976190Y-102454819D02*
X157690476Y-102454819D01*
X157690476Y-102454819D02*
X157595238Y-102407200D01*
X157595238Y-102407200D02*
X157547619Y-102359580D01*
X135663095Y-121959819D02*
X135663095Y-122769342D01*
X135663095Y-122769342D02*
X135710714Y-122864580D01*
X135710714Y-122864580D02*
X135758333Y-122912200D01*
X135758333Y-122912200D02*
X135853571Y-122959819D01*
X135853571Y-122959819D02*
X136044047Y-122959819D01*
X136044047Y-122959819D02*
X136139285Y-122912200D01*
X136139285Y-122912200D02*
X136186904Y-122864580D01*
X136186904Y-122864580D02*
X136234523Y-122769342D01*
X136234523Y-122769342D02*
X136234523Y-121959819D01*
X136853571Y-122388390D02*
X136758333Y-122340771D01*
X136758333Y-122340771D02*
X136710714Y-122293152D01*
X136710714Y-122293152D02*
X136663095Y-122197914D01*
X136663095Y-122197914D02*
X136663095Y-122150295D01*
X136663095Y-122150295D02*
X136710714Y-122055057D01*
X136710714Y-122055057D02*
X136758333Y-122007438D01*
X136758333Y-122007438D02*
X136853571Y-121959819D01*
X136853571Y-121959819D02*
X137044047Y-121959819D01*
X137044047Y-121959819D02*
X137139285Y-122007438D01*
X137139285Y-122007438D02*
X137186904Y-122055057D01*
X137186904Y-122055057D02*
X137234523Y-122150295D01*
X137234523Y-122150295D02*
X137234523Y-122197914D01*
X137234523Y-122197914D02*
X137186904Y-122293152D01*
X137186904Y-122293152D02*
X137139285Y-122340771D01*
X137139285Y-122340771D02*
X137044047Y-122388390D01*
X137044047Y-122388390D02*
X136853571Y-122388390D01*
X136853571Y-122388390D02*
X136758333Y-122436009D01*
X136758333Y-122436009D02*
X136710714Y-122483628D01*
X136710714Y-122483628D02*
X136663095Y-122578866D01*
X136663095Y-122578866D02*
X136663095Y-122769342D01*
X136663095Y-122769342D02*
X136710714Y-122864580D01*
X136710714Y-122864580D02*
X136758333Y-122912200D01*
X136758333Y-122912200D02*
X136853571Y-122959819D01*
X136853571Y-122959819D02*
X137044047Y-122959819D01*
X137044047Y-122959819D02*
X137139285Y-122912200D01*
X137139285Y-122912200D02*
X137186904Y-122864580D01*
X137186904Y-122864580D02*
X137234523Y-122769342D01*
X137234523Y-122769342D02*
X137234523Y-122578866D01*
X137234523Y-122578866D02*
X137186904Y-122483628D01*
X137186904Y-122483628D02*
X137139285Y-122436009D01*
X137139285Y-122436009D02*
X137044047Y-122388390D01*
X140304819Y-106872857D02*
X139828628Y-107206190D01*
X140304819Y-107444285D02*
X139304819Y-107444285D01*
X139304819Y-107444285D02*
X139304819Y-107063333D01*
X139304819Y-107063333D02*
X139352438Y-106968095D01*
X139352438Y-106968095D02*
X139400057Y-106920476D01*
X139400057Y-106920476D02*
X139495295Y-106872857D01*
X139495295Y-106872857D02*
X139638152Y-106872857D01*
X139638152Y-106872857D02*
X139733390Y-106920476D01*
X139733390Y-106920476D02*
X139781009Y-106968095D01*
X139781009Y-106968095D02*
X139828628Y-107063333D01*
X139828628Y-107063333D02*
X139828628Y-107444285D01*
X139304819Y-106539523D02*
X139304819Y-105920476D01*
X139304819Y-105920476D02*
X139685771Y-106253809D01*
X139685771Y-106253809D02*
X139685771Y-106110952D01*
X139685771Y-106110952D02*
X139733390Y-106015714D01*
X139733390Y-106015714D02*
X139781009Y-105968095D01*
X139781009Y-105968095D02*
X139876247Y-105920476D01*
X139876247Y-105920476D02*
X140114342Y-105920476D01*
X140114342Y-105920476D02*
X140209580Y-105968095D01*
X140209580Y-105968095D02*
X140257200Y-106015714D01*
X140257200Y-106015714D02*
X140304819Y-106110952D01*
X140304819Y-106110952D02*
X140304819Y-106396666D01*
X140304819Y-106396666D02*
X140257200Y-106491904D01*
X140257200Y-106491904D02*
X140209580Y-106539523D01*
X139400057Y-105539523D02*
X139352438Y-105491904D01*
X139352438Y-105491904D02*
X139304819Y-105396666D01*
X139304819Y-105396666D02*
X139304819Y-105158571D01*
X139304819Y-105158571D02*
X139352438Y-105063333D01*
X139352438Y-105063333D02*
X139400057Y-105015714D01*
X139400057Y-105015714D02*
X139495295Y-104968095D01*
X139495295Y-104968095D02*
X139590533Y-104968095D01*
X139590533Y-104968095D02*
X139733390Y-105015714D01*
X139733390Y-105015714D02*
X140304819Y-105587142D01*
X140304819Y-105587142D02*
X140304819Y-104968095D01*
X151663095Y-122054819D02*
X151663095Y-122864342D01*
X151663095Y-122864342D02*
X151710714Y-122959580D01*
X151710714Y-122959580D02*
X151758333Y-123007200D01*
X151758333Y-123007200D02*
X151853571Y-123054819D01*
X151853571Y-123054819D02*
X152044047Y-123054819D01*
X152044047Y-123054819D02*
X152139285Y-123007200D01*
X152139285Y-123007200D02*
X152186904Y-122959580D01*
X152186904Y-122959580D02*
X152234523Y-122864342D01*
X152234523Y-122864342D02*
X152234523Y-122054819D01*
X152758333Y-123054819D02*
X152948809Y-123054819D01*
X152948809Y-123054819D02*
X153044047Y-123007200D01*
X153044047Y-123007200D02*
X153091666Y-122959580D01*
X153091666Y-122959580D02*
X153186904Y-122816723D01*
X153186904Y-122816723D02*
X153234523Y-122626247D01*
X153234523Y-122626247D02*
X153234523Y-122245295D01*
X153234523Y-122245295D02*
X153186904Y-122150057D01*
X153186904Y-122150057D02*
X153139285Y-122102438D01*
X153139285Y-122102438D02*
X153044047Y-122054819D01*
X153044047Y-122054819D02*
X152853571Y-122054819D01*
X152853571Y-122054819D02*
X152758333Y-122102438D01*
X152758333Y-122102438D02*
X152710714Y-122150057D01*
X152710714Y-122150057D02*
X152663095Y-122245295D01*
X152663095Y-122245295D02*
X152663095Y-122483390D01*
X152663095Y-122483390D02*
X152710714Y-122578628D01*
X152710714Y-122578628D02*
X152758333Y-122626247D01*
X152758333Y-122626247D02*
X152853571Y-122673866D01*
X152853571Y-122673866D02*
X153044047Y-122673866D01*
X153044047Y-122673866D02*
X153139285Y-122626247D01*
X153139285Y-122626247D02*
X153186904Y-122578628D01*
X153186904Y-122578628D02*
X153234523Y-122483390D01*
X141709819Y-136595238D02*
X141233628Y-136928571D01*
X141709819Y-137166666D02*
X140709819Y-137166666D01*
X140709819Y-137166666D02*
X140709819Y-136785714D01*
X140709819Y-136785714D02*
X140757438Y-136690476D01*
X140757438Y-136690476D02*
X140805057Y-136642857D01*
X140805057Y-136642857D02*
X140900295Y-136595238D01*
X140900295Y-136595238D02*
X141043152Y-136595238D01*
X141043152Y-136595238D02*
X141138390Y-136642857D01*
X141138390Y-136642857D02*
X141186009Y-136690476D01*
X141186009Y-136690476D02*
X141233628Y-136785714D01*
X141233628Y-136785714D02*
X141233628Y-137166666D01*
X140709819Y-136309523D02*
X141709819Y-135976190D01*
X141709819Y-135976190D02*
X140709819Y-135642857D01*
X140709819Y-135404761D02*
X140709819Y-134738095D01*
X140709819Y-134738095D02*
X141709819Y-135166666D01*
X115782142Y-130304819D02*
X115448809Y-129828628D01*
X115210714Y-130304819D02*
X115210714Y-129304819D01*
X115210714Y-129304819D02*
X115591666Y-129304819D01*
X115591666Y-129304819D02*
X115686904Y-129352438D01*
X115686904Y-129352438D02*
X115734523Y-129400057D01*
X115734523Y-129400057D02*
X115782142Y-129495295D01*
X115782142Y-129495295D02*
X115782142Y-129638152D01*
X115782142Y-129638152D02*
X115734523Y-129733390D01*
X115734523Y-129733390D02*
X115686904Y-129781009D01*
X115686904Y-129781009D02*
X115591666Y-129828628D01*
X115591666Y-129828628D02*
X115210714Y-129828628D01*
X116734523Y-130304819D02*
X116163095Y-130304819D01*
X116448809Y-130304819D02*
X116448809Y-129304819D01*
X116448809Y-129304819D02*
X116353571Y-129447676D01*
X116353571Y-129447676D02*
X116258333Y-129542914D01*
X116258333Y-129542914D02*
X116163095Y-129590533D01*
X117067857Y-129304819D02*
X117686904Y-129304819D01*
X117686904Y-129304819D02*
X117353571Y-129685771D01*
X117353571Y-129685771D02*
X117496428Y-129685771D01*
X117496428Y-129685771D02*
X117591666Y-129733390D01*
X117591666Y-129733390D02*
X117639285Y-129781009D01*
X117639285Y-129781009D02*
X117686904Y-129876247D01*
X117686904Y-129876247D02*
X117686904Y-130114342D01*
X117686904Y-130114342D02*
X117639285Y-130209580D01*
X117639285Y-130209580D02*
X117591666Y-130257200D01*
X117591666Y-130257200D02*
X117496428Y-130304819D01*
X117496428Y-130304819D02*
X117210714Y-130304819D01*
X117210714Y-130304819D02*
X117115476Y-130257200D01*
X117115476Y-130257200D02*
X117067857Y-130209580D01*
X119688095Y-121919819D02*
X119688095Y-122729342D01*
X119688095Y-122729342D02*
X119735714Y-122824580D01*
X119735714Y-122824580D02*
X119783333Y-122872200D01*
X119783333Y-122872200D02*
X119878571Y-122919819D01*
X119878571Y-122919819D02*
X120069047Y-122919819D01*
X120069047Y-122919819D02*
X120164285Y-122872200D01*
X120164285Y-122872200D02*
X120211904Y-122824580D01*
X120211904Y-122824580D02*
X120259523Y-122729342D01*
X120259523Y-122729342D02*
X120259523Y-121919819D01*
X121164285Y-122253152D02*
X121164285Y-122919819D01*
X120926190Y-121872200D02*
X120688095Y-122586485D01*
X120688095Y-122586485D02*
X121307142Y-122586485D01*
X148342261Y-97830057D02*
X148247023Y-97782438D01*
X148247023Y-97782438D02*
X148151785Y-97687200D01*
X148151785Y-97687200D02*
X148008928Y-97544342D01*
X148008928Y-97544342D02*
X147913690Y-97496723D01*
X147913690Y-97496723D02*
X147818452Y-97496723D01*
X147866071Y-97734819D02*
X147770833Y-97687200D01*
X147770833Y-97687200D02*
X147675595Y-97591961D01*
X147675595Y-97591961D02*
X147627976Y-97401485D01*
X147627976Y-97401485D02*
X147627976Y-97068152D01*
X147627976Y-97068152D02*
X147675595Y-96877676D01*
X147675595Y-96877676D02*
X147770833Y-96782438D01*
X147770833Y-96782438D02*
X147866071Y-96734819D01*
X147866071Y-96734819D02*
X148056547Y-96734819D01*
X148056547Y-96734819D02*
X148151785Y-96782438D01*
X148151785Y-96782438D02*
X148247023Y-96877676D01*
X148247023Y-96877676D02*
X148294642Y-97068152D01*
X148294642Y-97068152D02*
X148294642Y-97401485D01*
X148294642Y-97401485D02*
X148247023Y-97591961D01*
X148247023Y-97591961D02*
X148151785Y-97687200D01*
X148151785Y-97687200D02*
X148056547Y-97734819D01*
X148056547Y-97734819D02*
X147866071Y-97734819D01*
X149247023Y-97734819D02*
X148675595Y-97734819D01*
X148961309Y-97734819D02*
X148961309Y-96734819D01*
X148961309Y-96734819D02*
X148866071Y-96877676D01*
X148866071Y-96877676D02*
X148770833Y-96972914D01*
X148770833Y-96972914D02*
X148675595Y-97020533D01*
X147758333Y-155804819D02*
X147425000Y-155328628D01*
X147186905Y-155804819D02*
X147186905Y-154804819D01*
X147186905Y-154804819D02*
X147567857Y-154804819D01*
X147567857Y-154804819D02*
X147663095Y-154852438D01*
X147663095Y-154852438D02*
X147710714Y-154900057D01*
X147710714Y-154900057D02*
X147758333Y-154995295D01*
X147758333Y-154995295D02*
X147758333Y-155138152D01*
X147758333Y-155138152D02*
X147710714Y-155233390D01*
X147710714Y-155233390D02*
X147663095Y-155281009D01*
X147663095Y-155281009D02*
X147567857Y-155328628D01*
X147567857Y-155328628D02*
X147186905Y-155328628D01*
X148091667Y-154804819D02*
X148758333Y-154804819D01*
X148758333Y-154804819D02*
X148329762Y-155804819D01*
X141282142Y-130304819D02*
X140948809Y-129828628D01*
X140710714Y-130304819D02*
X140710714Y-129304819D01*
X140710714Y-129304819D02*
X141091666Y-129304819D01*
X141091666Y-129304819D02*
X141186904Y-129352438D01*
X141186904Y-129352438D02*
X141234523Y-129400057D01*
X141234523Y-129400057D02*
X141282142Y-129495295D01*
X141282142Y-129495295D02*
X141282142Y-129638152D01*
X141282142Y-129638152D02*
X141234523Y-129733390D01*
X141234523Y-129733390D02*
X141186904Y-129781009D01*
X141186904Y-129781009D02*
X141091666Y-129828628D01*
X141091666Y-129828628D02*
X140710714Y-129828628D01*
X141663095Y-129400057D02*
X141710714Y-129352438D01*
X141710714Y-129352438D02*
X141805952Y-129304819D01*
X141805952Y-129304819D02*
X142044047Y-129304819D01*
X142044047Y-129304819D02*
X142139285Y-129352438D01*
X142139285Y-129352438D02*
X142186904Y-129400057D01*
X142186904Y-129400057D02*
X142234523Y-129495295D01*
X142234523Y-129495295D02*
X142234523Y-129590533D01*
X142234523Y-129590533D02*
X142186904Y-129733390D01*
X142186904Y-129733390D02*
X141615476Y-130304819D01*
X141615476Y-130304819D02*
X142234523Y-130304819D01*
X142853571Y-129304819D02*
X142948809Y-129304819D01*
X142948809Y-129304819D02*
X143044047Y-129352438D01*
X143044047Y-129352438D02*
X143091666Y-129400057D01*
X143091666Y-129400057D02*
X143139285Y-129495295D01*
X143139285Y-129495295D02*
X143186904Y-129685771D01*
X143186904Y-129685771D02*
X143186904Y-129923866D01*
X143186904Y-129923866D02*
X143139285Y-130114342D01*
X143139285Y-130114342D02*
X143091666Y-130209580D01*
X143091666Y-130209580D02*
X143044047Y-130257200D01*
X143044047Y-130257200D02*
X142948809Y-130304819D01*
X142948809Y-130304819D02*
X142853571Y-130304819D01*
X142853571Y-130304819D02*
X142758333Y-130257200D01*
X142758333Y-130257200D02*
X142710714Y-130209580D01*
X142710714Y-130209580D02*
X142663095Y-130114342D01*
X142663095Y-130114342D02*
X142615476Y-129923866D01*
X142615476Y-129923866D02*
X142615476Y-129685771D01*
X142615476Y-129685771D02*
X142663095Y-129495295D01*
X142663095Y-129495295D02*
X142710714Y-129400057D01*
X142710714Y-129400057D02*
X142758333Y-129352438D01*
X142758333Y-129352438D02*
X142853571Y-129304819D01*
X147642080Y-150166666D02*
X147689700Y-150214285D01*
X147689700Y-150214285D02*
X147737319Y-150357142D01*
X147737319Y-150357142D02*
X147737319Y-150452380D01*
X147737319Y-150452380D02*
X147689700Y-150595237D01*
X147689700Y-150595237D02*
X147594461Y-150690475D01*
X147594461Y-150690475D02*
X147499223Y-150738094D01*
X147499223Y-150738094D02*
X147308747Y-150785713D01*
X147308747Y-150785713D02*
X147165890Y-150785713D01*
X147165890Y-150785713D02*
X146975414Y-150738094D01*
X146975414Y-150738094D02*
X146880176Y-150690475D01*
X146880176Y-150690475D02*
X146784938Y-150595237D01*
X146784938Y-150595237D02*
X146737319Y-150452380D01*
X146737319Y-150452380D02*
X146737319Y-150357142D01*
X146737319Y-150357142D02*
X146784938Y-150214285D01*
X146784938Y-150214285D02*
X146832557Y-150166666D01*
X146737319Y-149309523D02*
X146737319Y-149499999D01*
X146737319Y-149499999D02*
X146784938Y-149595237D01*
X146784938Y-149595237D02*
X146832557Y-149642856D01*
X146832557Y-149642856D02*
X146975414Y-149738094D01*
X146975414Y-149738094D02*
X147165890Y-149785713D01*
X147165890Y-149785713D02*
X147546842Y-149785713D01*
X147546842Y-149785713D02*
X147642080Y-149738094D01*
X147642080Y-149738094D02*
X147689700Y-149690475D01*
X147689700Y-149690475D02*
X147737319Y-149595237D01*
X147737319Y-149595237D02*
X147737319Y-149404761D01*
X147737319Y-149404761D02*
X147689700Y-149309523D01*
X147689700Y-149309523D02*
X147642080Y-149261904D01*
X147642080Y-149261904D02*
X147546842Y-149214285D01*
X147546842Y-149214285D02*
X147308747Y-149214285D01*
X147308747Y-149214285D02*
X147213509Y-149261904D01*
X147213509Y-149261904D02*
X147165890Y-149309523D01*
X147165890Y-149309523D02*
X147118271Y-149404761D01*
X147118271Y-149404761D02*
X147118271Y-149595237D01*
X147118271Y-149595237D02*
X147165890Y-149690475D01*
X147165890Y-149690475D02*
X147213509Y-149738094D01*
X147213509Y-149738094D02*
X147308747Y-149785713D01*
X99675595Y-101459819D02*
X99675595Y-102269342D01*
X99675595Y-102269342D02*
X99723214Y-102364580D01*
X99723214Y-102364580D02*
X99770833Y-102412200D01*
X99770833Y-102412200D02*
X99866071Y-102459819D01*
X99866071Y-102459819D02*
X100056547Y-102459819D01*
X100056547Y-102459819D02*
X100151785Y-102412200D01*
X100151785Y-102412200D02*
X100199404Y-102364580D01*
X100199404Y-102364580D02*
X100247023Y-102269342D01*
X100247023Y-102269342D02*
X100247023Y-101459819D01*
X101199404Y-101459819D02*
X100723214Y-101459819D01*
X100723214Y-101459819D02*
X100675595Y-101936009D01*
X100675595Y-101936009D02*
X100723214Y-101888390D01*
X100723214Y-101888390D02*
X100818452Y-101840771D01*
X100818452Y-101840771D02*
X101056547Y-101840771D01*
X101056547Y-101840771D02*
X101151785Y-101888390D01*
X101151785Y-101888390D02*
X101199404Y-101936009D01*
X101199404Y-101936009D02*
X101247023Y-102031247D01*
X101247023Y-102031247D02*
X101247023Y-102269342D01*
X101247023Y-102269342D02*
X101199404Y-102364580D01*
X101199404Y-102364580D02*
X101151785Y-102412200D01*
X101151785Y-102412200D02*
X101056547Y-102459819D01*
X101056547Y-102459819D02*
X100818452Y-102459819D01*
X100818452Y-102459819D02*
X100723214Y-102412200D01*
X100723214Y-102412200D02*
X100675595Y-102364580D01*
X116829761Y-148584819D02*
X116496428Y-148108628D01*
X116258333Y-148584819D02*
X116258333Y-147584819D01*
X116258333Y-147584819D02*
X116639285Y-147584819D01*
X116639285Y-147584819D02*
X116734523Y-147632438D01*
X116734523Y-147632438D02*
X116782142Y-147680057D01*
X116782142Y-147680057D02*
X116829761Y-147775295D01*
X116829761Y-147775295D02*
X116829761Y-147918152D01*
X116829761Y-147918152D02*
X116782142Y-148013390D01*
X116782142Y-148013390D02*
X116734523Y-148061009D01*
X116734523Y-148061009D02*
X116639285Y-148108628D01*
X116639285Y-148108628D02*
X116258333Y-148108628D01*
X117115476Y-147584819D02*
X117448809Y-148584819D01*
X117448809Y-148584819D02*
X117782142Y-147584819D01*
X118067857Y-147680057D02*
X118115476Y-147632438D01*
X118115476Y-147632438D02*
X118210714Y-147584819D01*
X118210714Y-147584819D02*
X118448809Y-147584819D01*
X118448809Y-147584819D02*
X118544047Y-147632438D01*
X118544047Y-147632438D02*
X118591666Y-147680057D01*
X118591666Y-147680057D02*
X118639285Y-147775295D01*
X118639285Y-147775295D02*
X118639285Y-147870533D01*
X118639285Y-147870533D02*
X118591666Y-148013390D01*
X118591666Y-148013390D02*
X118020238Y-148584819D01*
X118020238Y-148584819D02*
X118639285Y-148584819D01*
X132329761Y-150124819D02*
X131996428Y-149648628D01*
X131758333Y-150124819D02*
X131758333Y-149124819D01*
X131758333Y-149124819D02*
X132139285Y-149124819D01*
X132139285Y-149124819D02*
X132234523Y-149172438D01*
X132234523Y-149172438D02*
X132282142Y-149220057D01*
X132282142Y-149220057D02*
X132329761Y-149315295D01*
X132329761Y-149315295D02*
X132329761Y-149458152D01*
X132329761Y-149458152D02*
X132282142Y-149553390D01*
X132282142Y-149553390D02*
X132234523Y-149601009D01*
X132234523Y-149601009D02*
X132139285Y-149648628D01*
X132139285Y-149648628D02*
X131758333Y-149648628D01*
X132615476Y-149124819D02*
X132948809Y-150124819D01*
X132948809Y-150124819D02*
X133282142Y-149124819D01*
X134139285Y-150124819D02*
X133567857Y-150124819D01*
X133853571Y-150124819D02*
X133853571Y-149124819D01*
X133853571Y-149124819D02*
X133758333Y-149267676D01*
X133758333Y-149267676D02*
X133663095Y-149362914D01*
X133663095Y-149362914D02*
X133567857Y-149410533D01*
X127666666Y-157349819D02*
X127666666Y-158064104D01*
X127666666Y-158064104D02*
X127619047Y-158206961D01*
X127619047Y-158206961D02*
X127523809Y-158302200D01*
X127523809Y-158302200D02*
X127380952Y-158349819D01*
X127380952Y-158349819D02*
X127285714Y-158349819D01*
X128095238Y-157445057D02*
X128142857Y-157397438D01*
X128142857Y-157397438D02*
X128238095Y-157349819D01*
X128238095Y-157349819D02*
X128476190Y-157349819D01*
X128476190Y-157349819D02*
X128571428Y-157397438D01*
X128571428Y-157397438D02*
X128619047Y-157445057D01*
X128619047Y-157445057D02*
X128666666Y-157540295D01*
X128666666Y-157540295D02*
X128666666Y-157635533D01*
X128666666Y-157635533D02*
X128619047Y-157778390D01*
X128619047Y-157778390D02*
X128047619Y-158349819D01*
X128047619Y-158349819D02*
X128666666Y-158349819D01*
X148454819Y-109642857D02*
X147978628Y-109976190D01*
X148454819Y-110214285D02*
X147454819Y-110214285D01*
X147454819Y-110214285D02*
X147454819Y-109833333D01*
X147454819Y-109833333D02*
X147502438Y-109738095D01*
X147502438Y-109738095D02*
X147550057Y-109690476D01*
X147550057Y-109690476D02*
X147645295Y-109642857D01*
X147645295Y-109642857D02*
X147788152Y-109642857D01*
X147788152Y-109642857D02*
X147883390Y-109690476D01*
X147883390Y-109690476D02*
X147931009Y-109738095D01*
X147931009Y-109738095D02*
X147978628Y-109833333D01*
X147978628Y-109833333D02*
X147978628Y-110214285D01*
X147454819Y-109309523D02*
X147454819Y-108690476D01*
X147454819Y-108690476D02*
X147835771Y-109023809D01*
X147835771Y-109023809D02*
X147835771Y-108880952D01*
X147835771Y-108880952D02*
X147883390Y-108785714D01*
X147883390Y-108785714D02*
X147931009Y-108738095D01*
X147931009Y-108738095D02*
X148026247Y-108690476D01*
X148026247Y-108690476D02*
X148264342Y-108690476D01*
X148264342Y-108690476D02*
X148359580Y-108738095D01*
X148359580Y-108738095D02*
X148407200Y-108785714D01*
X148407200Y-108785714D02*
X148454819Y-108880952D01*
X148454819Y-108880952D02*
X148454819Y-109166666D01*
X148454819Y-109166666D02*
X148407200Y-109261904D01*
X148407200Y-109261904D02*
X148359580Y-109309523D01*
X147454819Y-108071428D02*
X147454819Y-107976190D01*
X147454819Y-107976190D02*
X147502438Y-107880952D01*
X147502438Y-107880952D02*
X147550057Y-107833333D01*
X147550057Y-107833333D02*
X147645295Y-107785714D01*
X147645295Y-107785714D02*
X147835771Y-107738095D01*
X147835771Y-107738095D02*
X148073866Y-107738095D01*
X148073866Y-107738095D02*
X148264342Y-107785714D01*
X148264342Y-107785714D02*
X148359580Y-107833333D01*
X148359580Y-107833333D02*
X148407200Y-107880952D01*
X148407200Y-107880952D02*
X148454819Y-107976190D01*
X148454819Y-107976190D02*
X148454819Y-108071428D01*
X148454819Y-108071428D02*
X148407200Y-108166666D01*
X148407200Y-108166666D02*
X148359580Y-108214285D01*
X148359580Y-108214285D02*
X148264342Y-108261904D01*
X148264342Y-108261904D02*
X148073866Y-108309523D01*
X148073866Y-108309523D02*
X147835771Y-108309523D01*
X147835771Y-108309523D02*
X147645295Y-108261904D01*
X147645295Y-108261904D02*
X147550057Y-108214285D01*
X147550057Y-108214285D02*
X147502438Y-108166666D01*
X147502438Y-108166666D02*
X147454819Y-108071428D01*
X141758333Y-158104819D02*
X141425000Y-157628628D01*
X141186905Y-158104819D02*
X141186905Y-157104819D01*
X141186905Y-157104819D02*
X141567857Y-157104819D01*
X141567857Y-157104819D02*
X141663095Y-157152438D01*
X141663095Y-157152438D02*
X141710714Y-157200057D01*
X141710714Y-157200057D02*
X141758333Y-157295295D01*
X141758333Y-157295295D02*
X141758333Y-157438152D01*
X141758333Y-157438152D02*
X141710714Y-157533390D01*
X141710714Y-157533390D02*
X141663095Y-157581009D01*
X141663095Y-157581009D02*
X141567857Y-157628628D01*
X141567857Y-157628628D02*
X141186905Y-157628628D01*
X142615476Y-157104819D02*
X142425000Y-157104819D01*
X142425000Y-157104819D02*
X142329762Y-157152438D01*
X142329762Y-157152438D02*
X142282143Y-157200057D01*
X142282143Y-157200057D02*
X142186905Y-157342914D01*
X142186905Y-157342914D02*
X142139286Y-157533390D01*
X142139286Y-157533390D02*
X142139286Y-157914342D01*
X142139286Y-157914342D02*
X142186905Y-158009580D01*
X142186905Y-158009580D02*
X142234524Y-158057200D01*
X142234524Y-158057200D02*
X142329762Y-158104819D01*
X142329762Y-158104819D02*
X142520238Y-158104819D01*
X142520238Y-158104819D02*
X142615476Y-158057200D01*
X142615476Y-158057200D02*
X142663095Y-158009580D01*
X142663095Y-158009580D02*
X142710714Y-157914342D01*
X142710714Y-157914342D02*
X142710714Y-157676247D01*
X142710714Y-157676247D02*
X142663095Y-157581009D01*
X142663095Y-157581009D02*
X142615476Y-157533390D01*
X142615476Y-157533390D02*
X142520238Y-157485771D01*
X142520238Y-157485771D02*
X142329762Y-157485771D01*
X142329762Y-157485771D02*
X142234524Y-157533390D01*
X142234524Y-157533390D02*
X142186905Y-157581009D01*
X142186905Y-157581009D02*
X142139286Y-157676247D01*
X110954819Y-116737857D02*
X110478628Y-117071190D01*
X110954819Y-117309285D02*
X109954819Y-117309285D01*
X109954819Y-117309285D02*
X109954819Y-116928333D01*
X109954819Y-116928333D02*
X110002438Y-116833095D01*
X110002438Y-116833095D02*
X110050057Y-116785476D01*
X110050057Y-116785476D02*
X110145295Y-116737857D01*
X110145295Y-116737857D02*
X110288152Y-116737857D01*
X110288152Y-116737857D02*
X110383390Y-116785476D01*
X110383390Y-116785476D02*
X110431009Y-116833095D01*
X110431009Y-116833095D02*
X110478628Y-116928333D01*
X110478628Y-116928333D02*
X110478628Y-117309285D01*
X110954819Y-115785476D02*
X110954819Y-116356904D01*
X110954819Y-116071190D02*
X109954819Y-116071190D01*
X109954819Y-116071190D02*
X110097676Y-116166428D01*
X110097676Y-116166428D02*
X110192914Y-116261666D01*
X110192914Y-116261666D02*
X110240533Y-116356904D01*
X109954819Y-115452142D02*
X109954819Y-114785476D01*
X109954819Y-114785476D02*
X110954819Y-115214047D01*
X144833333Y-158359580D02*
X144785714Y-158407200D01*
X144785714Y-158407200D02*
X144642857Y-158454819D01*
X144642857Y-158454819D02*
X144547619Y-158454819D01*
X144547619Y-158454819D02*
X144404762Y-158407200D01*
X144404762Y-158407200D02*
X144309524Y-158311961D01*
X144309524Y-158311961D02*
X144261905Y-158216723D01*
X144261905Y-158216723D02*
X144214286Y-158026247D01*
X144214286Y-158026247D02*
X144214286Y-157883390D01*
X144214286Y-157883390D02*
X144261905Y-157692914D01*
X144261905Y-157692914D02*
X144309524Y-157597676D01*
X144309524Y-157597676D02*
X144404762Y-157502438D01*
X144404762Y-157502438D02*
X144547619Y-157454819D01*
X144547619Y-157454819D02*
X144642857Y-157454819D01*
X144642857Y-157454819D02*
X144785714Y-157502438D01*
X144785714Y-157502438D02*
X144833333Y-157550057D01*
X145690476Y-157788152D02*
X145690476Y-158454819D01*
X145452381Y-157407200D02*
X145214286Y-158121485D01*
X145214286Y-158121485D02*
X145833333Y-158121485D01*
X103188095Y-121919819D02*
X103188095Y-122729342D01*
X103188095Y-122729342D02*
X103235714Y-122824580D01*
X103235714Y-122824580D02*
X103283333Y-122872200D01*
X103283333Y-122872200D02*
X103378571Y-122919819D01*
X103378571Y-122919819D02*
X103569047Y-122919819D01*
X103569047Y-122919819D02*
X103664285Y-122872200D01*
X103664285Y-122872200D02*
X103711904Y-122824580D01*
X103711904Y-122824580D02*
X103759523Y-122729342D01*
X103759523Y-122729342D02*
X103759523Y-121919819D01*
X104140476Y-121919819D02*
X104759523Y-121919819D01*
X104759523Y-121919819D02*
X104426190Y-122300771D01*
X104426190Y-122300771D02*
X104569047Y-122300771D01*
X104569047Y-122300771D02*
X104664285Y-122348390D01*
X104664285Y-122348390D02*
X104711904Y-122396009D01*
X104711904Y-122396009D02*
X104759523Y-122491247D01*
X104759523Y-122491247D02*
X104759523Y-122729342D01*
X104759523Y-122729342D02*
X104711904Y-122824580D01*
X104711904Y-122824580D02*
X104664285Y-122872200D01*
X104664285Y-122872200D02*
X104569047Y-122919819D01*
X104569047Y-122919819D02*
X104283333Y-122919819D01*
X104283333Y-122919819D02*
X104188095Y-122872200D01*
X104188095Y-122872200D02*
X104140476Y-122824580D01*
X144238095Y-117454819D02*
X144238095Y-118264342D01*
X144238095Y-118264342D02*
X144285714Y-118359580D01*
X144285714Y-118359580D02*
X144333333Y-118407200D01*
X144333333Y-118407200D02*
X144428571Y-118454819D01*
X144428571Y-118454819D02*
X144619047Y-118454819D01*
X144619047Y-118454819D02*
X144714285Y-118407200D01*
X144714285Y-118407200D02*
X144761904Y-118359580D01*
X144761904Y-118359580D02*
X144809523Y-118264342D01*
X144809523Y-118264342D02*
X144809523Y-117454819D01*
X145809523Y-118454819D02*
X145238095Y-118454819D01*
X145523809Y-118454819D02*
X145523809Y-117454819D01*
X145523809Y-117454819D02*
X145428571Y-117597676D01*
X145428571Y-117597676D02*
X145333333Y-117692914D01*
X145333333Y-117692914D02*
X145238095Y-117740533D01*
X114954819Y-119642857D02*
X114478628Y-119976190D01*
X114954819Y-120214285D02*
X113954819Y-120214285D01*
X113954819Y-120214285D02*
X113954819Y-119833333D01*
X113954819Y-119833333D02*
X114002438Y-119738095D01*
X114002438Y-119738095D02*
X114050057Y-119690476D01*
X114050057Y-119690476D02*
X114145295Y-119642857D01*
X114145295Y-119642857D02*
X114288152Y-119642857D01*
X114288152Y-119642857D02*
X114383390Y-119690476D01*
X114383390Y-119690476D02*
X114431009Y-119738095D01*
X114431009Y-119738095D02*
X114478628Y-119833333D01*
X114478628Y-119833333D02*
X114478628Y-120214285D01*
X114954819Y-118690476D02*
X114954819Y-119261904D01*
X114954819Y-118976190D02*
X113954819Y-118976190D01*
X113954819Y-118976190D02*
X114097676Y-119071428D01*
X114097676Y-119071428D02*
X114192914Y-119166666D01*
X114192914Y-119166666D02*
X114240533Y-119261904D01*
X113954819Y-117785714D02*
X113954819Y-118261904D01*
X113954819Y-118261904D02*
X114431009Y-118309523D01*
X114431009Y-118309523D02*
X114383390Y-118261904D01*
X114383390Y-118261904D02*
X114335771Y-118166666D01*
X114335771Y-118166666D02*
X114335771Y-117928571D01*
X114335771Y-117928571D02*
X114383390Y-117833333D01*
X114383390Y-117833333D02*
X114431009Y-117785714D01*
X114431009Y-117785714D02*
X114526247Y-117738095D01*
X114526247Y-117738095D02*
X114764342Y-117738095D01*
X114764342Y-117738095D02*
X114859580Y-117785714D01*
X114859580Y-117785714D02*
X114907200Y-117833333D01*
X114907200Y-117833333D02*
X114954819Y-117928571D01*
X114954819Y-117928571D02*
X114954819Y-118166666D01*
X114954819Y-118166666D02*
X114907200Y-118261904D01*
X114907200Y-118261904D02*
X114859580Y-118309523D01*
X157282142Y-130304819D02*
X156948809Y-129828628D01*
X156710714Y-130304819D02*
X156710714Y-129304819D01*
X156710714Y-129304819D02*
X157091666Y-129304819D01*
X157091666Y-129304819D02*
X157186904Y-129352438D01*
X157186904Y-129352438D02*
X157234523Y-129400057D01*
X157234523Y-129400057D02*
X157282142Y-129495295D01*
X157282142Y-129495295D02*
X157282142Y-129638152D01*
X157282142Y-129638152D02*
X157234523Y-129733390D01*
X157234523Y-129733390D02*
X157186904Y-129781009D01*
X157186904Y-129781009D02*
X157091666Y-129828628D01*
X157091666Y-129828628D02*
X156710714Y-129828628D01*
X157663095Y-129400057D02*
X157710714Y-129352438D01*
X157710714Y-129352438D02*
X157805952Y-129304819D01*
X157805952Y-129304819D02*
X158044047Y-129304819D01*
X158044047Y-129304819D02*
X158139285Y-129352438D01*
X158139285Y-129352438D02*
X158186904Y-129400057D01*
X158186904Y-129400057D02*
X158234523Y-129495295D01*
X158234523Y-129495295D02*
X158234523Y-129590533D01*
X158234523Y-129590533D02*
X158186904Y-129733390D01*
X158186904Y-129733390D02*
X157615476Y-130304819D01*
X157615476Y-130304819D02*
X158234523Y-130304819D01*
X158615476Y-129400057D02*
X158663095Y-129352438D01*
X158663095Y-129352438D02*
X158758333Y-129304819D01*
X158758333Y-129304819D02*
X158996428Y-129304819D01*
X158996428Y-129304819D02*
X159091666Y-129352438D01*
X159091666Y-129352438D02*
X159139285Y-129400057D01*
X159139285Y-129400057D02*
X159186904Y-129495295D01*
X159186904Y-129495295D02*
X159186904Y-129590533D01*
X159186904Y-129590533D02*
X159139285Y-129733390D01*
X159139285Y-129733390D02*
X158567857Y-130304819D01*
X158567857Y-130304819D02*
X159186904Y-130304819D01*
X157709819Y-136595238D02*
X157233628Y-136928571D01*
X157709819Y-137166666D02*
X156709819Y-137166666D01*
X156709819Y-137166666D02*
X156709819Y-136785714D01*
X156709819Y-136785714D02*
X156757438Y-136690476D01*
X156757438Y-136690476D02*
X156805057Y-136642857D01*
X156805057Y-136642857D02*
X156900295Y-136595238D01*
X156900295Y-136595238D02*
X157043152Y-136595238D01*
X157043152Y-136595238D02*
X157138390Y-136642857D01*
X157138390Y-136642857D02*
X157186009Y-136690476D01*
X157186009Y-136690476D02*
X157233628Y-136785714D01*
X157233628Y-136785714D02*
X157233628Y-137166666D01*
X156709819Y-136309523D02*
X157709819Y-135976190D01*
X157709819Y-135976190D02*
X156709819Y-135642857D01*
X157138390Y-135166666D02*
X157090771Y-135261904D01*
X157090771Y-135261904D02*
X157043152Y-135309523D01*
X157043152Y-135309523D02*
X156947914Y-135357142D01*
X156947914Y-135357142D02*
X156900295Y-135357142D01*
X156900295Y-135357142D02*
X156805057Y-135309523D01*
X156805057Y-135309523D02*
X156757438Y-135261904D01*
X156757438Y-135261904D02*
X156709819Y-135166666D01*
X156709819Y-135166666D02*
X156709819Y-134976190D01*
X156709819Y-134976190D02*
X156757438Y-134880952D01*
X156757438Y-134880952D02*
X156805057Y-134833333D01*
X156805057Y-134833333D02*
X156900295Y-134785714D01*
X156900295Y-134785714D02*
X156947914Y-134785714D01*
X156947914Y-134785714D02*
X157043152Y-134833333D01*
X157043152Y-134833333D02*
X157090771Y-134880952D01*
X157090771Y-134880952D02*
X157138390Y-134976190D01*
X157138390Y-134976190D02*
X157138390Y-135166666D01*
X157138390Y-135166666D02*
X157186009Y-135261904D01*
X157186009Y-135261904D02*
X157233628Y-135309523D01*
X157233628Y-135309523D02*
X157328866Y-135357142D01*
X157328866Y-135357142D02*
X157519342Y-135357142D01*
X157519342Y-135357142D02*
X157614580Y-135309523D01*
X157614580Y-135309523D02*
X157662200Y-135261904D01*
X157662200Y-135261904D02*
X157709819Y-135166666D01*
X157709819Y-135166666D02*
X157709819Y-134976190D01*
X157709819Y-134976190D02*
X157662200Y-134880952D01*
X157662200Y-134880952D02*
X157614580Y-134833333D01*
X157614580Y-134833333D02*
X157519342Y-134785714D01*
X157519342Y-134785714D02*
X157328866Y-134785714D01*
X157328866Y-134785714D02*
X157233628Y-134833333D01*
X157233628Y-134833333D02*
X157186009Y-134880952D01*
X157186009Y-134880952D02*
X157138390Y-134976190D01*
X124454819Y-118642857D02*
X123978628Y-118976190D01*
X124454819Y-119214285D02*
X123454819Y-119214285D01*
X123454819Y-119214285D02*
X123454819Y-118833333D01*
X123454819Y-118833333D02*
X123502438Y-118738095D01*
X123502438Y-118738095D02*
X123550057Y-118690476D01*
X123550057Y-118690476D02*
X123645295Y-118642857D01*
X123645295Y-118642857D02*
X123788152Y-118642857D01*
X123788152Y-118642857D02*
X123883390Y-118690476D01*
X123883390Y-118690476D02*
X123931009Y-118738095D01*
X123931009Y-118738095D02*
X123978628Y-118833333D01*
X123978628Y-118833333D02*
X123978628Y-119214285D01*
X123550057Y-118261904D02*
X123502438Y-118214285D01*
X123502438Y-118214285D02*
X123454819Y-118119047D01*
X123454819Y-118119047D02*
X123454819Y-117880952D01*
X123454819Y-117880952D02*
X123502438Y-117785714D01*
X123502438Y-117785714D02*
X123550057Y-117738095D01*
X123550057Y-117738095D02*
X123645295Y-117690476D01*
X123645295Y-117690476D02*
X123740533Y-117690476D01*
X123740533Y-117690476D02*
X123883390Y-117738095D01*
X123883390Y-117738095D02*
X124454819Y-118309523D01*
X124454819Y-118309523D02*
X124454819Y-117690476D01*
X123454819Y-116785714D02*
X123454819Y-117261904D01*
X123454819Y-117261904D02*
X123931009Y-117309523D01*
X123931009Y-117309523D02*
X123883390Y-117261904D01*
X123883390Y-117261904D02*
X123835771Y-117166666D01*
X123835771Y-117166666D02*
X123835771Y-116928571D01*
X123835771Y-116928571D02*
X123883390Y-116833333D01*
X123883390Y-116833333D02*
X123931009Y-116785714D01*
X123931009Y-116785714D02*
X124026247Y-116738095D01*
X124026247Y-116738095D02*
X124264342Y-116738095D01*
X124264342Y-116738095D02*
X124359580Y-116785714D01*
X124359580Y-116785714D02*
X124407200Y-116833333D01*
X124407200Y-116833333D02*
X124454819Y-116928571D01*
X124454819Y-116928571D02*
X124454819Y-117166666D01*
X124454819Y-117166666D02*
X124407200Y-117261904D01*
X124407200Y-117261904D02*
X124359580Y-117309523D01*
X144304819Y-104372857D02*
X143828628Y-104706190D01*
X144304819Y-104944285D02*
X143304819Y-104944285D01*
X143304819Y-104944285D02*
X143304819Y-104563333D01*
X143304819Y-104563333D02*
X143352438Y-104468095D01*
X143352438Y-104468095D02*
X143400057Y-104420476D01*
X143400057Y-104420476D02*
X143495295Y-104372857D01*
X143495295Y-104372857D02*
X143638152Y-104372857D01*
X143638152Y-104372857D02*
X143733390Y-104420476D01*
X143733390Y-104420476D02*
X143781009Y-104468095D01*
X143781009Y-104468095D02*
X143828628Y-104563333D01*
X143828628Y-104563333D02*
X143828628Y-104944285D01*
X143400057Y-103991904D02*
X143352438Y-103944285D01*
X143352438Y-103944285D02*
X143304819Y-103849047D01*
X143304819Y-103849047D02*
X143304819Y-103610952D01*
X143304819Y-103610952D02*
X143352438Y-103515714D01*
X143352438Y-103515714D02*
X143400057Y-103468095D01*
X143400057Y-103468095D02*
X143495295Y-103420476D01*
X143495295Y-103420476D02*
X143590533Y-103420476D01*
X143590533Y-103420476D02*
X143733390Y-103468095D01*
X143733390Y-103468095D02*
X144304819Y-104039523D01*
X144304819Y-104039523D02*
X144304819Y-103420476D01*
X143304819Y-103087142D02*
X143304819Y-102420476D01*
X143304819Y-102420476D02*
X144304819Y-102849047D01*
X134688095Y-141919819D02*
X134688095Y-142729342D01*
X134688095Y-142729342D02*
X134735714Y-142824580D01*
X134735714Y-142824580D02*
X134783333Y-142872200D01*
X134783333Y-142872200D02*
X134878571Y-142919819D01*
X134878571Y-142919819D02*
X135069047Y-142919819D01*
X135069047Y-142919819D02*
X135164285Y-142872200D01*
X135164285Y-142872200D02*
X135211904Y-142824580D01*
X135211904Y-142824580D02*
X135259523Y-142729342D01*
X135259523Y-142729342D02*
X135259523Y-141919819D01*
X135688095Y-142015057D02*
X135735714Y-141967438D01*
X135735714Y-141967438D02*
X135830952Y-141919819D01*
X135830952Y-141919819D02*
X136069047Y-141919819D01*
X136069047Y-141919819D02*
X136164285Y-141967438D01*
X136164285Y-141967438D02*
X136211904Y-142015057D01*
X136211904Y-142015057D02*
X136259523Y-142110295D01*
X136259523Y-142110295D02*
X136259523Y-142205533D01*
X136259523Y-142205533D02*
X136211904Y-142348390D01*
X136211904Y-142348390D02*
X135640476Y-142919819D01*
X135640476Y-142919819D02*
X136259523Y-142919819D01*
X149857142Y-103034819D02*
X149523809Y-102558628D01*
X149285714Y-103034819D02*
X149285714Y-102034819D01*
X149285714Y-102034819D02*
X149666666Y-102034819D01*
X149666666Y-102034819D02*
X149761904Y-102082438D01*
X149761904Y-102082438D02*
X149809523Y-102130057D01*
X149809523Y-102130057D02*
X149857142Y-102225295D01*
X149857142Y-102225295D02*
X149857142Y-102368152D01*
X149857142Y-102368152D02*
X149809523Y-102463390D01*
X149809523Y-102463390D02*
X149761904Y-102511009D01*
X149761904Y-102511009D02*
X149666666Y-102558628D01*
X149666666Y-102558628D02*
X149285714Y-102558628D01*
X150190476Y-102034819D02*
X150809523Y-102034819D01*
X150809523Y-102034819D02*
X150476190Y-102415771D01*
X150476190Y-102415771D02*
X150619047Y-102415771D01*
X150619047Y-102415771D02*
X150714285Y-102463390D01*
X150714285Y-102463390D02*
X150761904Y-102511009D01*
X150761904Y-102511009D02*
X150809523Y-102606247D01*
X150809523Y-102606247D02*
X150809523Y-102844342D01*
X150809523Y-102844342D02*
X150761904Y-102939580D01*
X150761904Y-102939580D02*
X150714285Y-102987200D01*
X150714285Y-102987200D02*
X150619047Y-103034819D01*
X150619047Y-103034819D02*
X150333333Y-103034819D01*
X150333333Y-103034819D02*
X150238095Y-102987200D01*
X150238095Y-102987200D02*
X150190476Y-102939580D01*
X151142857Y-102034819D02*
X151761904Y-102034819D01*
X151761904Y-102034819D02*
X151428571Y-102415771D01*
X151428571Y-102415771D02*
X151571428Y-102415771D01*
X151571428Y-102415771D02*
X151666666Y-102463390D01*
X151666666Y-102463390D02*
X151714285Y-102511009D01*
X151714285Y-102511009D02*
X151761904Y-102606247D01*
X151761904Y-102606247D02*
X151761904Y-102844342D01*
X151761904Y-102844342D02*
X151714285Y-102939580D01*
X151714285Y-102939580D02*
X151666666Y-102987200D01*
X151666666Y-102987200D02*
X151571428Y-103034819D01*
X151571428Y-103034819D02*
X151285714Y-103034819D01*
X151285714Y-103034819D02*
X151190476Y-102987200D01*
X151190476Y-102987200D02*
X151142857Y-102939580D01*
X143604580Y-152129166D02*
X143652200Y-152176785D01*
X143652200Y-152176785D02*
X143699819Y-152319642D01*
X143699819Y-152319642D02*
X143699819Y-152414880D01*
X143699819Y-152414880D02*
X143652200Y-152557737D01*
X143652200Y-152557737D02*
X143556961Y-152652975D01*
X143556961Y-152652975D02*
X143461723Y-152700594D01*
X143461723Y-152700594D02*
X143271247Y-152748213D01*
X143271247Y-152748213D02*
X143128390Y-152748213D01*
X143128390Y-152748213D02*
X142937914Y-152700594D01*
X142937914Y-152700594D02*
X142842676Y-152652975D01*
X142842676Y-152652975D02*
X142747438Y-152557737D01*
X142747438Y-152557737D02*
X142699819Y-152414880D01*
X142699819Y-152414880D02*
X142699819Y-152319642D01*
X142699819Y-152319642D02*
X142747438Y-152176785D01*
X142747438Y-152176785D02*
X142795057Y-152129166D01*
X142699819Y-151224404D02*
X142699819Y-151700594D01*
X142699819Y-151700594D02*
X143176009Y-151748213D01*
X143176009Y-151748213D02*
X143128390Y-151700594D01*
X143128390Y-151700594D02*
X143080771Y-151605356D01*
X143080771Y-151605356D02*
X143080771Y-151367261D01*
X143080771Y-151367261D02*
X143128390Y-151272023D01*
X143128390Y-151272023D02*
X143176009Y-151224404D01*
X143176009Y-151224404D02*
X143271247Y-151176785D01*
X143271247Y-151176785D02*
X143509342Y-151176785D01*
X143509342Y-151176785D02*
X143604580Y-151224404D01*
X143604580Y-151224404D02*
X143652200Y-151272023D01*
X143652200Y-151272023D02*
X143699819Y-151367261D01*
X143699819Y-151367261D02*
X143699819Y-151605356D01*
X143699819Y-151605356D02*
X143652200Y-151700594D01*
X143652200Y-151700594D02*
X143604580Y-151748213D01*
X124782142Y-130454819D02*
X124448809Y-129978628D01*
X124210714Y-130454819D02*
X124210714Y-129454819D01*
X124210714Y-129454819D02*
X124591666Y-129454819D01*
X124591666Y-129454819D02*
X124686904Y-129502438D01*
X124686904Y-129502438D02*
X124734523Y-129550057D01*
X124734523Y-129550057D02*
X124782142Y-129645295D01*
X124782142Y-129645295D02*
X124782142Y-129788152D01*
X124782142Y-129788152D02*
X124734523Y-129883390D01*
X124734523Y-129883390D02*
X124686904Y-129931009D01*
X124686904Y-129931009D02*
X124591666Y-129978628D01*
X124591666Y-129978628D02*
X124210714Y-129978628D01*
X125734523Y-130454819D02*
X125163095Y-130454819D01*
X125448809Y-130454819D02*
X125448809Y-129454819D01*
X125448809Y-129454819D02*
X125353571Y-129597676D01*
X125353571Y-129597676D02*
X125258333Y-129692914D01*
X125258333Y-129692914D02*
X125163095Y-129740533D01*
X126591666Y-129788152D02*
X126591666Y-130454819D01*
X126353571Y-129407200D02*
X126115476Y-130121485D01*
X126115476Y-130121485D02*
X126734523Y-130121485D01*
X152244642Y-130179580D02*
X152197023Y-130227200D01*
X152197023Y-130227200D02*
X152054166Y-130274819D01*
X152054166Y-130274819D02*
X151958928Y-130274819D01*
X151958928Y-130274819D02*
X151816071Y-130227200D01*
X151816071Y-130227200D02*
X151720833Y-130131961D01*
X151720833Y-130131961D02*
X151673214Y-130036723D01*
X151673214Y-130036723D02*
X151625595Y-129846247D01*
X151625595Y-129846247D02*
X151625595Y-129703390D01*
X151625595Y-129703390D02*
X151673214Y-129512914D01*
X151673214Y-129512914D02*
X151720833Y-129417676D01*
X151720833Y-129417676D02*
X151816071Y-129322438D01*
X151816071Y-129322438D02*
X151958928Y-129274819D01*
X151958928Y-129274819D02*
X152054166Y-129274819D01*
X152054166Y-129274819D02*
X152197023Y-129322438D01*
X152197023Y-129322438D02*
X152244642Y-129370057D01*
X153197023Y-130274819D02*
X152625595Y-130274819D01*
X152911309Y-130274819D02*
X152911309Y-129274819D01*
X152911309Y-129274819D02*
X152816071Y-129417676D01*
X152816071Y-129417676D02*
X152720833Y-129512914D01*
X152720833Y-129512914D02*
X152625595Y-129560533D01*
X153816071Y-129274819D02*
X153911309Y-129274819D01*
X153911309Y-129274819D02*
X154006547Y-129322438D01*
X154006547Y-129322438D02*
X154054166Y-129370057D01*
X154054166Y-129370057D02*
X154101785Y-129465295D01*
X154101785Y-129465295D02*
X154149404Y-129655771D01*
X154149404Y-129655771D02*
X154149404Y-129893866D01*
X154149404Y-129893866D02*
X154101785Y-130084342D01*
X154101785Y-130084342D02*
X154054166Y-130179580D01*
X154054166Y-130179580D02*
X154006547Y-130227200D01*
X154006547Y-130227200D02*
X153911309Y-130274819D01*
X153911309Y-130274819D02*
X153816071Y-130274819D01*
X153816071Y-130274819D02*
X153720833Y-130227200D01*
X153720833Y-130227200D02*
X153673214Y-130179580D01*
X153673214Y-130179580D02*
X153625595Y-130084342D01*
X153625595Y-130084342D02*
X153577976Y-129893866D01*
X153577976Y-129893866D02*
X153577976Y-129655771D01*
X153577976Y-129655771D02*
X153625595Y-129465295D01*
X153625595Y-129465295D02*
X153673214Y-129370057D01*
X153673214Y-129370057D02*
X153720833Y-129322438D01*
X153720833Y-129322438D02*
X153816071Y-129274819D01*
X123104580Y-160704166D02*
X123152200Y-160751785D01*
X123152200Y-160751785D02*
X123199819Y-160894642D01*
X123199819Y-160894642D02*
X123199819Y-160989880D01*
X123199819Y-160989880D02*
X123152200Y-161132737D01*
X123152200Y-161132737D02*
X123056961Y-161227975D01*
X123056961Y-161227975D02*
X122961723Y-161275594D01*
X122961723Y-161275594D02*
X122771247Y-161323213D01*
X122771247Y-161323213D02*
X122628390Y-161323213D01*
X122628390Y-161323213D02*
X122437914Y-161275594D01*
X122437914Y-161275594D02*
X122342676Y-161227975D01*
X122342676Y-161227975D02*
X122247438Y-161132737D01*
X122247438Y-161132737D02*
X122199819Y-160989880D01*
X122199819Y-160989880D02*
X122199819Y-160894642D01*
X122199819Y-160894642D02*
X122247438Y-160751785D01*
X122247438Y-160751785D02*
X122295057Y-160704166D01*
X123199819Y-159751785D02*
X123199819Y-160323213D01*
X123199819Y-160037499D02*
X122199819Y-160037499D01*
X122199819Y-160037499D02*
X122342676Y-160132737D01*
X122342676Y-160132737D02*
X122437914Y-160227975D01*
X122437914Y-160227975D02*
X122485533Y-160323213D01*
X108782142Y-129804819D02*
X108448809Y-129328628D01*
X108210714Y-129804819D02*
X108210714Y-128804819D01*
X108210714Y-128804819D02*
X108591666Y-128804819D01*
X108591666Y-128804819D02*
X108686904Y-128852438D01*
X108686904Y-128852438D02*
X108734523Y-128900057D01*
X108734523Y-128900057D02*
X108782142Y-128995295D01*
X108782142Y-128995295D02*
X108782142Y-129138152D01*
X108782142Y-129138152D02*
X108734523Y-129233390D01*
X108734523Y-129233390D02*
X108686904Y-129281009D01*
X108686904Y-129281009D02*
X108591666Y-129328628D01*
X108591666Y-129328628D02*
X108210714Y-129328628D01*
X109734523Y-129804819D02*
X109163095Y-129804819D01*
X109448809Y-129804819D02*
X109448809Y-128804819D01*
X109448809Y-128804819D02*
X109353571Y-128947676D01*
X109353571Y-128947676D02*
X109258333Y-129042914D01*
X109258333Y-129042914D02*
X109163095Y-129090533D01*
X110115476Y-128900057D02*
X110163095Y-128852438D01*
X110163095Y-128852438D02*
X110258333Y-128804819D01*
X110258333Y-128804819D02*
X110496428Y-128804819D01*
X110496428Y-128804819D02*
X110591666Y-128852438D01*
X110591666Y-128852438D02*
X110639285Y-128900057D01*
X110639285Y-128900057D02*
X110686904Y-128995295D01*
X110686904Y-128995295D02*
X110686904Y-129090533D01*
X110686904Y-129090533D02*
X110639285Y-129233390D01*
X110639285Y-129233390D02*
X110067857Y-129804819D01*
X110067857Y-129804819D02*
X110686904Y-129804819D01*
X104824819Y-117595238D02*
X104348628Y-117928571D01*
X104824819Y-118166666D02*
X103824819Y-118166666D01*
X103824819Y-118166666D02*
X103824819Y-117785714D01*
X103824819Y-117785714D02*
X103872438Y-117690476D01*
X103872438Y-117690476D02*
X103920057Y-117642857D01*
X103920057Y-117642857D02*
X104015295Y-117595238D01*
X104015295Y-117595238D02*
X104158152Y-117595238D01*
X104158152Y-117595238D02*
X104253390Y-117642857D01*
X104253390Y-117642857D02*
X104301009Y-117690476D01*
X104301009Y-117690476D02*
X104348628Y-117785714D01*
X104348628Y-117785714D02*
X104348628Y-118166666D01*
X103824819Y-117309523D02*
X104824819Y-116976190D01*
X104824819Y-116976190D02*
X103824819Y-116642857D01*
X104824819Y-116261904D02*
X104824819Y-116071428D01*
X104824819Y-116071428D02*
X104777200Y-115976190D01*
X104777200Y-115976190D02*
X104729580Y-115928571D01*
X104729580Y-115928571D02*
X104586723Y-115833333D01*
X104586723Y-115833333D02*
X104396247Y-115785714D01*
X104396247Y-115785714D02*
X104015295Y-115785714D01*
X104015295Y-115785714D02*
X103920057Y-115833333D01*
X103920057Y-115833333D02*
X103872438Y-115880952D01*
X103872438Y-115880952D02*
X103824819Y-115976190D01*
X103824819Y-115976190D02*
X103824819Y-116166666D01*
X103824819Y-116166666D02*
X103872438Y-116261904D01*
X103872438Y-116261904D02*
X103920057Y-116309523D01*
X103920057Y-116309523D02*
X104015295Y-116357142D01*
X104015295Y-116357142D02*
X104253390Y-116357142D01*
X104253390Y-116357142D02*
X104348628Y-116309523D01*
X104348628Y-116309523D02*
X104396247Y-116261904D01*
X104396247Y-116261904D02*
X104443866Y-116166666D01*
X104443866Y-116166666D02*
X104443866Y-115976190D01*
X104443866Y-115976190D02*
X104396247Y-115880952D01*
X104396247Y-115880952D02*
X104348628Y-115833333D01*
X104348628Y-115833333D02*
X104253390Y-115785714D01*
X108159905Y-160549819D02*
X108159905Y-161359342D01*
X108159905Y-161359342D02*
X108207524Y-161454580D01*
X108207524Y-161454580D02*
X108255143Y-161502200D01*
X108255143Y-161502200D02*
X108350381Y-161549819D01*
X108350381Y-161549819D02*
X108540857Y-161549819D01*
X108540857Y-161549819D02*
X108636095Y-161502200D01*
X108636095Y-161502200D02*
X108683714Y-161454580D01*
X108683714Y-161454580D02*
X108731333Y-161359342D01*
X108731333Y-161359342D02*
X108731333Y-160549819D01*
X109731333Y-161549819D02*
X109159905Y-161549819D01*
X109445619Y-161549819D02*
X109445619Y-160549819D01*
X109445619Y-160549819D02*
X109350381Y-160692676D01*
X109350381Y-160692676D02*
X109255143Y-160787914D01*
X109255143Y-160787914D02*
X109159905Y-160835533D01*
X110064667Y-160549819D02*
X110683714Y-160549819D01*
X110683714Y-160549819D02*
X110350381Y-160930771D01*
X110350381Y-160930771D02*
X110493238Y-160930771D01*
X110493238Y-160930771D02*
X110588476Y-160978390D01*
X110588476Y-160978390D02*
X110636095Y-161026009D01*
X110636095Y-161026009D02*
X110683714Y-161121247D01*
X110683714Y-161121247D02*
X110683714Y-161359342D01*
X110683714Y-161359342D02*
X110636095Y-161454580D01*
X110636095Y-161454580D02*
X110588476Y-161502200D01*
X110588476Y-161502200D02*
X110493238Y-161549819D01*
X110493238Y-161549819D02*
X110207524Y-161549819D01*
X110207524Y-161549819D02*
X110112286Y-161502200D01*
X110112286Y-161502200D02*
X110064667Y-161454580D01*
X125709819Y-136095238D02*
X125233628Y-136428571D01*
X125709819Y-136666666D02*
X124709819Y-136666666D01*
X124709819Y-136666666D02*
X124709819Y-136285714D01*
X124709819Y-136285714D02*
X124757438Y-136190476D01*
X124757438Y-136190476D02*
X124805057Y-136142857D01*
X124805057Y-136142857D02*
X124900295Y-136095238D01*
X124900295Y-136095238D02*
X125043152Y-136095238D01*
X125043152Y-136095238D02*
X125138390Y-136142857D01*
X125138390Y-136142857D02*
X125186009Y-136190476D01*
X125186009Y-136190476D02*
X125233628Y-136285714D01*
X125233628Y-136285714D02*
X125233628Y-136666666D01*
X124709819Y-135809523D02*
X125709819Y-135476190D01*
X125709819Y-135476190D02*
X124709819Y-135142857D01*
X124709819Y-134380952D02*
X124709819Y-134571428D01*
X124709819Y-134571428D02*
X124757438Y-134666666D01*
X124757438Y-134666666D02*
X124805057Y-134714285D01*
X124805057Y-134714285D02*
X124947914Y-134809523D01*
X124947914Y-134809523D02*
X125138390Y-134857142D01*
X125138390Y-134857142D02*
X125519342Y-134857142D01*
X125519342Y-134857142D02*
X125614580Y-134809523D01*
X125614580Y-134809523D02*
X125662200Y-134761904D01*
X125662200Y-134761904D02*
X125709819Y-134666666D01*
X125709819Y-134666666D02*
X125709819Y-134476190D01*
X125709819Y-134476190D02*
X125662200Y-134380952D01*
X125662200Y-134380952D02*
X125614580Y-134333333D01*
X125614580Y-134333333D02*
X125519342Y-134285714D01*
X125519342Y-134285714D02*
X125281247Y-134285714D01*
X125281247Y-134285714D02*
X125186009Y-134333333D01*
X125186009Y-134333333D02*
X125138390Y-134380952D01*
X125138390Y-134380952D02*
X125090771Y-134476190D01*
X125090771Y-134476190D02*
X125090771Y-134666666D01*
X125090771Y-134666666D02*
X125138390Y-134761904D01*
X125138390Y-134761904D02*
X125186009Y-134809523D01*
X125186009Y-134809523D02*
X125281247Y-134857142D01*
X158104819Y-107372857D02*
X157628628Y-107706190D01*
X158104819Y-107944285D02*
X157104819Y-107944285D01*
X157104819Y-107944285D02*
X157104819Y-107563333D01*
X157104819Y-107563333D02*
X157152438Y-107468095D01*
X157152438Y-107468095D02*
X157200057Y-107420476D01*
X157200057Y-107420476D02*
X157295295Y-107372857D01*
X157295295Y-107372857D02*
X157438152Y-107372857D01*
X157438152Y-107372857D02*
X157533390Y-107420476D01*
X157533390Y-107420476D02*
X157581009Y-107468095D01*
X157581009Y-107468095D02*
X157628628Y-107563333D01*
X157628628Y-107563333D02*
X157628628Y-107944285D01*
X157200057Y-106991904D02*
X157152438Y-106944285D01*
X157152438Y-106944285D02*
X157104819Y-106849047D01*
X157104819Y-106849047D02*
X157104819Y-106610952D01*
X157104819Y-106610952D02*
X157152438Y-106515714D01*
X157152438Y-106515714D02*
X157200057Y-106468095D01*
X157200057Y-106468095D02*
X157295295Y-106420476D01*
X157295295Y-106420476D02*
X157390533Y-106420476D01*
X157390533Y-106420476D02*
X157533390Y-106468095D01*
X157533390Y-106468095D02*
X158104819Y-107039523D01*
X158104819Y-107039523D02*
X158104819Y-106420476D01*
X158104819Y-105944285D02*
X158104819Y-105753809D01*
X158104819Y-105753809D02*
X158057200Y-105658571D01*
X158057200Y-105658571D02*
X158009580Y-105610952D01*
X158009580Y-105610952D02*
X157866723Y-105515714D01*
X157866723Y-105515714D02*
X157676247Y-105468095D01*
X157676247Y-105468095D02*
X157295295Y-105468095D01*
X157295295Y-105468095D02*
X157200057Y-105515714D01*
X157200057Y-105515714D02*
X157152438Y-105563333D01*
X157152438Y-105563333D02*
X157104819Y-105658571D01*
X157104819Y-105658571D02*
X157104819Y-105849047D01*
X157104819Y-105849047D02*
X157152438Y-105944285D01*
X157152438Y-105944285D02*
X157200057Y-105991904D01*
X157200057Y-105991904D02*
X157295295Y-106039523D01*
X157295295Y-106039523D02*
X157533390Y-106039523D01*
X157533390Y-106039523D02*
X157628628Y-105991904D01*
X157628628Y-105991904D02*
X157676247Y-105944285D01*
X157676247Y-105944285D02*
X157723866Y-105849047D01*
X157723866Y-105849047D02*
X157723866Y-105658571D01*
X157723866Y-105658571D02*
X157676247Y-105563333D01*
X157676247Y-105563333D02*
X157628628Y-105515714D01*
X157628628Y-105515714D02*
X157533390Y-105468095D01*
X91666666Y-106559819D02*
X91666666Y-107274104D01*
X91666666Y-107274104D02*
X91619047Y-107416961D01*
X91619047Y-107416961D02*
X91523809Y-107512200D01*
X91523809Y-107512200D02*
X91380952Y-107559819D01*
X91380952Y-107559819D02*
X91285714Y-107559819D01*
X92666666Y-107559819D02*
X92095238Y-107559819D01*
X92380952Y-107559819D02*
X92380952Y-106559819D01*
X92380952Y-106559819D02*
X92285714Y-106702676D01*
X92285714Y-106702676D02*
X92190476Y-106797914D01*
X92190476Y-106797914D02*
X92095238Y-106845533D01*
X143550057Y-108595238D02*
X143502438Y-108690476D01*
X143502438Y-108690476D02*
X143407200Y-108785714D01*
X143407200Y-108785714D02*
X143264342Y-108928571D01*
X143264342Y-108928571D02*
X143216723Y-109023809D01*
X143216723Y-109023809D02*
X143216723Y-109119047D01*
X143454819Y-109071428D02*
X143407200Y-109166666D01*
X143407200Y-109166666D02*
X143311961Y-109261904D01*
X143311961Y-109261904D02*
X143121485Y-109309523D01*
X143121485Y-109309523D02*
X142788152Y-109309523D01*
X142788152Y-109309523D02*
X142597676Y-109261904D01*
X142597676Y-109261904D02*
X142502438Y-109166666D01*
X142502438Y-109166666D02*
X142454819Y-109071428D01*
X142454819Y-109071428D02*
X142454819Y-108880952D01*
X142454819Y-108880952D02*
X142502438Y-108785714D01*
X142502438Y-108785714D02*
X142597676Y-108690476D01*
X142597676Y-108690476D02*
X142788152Y-108642857D01*
X142788152Y-108642857D02*
X143121485Y-108642857D01*
X143121485Y-108642857D02*
X143311961Y-108690476D01*
X143311961Y-108690476D02*
X143407200Y-108785714D01*
X143407200Y-108785714D02*
X143454819Y-108880952D01*
X143454819Y-108880952D02*
X143454819Y-109071428D01*
X142550057Y-108261904D02*
X142502438Y-108214285D01*
X142502438Y-108214285D02*
X142454819Y-108119047D01*
X142454819Y-108119047D02*
X142454819Y-107880952D01*
X142454819Y-107880952D02*
X142502438Y-107785714D01*
X142502438Y-107785714D02*
X142550057Y-107738095D01*
X142550057Y-107738095D02*
X142645295Y-107690476D01*
X142645295Y-107690476D02*
X142740533Y-107690476D01*
X142740533Y-107690476D02*
X142883390Y-107738095D01*
X142883390Y-107738095D02*
X143454819Y-108309523D01*
X143454819Y-108309523D02*
X143454819Y-107690476D01*
X145104819Y-100372857D02*
X144628628Y-100706190D01*
X145104819Y-100944285D02*
X144104819Y-100944285D01*
X144104819Y-100944285D02*
X144104819Y-100563333D01*
X144104819Y-100563333D02*
X144152438Y-100468095D01*
X144152438Y-100468095D02*
X144200057Y-100420476D01*
X144200057Y-100420476D02*
X144295295Y-100372857D01*
X144295295Y-100372857D02*
X144438152Y-100372857D01*
X144438152Y-100372857D02*
X144533390Y-100420476D01*
X144533390Y-100420476D02*
X144581009Y-100468095D01*
X144581009Y-100468095D02*
X144628628Y-100563333D01*
X144628628Y-100563333D02*
X144628628Y-100944285D01*
X144104819Y-100039523D02*
X144104819Y-99420476D01*
X144104819Y-99420476D02*
X144485771Y-99753809D01*
X144485771Y-99753809D02*
X144485771Y-99610952D01*
X144485771Y-99610952D02*
X144533390Y-99515714D01*
X144533390Y-99515714D02*
X144581009Y-99468095D01*
X144581009Y-99468095D02*
X144676247Y-99420476D01*
X144676247Y-99420476D02*
X144914342Y-99420476D01*
X144914342Y-99420476D02*
X145009580Y-99468095D01*
X145009580Y-99468095D02*
X145057200Y-99515714D01*
X145057200Y-99515714D02*
X145104819Y-99610952D01*
X145104819Y-99610952D02*
X145104819Y-99896666D01*
X145104819Y-99896666D02*
X145057200Y-99991904D01*
X145057200Y-99991904D02*
X145009580Y-100039523D01*
X145104819Y-98468095D02*
X145104819Y-99039523D01*
X145104819Y-98753809D02*
X144104819Y-98753809D01*
X144104819Y-98753809D02*
X144247676Y-98849047D01*
X144247676Y-98849047D02*
X144342914Y-98944285D01*
X144342914Y-98944285D02*
X144390533Y-99039523D01*
X152829761Y-148584819D02*
X152496428Y-148108628D01*
X152258333Y-148584819D02*
X152258333Y-147584819D01*
X152258333Y-147584819D02*
X152639285Y-147584819D01*
X152639285Y-147584819D02*
X152734523Y-147632438D01*
X152734523Y-147632438D02*
X152782142Y-147680057D01*
X152782142Y-147680057D02*
X152829761Y-147775295D01*
X152829761Y-147775295D02*
X152829761Y-147918152D01*
X152829761Y-147918152D02*
X152782142Y-148013390D01*
X152782142Y-148013390D02*
X152734523Y-148061009D01*
X152734523Y-148061009D02*
X152639285Y-148108628D01*
X152639285Y-148108628D02*
X152258333Y-148108628D01*
X153115476Y-147584819D02*
X153448809Y-148584819D01*
X153448809Y-148584819D02*
X153782142Y-147584819D01*
X154544047Y-147918152D02*
X154544047Y-148584819D01*
X154305952Y-147537200D02*
X154067857Y-148251485D01*
X154067857Y-148251485D02*
X154686904Y-148251485D01*
X143258333Y-142304819D02*
X142925000Y-141828628D01*
X142686905Y-142304819D02*
X142686905Y-141304819D01*
X142686905Y-141304819D02*
X143067857Y-141304819D01*
X143067857Y-141304819D02*
X143163095Y-141352438D01*
X143163095Y-141352438D02*
X143210714Y-141400057D01*
X143210714Y-141400057D02*
X143258333Y-141495295D01*
X143258333Y-141495295D02*
X143258333Y-141638152D01*
X143258333Y-141638152D02*
X143210714Y-141733390D01*
X143210714Y-141733390D02*
X143163095Y-141781009D01*
X143163095Y-141781009D02*
X143067857Y-141828628D01*
X143067857Y-141828628D02*
X142686905Y-141828628D01*
X143734524Y-142304819D02*
X143925000Y-142304819D01*
X143925000Y-142304819D02*
X144020238Y-142257200D01*
X144020238Y-142257200D02*
X144067857Y-142209580D01*
X144067857Y-142209580D02*
X144163095Y-142066723D01*
X144163095Y-142066723D02*
X144210714Y-141876247D01*
X144210714Y-141876247D02*
X144210714Y-141495295D01*
X144210714Y-141495295D02*
X144163095Y-141400057D01*
X144163095Y-141400057D02*
X144115476Y-141352438D01*
X144115476Y-141352438D02*
X144020238Y-141304819D01*
X144020238Y-141304819D02*
X143829762Y-141304819D01*
X143829762Y-141304819D02*
X143734524Y-141352438D01*
X143734524Y-141352438D02*
X143686905Y-141400057D01*
X143686905Y-141400057D02*
X143639286Y-141495295D01*
X143639286Y-141495295D02*
X143639286Y-141733390D01*
X143639286Y-141733390D02*
X143686905Y-141828628D01*
X143686905Y-141828628D02*
X143734524Y-141876247D01*
X143734524Y-141876247D02*
X143829762Y-141923866D01*
X143829762Y-141923866D02*
X144020238Y-141923866D01*
X144020238Y-141923866D02*
X144115476Y-141876247D01*
X144115476Y-141876247D02*
X144163095Y-141828628D01*
X144163095Y-141828628D02*
X144210714Y-141733390D01*
X136720833Y-130179580D02*
X136673214Y-130227200D01*
X136673214Y-130227200D02*
X136530357Y-130274819D01*
X136530357Y-130274819D02*
X136435119Y-130274819D01*
X136435119Y-130274819D02*
X136292262Y-130227200D01*
X136292262Y-130227200D02*
X136197024Y-130131961D01*
X136197024Y-130131961D02*
X136149405Y-130036723D01*
X136149405Y-130036723D02*
X136101786Y-129846247D01*
X136101786Y-129846247D02*
X136101786Y-129703390D01*
X136101786Y-129703390D02*
X136149405Y-129512914D01*
X136149405Y-129512914D02*
X136197024Y-129417676D01*
X136197024Y-129417676D02*
X136292262Y-129322438D01*
X136292262Y-129322438D02*
X136435119Y-129274819D01*
X136435119Y-129274819D02*
X136530357Y-129274819D01*
X136530357Y-129274819D02*
X136673214Y-129322438D01*
X136673214Y-129322438D02*
X136720833Y-129370057D01*
X137197024Y-130274819D02*
X137387500Y-130274819D01*
X137387500Y-130274819D02*
X137482738Y-130227200D01*
X137482738Y-130227200D02*
X137530357Y-130179580D01*
X137530357Y-130179580D02*
X137625595Y-130036723D01*
X137625595Y-130036723D02*
X137673214Y-129846247D01*
X137673214Y-129846247D02*
X137673214Y-129465295D01*
X137673214Y-129465295D02*
X137625595Y-129370057D01*
X137625595Y-129370057D02*
X137577976Y-129322438D01*
X137577976Y-129322438D02*
X137482738Y-129274819D01*
X137482738Y-129274819D02*
X137292262Y-129274819D01*
X137292262Y-129274819D02*
X137197024Y-129322438D01*
X137197024Y-129322438D02*
X137149405Y-129370057D01*
X137149405Y-129370057D02*
X137101786Y-129465295D01*
X137101786Y-129465295D02*
X137101786Y-129703390D01*
X137101786Y-129703390D02*
X137149405Y-129798628D01*
X137149405Y-129798628D02*
X137197024Y-129846247D01*
X137197024Y-129846247D02*
X137292262Y-129893866D01*
X137292262Y-129893866D02*
X137482738Y-129893866D01*
X137482738Y-129893866D02*
X137577976Y-129846247D01*
X137577976Y-129846247D02*
X137625595Y-129798628D01*
X137625595Y-129798628D02*
X137673214Y-129703390D01*
X120795833Y-130179580D02*
X120748214Y-130227200D01*
X120748214Y-130227200D02*
X120605357Y-130274819D01*
X120605357Y-130274819D02*
X120510119Y-130274819D01*
X120510119Y-130274819D02*
X120367262Y-130227200D01*
X120367262Y-130227200D02*
X120272024Y-130131961D01*
X120272024Y-130131961D02*
X120224405Y-130036723D01*
X120224405Y-130036723D02*
X120176786Y-129846247D01*
X120176786Y-129846247D02*
X120176786Y-129703390D01*
X120176786Y-129703390D02*
X120224405Y-129512914D01*
X120224405Y-129512914D02*
X120272024Y-129417676D01*
X120272024Y-129417676D02*
X120367262Y-129322438D01*
X120367262Y-129322438D02*
X120510119Y-129274819D01*
X120510119Y-129274819D02*
X120605357Y-129274819D01*
X120605357Y-129274819D02*
X120748214Y-129322438D01*
X120748214Y-129322438D02*
X120795833Y-129370057D01*
X121367262Y-129703390D02*
X121272024Y-129655771D01*
X121272024Y-129655771D02*
X121224405Y-129608152D01*
X121224405Y-129608152D02*
X121176786Y-129512914D01*
X121176786Y-129512914D02*
X121176786Y-129465295D01*
X121176786Y-129465295D02*
X121224405Y-129370057D01*
X121224405Y-129370057D02*
X121272024Y-129322438D01*
X121272024Y-129322438D02*
X121367262Y-129274819D01*
X121367262Y-129274819D02*
X121557738Y-129274819D01*
X121557738Y-129274819D02*
X121652976Y-129322438D01*
X121652976Y-129322438D02*
X121700595Y-129370057D01*
X121700595Y-129370057D02*
X121748214Y-129465295D01*
X121748214Y-129465295D02*
X121748214Y-129512914D01*
X121748214Y-129512914D02*
X121700595Y-129608152D01*
X121700595Y-129608152D02*
X121652976Y-129655771D01*
X121652976Y-129655771D02*
X121557738Y-129703390D01*
X121557738Y-129703390D02*
X121367262Y-129703390D01*
X121367262Y-129703390D02*
X121272024Y-129751009D01*
X121272024Y-129751009D02*
X121224405Y-129798628D01*
X121224405Y-129798628D02*
X121176786Y-129893866D01*
X121176786Y-129893866D02*
X121176786Y-130084342D01*
X121176786Y-130084342D02*
X121224405Y-130179580D01*
X121224405Y-130179580D02*
X121272024Y-130227200D01*
X121272024Y-130227200D02*
X121367262Y-130274819D01*
X121367262Y-130274819D02*
X121557738Y-130274819D01*
X121557738Y-130274819D02*
X121652976Y-130227200D01*
X121652976Y-130227200D02*
X121700595Y-130179580D01*
X121700595Y-130179580D02*
X121748214Y-130084342D01*
X121748214Y-130084342D02*
X121748214Y-129893866D01*
X121748214Y-129893866D02*
X121700595Y-129798628D01*
X121700595Y-129798628D02*
X121652976Y-129751009D01*
X121652976Y-129751009D02*
X121557738Y-129703390D01*
X104220833Y-129679580D02*
X104173214Y-129727200D01*
X104173214Y-129727200D02*
X104030357Y-129774819D01*
X104030357Y-129774819D02*
X103935119Y-129774819D01*
X103935119Y-129774819D02*
X103792262Y-129727200D01*
X103792262Y-129727200D02*
X103697024Y-129631961D01*
X103697024Y-129631961D02*
X103649405Y-129536723D01*
X103649405Y-129536723D02*
X103601786Y-129346247D01*
X103601786Y-129346247D02*
X103601786Y-129203390D01*
X103601786Y-129203390D02*
X103649405Y-129012914D01*
X103649405Y-129012914D02*
X103697024Y-128917676D01*
X103697024Y-128917676D02*
X103792262Y-128822438D01*
X103792262Y-128822438D02*
X103935119Y-128774819D01*
X103935119Y-128774819D02*
X104030357Y-128774819D01*
X104030357Y-128774819D02*
X104173214Y-128822438D01*
X104173214Y-128822438D02*
X104220833Y-128870057D01*
X104554167Y-128774819D02*
X105220833Y-128774819D01*
X105220833Y-128774819D02*
X104792262Y-129774819D01*
X112329819Y-109737857D02*
X111853628Y-110071190D01*
X112329819Y-110309285D02*
X111329819Y-110309285D01*
X111329819Y-110309285D02*
X111329819Y-109928333D01*
X111329819Y-109928333D02*
X111377438Y-109833095D01*
X111377438Y-109833095D02*
X111425057Y-109785476D01*
X111425057Y-109785476D02*
X111520295Y-109737857D01*
X111520295Y-109737857D02*
X111663152Y-109737857D01*
X111663152Y-109737857D02*
X111758390Y-109785476D01*
X111758390Y-109785476D02*
X111806009Y-109833095D01*
X111806009Y-109833095D02*
X111853628Y-109928333D01*
X111853628Y-109928333D02*
X111853628Y-110309285D01*
X112329819Y-108785476D02*
X112329819Y-109356904D01*
X112329819Y-109071190D02*
X111329819Y-109071190D01*
X111329819Y-109071190D02*
X111472676Y-109166428D01*
X111472676Y-109166428D02*
X111567914Y-109261666D01*
X111567914Y-109261666D02*
X111615533Y-109356904D01*
X111758390Y-108214047D02*
X111710771Y-108309285D01*
X111710771Y-108309285D02*
X111663152Y-108356904D01*
X111663152Y-108356904D02*
X111567914Y-108404523D01*
X111567914Y-108404523D02*
X111520295Y-108404523D01*
X111520295Y-108404523D02*
X111425057Y-108356904D01*
X111425057Y-108356904D02*
X111377438Y-108309285D01*
X111377438Y-108309285D02*
X111329819Y-108214047D01*
X111329819Y-108214047D02*
X111329819Y-108023571D01*
X111329819Y-108023571D02*
X111377438Y-107928333D01*
X111377438Y-107928333D02*
X111425057Y-107880714D01*
X111425057Y-107880714D02*
X111520295Y-107833095D01*
X111520295Y-107833095D02*
X111567914Y-107833095D01*
X111567914Y-107833095D02*
X111663152Y-107880714D01*
X111663152Y-107880714D02*
X111710771Y-107928333D01*
X111710771Y-107928333D02*
X111758390Y-108023571D01*
X111758390Y-108023571D02*
X111758390Y-108214047D01*
X111758390Y-108214047D02*
X111806009Y-108309285D01*
X111806009Y-108309285D02*
X111853628Y-108356904D01*
X111853628Y-108356904D02*
X111948866Y-108404523D01*
X111948866Y-108404523D02*
X112139342Y-108404523D01*
X112139342Y-108404523D02*
X112234580Y-108356904D01*
X112234580Y-108356904D02*
X112282200Y-108309285D01*
X112282200Y-108309285D02*
X112329819Y-108214047D01*
X112329819Y-108214047D02*
X112329819Y-108023571D01*
X112329819Y-108023571D02*
X112282200Y-107928333D01*
X112282200Y-107928333D02*
X112234580Y-107880714D01*
X112234580Y-107880714D02*
X112139342Y-107833095D01*
X112139342Y-107833095D02*
X111948866Y-107833095D01*
X111948866Y-107833095D02*
X111853628Y-107880714D01*
X111853628Y-107880714D02*
X111806009Y-107928333D01*
X111806009Y-107928333D02*
X111758390Y-108023571D01*
X122720833Y-151679580D02*
X122673214Y-151727200D01*
X122673214Y-151727200D02*
X122530357Y-151774819D01*
X122530357Y-151774819D02*
X122435119Y-151774819D01*
X122435119Y-151774819D02*
X122292262Y-151727200D01*
X122292262Y-151727200D02*
X122197024Y-151631961D01*
X122197024Y-151631961D02*
X122149405Y-151536723D01*
X122149405Y-151536723D02*
X122101786Y-151346247D01*
X122101786Y-151346247D02*
X122101786Y-151203390D01*
X122101786Y-151203390D02*
X122149405Y-151012914D01*
X122149405Y-151012914D02*
X122197024Y-150917676D01*
X122197024Y-150917676D02*
X122292262Y-150822438D01*
X122292262Y-150822438D02*
X122435119Y-150774819D01*
X122435119Y-150774819D02*
X122530357Y-150774819D01*
X122530357Y-150774819D02*
X122673214Y-150822438D01*
X122673214Y-150822438D02*
X122720833Y-150870057D01*
X123054167Y-150774819D02*
X123673214Y-150774819D01*
X123673214Y-150774819D02*
X123339881Y-151155771D01*
X123339881Y-151155771D02*
X123482738Y-151155771D01*
X123482738Y-151155771D02*
X123577976Y-151203390D01*
X123577976Y-151203390D02*
X123625595Y-151251009D01*
X123625595Y-151251009D02*
X123673214Y-151346247D01*
X123673214Y-151346247D02*
X123673214Y-151584342D01*
X123673214Y-151584342D02*
X123625595Y-151679580D01*
X123625595Y-151679580D02*
X123577976Y-151727200D01*
X123577976Y-151727200D02*
X123482738Y-151774819D01*
X123482738Y-151774819D02*
X123197024Y-151774819D01*
X123197024Y-151774819D02*
X123101786Y-151727200D01*
X123101786Y-151727200D02*
X123054167Y-151679580D01*
X137329761Y-150124819D02*
X136996428Y-149648628D01*
X136758333Y-150124819D02*
X136758333Y-149124819D01*
X136758333Y-149124819D02*
X137139285Y-149124819D01*
X137139285Y-149124819D02*
X137234523Y-149172438D01*
X137234523Y-149172438D02*
X137282142Y-149220057D01*
X137282142Y-149220057D02*
X137329761Y-149315295D01*
X137329761Y-149315295D02*
X137329761Y-149458152D01*
X137329761Y-149458152D02*
X137282142Y-149553390D01*
X137282142Y-149553390D02*
X137234523Y-149601009D01*
X137234523Y-149601009D02*
X137139285Y-149648628D01*
X137139285Y-149648628D02*
X136758333Y-149648628D01*
X137615476Y-149124819D02*
X137948809Y-150124819D01*
X137948809Y-150124819D02*
X138282142Y-149124819D01*
X138520238Y-149124819D02*
X139139285Y-149124819D01*
X139139285Y-149124819D02*
X138805952Y-149505771D01*
X138805952Y-149505771D02*
X138948809Y-149505771D01*
X138948809Y-149505771D02*
X139044047Y-149553390D01*
X139044047Y-149553390D02*
X139091666Y-149601009D01*
X139091666Y-149601009D02*
X139139285Y-149696247D01*
X139139285Y-149696247D02*
X139139285Y-149934342D01*
X139139285Y-149934342D02*
X139091666Y-150029580D01*
X139091666Y-150029580D02*
X139044047Y-150077200D01*
X139044047Y-150077200D02*
X138948809Y-150124819D01*
X138948809Y-150124819D02*
X138663095Y-150124819D01*
X138663095Y-150124819D02*
X138567857Y-150077200D01*
X138567857Y-150077200D02*
X138520238Y-150029580D01*
X93357142Y-111304819D02*
X93023809Y-110828628D01*
X92785714Y-111304819D02*
X92785714Y-110304819D01*
X92785714Y-110304819D02*
X93166666Y-110304819D01*
X93166666Y-110304819D02*
X93261904Y-110352438D01*
X93261904Y-110352438D02*
X93309523Y-110400057D01*
X93309523Y-110400057D02*
X93357142Y-110495295D01*
X93357142Y-110495295D02*
X93357142Y-110638152D01*
X93357142Y-110638152D02*
X93309523Y-110733390D01*
X93309523Y-110733390D02*
X93261904Y-110781009D01*
X93261904Y-110781009D02*
X93166666Y-110828628D01*
X93166666Y-110828628D02*
X92785714Y-110828628D01*
X93690476Y-110304819D02*
X94309523Y-110304819D01*
X94309523Y-110304819D02*
X93976190Y-110685771D01*
X93976190Y-110685771D02*
X94119047Y-110685771D01*
X94119047Y-110685771D02*
X94214285Y-110733390D01*
X94214285Y-110733390D02*
X94261904Y-110781009D01*
X94261904Y-110781009D02*
X94309523Y-110876247D01*
X94309523Y-110876247D02*
X94309523Y-111114342D01*
X94309523Y-111114342D02*
X94261904Y-111209580D01*
X94261904Y-111209580D02*
X94214285Y-111257200D01*
X94214285Y-111257200D02*
X94119047Y-111304819D01*
X94119047Y-111304819D02*
X93833333Y-111304819D01*
X93833333Y-111304819D02*
X93738095Y-111257200D01*
X93738095Y-111257200D02*
X93690476Y-111209580D01*
X95214285Y-110304819D02*
X94738095Y-110304819D01*
X94738095Y-110304819D02*
X94690476Y-110781009D01*
X94690476Y-110781009D02*
X94738095Y-110733390D01*
X94738095Y-110733390D02*
X94833333Y-110685771D01*
X94833333Y-110685771D02*
X95071428Y-110685771D01*
X95071428Y-110685771D02*
X95166666Y-110733390D01*
X95166666Y-110733390D02*
X95214285Y-110781009D01*
X95214285Y-110781009D02*
X95261904Y-110876247D01*
X95261904Y-110876247D02*
X95261904Y-111114342D01*
X95261904Y-111114342D02*
X95214285Y-111209580D01*
X95214285Y-111209580D02*
X95166666Y-111257200D01*
X95166666Y-111257200D02*
X95071428Y-111304819D01*
X95071428Y-111304819D02*
X94833333Y-111304819D01*
X94833333Y-111304819D02*
X94738095Y-111257200D01*
X94738095Y-111257200D02*
X94690476Y-111209580D01*
X138454819Y-100738094D02*
X137454819Y-100738094D01*
X137454819Y-100738094D02*
X137454819Y-100499999D01*
X137454819Y-100499999D02*
X137502438Y-100357142D01*
X137502438Y-100357142D02*
X137597676Y-100261904D01*
X137597676Y-100261904D02*
X137692914Y-100214285D01*
X137692914Y-100214285D02*
X137883390Y-100166666D01*
X137883390Y-100166666D02*
X138026247Y-100166666D01*
X138026247Y-100166666D02*
X138216723Y-100214285D01*
X138216723Y-100214285D02*
X138311961Y-100261904D01*
X138311961Y-100261904D02*
X138407200Y-100357142D01*
X138407200Y-100357142D02*
X138454819Y-100499999D01*
X138454819Y-100499999D02*
X138454819Y-100738094D01*
X137550057Y-99785713D02*
X137502438Y-99738094D01*
X137502438Y-99738094D02*
X137454819Y-99642856D01*
X137454819Y-99642856D02*
X137454819Y-99404761D01*
X137454819Y-99404761D02*
X137502438Y-99309523D01*
X137502438Y-99309523D02*
X137550057Y-99261904D01*
X137550057Y-99261904D02*
X137645295Y-99214285D01*
X137645295Y-99214285D02*
X137740533Y-99214285D01*
X137740533Y-99214285D02*
X137883390Y-99261904D01*
X137883390Y-99261904D02*
X138454819Y-99833332D01*
X138454819Y-99833332D02*
X138454819Y-99214285D01*
X105357142Y-111304819D02*
X105023809Y-110828628D01*
X104785714Y-111304819D02*
X104785714Y-110304819D01*
X104785714Y-110304819D02*
X105166666Y-110304819D01*
X105166666Y-110304819D02*
X105261904Y-110352438D01*
X105261904Y-110352438D02*
X105309523Y-110400057D01*
X105309523Y-110400057D02*
X105357142Y-110495295D01*
X105357142Y-110495295D02*
X105357142Y-110638152D01*
X105357142Y-110638152D02*
X105309523Y-110733390D01*
X105309523Y-110733390D02*
X105261904Y-110781009D01*
X105261904Y-110781009D02*
X105166666Y-110828628D01*
X105166666Y-110828628D02*
X104785714Y-110828628D01*
X105690476Y-110304819D02*
X106309523Y-110304819D01*
X106309523Y-110304819D02*
X105976190Y-110685771D01*
X105976190Y-110685771D02*
X106119047Y-110685771D01*
X106119047Y-110685771D02*
X106214285Y-110733390D01*
X106214285Y-110733390D02*
X106261904Y-110781009D01*
X106261904Y-110781009D02*
X106309523Y-110876247D01*
X106309523Y-110876247D02*
X106309523Y-111114342D01*
X106309523Y-111114342D02*
X106261904Y-111209580D01*
X106261904Y-111209580D02*
X106214285Y-111257200D01*
X106214285Y-111257200D02*
X106119047Y-111304819D01*
X106119047Y-111304819D02*
X105833333Y-111304819D01*
X105833333Y-111304819D02*
X105738095Y-111257200D01*
X105738095Y-111257200D02*
X105690476Y-111209580D01*
X107166666Y-110304819D02*
X106976190Y-110304819D01*
X106976190Y-110304819D02*
X106880952Y-110352438D01*
X106880952Y-110352438D02*
X106833333Y-110400057D01*
X106833333Y-110400057D02*
X106738095Y-110542914D01*
X106738095Y-110542914D02*
X106690476Y-110733390D01*
X106690476Y-110733390D02*
X106690476Y-111114342D01*
X106690476Y-111114342D02*
X106738095Y-111209580D01*
X106738095Y-111209580D02*
X106785714Y-111257200D01*
X106785714Y-111257200D02*
X106880952Y-111304819D01*
X106880952Y-111304819D02*
X107071428Y-111304819D01*
X107071428Y-111304819D02*
X107166666Y-111257200D01*
X107166666Y-111257200D02*
X107214285Y-111209580D01*
X107214285Y-111209580D02*
X107261904Y-111114342D01*
X107261904Y-111114342D02*
X107261904Y-110876247D01*
X107261904Y-110876247D02*
X107214285Y-110781009D01*
X107214285Y-110781009D02*
X107166666Y-110733390D01*
X107166666Y-110733390D02*
X107071428Y-110685771D01*
X107071428Y-110685771D02*
X106880952Y-110685771D01*
X106880952Y-110685771D02*
X106785714Y-110733390D01*
X106785714Y-110733390D02*
X106738095Y-110781009D01*
X106738095Y-110781009D02*
X106690476Y-110876247D01*
X147782142Y-147104819D02*
X147448809Y-146628628D01*
X147210714Y-147104819D02*
X147210714Y-146104819D01*
X147210714Y-146104819D02*
X147591666Y-146104819D01*
X147591666Y-146104819D02*
X147686904Y-146152438D01*
X147686904Y-146152438D02*
X147734523Y-146200057D01*
X147734523Y-146200057D02*
X147782142Y-146295295D01*
X147782142Y-146295295D02*
X147782142Y-146438152D01*
X147782142Y-146438152D02*
X147734523Y-146533390D01*
X147734523Y-146533390D02*
X147686904Y-146581009D01*
X147686904Y-146581009D02*
X147591666Y-146628628D01*
X147591666Y-146628628D02*
X147210714Y-146628628D01*
X148734523Y-147104819D02*
X148163095Y-147104819D01*
X148448809Y-147104819D02*
X148448809Y-146104819D01*
X148448809Y-146104819D02*
X148353571Y-146247676D01*
X148353571Y-146247676D02*
X148258333Y-146342914D01*
X148258333Y-146342914D02*
X148163095Y-146390533D01*
X149353571Y-146104819D02*
X149448809Y-146104819D01*
X149448809Y-146104819D02*
X149544047Y-146152438D01*
X149544047Y-146152438D02*
X149591666Y-146200057D01*
X149591666Y-146200057D02*
X149639285Y-146295295D01*
X149639285Y-146295295D02*
X149686904Y-146485771D01*
X149686904Y-146485771D02*
X149686904Y-146723866D01*
X149686904Y-146723866D02*
X149639285Y-146914342D01*
X149639285Y-146914342D02*
X149591666Y-147009580D01*
X149591666Y-147009580D02*
X149544047Y-147057200D01*
X149544047Y-147057200D02*
X149448809Y-147104819D01*
X149448809Y-147104819D02*
X149353571Y-147104819D01*
X149353571Y-147104819D02*
X149258333Y-147057200D01*
X149258333Y-147057200D02*
X149210714Y-147009580D01*
X149210714Y-147009580D02*
X149163095Y-146914342D01*
X149163095Y-146914342D02*
X149115476Y-146723866D01*
X149115476Y-146723866D02*
X149115476Y-146485771D01*
X149115476Y-146485771D02*
X149163095Y-146295295D01*
X149163095Y-146295295D02*
X149210714Y-146200057D01*
X149210714Y-146200057D02*
X149258333Y-146152438D01*
X149258333Y-146152438D02*
X149353571Y-146104819D01*
X128758333Y-154304819D02*
X128425000Y-153828628D01*
X128186905Y-154304819D02*
X128186905Y-153304819D01*
X128186905Y-153304819D02*
X128567857Y-153304819D01*
X128567857Y-153304819D02*
X128663095Y-153352438D01*
X128663095Y-153352438D02*
X128710714Y-153400057D01*
X128710714Y-153400057D02*
X128758333Y-153495295D01*
X128758333Y-153495295D02*
X128758333Y-153638152D01*
X128758333Y-153638152D02*
X128710714Y-153733390D01*
X128710714Y-153733390D02*
X128663095Y-153781009D01*
X128663095Y-153781009D02*
X128567857Y-153828628D01*
X128567857Y-153828628D02*
X128186905Y-153828628D01*
X129710714Y-154304819D02*
X129139286Y-154304819D01*
X129425000Y-154304819D02*
X129425000Y-153304819D01*
X129425000Y-153304819D02*
X129329762Y-153447676D01*
X129329762Y-153447676D02*
X129234524Y-153542914D01*
X129234524Y-153542914D02*
X129139286Y-153590533D01*
X98282142Y-129804819D02*
X97948809Y-129328628D01*
X97710714Y-129804819D02*
X97710714Y-128804819D01*
X97710714Y-128804819D02*
X98091666Y-128804819D01*
X98091666Y-128804819D02*
X98186904Y-128852438D01*
X98186904Y-128852438D02*
X98234523Y-128900057D01*
X98234523Y-128900057D02*
X98282142Y-128995295D01*
X98282142Y-128995295D02*
X98282142Y-129138152D01*
X98282142Y-129138152D02*
X98234523Y-129233390D01*
X98234523Y-129233390D02*
X98186904Y-129281009D01*
X98186904Y-129281009D02*
X98091666Y-129328628D01*
X98091666Y-129328628D02*
X97710714Y-129328628D01*
X99234523Y-129804819D02*
X98663095Y-129804819D01*
X98948809Y-129804819D02*
X98948809Y-128804819D01*
X98948809Y-128804819D02*
X98853571Y-128947676D01*
X98853571Y-128947676D02*
X98758333Y-129042914D01*
X98758333Y-129042914D02*
X98663095Y-129090533D01*
X100186904Y-129804819D02*
X99615476Y-129804819D01*
X99901190Y-129804819D02*
X99901190Y-128804819D01*
X99901190Y-128804819D02*
X99805952Y-128947676D01*
X99805952Y-128947676D02*
X99710714Y-129042914D01*
X99710714Y-129042914D02*
X99615476Y-129090533D01*
X119258333Y-144804819D02*
X118925000Y-144328628D01*
X118686905Y-144804819D02*
X118686905Y-143804819D01*
X118686905Y-143804819D02*
X119067857Y-143804819D01*
X119067857Y-143804819D02*
X119163095Y-143852438D01*
X119163095Y-143852438D02*
X119210714Y-143900057D01*
X119210714Y-143900057D02*
X119258333Y-143995295D01*
X119258333Y-143995295D02*
X119258333Y-144138152D01*
X119258333Y-144138152D02*
X119210714Y-144233390D01*
X119210714Y-144233390D02*
X119163095Y-144281009D01*
X119163095Y-144281009D02*
X119067857Y-144328628D01*
X119067857Y-144328628D02*
X118686905Y-144328628D01*
X120115476Y-144138152D02*
X120115476Y-144804819D01*
X119877381Y-143757200D02*
X119639286Y-144471485D01*
X119639286Y-144471485D02*
X120258333Y-144471485D01*
X92813905Y-163859819D02*
X92813905Y-164669342D01*
X92813905Y-164669342D02*
X92861524Y-164764580D01*
X92861524Y-164764580D02*
X92909143Y-164812200D01*
X92909143Y-164812200D02*
X93004381Y-164859819D01*
X93004381Y-164859819D02*
X93194857Y-164859819D01*
X93194857Y-164859819D02*
X93290095Y-164812200D01*
X93290095Y-164812200D02*
X93337714Y-164764580D01*
X93337714Y-164764580D02*
X93385333Y-164669342D01*
X93385333Y-164669342D02*
X93385333Y-163859819D01*
X94385333Y-164859819D02*
X93813905Y-164859819D01*
X94099619Y-164859819D02*
X94099619Y-163859819D01*
X94099619Y-163859819D02*
X94004381Y-164002676D01*
X94004381Y-164002676D02*
X93909143Y-164097914D01*
X93909143Y-164097914D02*
X93813905Y-164145533D01*
X94766286Y-163955057D02*
X94813905Y-163907438D01*
X94813905Y-163907438D02*
X94909143Y-163859819D01*
X94909143Y-163859819D02*
X95147238Y-163859819D01*
X95147238Y-163859819D02*
X95242476Y-163907438D01*
X95242476Y-163907438D02*
X95290095Y-163955057D01*
X95290095Y-163955057D02*
X95337714Y-164050295D01*
X95337714Y-164050295D02*
X95337714Y-164145533D01*
X95337714Y-164145533D02*
X95290095Y-164288390D01*
X95290095Y-164288390D02*
X94718667Y-164859819D01*
X94718667Y-164859819D02*
X95337714Y-164859819D01*
X99319642Y-111179580D02*
X99272023Y-111227200D01*
X99272023Y-111227200D02*
X99129166Y-111274819D01*
X99129166Y-111274819D02*
X99033928Y-111274819D01*
X99033928Y-111274819D02*
X98891071Y-111227200D01*
X98891071Y-111227200D02*
X98795833Y-111131961D01*
X98795833Y-111131961D02*
X98748214Y-111036723D01*
X98748214Y-111036723D02*
X98700595Y-110846247D01*
X98700595Y-110846247D02*
X98700595Y-110703390D01*
X98700595Y-110703390D02*
X98748214Y-110512914D01*
X98748214Y-110512914D02*
X98795833Y-110417676D01*
X98795833Y-110417676D02*
X98891071Y-110322438D01*
X98891071Y-110322438D02*
X99033928Y-110274819D01*
X99033928Y-110274819D02*
X99129166Y-110274819D01*
X99129166Y-110274819D02*
X99272023Y-110322438D01*
X99272023Y-110322438D02*
X99319642Y-110370057D01*
X100272023Y-111274819D02*
X99700595Y-111274819D01*
X99986309Y-111274819D02*
X99986309Y-110274819D01*
X99986309Y-110274819D02*
X99891071Y-110417676D01*
X99891071Y-110417676D02*
X99795833Y-110512914D01*
X99795833Y-110512914D02*
X99700595Y-110560533D01*
X100605357Y-110274819D02*
X101224404Y-110274819D01*
X101224404Y-110274819D02*
X100891071Y-110655771D01*
X100891071Y-110655771D02*
X101033928Y-110655771D01*
X101033928Y-110655771D02*
X101129166Y-110703390D01*
X101129166Y-110703390D02*
X101176785Y-110751009D01*
X101176785Y-110751009D02*
X101224404Y-110846247D01*
X101224404Y-110846247D02*
X101224404Y-111084342D01*
X101224404Y-111084342D02*
X101176785Y-111179580D01*
X101176785Y-111179580D02*
X101129166Y-111227200D01*
X101129166Y-111227200D02*
X101033928Y-111274819D01*
X101033928Y-111274819D02*
X100748214Y-111274819D01*
X100748214Y-111274819D02*
X100652976Y-111227200D01*
X100652976Y-111227200D02*
X100605357Y-111179580D01*
X147282142Y-130304819D02*
X146948809Y-129828628D01*
X146710714Y-130304819D02*
X146710714Y-129304819D01*
X146710714Y-129304819D02*
X147091666Y-129304819D01*
X147091666Y-129304819D02*
X147186904Y-129352438D01*
X147186904Y-129352438D02*
X147234523Y-129400057D01*
X147234523Y-129400057D02*
X147282142Y-129495295D01*
X147282142Y-129495295D02*
X147282142Y-129638152D01*
X147282142Y-129638152D02*
X147234523Y-129733390D01*
X147234523Y-129733390D02*
X147186904Y-129781009D01*
X147186904Y-129781009D02*
X147091666Y-129828628D01*
X147091666Y-129828628D02*
X146710714Y-129828628D01*
X147663095Y-129400057D02*
X147710714Y-129352438D01*
X147710714Y-129352438D02*
X147805952Y-129304819D01*
X147805952Y-129304819D02*
X148044047Y-129304819D01*
X148044047Y-129304819D02*
X148139285Y-129352438D01*
X148139285Y-129352438D02*
X148186904Y-129400057D01*
X148186904Y-129400057D02*
X148234523Y-129495295D01*
X148234523Y-129495295D02*
X148234523Y-129590533D01*
X148234523Y-129590533D02*
X148186904Y-129733390D01*
X148186904Y-129733390D02*
X147615476Y-130304819D01*
X147615476Y-130304819D02*
X148234523Y-130304819D01*
X149186904Y-130304819D02*
X148615476Y-130304819D01*
X148901190Y-130304819D02*
X148901190Y-129304819D01*
X148901190Y-129304819D02*
X148805952Y-129447676D01*
X148805952Y-129447676D02*
X148710714Y-129542914D01*
X148710714Y-129542914D02*
X148615476Y-129590533D01*
X96582142Y-153659580D02*
X96534523Y-153707200D01*
X96534523Y-153707200D02*
X96391666Y-153754819D01*
X96391666Y-153754819D02*
X96296428Y-153754819D01*
X96296428Y-153754819D02*
X96153571Y-153707200D01*
X96153571Y-153707200D02*
X96058333Y-153611961D01*
X96058333Y-153611961D02*
X96010714Y-153516723D01*
X96010714Y-153516723D02*
X95963095Y-153326247D01*
X95963095Y-153326247D02*
X95963095Y-153183390D01*
X95963095Y-153183390D02*
X96010714Y-152992914D01*
X96010714Y-152992914D02*
X96058333Y-152897676D01*
X96058333Y-152897676D02*
X96153571Y-152802438D01*
X96153571Y-152802438D02*
X96296428Y-152754819D01*
X96296428Y-152754819D02*
X96391666Y-152754819D01*
X96391666Y-152754819D02*
X96534523Y-152802438D01*
X96534523Y-152802438D02*
X96582142Y-152850057D01*
X96963095Y-152850057D02*
X97010714Y-152802438D01*
X97010714Y-152802438D02*
X97105952Y-152754819D01*
X97105952Y-152754819D02*
X97344047Y-152754819D01*
X97344047Y-152754819D02*
X97439285Y-152802438D01*
X97439285Y-152802438D02*
X97486904Y-152850057D01*
X97486904Y-152850057D02*
X97534523Y-152945295D01*
X97534523Y-152945295D02*
X97534523Y-153040533D01*
X97534523Y-153040533D02*
X97486904Y-153183390D01*
X97486904Y-153183390D02*
X96915476Y-153754819D01*
X96915476Y-153754819D02*
X97534523Y-153754819D01*
X98010714Y-153754819D02*
X98201190Y-153754819D01*
X98201190Y-153754819D02*
X98296428Y-153707200D01*
X98296428Y-153707200D02*
X98344047Y-153659580D01*
X98344047Y-153659580D02*
X98439285Y-153516723D01*
X98439285Y-153516723D02*
X98486904Y-153326247D01*
X98486904Y-153326247D02*
X98486904Y-152945295D01*
X98486904Y-152945295D02*
X98439285Y-152850057D01*
X98439285Y-152850057D02*
X98391666Y-152802438D01*
X98391666Y-152802438D02*
X98296428Y-152754819D01*
X98296428Y-152754819D02*
X98105952Y-152754819D01*
X98105952Y-152754819D02*
X98010714Y-152802438D01*
X98010714Y-152802438D02*
X97963095Y-152850057D01*
X97963095Y-152850057D02*
X97915476Y-152945295D01*
X97915476Y-152945295D02*
X97915476Y-153183390D01*
X97915476Y-153183390D02*
X97963095Y-153278628D01*
X97963095Y-153278628D02*
X98010714Y-153326247D01*
X98010714Y-153326247D02*
X98105952Y-153373866D01*
X98105952Y-153373866D02*
X98296428Y-153373866D01*
X98296428Y-153373866D02*
X98391666Y-153326247D01*
X98391666Y-153326247D02*
X98439285Y-153278628D01*
X98439285Y-153278628D02*
X98486904Y-153183390D01*
X106482142Y-153659580D02*
X106434523Y-153707200D01*
X106434523Y-153707200D02*
X106291666Y-153754819D01*
X106291666Y-153754819D02*
X106196428Y-153754819D01*
X106196428Y-153754819D02*
X106053571Y-153707200D01*
X106053571Y-153707200D02*
X105958333Y-153611961D01*
X105958333Y-153611961D02*
X105910714Y-153516723D01*
X105910714Y-153516723D02*
X105863095Y-153326247D01*
X105863095Y-153326247D02*
X105863095Y-153183390D01*
X105863095Y-153183390D02*
X105910714Y-152992914D01*
X105910714Y-152992914D02*
X105958333Y-152897676D01*
X105958333Y-152897676D02*
X106053571Y-152802438D01*
X106053571Y-152802438D02*
X106196428Y-152754819D01*
X106196428Y-152754819D02*
X106291666Y-152754819D01*
X106291666Y-152754819D02*
X106434523Y-152802438D01*
X106434523Y-152802438D02*
X106482142Y-152850057D01*
X106815476Y-152754819D02*
X107434523Y-152754819D01*
X107434523Y-152754819D02*
X107101190Y-153135771D01*
X107101190Y-153135771D02*
X107244047Y-153135771D01*
X107244047Y-153135771D02*
X107339285Y-153183390D01*
X107339285Y-153183390D02*
X107386904Y-153231009D01*
X107386904Y-153231009D02*
X107434523Y-153326247D01*
X107434523Y-153326247D02*
X107434523Y-153564342D01*
X107434523Y-153564342D02*
X107386904Y-153659580D01*
X107386904Y-153659580D02*
X107339285Y-153707200D01*
X107339285Y-153707200D02*
X107244047Y-153754819D01*
X107244047Y-153754819D02*
X106958333Y-153754819D01*
X106958333Y-153754819D02*
X106863095Y-153707200D01*
X106863095Y-153707200D02*
X106815476Y-153659580D01*
X108053571Y-152754819D02*
X108148809Y-152754819D01*
X108148809Y-152754819D02*
X108244047Y-152802438D01*
X108244047Y-152802438D02*
X108291666Y-152850057D01*
X108291666Y-152850057D02*
X108339285Y-152945295D01*
X108339285Y-152945295D02*
X108386904Y-153135771D01*
X108386904Y-153135771D02*
X108386904Y-153373866D01*
X108386904Y-153373866D02*
X108339285Y-153564342D01*
X108339285Y-153564342D02*
X108291666Y-153659580D01*
X108291666Y-153659580D02*
X108244047Y-153707200D01*
X108244047Y-153707200D02*
X108148809Y-153754819D01*
X108148809Y-153754819D02*
X108053571Y-153754819D01*
X108053571Y-153754819D02*
X107958333Y-153707200D01*
X107958333Y-153707200D02*
X107910714Y-153659580D01*
X107910714Y-153659580D02*
X107863095Y-153564342D01*
X107863095Y-153564342D02*
X107815476Y-153373866D01*
X107815476Y-153373866D02*
X107815476Y-153135771D01*
X107815476Y-153135771D02*
X107863095Y-152945295D01*
X107863095Y-152945295D02*
X107910714Y-152850057D01*
X107910714Y-152850057D02*
X107958333Y-152802438D01*
X107958333Y-152802438D02*
X108053571Y-152754819D01*
X137857142Y-112954819D02*
X137523809Y-112478628D01*
X137285714Y-112954819D02*
X137285714Y-111954819D01*
X137285714Y-111954819D02*
X137666666Y-111954819D01*
X137666666Y-111954819D02*
X137761904Y-112002438D01*
X137761904Y-112002438D02*
X137809523Y-112050057D01*
X137809523Y-112050057D02*
X137857142Y-112145295D01*
X137857142Y-112145295D02*
X137857142Y-112288152D01*
X137857142Y-112288152D02*
X137809523Y-112383390D01*
X137809523Y-112383390D02*
X137761904Y-112431009D01*
X137761904Y-112431009D02*
X137666666Y-112478628D01*
X137666666Y-112478628D02*
X137285714Y-112478628D01*
X138238095Y-112050057D02*
X138285714Y-112002438D01*
X138285714Y-112002438D02*
X138380952Y-111954819D01*
X138380952Y-111954819D02*
X138619047Y-111954819D01*
X138619047Y-111954819D02*
X138714285Y-112002438D01*
X138714285Y-112002438D02*
X138761904Y-112050057D01*
X138761904Y-112050057D02*
X138809523Y-112145295D01*
X138809523Y-112145295D02*
X138809523Y-112240533D01*
X138809523Y-112240533D02*
X138761904Y-112383390D01*
X138761904Y-112383390D02*
X138190476Y-112954819D01*
X138190476Y-112954819D02*
X138809523Y-112954819D01*
X139380952Y-112383390D02*
X139285714Y-112335771D01*
X139285714Y-112335771D02*
X139238095Y-112288152D01*
X139238095Y-112288152D02*
X139190476Y-112192914D01*
X139190476Y-112192914D02*
X139190476Y-112145295D01*
X139190476Y-112145295D02*
X139238095Y-112050057D01*
X139238095Y-112050057D02*
X139285714Y-112002438D01*
X139285714Y-112002438D02*
X139380952Y-111954819D01*
X139380952Y-111954819D02*
X139571428Y-111954819D01*
X139571428Y-111954819D02*
X139666666Y-112002438D01*
X139666666Y-112002438D02*
X139714285Y-112050057D01*
X139714285Y-112050057D02*
X139761904Y-112145295D01*
X139761904Y-112145295D02*
X139761904Y-112192914D01*
X139761904Y-112192914D02*
X139714285Y-112288152D01*
X139714285Y-112288152D02*
X139666666Y-112335771D01*
X139666666Y-112335771D02*
X139571428Y-112383390D01*
X139571428Y-112383390D02*
X139380952Y-112383390D01*
X139380952Y-112383390D02*
X139285714Y-112431009D01*
X139285714Y-112431009D02*
X139238095Y-112478628D01*
X139238095Y-112478628D02*
X139190476Y-112573866D01*
X139190476Y-112573866D02*
X139190476Y-112764342D01*
X139190476Y-112764342D02*
X139238095Y-112859580D01*
X139238095Y-112859580D02*
X139285714Y-112907200D01*
X139285714Y-112907200D02*
X139380952Y-112954819D01*
X139380952Y-112954819D02*
X139571428Y-112954819D01*
X139571428Y-112954819D02*
X139666666Y-112907200D01*
X139666666Y-112907200D02*
X139714285Y-112859580D01*
X139714285Y-112859580D02*
X139761904Y-112764342D01*
X139761904Y-112764342D02*
X139761904Y-112573866D01*
X139761904Y-112573866D02*
X139714285Y-112478628D01*
X139714285Y-112478628D02*
X139666666Y-112431009D01*
X139666666Y-112431009D02*
X139571428Y-112383390D01*
X122833333Y-155954819D02*
X122500000Y-155478628D01*
X122261905Y-155954819D02*
X122261905Y-154954819D01*
X122261905Y-154954819D02*
X122642857Y-154954819D01*
X122642857Y-154954819D02*
X122738095Y-155002438D01*
X122738095Y-155002438D02*
X122785714Y-155050057D01*
X122785714Y-155050057D02*
X122833333Y-155145295D01*
X122833333Y-155145295D02*
X122833333Y-155288152D01*
X122833333Y-155288152D02*
X122785714Y-155383390D01*
X122785714Y-155383390D02*
X122738095Y-155431009D01*
X122738095Y-155431009D02*
X122642857Y-155478628D01*
X122642857Y-155478628D02*
X122261905Y-155478628D01*
X123214286Y-155050057D02*
X123261905Y-155002438D01*
X123261905Y-155002438D02*
X123357143Y-154954819D01*
X123357143Y-154954819D02*
X123595238Y-154954819D01*
X123595238Y-154954819D02*
X123690476Y-155002438D01*
X123690476Y-155002438D02*
X123738095Y-155050057D01*
X123738095Y-155050057D02*
X123785714Y-155145295D01*
X123785714Y-155145295D02*
X123785714Y-155240533D01*
X123785714Y-155240533D02*
X123738095Y-155383390D01*
X123738095Y-155383390D02*
X123166667Y-155954819D01*
X123166667Y-155954819D02*
X123785714Y-155954819D01*
X120263095Y-108649819D02*
X120263095Y-109459342D01*
X120263095Y-109459342D02*
X120310714Y-109554580D01*
X120310714Y-109554580D02*
X120358333Y-109602200D01*
X120358333Y-109602200D02*
X120453571Y-109649819D01*
X120453571Y-109649819D02*
X120644047Y-109649819D01*
X120644047Y-109649819D02*
X120739285Y-109602200D01*
X120739285Y-109602200D02*
X120786904Y-109554580D01*
X120786904Y-109554580D02*
X120834523Y-109459342D01*
X120834523Y-109459342D02*
X120834523Y-108649819D01*
X121215476Y-108649819D02*
X121882142Y-108649819D01*
X121882142Y-108649819D02*
X121453571Y-109649819D01*
X154104819Y-119142857D02*
X153628628Y-119476190D01*
X154104819Y-119714285D02*
X153104819Y-119714285D01*
X153104819Y-119714285D02*
X153104819Y-119333333D01*
X153104819Y-119333333D02*
X153152438Y-119238095D01*
X153152438Y-119238095D02*
X153200057Y-119190476D01*
X153200057Y-119190476D02*
X153295295Y-119142857D01*
X153295295Y-119142857D02*
X153438152Y-119142857D01*
X153438152Y-119142857D02*
X153533390Y-119190476D01*
X153533390Y-119190476D02*
X153581009Y-119238095D01*
X153581009Y-119238095D02*
X153628628Y-119333333D01*
X153628628Y-119333333D02*
X153628628Y-119714285D01*
X153104819Y-118809523D02*
X153104819Y-118190476D01*
X153104819Y-118190476D02*
X153485771Y-118523809D01*
X153485771Y-118523809D02*
X153485771Y-118380952D01*
X153485771Y-118380952D02*
X153533390Y-118285714D01*
X153533390Y-118285714D02*
X153581009Y-118238095D01*
X153581009Y-118238095D02*
X153676247Y-118190476D01*
X153676247Y-118190476D02*
X153914342Y-118190476D01*
X153914342Y-118190476D02*
X154009580Y-118238095D01*
X154009580Y-118238095D02*
X154057200Y-118285714D01*
X154057200Y-118285714D02*
X154104819Y-118380952D01*
X154104819Y-118380952D02*
X154104819Y-118666666D01*
X154104819Y-118666666D02*
X154057200Y-118761904D01*
X154057200Y-118761904D02*
X154009580Y-118809523D01*
X153438152Y-117333333D02*
X154104819Y-117333333D01*
X153057200Y-117571428D02*
X153771485Y-117809523D01*
X153771485Y-117809523D02*
X153771485Y-117190476D01*
D13*
%TO.C,C12*%
X150575000Y-111815000D02*
X151200000Y-111815000D01*
X150887500Y-111502500D02*
X150887500Y-112127500D01*
X151440000Y-111804437D02*
X151440000Y-112440000D01*
X151440000Y-111804437D02*
X152504437Y-110740000D01*
X151440000Y-115195563D02*
X151440000Y-114560000D01*
X151440000Y-115195563D02*
X152504437Y-116260000D01*
X152504437Y-110740000D02*
X156960000Y-110740000D01*
X152504437Y-116260000D02*
X156960000Y-116260000D01*
X156960000Y-110740000D02*
X156960000Y-112440000D01*
X156960000Y-116260000D02*
X156960000Y-114560000D01*
%TO.C,C11*%
X128740000Y-104240000D02*
X128740000Y-105940000D01*
X128740000Y-109760000D02*
X128740000Y-108060000D01*
X133195563Y-104240000D02*
X128740000Y-104240000D01*
X133195563Y-109760000D02*
X128740000Y-109760000D01*
X134260000Y-105304437D02*
X133195563Y-104240000D01*
X134260000Y-105304437D02*
X134260000Y-105940000D01*
X134260000Y-108695563D02*
X133195563Y-109760000D01*
X134260000Y-108695563D02*
X134260000Y-108060000D01*
X134812500Y-108997500D02*
X134812500Y-108372500D01*
X135125000Y-108685000D02*
X134500000Y-108685000D01*
%TO.C,R19*%
X131697936Y-130765000D02*
X132152064Y-130765000D01*
X131697936Y-132235000D02*
X132152064Y-132235000D01*
%TO.C,R26*%
X128765000Y-116227064D02*
X128765000Y-115772936D01*
X130235000Y-116227064D02*
X130235000Y-115772936D01*
%TO.C,R3*%
X124690000Y-146727064D02*
X124690000Y-146272936D01*
X126160000Y-146727064D02*
X126160000Y-146272936D01*
%TO.C,J5*%
X140595000Y-160395000D02*
X141925000Y-160395000D01*
X140595000Y-161725000D02*
X140595000Y-160395000D01*
X140595000Y-162995000D02*
X140595000Y-165595000D01*
X140595000Y-162995000D02*
X143255000Y-162995000D01*
X140595000Y-165595000D02*
X143255000Y-165595000D01*
X143255000Y-162995000D02*
X143255000Y-165595000D01*
%TO.C,D1*%
X136000000Y-103870000D02*
X136000000Y-107880000D01*
X138000000Y-103870000D02*
X136000000Y-103870000D01*
X138000000Y-103870000D02*
X138000000Y-107880000D01*
%TO.C,R16*%
X112252064Y-111860000D02*
X111797936Y-111860000D01*
X112252064Y-113330000D02*
X111797936Y-113330000D01*
%TO.C,R5*%
X123152064Y-141765000D02*
X122697936Y-141765000D01*
X123152064Y-143235000D02*
X122697936Y-143235000D01*
%TO.C,R23*%
X131765000Y-118727064D02*
X131765000Y-118272936D01*
X133235000Y-118727064D02*
X133235000Y-118272936D01*
%TO.C,RV5*%
X100515000Y-134170000D02*
X100515000Y-136830000D01*
X105655000Y-134170000D02*
X100515000Y-134170000D01*
X105655000Y-134170000D02*
X105655000Y-136830000D01*
X105655000Y-136830000D02*
X100515000Y-136830000D01*
X106925000Y-134170000D02*
X108255000Y-134170000D01*
X108255000Y-134170000D02*
X108255000Y-135500000D01*
%TO.C,C2*%
X126190000Y-151798752D02*
X126190000Y-151276248D01*
X127660000Y-151798752D02*
X127660000Y-151276248D01*
%TO.C,R24*%
X128272936Y-111765000D02*
X128727064Y-111765000D01*
X128272936Y-113235000D02*
X128727064Y-113235000D01*
%TO.C,R8*%
X141690000Y-147727064D02*
X141690000Y-147272936D01*
X143160000Y-147727064D02*
X143160000Y-147272936D01*
%TO.C,J8*%
X97515000Y-162670000D02*
X97515000Y-165330000D01*
X102655000Y-162670000D02*
X97515000Y-162670000D01*
X102655000Y-162670000D02*
X102655000Y-165330000D01*
X102655000Y-165330000D02*
X97515000Y-165330000D01*
X103925000Y-162670000D02*
X105255000Y-162670000D01*
X105255000Y-162670000D02*
X105255000Y-164000000D01*
%TO.C,J3*%
X159170000Y-100395000D02*
X160500000Y-100395000D01*
X159170000Y-101725000D02*
X159170000Y-100395000D01*
X159170000Y-102995000D02*
X159170000Y-105595000D01*
X159170000Y-102995000D02*
X161830000Y-102995000D01*
X159170000Y-105595000D02*
X161830000Y-105595000D01*
X161830000Y-102995000D02*
X161830000Y-105595000D01*
%TO.C,U8*%
X136425000Y-123345000D02*
X134475000Y-123345000D01*
X136425000Y-123345000D02*
X138375000Y-123345000D01*
X136425000Y-128465000D02*
X134475000Y-128465000D01*
X136425000Y-128465000D02*
X138375000Y-128465000D01*
X133725000Y-123440000D02*
X133485000Y-123110000D01*
X133965000Y-123110000D01*
X133725000Y-123440000D01*
G36*
X133725000Y-123440000D02*
G01*
X133485000Y-123110000D01*
X133965000Y-123110000D01*
X133725000Y-123440000D01*
G37*
%TO.C,R32*%
X140765000Y-106457064D02*
X140765000Y-106002936D01*
X142235000Y-106457064D02*
X142235000Y-106002936D01*
%TO.C,U9*%
X152425000Y-123440000D02*
X150475000Y-123440000D01*
X152425000Y-123440000D02*
X154375000Y-123440000D01*
X152425000Y-128560000D02*
X150475000Y-128560000D01*
X152425000Y-128560000D02*
X154375000Y-128560000D01*
X149725000Y-123535000D02*
X149485000Y-123205000D01*
X149965000Y-123205000D01*
X149725000Y-123535000D01*
G36*
X149725000Y-123535000D02*
G01*
X149485000Y-123205000D01*
X149965000Y-123205000D01*
X149725000Y-123535000D01*
G37*
%TO.C,RV7*%
X132515000Y-134670000D02*
X132515000Y-137330000D01*
X137655000Y-134670000D02*
X132515000Y-134670000D01*
X137655000Y-134670000D02*
X137655000Y-137330000D01*
X137655000Y-137330000D02*
X132515000Y-137330000D01*
X138925000Y-134670000D02*
X140255000Y-134670000D01*
X140255000Y-134670000D02*
X140255000Y-136000000D01*
%TO.C,R13*%
X116197936Y-130765000D02*
X116652064Y-130765000D01*
X116197936Y-132235000D02*
X116652064Y-132235000D01*
%TO.C,U4*%
X120450000Y-123305000D02*
X118500000Y-123305000D01*
X120450000Y-123305000D02*
X122400000Y-123305000D01*
X120450000Y-128425000D02*
X118500000Y-128425000D01*
X120450000Y-128425000D02*
X122400000Y-128425000D01*
X117750000Y-123400000D02*
X117510000Y-123070000D01*
X117990000Y-123070000D01*
X117750000Y-123400000D01*
G36*
X117750000Y-123400000D02*
G01*
X117510000Y-123070000D01*
X117990000Y-123070000D01*
X117750000Y-123400000D01*
G37*
%TO.C,Q1*%
X148437500Y-98120000D02*
X147787500Y-98120000D01*
X148437500Y-98120000D02*
X149087500Y-98120000D01*
X148437500Y-101240000D02*
X147787500Y-101240000D01*
X148437500Y-101240000D02*
X149087500Y-101240000D01*
X147275000Y-98170000D02*
X147035000Y-97840000D01*
X147515000Y-97840000D01*
X147275000Y-98170000D01*
G36*
X147275000Y-98170000D02*
G01*
X147035000Y-97840000D01*
X147515000Y-97840000D01*
X147275000Y-98170000D01*
G37*
%TO.C,R7*%
X147697936Y-156265000D02*
X148152064Y-156265000D01*
X147697936Y-157735000D02*
X148152064Y-157735000D01*
%TO.C,R20*%
X141697936Y-130765000D02*
X142152064Y-130765000D01*
X141697936Y-132235000D02*
X142152064Y-132235000D01*
%TO.C,C6*%
X148227500Y-150261252D02*
X148227500Y-149738748D01*
X149697500Y-150261252D02*
X149697500Y-149738748D01*
%TO.C,U5*%
X100437500Y-102845000D02*
X98487500Y-102845000D01*
X100437500Y-102845000D02*
X102387500Y-102845000D01*
X100437500Y-107965000D02*
X98487500Y-107965000D01*
X100437500Y-107965000D02*
X102387500Y-107965000D01*
X97737500Y-102940000D02*
X97497500Y-102610000D01*
X97977500Y-102610000D01*
X97737500Y-102940000D01*
G36*
X97737500Y-102940000D02*
G01*
X97497500Y-102610000D01*
X97977500Y-102610000D01*
X97737500Y-102940000D01*
G37*
%TO.C,RV2*%
X116095000Y-149130000D02*
X117425000Y-149130000D01*
X116095000Y-150460000D02*
X116095000Y-149130000D01*
X116095000Y-151730000D02*
X116095000Y-156870000D01*
X116095000Y-151730000D02*
X118755000Y-151730000D01*
X116095000Y-156870000D02*
X118755000Y-156870000D01*
X118755000Y-151730000D02*
X118755000Y-156870000D01*
%TO.C,RV1*%
X131595000Y-150670000D02*
X132925000Y-150670000D01*
X131595000Y-152000000D02*
X131595000Y-150670000D01*
X131595000Y-153270000D02*
X131595000Y-158410000D01*
X131595000Y-153270000D02*
X134255000Y-153270000D01*
X131595000Y-158410000D02*
X134255000Y-158410000D01*
X134255000Y-153270000D02*
X134255000Y-158410000D01*
%TO.C,J2*%
X127595000Y-160395000D02*
X128925000Y-160395000D01*
X127595000Y-161725000D02*
X127595000Y-160395000D01*
X127595000Y-162995000D02*
X127595000Y-165595000D01*
X127595000Y-162995000D02*
X130255000Y-162995000D01*
X127595000Y-165595000D02*
X130255000Y-165595000D01*
X130255000Y-162995000D02*
X130255000Y-165595000D01*
%TO.C,R30*%
X148765000Y-109457064D02*
X148765000Y-109002936D01*
X150235000Y-109457064D02*
X150235000Y-109002936D01*
%TO.C,R6*%
X142152064Y-155265000D02*
X141697936Y-155265000D01*
X142152064Y-156735000D02*
X141697936Y-156735000D01*
%TO.C,R17*%
X111290000Y-115867936D02*
X111290000Y-116322064D01*
X112760000Y-115867936D02*
X112760000Y-116322064D01*
%TO.C,C4*%
X144690000Y-160761252D02*
X144690000Y-160238748D01*
X146160000Y-160761252D02*
X146160000Y-160238748D01*
%TO.C,U3*%
X103950000Y-123305000D02*
X102000000Y-123305000D01*
X103950000Y-123305000D02*
X105900000Y-123305000D01*
X103950000Y-128425000D02*
X102000000Y-128425000D01*
X103950000Y-128425000D02*
X105900000Y-128425000D01*
X101250000Y-123400000D02*
X101010000Y-123070000D01*
X101490000Y-123070000D01*
X101250000Y-123400000D01*
G36*
X101250000Y-123400000D02*
G01*
X101010000Y-123070000D01*
X101490000Y-123070000D01*
X101250000Y-123400000D01*
G37*
%TO.C,U1*%
X145025000Y-111575000D02*
X143075000Y-111575000D01*
X145025000Y-111575000D02*
X146975000Y-111575000D01*
X145025000Y-116695000D02*
X143075000Y-116695000D01*
X145025000Y-116695000D02*
X146975000Y-116695000D01*
X142325000Y-111670000D02*
X142085000Y-111340000D01*
X142565000Y-111340000D01*
X142325000Y-111670000D01*
G36*
X142325000Y-111670000D02*
G01*
X142085000Y-111340000D01*
X142565000Y-111340000D01*
X142325000Y-111670000D01*
G37*
%TO.C,R15*%
X115290000Y-118822064D02*
X115290000Y-118367936D01*
X116760000Y-118822064D02*
X116760000Y-118367936D01*
%TO.C,R22*%
X157697936Y-130765000D02*
X158152064Y-130765000D01*
X157697936Y-132235000D02*
X158152064Y-132235000D01*
%TO.C,RV8*%
X148515000Y-134670000D02*
X148515000Y-137330000D01*
X153655000Y-134670000D02*
X148515000Y-134670000D01*
X153655000Y-134670000D02*
X153655000Y-137330000D01*
X153655000Y-137330000D02*
X148515000Y-137330000D01*
X154925000Y-134670000D02*
X156255000Y-134670000D01*
X156255000Y-134670000D02*
X156255000Y-136000000D01*
%TO.C,R25*%
X124765000Y-117772936D02*
X124765000Y-118227064D01*
X126235000Y-117772936D02*
X126235000Y-118227064D01*
%TO.C,R27*%
X144765000Y-103957064D02*
X144765000Y-103502936D01*
X146235000Y-103957064D02*
X146235000Y-103502936D01*
%TO.C,U2*%
X135450000Y-143305000D02*
X133500000Y-143305000D01*
X135450000Y-143305000D02*
X137400000Y-143305000D01*
X135450000Y-148425000D02*
X133500000Y-148425000D01*
X135450000Y-148425000D02*
X137400000Y-148425000D01*
X132750000Y-143400000D02*
X132510000Y-143070000D01*
X132990000Y-143070000D01*
X132750000Y-143400000D01*
G36*
X132750000Y-143400000D02*
G01*
X132510000Y-143070000D01*
X132990000Y-143070000D01*
X132750000Y-143400000D01*
G37*
%TO.C,R33*%
X150272936Y-103495000D02*
X150727064Y-103495000D01*
X150272936Y-104965000D02*
X150727064Y-104965000D01*
%TO.C,C5*%
X144190000Y-152223752D02*
X144190000Y-151701248D01*
X145660000Y-152223752D02*
X145660000Y-151701248D01*
%TO.C,R14*%
X125197936Y-130765000D02*
X125652064Y-130765000D01*
X125197936Y-132235000D02*
X125652064Y-132235000D01*
%TO.C,C10*%
X152626248Y-130765000D02*
X153148752Y-130765000D01*
X152626248Y-132235000D02*
X153148752Y-132235000D01*
%TO.C,C1*%
X123690000Y-160798752D02*
X123690000Y-160276248D01*
X125160000Y-160798752D02*
X125160000Y-160276248D01*
%TO.C,R12*%
X109197936Y-130265000D02*
X109652064Y-130265000D01*
X109197936Y-131735000D02*
X109652064Y-131735000D01*
%TO.C,RV9*%
X95630000Y-115670000D02*
X95630000Y-118330000D01*
X100770000Y-115670000D02*
X95630000Y-115670000D01*
X100770000Y-115670000D02*
X100770000Y-118330000D01*
X100770000Y-118330000D02*
X95630000Y-118330000D01*
X102040000Y-115670000D02*
X103370000Y-115670000D01*
X103370000Y-115670000D02*
X103370000Y-117000000D01*
%TO.C,U13*%
X107315000Y-162000000D02*
X107315000Y-164000000D01*
X107315000Y-162000000D02*
X111175000Y-162000000D01*
X107315000Y-164000000D02*
X111175000Y-164000000D01*
%TO.C,RV6*%
X116515000Y-134170000D02*
X116515000Y-136830000D01*
X121655000Y-134170000D02*
X116515000Y-134170000D01*
X121655000Y-134170000D02*
X121655000Y-136830000D01*
X121655000Y-136830000D02*
X116515000Y-136830000D01*
X122925000Y-134170000D02*
X124255000Y-134170000D01*
X124255000Y-134170000D02*
X124255000Y-135500000D01*
%TO.C,R29*%
X155265000Y-106502936D02*
X155265000Y-106957064D01*
X156735000Y-106502936D02*
X156735000Y-106957064D01*
%TO.C,J1*%
X90670000Y-103505000D02*
X90670000Y-100905000D01*
X93330000Y-100905000D02*
X90670000Y-100905000D01*
X93330000Y-103505000D02*
X90670000Y-103505000D01*
X93330000Y-103505000D02*
X93330000Y-100905000D01*
X93330000Y-104775000D02*
X93330000Y-106105000D01*
X93330000Y-106105000D02*
X92000000Y-106105000D01*
%TO.C,Q2*%
X143940000Y-108292500D02*
X143940000Y-107642500D01*
X143940000Y-108292500D02*
X143940000Y-108942500D01*
X147060000Y-108292500D02*
X147060000Y-107642500D01*
X147060000Y-108292500D02*
X147060000Y-108942500D01*
X147340000Y-107370000D02*
X147010000Y-107130000D01*
X147340000Y-106890000D01*
X147340000Y-107370000D01*
G36*
X147340000Y-107370000D02*
G01*
X147010000Y-107130000D01*
X147340000Y-106890000D01*
X147340000Y-107370000D01*
G37*
%TO.C,R31*%
X142265000Y-99502936D02*
X142265000Y-99957064D01*
X143735000Y-99502936D02*
X143735000Y-99957064D01*
%TO.C,RV4*%
X152095000Y-149130000D02*
X153425000Y-149130000D01*
X152095000Y-150460000D02*
X152095000Y-149130000D01*
X152095000Y-151730000D02*
X152095000Y-156870000D01*
X152095000Y-151730000D02*
X154755000Y-151730000D01*
X152095000Y-156870000D02*
X154755000Y-156870000D01*
X154755000Y-151730000D02*
X154755000Y-156870000D01*
%TO.C,R9*%
X143197936Y-142765000D02*
X143652064Y-142765000D01*
X143197936Y-144235000D02*
X143652064Y-144235000D01*
%TO.C,C9*%
X136626248Y-130765000D02*
X137148752Y-130765000D01*
X136626248Y-132235000D02*
X137148752Y-132235000D01*
%TO.C,C8*%
X120701248Y-130765000D02*
X121223752Y-130765000D01*
X120701248Y-132235000D02*
X121223752Y-132235000D01*
%TO.C,C7*%
X104126248Y-130265000D02*
X104648752Y-130265000D01*
X104126248Y-131735000D02*
X104648752Y-131735000D01*
%TO.C,R18*%
X112790000Y-109322064D02*
X112790000Y-108867936D01*
X114260000Y-109322064D02*
X114260000Y-108867936D01*
%TO.C,C3*%
X122626248Y-152265000D02*
X123148752Y-152265000D01*
X122626248Y-153735000D02*
X123148752Y-153735000D01*
%TO.C,RV3*%
X136595000Y-150670000D02*
X137925000Y-150670000D01*
X136595000Y-152000000D02*
X136595000Y-150670000D01*
X136595000Y-153270000D02*
X136595000Y-158410000D01*
X136595000Y-153270000D02*
X139255000Y-153270000D01*
X136595000Y-158410000D02*
X139255000Y-158410000D01*
X139255000Y-153270000D02*
X139255000Y-158410000D01*
%TO.C,R35*%
X93772936Y-111765000D02*
X94227064Y-111765000D01*
X93772936Y-113235000D02*
X94227064Y-113235000D01*
%TO.C,D2*%
X139000000Y-97720000D02*
X139000000Y-101730000D01*
X141000000Y-97720000D02*
X139000000Y-97720000D01*
X141000000Y-97720000D02*
X141000000Y-101730000D01*
%TO.C,R36*%
X105772936Y-111765000D02*
X106227064Y-111765000D01*
X105772936Y-113235000D02*
X106227064Y-113235000D01*
%TO.C,R10*%
X148652064Y-144265000D02*
X148197936Y-144265000D01*
X148652064Y-145735000D02*
X148197936Y-145735000D01*
%TO.C,R1*%
X128697936Y-154765000D02*
X129152064Y-154765000D01*
X128697936Y-156235000D02*
X129152064Y-156235000D01*
%TO.C,R11*%
X98697936Y-130265000D02*
X99152064Y-130265000D01*
X98697936Y-131735000D02*
X99152064Y-131735000D01*
%TO.C,R4*%
X119197936Y-145265000D02*
X119652064Y-145265000D01*
X119197936Y-146735000D02*
X119652064Y-146735000D01*
%TO.C,U12*%
X96135000Y-161500000D02*
X92275000Y-161500000D01*
X96135000Y-163500000D02*
X92275000Y-163500000D01*
X96135000Y-163500000D02*
X96135000Y-161500000D01*
%TO.C,C13*%
X99701248Y-111765000D02*
X100223752Y-111765000D01*
X99701248Y-113235000D02*
X100223752Y-113235000D01*
%TO.C,R21*%
X147697936Y-130765000D02*
X148152064Y-130765000D01*
X147697936Y-132235000D02*
X148152064Y-132235000D01*
%TO.C,C29*%
X93600000Y-155315000D02*
X94225000Y-155315000D01*
X93912500Y-155002500D02*
X93912500Y-155627500D01*
X94465000Y-155304437D02*
X94465000Y-155940000D01*
X94465000Y-155304437D02*
X95529437Y-154240000D01*
X94465000Y-158695563D02*
X94465000Y-158060000D01*
X94465000Y-158695563D02*
X95529437Y-159760000D01*
X95529437Y-154240000D02*
X99985000Y-154240000D01*
X95529437Y-159760000D02*
X99985000Y-159760000D01*
X99985000Y-154240000D02*
X99985000Y-155940000D01*
X99985000Y-159760000D02*
X99985000Y-158060000D01*
%TO.C,C30*%
X103500000Y-155315000D02*
X104125000Y-155315000D01*
X103812500Y-155002500D02*
X103812500Y-155627500D01*
X104365000Y-155304437D02*
X104365000Y-155940000D01*
X104365000Y-155304437D02*
X105429437Y-154240000D01*
X104365000Y-158695563D02*
X104365000Y-158060000D01*
X104365000Y-158695563D02*
X105429437Y-159760000D01*
X105429437Y-154240000D02*
X109885000Y-154240000D01*
X105429437Y-159760000D02*
X109885000Y-159760000D01*
X109885000Y-154240000D02*
X109885000Y-155940000D01*
X109885000Y-159760000D02*
X109885000Y-158060000D01*
%TO.C,R28*%
X138272936Y-109765000D02*
X138727064Y-109765000D01*
X138272936Y-111235000D02*
X138727064Y-111235000D01*
%TO.C,R2*%
X123152064Y-156265000D02*
X122697936Y-156265000D01*
X123152064Y-157735000D02*
X122697936Y-157735000D01*
%TO.C,U7*%
X121025000Y-110035000D02*
X119075000Y-110035000D01*
X121025000Y-110035000D02*
X122975000Y-110035000D01*
X121025000Y-115155000D02*
X119075000Y-115155000D01*
X121025000Y-115155000D02*
X122975000Y-115155000D01*
X118325000Y-110130000D02*
X118085000Y-109800000D01*
X118565000Y-109800000D01*
X118325000Y-110130000D01*
G36*
X118325000Y-110130000D02*
G01*
X118085000Y-109800000D01*
X118565000Y-109800000D01*
X118325000Y-110130000D01*
G37*
%TO.C,R34*%
X151265000Y-118272936D02*
X151265000Y-118727064D01*
X152735000Y-118272936D02*
X152735000Y-118727064D01*
%TD*%
M02*
