%TF.GenerationSoftware,KiCad,Pcbnew,8.0.5*%
%TF.CreationDate,2024-11-26T13:04:48+01:00*%
%TF.ProjectId,mesa_mezclas,6d657361-5f6d-4657-9a63-6c61732e6b69,rev?*%
%TF.SameCoordinates,Original*%
%TF.FileFunction,Soldermask,Bot*%
%TF.FilePolarity,Negative*%
%FSLAX46Y46*%
G04 Gerber Fmt 4.6, Leading zero omitted, Abs format (unit mm)*
G04 Created by KiCad (PCBNEW 8.0.5) date 2024-11-26 13:04:48*
%MOMM*%
%LPD*%
G01*
G04 APERTURE LIST*
%ADD10R,1.700000X1.700000*%
%ADD11O,1.700000X1.700000*%
%ADD12C,3.200000*%
G04 APERTURE END LIST*
D10*
%TO.C,J5*%
X141925000Y-161725000D03*
D11*
X141925000Y-164265000D03*
%TD*%
D10*
%TO.C,RV5*%
X106925000Y-135500000D03*
D11*
X104385000Y-135500000D03*
X101845000Y-135500000D03*
%TD*%
D12*
%TO.C,REF\u002A\u002A*%
X159000000Y-95500000D03*
%TD*%
D10*
%TO.C,J8*%
X103925000Y-164000000D03*
D11*
X101385000Y-164000000D03*
X98845000Y-164000000D03*
%TD*%
D10*
%TO.C,J3*%
X160500000Y-101725000D03*
D11*
X160500000Y-104265000D03*
%TD*%
D10*
%TO.C,RV7*%
X138925000Y-136000000D03*
D11*
X136385000Y-136000000D03*
X133845000Y-136000000D03*
%TD*%
D10*
%TO.C,RV2*%
X117425000Y-150460000D03*
D11*
X117425000Y-153000000D03*
X117425000Y-155540000D03*
%TD*%
D10*
%TO.C,RV1*%
X132925000Y-152000000D03*
D11*
X132925000Y-154540000D03*
X132925000Y-157080000D03*
%TD*%
D10*
%TO.C,J2*%
X128925000Y-161725000D03*
D11*
X128925000Y-164265000D03*
%TD*%
D12*
%TO.C,REF\u002A\u002A*%
X91000000Y-95500000D03*
%TD*%
%TO.C,REF\u002A\u002A*%
X159500000Y-167000000D03*
%TD*%
D10*
%TO.C,RV8*%
X154925000Y-136000000D03*
D11*
X152385000Y-136000000D03*
X149845000Y-136000000D03*
%TD*%
D12*
%TO.C,REF\u002A\u002A*%
X90000000Y-167000000D03*
%TD*%
D10*
%TO.C,RV9*%
X102040000Y-117000000D03*
D11*
X99500000Y-117000000D03*
X96960000Y-117000000D03*
%TD*%
D10*
%TO.C,RV6*%
X122925000Y-135500000D03*
D11*
X120385000Y-135500000D03*
X117845000Y-135500000D03*
%TD*%
D10*
%TO.C,J1*%
X92000000Y-104775000D03*
D11*
X92000000Y-102235000D03*
%TD*%
D10*
%TO.C,RV4*%
X153425000Y-150460000D03*
D11*
X153425000Y-153000000D03*
X153425000Y-155540000D03*
%TD*%
D10*
%TO.C,RV3*%
X137925000Y-152000000D03*
D11*
X137925000Y-154540000D03*
X137925000Y-157080000D03*
%TD*%
M02*
